<?xml version="1.0" encoding="UTF-8" standalone="no"?>
<!DOCTYPE svg PUBLIC "-//W3C//DTD SVG 1.1//EN"
 "http://www.w3.org/Graphics/SVG/1.1/DTD/svg11.dtd">
<!-- Generated by graphviz version 12.1.2 (20240928.0832)
 -->
<!-- Title: public.users Pages: 1 -->
<svg width="4901pt" height="664pt"
 viewBox="0.00 0.00 4900.81 663.60" xmlns="http://www.w3.org/2000/svg" xmlns:xlink="http://www.w3.org/1999/xlink">
<g id="graph0" class="graph" transform="scale(1 1) rotate(0) translate(4 659.6)">
<title>public.users</title>
<polygon fill="white" stroke="none" points="-4,4 -4,-659.6 4896.81,-659.6 4896.81,4 -4,4"/>
<!-- public.users -->
<g id="node1" class="node">
<title>public.users</title>
<polygon fill="#efefef" stroke="none" points="3074.03,-138.6 3074.03,-174.2 3354.94,-174.2 3354.94,-138.6 3074.03,-138.6"/>
<polygon fill="none" stroke="black" points="3074.03,-138.6 3074.03,-174.2 3354.94,-174.2 3354.94,-138.6 3074.03,-138.6"/>
<text text-anchor="start" x="3109" y="-152" font-family="Arial Bold" font-size="18.00">public.users</text>
<text text-anchor="start" x="3195.48" y="-152" font-family="Arial" font-size="14.00">    </text>
<text text-anchor="start" x="3226.6" y="-152" font-family="Arial" font-size="14.00" fill="#666666">[BASE TABLE]</text>
<polygon fill="none" stroke="black" points="3074.03,-107.8 3074.03,-138.6 3354.94,-138.6 3354.94,-107.8 3074.03,-107.8"/>
<text text-anchor="start" x="3081.03" y="-120" font-family="Arial" font-size="14.00">id </text>
<text text-anchor="start" x="3095.82" y="-120" font-family="Arial" font-size="14.00" fill="#666666">[uuid]</text>
<polygon fill="none" stroke="black" points="3074.03,-77 3074.03,-107.8 3354.94,-107.8 3354.94,-77 3074.03,-77"/>
<text text-anchor="start" x="3081.03" y="-89.2" font-family="Arial" font-size="14.00">created_at </text>
<text text-anchor="start" x="3151.08" y="-89.2" font-family="Arial" font-size="14.00" fill="#666666">[timestamp with time zone]</text>
<polygon fill="none" stroke="black" points="3074.03,-46.2 3074.03,-77 3354.94,-77 3354.94,-46.2 3074.03,-46.2"/>
<text text-anchor="start" x="3081.03" y="-58.4" font-family="Arial" font-size="14.00">last_connection </text>
<text text-anchor="start" x="3182.21" y="-58.4" font-family="Arial" font-size="14.00" fill="#666666">[timestamp with time zone]</text>
<polygon fill="none" stroke="black" stroke-width="3" points="3072.53,-44.7 3072.53,-175.7 3356.44,-175.7 3356.44,-44.7 3072.53,-44.7"/>
</g>
<!-- public.user_data -->
<g id="node2" class="node">
<title>public.user_data</title>
<polygon fill="#efefef" stroke="none" points="90.01,-499.8 90.01,-535.4 346.96,-535.4 346.96,-499.8 90.01,-499.8"/>
<polygon fill="none" stroke="black" points="90.01,-499.8 90.01,-535.4 346.96,-535.4 346.96,-499.8 90.01,-499.8"/>
<text text-anchor="start" x="97.01" y="-513.2" font-family="Arial Bold" font-size="18.00">public.user_data</text>
<text text-anchor="start" x="215.47" y="-513.2" font-family="Arial" font-size="14.00">    </text>
<text text-anchor="start" x="246.59" y="-513.2" font-family="Arial" font-size="14.00" fill="#666666">[BASE TABLE]</text>
<polygon fill="none" stroke="black" points="90.01,-469 90.01,-499.8 346.96,-499.8 346.96,-469 90.01,-469"/>
<text text-anchor="start" x="97.01" y="-481.2" font-family="Arial" font-size="14.00">user_id </text>
<text text-anchor="start" x="146.82" y="-481.2" font-family="Arial" font-size="14.00" fill="#666666">[uuid]</text>
<polygon fill="none" stroke="black" points="90.01,-438.2 90.01,-469 346.96,-469 346.96,-438.2 90.01,-438.2"/>
<text text-anchor="start" x="97.01" y="-450.4" font-family="Arial" font-size="14.00">latitude </text>
<text text-anchor="start" x="146.05" y="-450.4" font-family="Arial" font-size="14.00" fill="#666666">[numeric(10,8)]</text>
<polygon fill="none" stroke="black" points="90.01,-407.4 90.01,-438.2 346.96,-438.2 346.96,-407.4 90.01,-407.4"/>
<text text-anchor="start" x="97.01" y="-419.6" font-family="Arial" font-size="14.00">longitude </text>
<text text-anchor="start" x="157.73" y="-419.6" font-family="Arial" font-size="14.00" fill="#666666">[numeric(11,8)]</text>
<polygon fill="none" stroke="black" points="90.01,-376.6 90.01,-407.4 346.96,-407.4 346.96,-376.6 90.01,-376.6"/>
<text text-anchor="start" x="97.01" y="-388.8" font-family="Arial" font-size="14.00">internal_score </text>
<text text-anchor="start" x="188.84" y="-388.8" font-family="Arial" font-size="14.00" fill="#666666">[integer]</text>
</g>
<!-- public.user_data&#45;&gt;public.users -->
<g id="edge1" class="edge">
<title>public.user_data:user_id&#45;&gt;public.users:id</title>
<path fill="none" stroke="black" d="M358.32,-483.78C442.59,-472.88 322.84,-320.84 399.49,-256.4 513.31,-160.69 2924.32,-123.2 3073.03,-123.2"/>
<polygon fill="black" stroke="black" points="358.28,-483.78 348.03,-479.89 352.95,-484.1 348.63,-484.36 348.63,-484.36 348.63,-484.36 352.95,-484.1 348.56,-488.87 358.28,-483.78"/>
<text text-anchor="start" x="7" y="-494.4" font-family="Arial" font-size="10.00">FOREIGN KEY (user_id) REFERENCES users(id) ON DELETE CASCADE</text>
</g>
<!-- public.auths -->
<g id="node3" class="node">
<title>public.auths</title>
<polygon fill="#efefef" stroke="none" points="451.5,-499.8 451.5,-535.4 677.47,-535.4 677.47,-499.8 451.5,-499.8"/>
<polygon fill="none" stroke="black" points="451.5,-499.8 451.5,-535.4 677.47,-535.4 677.47,-499.8 451.5,-499.8"/>
<text text-anchor="start" x="458.5" y="-513.2" font-family="Arial Bold" font-size="18.00">public.auths</text>
<text text-anchor="start" x="545.98" y="-513.2" font-family="Arial" font-size="14.00">    </text>
<text text-anchor="start" x="577.1" y="-513.2" font-family="Arial" font-size="14.00" fill="#666666">[BASE TABLE]</text>
<polygon fill="none" stroke="black" points="451.5,-469 451.5,-499.8 677.47,-499.8 677.47,-469 451.5,-469"/>
<text text-anchor="start" x="458.5" y="-481.2" font-family="Arial" font-size="14.00">user_id </text>
<text text-anchor="start" x="508.3" y="-481.2" font-family="Arial" font-size="14.00" fill="#666666">[uuid]</text>
<polygon fill="none" stroke="black" points="451.5,-438.2 451.5,-469 677.47,-469 677.47,-438.2 451.5,-438.2"/>
<text text-anchor="start" x="458.5" y="-450.4" font-family="Arial" font-size="14.00">provider </text>
<text text-anchor="start" x="512.97" y="-450.4" font-family="Arial" font-size="14.00" fill="#666666">[auth_provider_enum]</text>
<polygon fill="none" stroke="black" points="451.5,-407.4 451.5,-438.2 677.47,-438.2 677.47,-407.4 451.5,-407.4"/>
<text text-anchor="start" x="458.5" y="-419.6" font-family="Arial" font-size="14.00">provider_uid </text>
<text text-anchor="start" x="539.44" y="-419.6" font-family="Arial" font-size="14.00" fill="#666666">[varchar(255)]</text>
<polygon fill="none" stroke="black" points="451.5,-376.6 451.5,-407.4 677.47,-407.4 677.47,-376.6 451.5,-376.6"/>
<text text-anchor="start" x="458.5" y="-388.8" font-family="Arial" font-size="14.00">password_hash </text>
<text text-anchor="start" x="560.45" y="-388.8" font-family="Arial" font-size="14.00" fill="#666666">[varchar(255)]</text>
</g>
<!-- public.auths&#45;&gt;public.users -->
<g id="edge2" class="edge">
<title>public.auths:user_id&#45;&gt;public.users:id</title>
<path fill="none" stroke="black" d="M688.83,-483.78C773.05,-472.9 653.18,-321.16 729.49,-256.4 828.91,-172.02 2942.63,-123.2 3073.03,-123.2"/>
<polygon fill="black" stroke="black" points="688.79,-483.78 678.54,-479.89 683.46,-484.1 679.14,-484.36 679.14,-484.36 679.14,-484.36 683.46,-484.1 679.08,-488.87 688.79,-483.78"/>
<text text-anchor="start" x="511.49" y="-468.4" font-family="Arial" font-size="10.00">FOREIGN KEY (user_id) REFERENCES users(id) ON DELETE CASCADE</text>
</g>
<!-- public.verification_tokens -->
<g id="node4" class="node">
<title>public.verification_tokens</title>
<polygon fill="#efefef" stroke="none" points="782.02,-484.4 782.02,-520 1108.95,-520 1108.95,-484.4 782.02,-484.4"/>
<polygon fill="none" stroke="black" points="782.02,-484.4 782.02,-520 1108.95,-520 1108.95,-484.4 782.02,-484.4"/>
<text text-anchor="start" x="789.02" y="-497.8" font-family="Arial Bold" font-size="18.00">public.verification_tokens</text>
<text text-anchor="start" x="977.46" y="-497.8" font-family="Arial" font-size="14.00">    </text>
<text text-anchor="start" x="1008.58" y="-497.8" font-family="Arial" font-size="14.00" fill="#666666">[BASE TABLE]</text>
<polygon fill="none" stroke="black" points="782.02,-453.6 782.02,-484.4 1108.95,-484.4 1108.95,-453.6 782.02,-453.6"/>
<text text-anchor="start" x="789.02" y="-465.8" font-family="Arial" font-size="14.00">token </text>
<text text-anchor="start" x="827.16" y="-465.8" font-family="Arial" font-size="14.00" fill="#666666">[varchar(64)]</text>
<polygon fill="none" stroke="black" points="782.02,-422.8 782.02,-453.6 1108.95,-453.6 1108.95,-422.8 782.02,-422.8"/>
<text text-anchor="start" x="789.02" y="-435" font-family="Arial" font-size="14.00">user_id </text>
<text text-anchor="start" x="838.82" y="-435" font-family="Arial" font-size="14.00" fill="#666666">[uuid]</text>
<polygon fill="none" stroke="black" points="782.02,-392 782.02,-422.8 1108.95,-422.8 1108.95,-392 782.02,-392"/>
<text text-anchor="start" x="789.02" y="-404.2" font-family="Arial" font-size="14.00">expires_at </text>
<text text-anchor="start" x="857.5" y="-404.2" font-family="Arial" font-size="14.00" fill="#666666">[timestamp with time zone]</text>
</g>
<!-- public.verification_tokens&#45;&gt;public.users -->
<g id="edge3" class="edge">
<title>public.verification_tokens:user_id&#45;&gt;public.users:id</title>
<path fill="none" stroke="black" d="M1120.2,-437.44C1185.49,-426.78 1099.22,-306.97 1161.49,-256.4 1244.12,-189.29 2966.58,-123.2 3073.03,-123.2"/>
<polygon fill="black" stroke="black" points="1120.26,-437.43 1109.95,-433.69 1114.94,-437.83 1110.62,-438.15 1110.62,-438.15 1110.62,-438.15 1114.94,-437.83 1110.62,-442.66 1120.26,-437.43"/>
<text text-anchor="start" x="1116.95" y="-448.2" font-family="Arial" font-size="10.00">FOREIGN KEY (user_id) REFERENCES users(id) ON DELETE CASCADE</text>
</g>
<!-- public.password_resets -->
<g id="node5" class="node">
<title>public.password_resets</title>
<polygon fill="#efefef" stroke="none" points="1213.51,-484.4 1213.51,-520 1519.46,-520 1519.46,-484.4 1213.51,-484.4"/>
<polygon fill="none" stroke="black" points="1213.51,-484.4 1213.51,-520 1519.46,-520 1519.46,-484.4 1213.51,-484.4"/>
<text text-anchor="start" x="1220.51" y="-497.8" font-family="Arial Bold" font-size="18.00">public.password_resets</text>
<text text-anchor="start" x="1387.97" y="-497.8" font-family="Arial" font-size="14.00">    </text>
<text text-anchor="start" x="1419.09" y="-497.8" font-family="Arial" font-size="14.00" fill="#666666">[BASE TABLE]</text>
<polygon fill="none" stroke="black" points="1213.51,-453.6 1213.51,-484.4 1519.46,-484.4 1519.46,-453.6 1213.51,-453.6"/>
<text text-anchor="start" x="1220.51" y="-465.8" font-family="Arial" font-size="14.00">user_id </text>
<text text-anchor="start" x="1270.31" y="-465.8" font-family="Arial" font-size="14.00" fill="#666666">[uuid]</text>
<polygon fill="none" stroke="black" points="1213.51,-422.8 1213.51,-453.6 1519.46,-453.6 1519.46,-422.8 1213.51,-422.8"/>
<text text-anchor="start" x="1220.51" y="-435" font-family="Arial" font-size="14.00">token </text>
<text text-anchor="start" x="1258.65" y="-435" font-family="Arial" font-size="14.00" fill="#666666">[varchar(64)]</text>
<polygon fill="none" stroke="black" points="1213.51,-392 1213.51,-422.8 1519.46,-422.8 1519.46,-392 1213.51,-392"/>
<text text-anchor="start" x="1220.51" y="-404.2" font-family="Arial" font-size="14.00">expires_at </text>
<text text-anchor="start" x="1288.99" y="-404.2" font-family="Arial" font-size="14.00" fill="#666666">[timestamp with time zone]</text>
</g>
<!-- public.password_resets&#45;&gt;public.users -->
<g id="edge4" class="edge">
<title>public.password_resets:user_id&#45;&gt;public.users:id</title>
<path fill="none" stroke="black" d="M1530.88,-468.33C1608.58,-457.48 1500.79,-317.4 1571.49,-256.4 1698.3,-146.98 2905.54,-123.2 3073.03,-123.2"/>
<polygon fill="black" stroke="black" points="1530.78,-468.34 1520.51,-464.49 1525.45,-468.68 1521.13,-468.96 1521.13,-468.96 1521.13,-468.96 1525.45,-468.68 1521.09,-473.47 1530.78,-468.34"/>
<text text-anchor="start" x="1179.5" y="-479" font-family="Arial" font-size="10.00">FOREIGN KEY (user_id) REFERENCES users(id) ON DELETE CASCADE</text>
</g>
<!-- public.user_profiles -->
<g id="node6" class="node">
<title>public.user_profiles</title>
<polygon fill="#efefef" stroke="none" points="1623.51,-576.8 1623.51,-612.4 1905.46,-612.4 1905.46,-576.8 1623.51,-576.8"/>
<polygon fill="none" stroke="black" points="1623.51,-576.8 1623.51,-612.4 1905.46,-612.4 1905.46,-576.8 1623.51,-576.8"/>
<text text-anchor="start" x="1630.51" y="-590.2" font-family="Arial Bold" font-size="18.00">public.user_profiles</text>
<text text-anchor="start" x="1773.97" y="-590.2" font-family="Arial" font-size="14.00">    </text>
<text text-anchor="start" x="1805.09" y="-590.2" font-family="Arial" font-size="14.00" fill="#666666">[BASE TABLE]</text>
<polygon fill="none" stroke="black" points="1623.51,-546 1623.51,-576.8 1905.46,-576.8 1905.46,-546 1623.51,-546"/>
<text text-anchor="start" x="1630.51" y="-558.2" font-family="Arial" font-size="14.00">user_id </text>
<text text-anchor="start" x="1680.32" y="-558.2" font-family="Arial" font-size="14.00" fill="#666666">[uuid]</text>
<polygon fill="none" stroke="black" points="1623.51,-515.2 1623.51,-546 1905.46,-546 1905.46,-515.2 1623.51,-515.2"/>
<text text-anchor="start" x="1630.51" y="-527.4" font-family="Arial" font-size="14.00">first_name </text>
<text text-anchor="start" x="1699.76" y="-527.4" font-family="Arial" font-size="14.00" fill="#666666">[varchar(50)]</text>
<polygon fill="none" stroke="black" points="1623.51,-484.4 1623.51,-515.2 1905.46,-515.2 1905.46,-484.4 1623.51,-484.4"/>
<text text-anchor="start" x="1630.51" y="-496.6" font-family="Arial" font-size="14.00">last_name </text>
<text text-anchor="start" x="1698.99" y="-496.6" font-family="Arial" font-size="14.00" fill="#666666">[varchar(50)]</text>
<polygon fill="none" stroke="black" points="1623.51,-453.6 1623.51,-484.4 1905.46,-484.4 1905.46,-453.6 1623.51,-453.6"/>
<text text-anchor="start" x="1630.51" y="-465.8" font-family="Arial" font-size="14.00">username </text>
<text text-anchor="start" x="1696.65" y="-465.8" font-family="Arial" font-size="14.00" fill="#666666">[varchar(50)]</text>
<polygon fill="none" stroke="black" points="1623.51,-422.8 1623.51,-453.6 1905.46,-453.6 1905.46,-422.8 1623.51,-422.8"/>
<text text-anchor="start" x="1630.51" y="-435" font-family="Arial" font-size="14.00">gender </text>
<text text-anchor="start" x="1677.99" y="-435" font-family="Arial" font-size="14.00" fill="#666666">[gender_enum]</text>
<polygon fill="none" stroke="black" points="1623.51,-392 1623.51,-422.8 1905.46,-422.8 1905.46,-392 1623.51,-392"/>
<text text-anchor="start" x="1630.51" y="-404.2" font-family="Arial" font-size="14.00">sexual_preference </text>
<text text-anchor="start" x="1749.58" y="-404.2" font-family="Arial" font-size="14.00" fill="#666666">[preference_enum]</text>
<polygon fill="none" stroke="black" points="1623.51,-361.2 1623.51,-392 1905.46,-392 1905.46,-361.2 1623.51,-361.2"/>
<text text-anchor="start" x="1630.51" y="-373.4" font-family="Arial" font-size="14.00">biography </text>
<text text-anchor="start" x="1695.89" y="-373.4" font-family="Arial" font-size="14.00" fill="#666666">[text]</text>
<polygon fill="none" stroke="black" points="1623.51,-330.4 1623.51,-361.2 1905.46,-361.2 1905.46,-330.4 1623.51,-330.4"/>
<text text-anchor="start" x="1630.51" y="-342.6" font-family="Arial" font-size="14.00">fame_rating </text>
<text text-anchor="start" x="1708.33" y="-342.6" font-family="Arial" font-size="14.00" fill="#666666">[integer]</text>
<polygon fill="none" stroke="black" points="1623.51,-299.6 1623.51,-330.4 1905.46,-330.4 1905.46,-299.6 1623.51,-299.6"/>
<text text-anchor="start" x="1630.51" y="-311.8" font-family="Arial" font-size="14.00">location_name </text>
<text text-anchor="start" x="1725.46" y="-311.8" font-family="Arial" font-size="14.00" fill="#666666">[varchar(255)]</text>
</g>
<!-- public.user_profiles&#45;&gt;public.users -->
<g id="edge5" class="edge">
<title>public.user_profiles:user_id&#45;&gt;public.users:id</title>
<path fill="none" stroke="black" d="M1916.56,-559.17C1968.16,-533.86 1910.49,-301.24 1957.49,-256.4 2047.8,-170.23 2948.2,-123.2 3073.03,-123.2"/>
<polygon fill="black" stroke="black" points="1916.55,-559.17 1905.82,-556.93 1911.34,-560.32 1907.12,-561.26 1907.12,-561.26 1907.12,-561.26 1911.34,-560.32 1907.76,-565.72 1916.55,-559.17"/>
<text text-anchor="start" x="1913.46" y="-571.4" font-family="Arial" font-size="10.00">FOREIGN KEY (user_id) REFERENCES users(id) ON DELETE CASCADE</text>
</g>
<!-- public.user_tags -->
<g id="node7" class="node">
<title>public.user_tags</title>
<polygon fill="#efefef" stroke="none" points="2009.5,-469 2009.5,-504.6 2265.47,-504.6 2265.47,-469 2009.5,-469"/>
<polygon fill="none" stroke="black" points="2009.5,-469 2009.5,-504.6 2265.47,-504.6 2265.47,-469 2009.5,-469"/>
<text text-anchor="start" x="2016.5" y="-482.4" font-family="Arial Bold" font-size="18.00">public.user_tags</text>
<text text-anchor="start" x="2133.98" y="-482.4" font-family="Arial" font-size="14.00">    </text>
<text text-anchor="start" x="2165.1" y="-482.4" font-family="Arial" font-size="14.00" fill="#666666">[BASE TABLE]</text>
<polygon fill="none" stroke="black" points="2009.5,-438.2 2009.5,-469 2265.47,-469 2265.47,-438.2 2009.5,-438.2"/>
<text text-anchor="start" x="2016.5" y="-450.4" font-family="Arial" font-size="14.00">user_id </text>
<text text-anchor="start" x="2066.31" y="-450.4" font-family="Arial" font-size="14.00" fill="#666666">[uuid]</text>
<polygon fill="none" stroke="black" points="2009.5,-407.4 2009.5,-438.2 2265.47,-438.2 2265.47,-407.4 2009.5,-407.4"/>
<text text-anchor="start" x="2016.5" y="-419.6" font-family="Arial" font-size="14.00">tag_id </text>
<text text-anchor="start" x="2058.54" y="-419.6" font-family="Arial" font-size="14.00" fill="#666666">[integer]</text>
</g>
<!-- public.user_tags&#45;&gt;public.users -->
<g id="edge6" class="edge">
<title>public.user_tags:user_id&#45;&gt;public.users:id</title>
<path fill="none" stroke="black" d="M2276.64,-452.93C2348.59,-442.59 2253.73,-315.33 2317.49,-256.4 2442.69,-140.68 2902.55,-123.2 3073.03,-123.2"/>
<polygon fill="black" stroke="black" points="2276.78,-452.92 2266.51,-449.09 2271.46,-453.27 2267.14,-453.56 2267.14,-453.56 2267.14,-453.56 2271.46,-453.27 2267.1,-458.07 2276.78,-452.92"/>
<text text-anchor="start" x="1925.51" y="-463.6" font-family="Arial" font-size="10.00">FOREIGN KEY (user_id) REFERENCES users(id) ON DELETE CASCADE</text>
</g>
<!-- public.pictures -->
<g id="node8" class="node">
<title>public.pictures</title>
<polygon fill="#efefef" stroke="none" points="2369.6,-515.2 2369.6,-550.8 2619.37,-550.8 2619.37,-515.2 2369.6,-515.2"/>
<polygon fill="none" stroke="black" points="2369.6,-515.2 2369.6,-550.8 2619.37,-550.8 2619.37,-515.2 2369.6,-515.2"/>
<text text-anchor="start" x="2379.01" y="-528.6" font-family="Arial Bold" font-size="18.00">public.pictures</text>
<text text-anchor="start" x="2485.48" y="-528.6" font-family="Arial" font-size="14.00">    </text>
<text text-anchor="start" x="2516.59" y="-528.6" font-family="Arial" font-size="14.00" fill="#666666">[BASE TABLE]</text>
<polygon fill="none" stroke="black" points="2369.6,-484.4 2369.6,-515.2 2619.37,-515.2 2619.37,-484.4 2369.6,-484.4"/>
<text text-anchor="start" x="2376.6" y="-496.6" font-family="Arial" font-size="14.00">id </text>
<text text-anchor="start" x="2391.39" y="-496.6" font-family="Arial" font-size="14.00" fill="#666666">[integer]</text>
<polygon fill="none" stroke="black" points="2369.6,-453.6 2369.6,-484.4 2619.37,-484.4 2619.37,-453.6 2369.6,-453.6"/>
<text text-anchor="start" x="2376.6" y="-465.8" font-family="Arial" font-size="14.00">user_id </text>
<text text-anchor="start" x="2426.41" y="-465.8" font-family="Arial" font-size="14.00" fill="#666666">[uuid]</text>
<polygon fill="none" stroke="black" points="2369.6,-422.8 2369.6,-453.6 2619.37,-453.6 2619.37,-422.8 2369.6,-422.8"/>
<text text-anchor="start" x="2376.6" y="-435" font-family="Arial" font-size="14.00">url </text>
<text text-anchor="start" x="2396.05" y="-435" font-family="Arial" font-size="14.00" fill="#666666">[varchar(255)]</text>
<polygon fill="none" stroke="black" points="2369.6,-392 2369.6,-422.8 2619.37,-422.8 2619.37,-392 2369.6,-392"/>
<text text-anchor="start" x="2376.6" y="-404.2" font-family="Arial" font-size="14.00">is_profile_pic </text>
<text text-anchor="start" x="2462.2" y="-404.2" font-family="Arial" font-size="14.00" fill="#666666">[boolean]</text>
<polygon fill="none" stroke="black" points="2369.6,-361.2 2369.6,-392 2619.37,-392 2619.37,-361.2 2369.6,-361.2"/>
<text text-anchor="start" x="2376.6" y="-373.4" font-family="Arial" font-size="14.00">created_at </text>
<text text-anchor="start" x="2446.65" y="-373.4" font-family="Arial" font-size="14.00" fill="#666666">[timestamp with time zone]</text>
</g>
<!-- public.pictures&#45;&gt;public.users -->
<g id="edge7" class="edge">
<title>public.pictures:user_id&#45;&gt;public.users:id</title>
<path fill="none" stroke="black" d="M2630.35,-468.43C2709.5,-458.63 2608.17,-325.3 2671.49,-256.4 2735.1,-187.18 2979.02,-123.2 3073.03,-123.2"/>
<polygon fill="black" stroke="black" points="2630.69,-468.41 2620.45,-464.49 2625.36,-468.71 2621.04,-468.96 2621.04,-468.96 2621.04,-468.96 2625.36,-468.71 2620.96,-473.47 2630.69,-468.41"/>
<text text-anchor="start" x="2453.39" y="-453" font-family="Arial" font-size="10.00">FOREIGN KEY (user_id) REFERENCES users(id) ON DELETE CASCADE</text>
</g>
<!-- public.likes -->
<g id="node9" class="node">
<title>public.likes</title>
<polygon fill="#efefef" stroke="none" points="2723.6,-484.4 2723.6,-520 2973.37,-520 2973.37,-484.4 2723.6,-484.4"/>
<polygon fill="none" stroke="black" points="2723.6,-484.4 2723.6,-520 2973.37,-520 2973.37,-484.4 2723.6,-484.4"/>
<text text-anchor="start" x="2744.5" y="-497.8" font-family="Arial Bold" font-size="18.00">public.likes</text>
<text text-anchor="start" x="2827.98" y="-497.8" font-family="Arial" font-size="14.00">    </text>
<text text-anchor="start" x="2859.1" y="-497.8" font-family="Arial" font-size="14.00" fill="#666666">[BASE TABLE]</text>
<polygon fill="none" stroke="black" points="2723.6,-453.6 2723.6,-484.4 2973.37,-484.4 2973.37,-453.6 2723.6,-453.6"/>
<text text-anchor="start" x="2730.6" y="-465.8" font-family="Arial" font-size="14.00">liker_id </text>
<text text-anchor="start" x="2778.84" y="-465.8" font-family="Arial" font-size="14.00" fill="#666666">[uuid]</text>
<polygon fill="none" stroke="black" points="2723.6,-422.8 2723.6,-453.6 2973.37,-453.6 2973.37,-422.8 2723.6,-422.8"/>
<text text-anchor="start" x="2730.6" y="-435" font-family="Arial" font-size="14.00">liked_id </text>
<text text-anchor="start" x="2781.97" y="-435" font-family="Arial" font-size="14.00" fill="#666666">[uuid]</text>
<polygon fill="none" stroke="black" points="2723.6,-392 2723.6,-422.8 2973.37,-422.8 2973.37,-392 2723.6,-392"/>
<text text-anchor="start" x="2730.6" y="-404.2" font-family="Arial" font-size="14.00">created_at </text>
<text text-anchor="start" x="2800.65" y="-404.2" font-family="Arial" font-size="14.00" fill="#666666">[timestamp with time zone]</text>
</g>
<!-- public.likes&#45;&gt;public.users -->
<g id="edge8" class="edge">
<title>public.likes:liked_id&#45;&gt;public.users:id</title>
<path fill="none" stroke="black" d="M2984.42,-437.65C3053.45,-429.49 3001.1,-332.93 3025.49,-256.4 3044.57,-196.51 3010.18,-123.2 3073.03,-123.2"/>
<polygon fill="black" stroke="black" points="2984.69,-437.63 2974.46,-433.69 2979.36,-437.92 2975.04,-438.16 2975.04,-438.16 2975.04,-438.16 2979.36,-437.92 2974.95,-442.67 2984.69,-437.63"/>
<text text-anchor="start" x="2981.37" y="-448.2" font-family="Arial" font-size="10.00">FOREIGN KEY (liked_id) REFERENCES users(id) ON DELETE CASCADE</text>
</g>
<!-- public.likes&#45;&gt;public.users -->
<g id="edge9" class="edge">
<title>public.likes:liker_id&#45;&gt;public.users:id</title>
<path fill="none" stroke="black" d="M2984.23,-466.37C3021.42,-445.01 3012.65,-299.51 3025.49,-256.4 3043.42,-196.16 3010.18,-123.2 3073.03,-123.2"/>
<polygon fill="black" stroke="black" points="2984.36,-466.34 2973.54,-464.57 2979.2,-467.71 2975.02,-468.83 2975.02,-468.83 2975.02,-468.83 2979.2,-467.71 2975.85,-473.26 2984.36,-466.34"/>
<text text-anchor="start" x="2981.37" y="-479" font-family="Arial" font-size="10.00">FOREIGN KEY (liker_id) REFERENCES users(id) ON DELETE CASCADE</text>
</g>
<!-- public.connections -->
<g id="node10" class="node">
<title>public.connections</title>
<polygon fill="#efefef" stroke="none" points="3077.51,-469 3077.51,-504.6 3351.46,-504.6 3351.46,-469 3077.51,-469"/>
<polygon fill="none" stroke="black" points="3077.51,-469 3077.51,-504.6 3351.46,-504.6 3351.46,-469 3077.51,-469"/>
<text text-anchor="start" x="3084.51" y="-482.4" font-family="Arial Bold" font-size="18.00">public.connections</text>
<text text-anchor="start" x="3219.97" y="-482.4" font-family="Arial" font-size="14.00">    </text>
<text text-anchor="start" x="3251.09" y="-482.4" font-family="Arial" font-size="14.00" fill="#666666">[BASE TABLE]</text>
<polygon fill="none" stroke="black" points="3077.51,-438.2 3077.51,-469 3351.46,-469 3351.46,-438.2 3077.51,-438.2"/>
<text text-anchor="start" x="3084.51" y="-450.4" font-family="Arial" font-size="14.00">user1_id </text>
<text text-anchor="start" x="3142.1" y="-450.4" font-family="Arial" font-size="14.00" fill="#666666">[uuid]</text>
<polygon fill="none" stroke="black" points="3077.51,-407.4 3077.51,-438.2 3351.46,-438.2 3351.46,-407.4 3077.51,-407.4"/>
<text text-anchor="start" x="3084.51" y="-419.6" font-family="Arial" font-size="14.00">user2_id </text>
<text text-anchor="start" x="3142.1" y="-419.6" font-family="Arial" font-size="14.00" fill="#666666">[uuid]</text>
</g>
<!-- public.connections&#45;&gt;public.users -->
<g id="edge10" class="edge">
<title>public.connections:user1_id&#45;&gt;public.users:id</title>
<path fill="none" stroke="black" d="M3360.64,-447.58C3389.48,-402.8 3389.71,-123.2 3355.94,-123.2"/>
<polygon fill="black" stroke="black" points="3360.79,-447.47 3350.07,-449.78 3356.49,-450.64 3353,-453.2 3353,-453.2 3353,-453.2 3356.49,-450.64 3355.4,-457.03 3360.79,-447.47"/>
<text text-anchor="start" x="3182.7" y="-437.6" font-family="Arial" font-size="10.00">FOREIGN KEY (user1_id) REFERENCES users(id) ON DELETE CASCADE</text>
</g>
<!-- public.connections&#45;&gt;public.users -->
<g id="edge11" class="edge">
<title>public.connections:user2_id&#45;&gt;public.users:id</title>
<path fill="none" stroke="black" d="M3214.85,-396.19C3221.72,-303.75 3322.66,-315.1 3354.94,-220.4 3368.88,-179.51 3399.14,-123.2 3355.94,-123.2"/>
<polygon fill="black" stroke="black" points="3214.86,-396.07 3210,-405.9 3214.67,-401.4 3214.51,-405.73 3214.51,-405.73 3214.51,-405.73 3214.67,-401.4 3218.99,-406.23 3214.86,-396.07"/>
<text text-anchor="start" x="3044.73" y="-390.4" font-family="Arial" font-size="10.00">FOREIGN KEY (user2_id) REFERENCES users(id) ON DELETE CASCADE</text>
</g>
<!-- public.views -->
<g id="node11" class="node">
<title>public.views</title>
<polygon fill="#efefef" stroke="none" points="3455.56,-484.4 3455.56,-520 3701.41,-520 3701.41,-484.4 3455.56,-484.4"/>
<polygon fill="none" stroke="black" points="3455.56,-484.4 3455.56,-520 3701.41,-520 3701.41,-484.4 3455.56,-484.4"/>
<text text-anchor="start" x="3470.5" y="-497.8" font-family="Arial Bold" font-size="18.00">public.views</text>
<text text-anchor="start" x="3561.98" y="-497.8" font-family="Arial" font-size="14.00">    </text>
<text text-anchor="start" x="3593.1" y="-497.8" font-family="Arial" font-size="14.00" fill="#666666">[BASE TABLE]</text>
<polygon fill="none" stroke="black" points="3455.56,-453.6 3455.56,-484.4 3701.41,-484.4 3701.41,-453.6 3455.56,-453.6"/>
<text text-anchor="start" x="3462.56" y="-465.8" font-family="Arial" font-size="14.00">viewer_id </text>
<text text-anchor="start" x="3525.59" y="-465.8" font-family="Arial" font-size="14.00" fill="#666666">[uuid]</text>
<polygon fill="none" stroke="black" points="3455.56,-422.8 3455.56,-453.6 3701.41,-453.6 3701.41,-422.8 3455.56,-422.8"/>
<text text-anchor="start" x="3462.56" y="-435" font-family="Arial" font-size="14.00">viewed_id </text>
<text text-anchor="start" x="3528.71" y="-435" font-family="Arial" font-size="14.00" fill="#666666">[uuid]</text>
<polygon fill="none" stroke="black" points="3455.56,-392 3455.56,-422.8 3701.41,-422.8 3701.41,-392 3455.56,-392"/>
<text text-anchor="start" x="3462.56" y="-404.2" font-family="Arial" font-size="14.00">view_time </text>
<text text-anchor="start" x="3528.69" y="-404.2" font-family="Arial" font-size="14.00" fill="#666666">[timestamp with time zone]</text>
</g>
<!-- public.views&#45;&gt;public.users -->
<g id="edge12" class="edge">
<title>public.views:viewed_id&#45;&gt;public.users:id</title>
<path fill="none" stroke="black" d="M3444.51,-437.65C3375.49,-429.49 3427.86,-332.93 3403.49,-256.4 3384.41,-196.51 3418.8,-123.2 3355.94,-123.2"/>
<polygon fill="black" stroke="black" points="3444.24,-437.63 3453.98,-442.67 3449.57,-437.92 3453.89,-438.16 3453.89,-438.16 3453.89,-438.16 3449.57,-437.92 3454.47,-433.69 3444.24,-437.63"/>
<text text-anchor="start" x="3191.83" y="-422.2" font-family="Arial" font-size="10.00">FOREIGN KEY (viewed_id) REFERENCES users(id) ON DELETE CASCADE</text>
</g>
<!-- public.views&#45;&gt;public.users -->
<g id="edge13" class="edge">
<title>public.views:viewer_id&#45;&gt;public.users:id</title>
<path fill="none" stroke="black" d="M3444.7,-466.37C3407.52,-445.01 3416.32,-299.51 3403.49,-256.4 3385.55,-196.15 3418.8,-123.2 3355.94,-123.2"/>
<polygon fill="black" stroke="black" points="3444.57,-466.34 3453.08,-473.26 3449.73,-467.71 3453.91,-468.83 3453.91,-468.83 3453.91,-468.83 3449.73,-467.71 3455.39,-464.57 3444.57,-466.34"/>
<text text-anchor="start" x="3461.56" y="-479" font-family="Arial" font-size="10.00">FOREIGN KEY (viewer_id) REFERENCES users(id) ON DELETE CASCADE</text>
</g>
<!-- public.blocks -->
<g id="node12" class="node">
<title>public.blocks</title>
<polygon fill="#efefef" stroke="none" points="3806,-469 3806,-504.6 4040.97,-504.6 4040.97,-469 3806,-469"/>
<polygon fill="none" stroke="black" points="3806,-469 3806,-504.6 4040.97,-504.6 4040.97,-469 3806,-469"/>
<text text-anchor="start" x="3813" y="-482.4" font-family="Arial Bold" font-size="18.00">public.blocks</text>
<text text-anchor="start" x="3909.48" y="-482.4" font-family="Arial" font-size="14.00">    </text>
<text text-anchor="start" x="3940.6" y="-482.4" font-family="Arial" font-size="14.00" fill="#666666">[BASE TABLE]</text>
<polygon fill="none" stroke="black" points="3806,-438.2 3806,-469 4040.97,-469 4040.97,-438.2 3806,-438.2"/>
<text text-anchor="start" x="3813" y="-450.4" font-family="Arial" font-size="14.00">blocker_id </text>
<text text-anchor="start" x="3880.7" y="-450.4" font-family="Arial" font-size="14.00" fill="#666666">[uuid]</text>
<polygon fill="none" stroke="black" points="3806,-407.4 3806,-438.2 4040.97,-438.2 4040.97,-407.4 3806,-407.4"/>
<text text-anchor="start" x="3813" y="-419.6" font-family="Arial" font-size="14.00">blocked_id </text>
<text text-anchor="start" x="3883.83" y="-419.6" font-family="Arial" font-size="14.00" fill="#666666">[uuid]</text>
</g>
<!-- public.blocks&#45;&gt;public.users -->
<g id="edge14" class="edge">
<title>public.blocks:blocked_id&#45;&gt;public.users:id</title>
<path fill="none" stroke="black" d="M3794.75,-422.03C3735.07,-412.09 3804.95,-309.07 3753.49,-256.4 3688.37,-189.76 3449.11,-123.2 3355.94,-123.2"/>
<polygon fill="black" stroke="black" points="3794.69,-422.02 3804.33,-427.26 3800.01,-422.42 3804.33,-422.75 3804.33,-422.75 3804.33,-422.75 3800.01,-422.42 3805,-418.29 3794.69,-422.02"/>
<text text-anchor="start" x="3812" y="-432.8" font-family="Arial" font-size="10.00">FOREIGN KEY (blocked_id) REFERENCES users(id) ON DELETE CASCADE</text>
</g>
<!-- public.blocks&#45;&gt;public.users -->
<g id="edge15" class="edge">
<title>public.blocks:blocker_id&#45;&gt;public.users:id</title>
<path fill="none" stroke="black" d="M3794.79,-452.95C3722.42,-442.96 3812.8,-319.87 3753.49,-256.4 3689.87,-188.32 3449.11,-123.2 3355.94,-123.2"/>
<polygon fill="black" stroke="black" points="3794.68,-452.95 3804.38,-458.07 3800.01,-453.28 3804.33,-453.56 3804.33,-453.56 3804.33,-453.56 3800.01,-453.28 3804.95,-449.09 3794.68,-452.95"/>
<text text-anchor="start" x="3812" y="-463.6" font-family="Arial" font-size="10.00">FOREIGN KEY (blocker_id) REFERENCES users(id) ON DELETE CASCADE</text>
</g>
<!-- public.notifications -->
<g id="node13" class="node">
<title>public.notifications</title>
<polygon fill="#efefef" stroke="none" points="4145.5,-530.6 4145.5,-566.2 4423.47,-566.2 4423.47,-530.6 4145.5,-530.6"/>
<polygon fill="none" stroke="black" points="4145.5,-530.6 4145.5,-566.2 4423.47,-566.2 4423.47,-530.6 4145.5,-530.6"/>
<text text-anchor="start" x="4152.5" y="-544" font-family="Arial Bold" font-size="18.00">public.notifications</text>
<text text-anchor="start" x="4291.98" y="-544" font-family="Arial" font-size="14.00">    </text>
<text text-anchor="start" x="4323.1" y="-544" font-family="Arial" font-size="14.00" fill="#666666">[BASE TABLE]</text>
<polygon fill="none" stroke="black" points="4145.5,-499.8 4145.5,-530.6 4423.47,-530.6 4423.47,-499.8 4145.5,-499.8"/>
<text text-anchor="start" x="4152.5" y="-512" font-family="Arial" font-size="14.00">id </text>
<text text-anchor="start" x="4167.29" y="-512" font-family="Arial" font-size="14.00" fill="#666666">[bigint]</text>
<polygon fill="none" stroke="black" points="4145.5,-469 4145.5,-499.8 4423.47,-499.8 4423.47,-469 4145.5,-469"/>
<text text-anchor="start" x="4152.5" y="-481.2" font-family="Arial" font-size="14.00">recipient_id </text>
<text text-anchor="start" x="4227.99" y="-481.2" font-family="Arial" font-size="14.00" fill="#666666">[uuid]</text>
<polygon fill="none" stroke="black" points="4145.5,-438.2 4145.5,-469 4423.47,-469 4423.47,-438.2 4145.5,-438.2"/>
<text text-anchor="start" x="4152.5" y="-450.4" font-family="Arial" font-size="14.00">sender_id </text>
<text text-anchor="start" x="4217.88" y="-450.4" font-family="Arial" font-size="14.00" fill="#666666">[uuid]</text>
<polygon fill="none" stroke="black" points="4145.5,-407.4 4145.5,-438.2 4423.47,-438.2 4423.47,-407.4 4145.5,-407.4"/>
<text text-anchor="start" x="4152.5" y="-419.6" font-family="Arial" font-size="14.00">type </text>
<text text-anchor="start" x="4182.86" y="-419.6" font-family="Arial" font-size="14.00" fill="#666666">[notification_type_enum]</text>
<polygon fill="none" stroke="black" points="4145.5,-376.6 4145.5,-407.4 4423.47,-407.4 4423.47,-376.6 4145.5,-376.6"/>
<text text-anchor="start" x="4152.5" y="-388.8" font-family="Arial" font-size="14.00">is_read </text>
<text text-anchor="start" x="4202.31" y="-388.8" font-family="Arial" font-size="14.00" fill="#666666">[boolean]</text>
<polygon fill="none" stroke="black" points="4145.5,-345.8 4145.5,-376.6 4423.47,-376.6 4423.47,-345.8 4145.5,-345.8"/>
<text text-anchor="start" x="4152.5" y="-358" font-family="Arial" font-size="14.00">created_at </text>
<text text-anchor="start" x="4222.55" y="-358" font-family="Arial" font-size="14.00" fill="#666666">[timestamp with time zone]</text>
</g>
<!-- public.notifications&#45;&gt;public.users -->
<g id="edge16" class="edge">
<title>public.notifications:recipient_id&#45;&gt;public.users:id</title>
<path fill="none" stroke="black" d="M4134.13,-483.8C4049.63,-473.23 4165.71,-325.69 4093.49,-256.4 3973.3,-141.1 3522.49,-123.2 3355.94,-123.2"/>
<polygon fill="black" stroke="black" points="4134.19,-483.8 4143.91,-488.87 4139.51,-484.11 4143.84,-484.36 4143.84,-484.36 4143.84,-484.36 4139.51,-484.11 4144.43,-479.89 4134.19,-483.8"/>
<text text-anchor="start" x="3876.78" y="-468.4" font-family="Arial" font-size="10.00">FOREIGN KEY (recipient_id) REFERENCES users(id) ON DELETE CASCADE</text>
</g>
<!-- public.notifications&#45;&gt;public.users -->
<g id="edge17" class="edge">
<title>public.notifications:sender_id&#45;&gt;public.users:id</title>
<path fill="none" stroke="black" d="M4134.33,-452.93C4062.37,-442.6 4157.12,-315.46 4093.49,-256.4 3971.41,-143.1 3522.49,-123.2 3355.94,-123.2"/>
<polygon fill="black" stroke="black" points="4134.19,-452.92 4143.87,-458.07 4139.52,-453.27 4143.84,-453.56 4143.84,-453.56 4143.84,-453.56 4139.52,-453.27 4144.47,-449.09 4134.19,-452.92"/>
<text text-anchor="start" x="3882.61" y="-437.6" font-family="Arial" font-size="10.00">FOREIGN KEY (sender_id) REFERENCES users(id) ON DELETE SET NULL</text>
</g>
<!-- public.messages -->
<g id="node14" class="node">
<title>public.messages</title>
<polygon fill="#efefef" stroke="none" points="4527.5,-530.6 4527.5,-566.2 4783.47,-566.2 4783.47,-530.6 4527.5,-530.6"/>
<polygon fill="none" stroke="black" points="4527.5,-530.6 4527.5,-566.2 4783.47,-566.2 4783.47,-530.6 4527.5,-530.6"/>
<text text-anchor="start" x="4534.5" y="-544" font-family="Arial Bold" font-size="18.00">public.messages</text>
<text text-anchor="start" x="4651.98" y="-544" font-family="Arial" font-size="14.00">    </text>
<text text-anchor="start" x="4683.1" y="-544" font-family="Arial" font-size="14.00" fill="#666666">[BASE TABLE]</text>
<polygon fill="none" stroke="black" points="4527.5,-499.8 4527.5,-530.6 4783.47,-530.6 4783.47,-499.8 4527.5,-499.8"/>
<text text-anchor="start" x="4534.5" y="-512" font-family="Arial" font-size="14.00">id </text>
<text text-anchor="start" x="4549.29" y="-512" font-family="Arial" font-size="14.00" fill="#666666">[bigint]</text>
<polygon fill="none" stroke="black" points="4527.5,-469 4527.5,-499.8 4783.47,-499.8 4783.47,-469 4527.5,-469"/>
<text text-anchor="start" x="4534.5" y="-481.2" font-family="Arial" font-size="14.00">sender_id </text>
<text text-anchor="start" x="4599.88" y="-481.2" font-family="Arial" font-size="14.00" fill="#666666">[uuid]</text>
<polygon fill="none" stroke="black" points="4527.5,-438.2 4527.5,-469 4783.47,-469 4783.47,-438.2 4527.5,-438.2"/>
<text text-anchor="start" x="4534.5" y="-450.4" font-family="Arial" font-size="14.00">recipient_id </text>
<text text-anchor="start" x="4609.99" y="-450.4" font-family="Arial" font-size="14.00" fill="#666666">[uuid]</text>
<polygon fill="none" stroke="black" points="4527.5,-407.4 4527.5,-438.2 4783.47,-438.2 4783.47,-407.4 4527.5,-407.4"/>
<text text-anchor="start" x="4534.5" y="-419.6" font-family="Arial" font-size="14.00">content </text>
<text text-anchor="start" x="4584.32" y="-419.6" font-family="Arial" font-size="14.00" fill="#666666">[text]</text>
<polygon fill="none" stroke="black" points="4527.5,-376.6 4527.5,-407.4 4783.47,-407.4 4783.47,-376.6 4527.5,-376.6"/>
<text text-anchor="start" x="4534.5" y="-388.8" font-family="Arial" font-size="14.00">sent_at </text>
<text text-anchor="start" x="4584.32" y="-388.8" font-family="Arial" font-size="14.00" fill="#666666">[timestamp with time zone]</text>
<polygon fill="none" stroke="black" points="4527.5,-345.8 4527.5,-376.6 4783.47,-376.6 4783.47,-345.8 4527.5,-345.8"/>
<text text-anchor="start" x="4534.5" y="-358" font-family="Arial" font-size="14.00">is_read </text>
<text text-anchor="start" x="4584.31" y="-358" font-family="Arial" font-size="14.00" fill="#666666">[boolean]</text>
</g>
<!-- public.messages&#45;&gt;public.users -->
<g id="edge18" class="edge">
<title>public.messages:recipient_id&#45;&gt;public.users:id</title>
<path fill="none" stroke="black" d="M4516.34,-452.92C4444.51,-442.44 4540.87,-313.52 4475.49,-256.4 4381.14,-173.98 3481.21,-123.2 3355.94,-123.2"/>
<polygon fill="black" stroke="black" points="4516.19,-452.91 4525.87,-458.07 4521.52,-453.27 4525.84,-453.56 4525.84,-453.56 4525.84,-453.56 4521.52,-453.27 4526.47,-449.09 4516.19,-452.91"/>
<text text-anchor="start" x="4533.5" y="-463.6" font-family="Arial" font-size="10.00">FOREIGN KEY (recipient_id) REFERENCES users(id) ON DELETE CASCADE</text>
</g>
<!-- public.messages&#45;&gt;public.users -->
<g id="edge19" class="edge">
<title>public.messages:sender_id&#45;&gt;public.users:id</title>
<path fill="none" stroke="black" d="M4516.14,-483.79C4431.78,-473.07 4549.76,-323.48 4475.49,-256.4 4382.52,-172.44 3481.21,-123.2 3355.94,-123.2"/>
<polygon fill="black" stroke="black" points="4516.19,-483.79 4525.91,-488.87 4521.51,-484.11 4525.84,-484.36 4525.84,-484.36 4525.84,-484.36 4521.51,-484.11 4526.43,-479.89 4516.19,-483.79"/>
<text text-anchor="start" x="4533.5" y="-494.4" font-family="Arial" font-size="10.00">FOREIGN KEY (sender_id) REFERENCES users(id) ON DELETE CASCADE</text>
</g>
</g>
</svg>
