<?xml version="1.0" encoding="UTF-8" standalone="no"?>
<!DOCTYPE svg PUBLIC "-//W3C//DTD SVG 1.1//EN"
 "http://www.w3.org/Graphics/SVG/1.1/DTD/svg11.dtd">
<!-- Generated by graphviz version 12.1.2 (20240928.0832)
 -->
<!-- Title: public.messages Pages: 1 -->
<svg width="687pt" height="571pt"
 viewBox="0.00 0.00 686.94 571.20" xmlns="http://www.w3.org/2000/svg" xmlns:xlink="http://www.w3.org/1999/xlink">
<g id="graph0" class="graph" transform="scale(1 1) rotate(0) translate(4 567.2)">
<title>public.messages</title>
<polygon fill="white" stroke="none" points="-4,4 -4,-567.2 682.94,-567.2 682.94,4 -4,4"/>
<!-- public.messages -->
<g id="node1" class="node">
<title>public.messages</title>
<polygon fill="#efefef" stroke="none" points="55.67,-481.4 55.67,-517 311.63,-517 311.63,-481.4 55.67,-481.4"/>
<polygon fill="none" stroke="black" points="55.67,-481.4 55.67,-517 311.63,-517 311.63,-481.4 55.67,-481.4"/>
<text text-anchor="start" x="62.67" y="-494.8" font-family="Arial Bold" font-size="18.00">public.messages</text>
<text text-anchor="start" x="180.14" y="-494.8" font-family="Arial" font-size="14.00">    </text>
<text text-anchor="start" x="211.26" y="-494.8" font-family="Arial" font-size="14.00" fill="#666666">[BASE TABLE]</text>
<polygon fill="none" stroke="black" points="55.67,-450.6 55.67,-481.4 311.63,-481.4 311.63,-450.6 55.67,-450.6"/>
<text text-anchor="start" x="62.67" y="-462.8" font-family="Arial" font-size="14.00">id </text>
<text text-anchor="start" x="77.46" y="-462.8" font-family="Arial" font-size="14.00" fill="#666666">[bigint]</text>
<polygon fill="none" stroke="black" points="55.67,-419.8 55.67,-450.6 311.63,-450.6 311.63,-419.8 55.67,-419.8"/>
<text text-anchor="start" x="62.67" y="-432" font-family="Arial" font-size="14.00">sender_id </text>
<text text-anchor="start" x="128.05" y="-432" font-family="Arial" font-size="14.00" fill="#666666">[uuid]</text>
<polygon fill="none" stroke="black" points="55.67,-389 55.67,-419.8 311.63,-419.8 311.63,-389 55.67,-389"/>
<text text-anchor="start" x="62.67" y="-401.2" font-family="Arial" font-size="14.00">recipient_id </text>
<text text-anchor="start" x="138.16" y="-401.2" font-family="Arial" font-size="14.00" fill="#666666">[uuid]</text>
<polygon fill="none" stroke="black" points="55.67,-358.2 55.67,-389 311.63,-389 311.63,-358.2 55.67,-358.2"/>
<text text-anchor="start" x="62.67" y="-370.4" font-family="Arial" font-size="14.00">content </text>
<text text-anchor="start" x="112.48" y="-370.4" font-family="Arial" font-size="14.00" fill="#666666">[text]</text>
<polygon fill="none" stroke="black" points="55.67,-327.4 55.67,-358.2 311.63,-358.2 311.63,-327.4 55.67,-327.4"/>
<text text-anchor="start" x="62.67" y="-339.6" font-family="Arial" font-size="14.00">sent_at </text>
<text text-anchor="start" x="112.48" y="-339.6" font-family="Arial" font-size="14.00" fill="#666666">[timestamp with time zone]</text>
<polygon fill="none" stroke="black" points="55.67,-296.6 55.67,-327.4 311.63,-327.4 311.63,-296.6 55.67,-296.6"/>
<text text-anchor="start" x="62.67" y="-308.8" font-family="Arial" font-size="14.00">is_read </text>
<text text-anchor="start" x="112.48" y="-308.8" font-family="Arial" font-size="14.00" fill="#666666">[boolean]</text>
<polygon fill="none" stroke="black" stroke-width="3" points="54.17,-295.1 54.17,-518.5 313.13,-518.5 313.13,-295.1 54.17,-295.1"/>
</g>
<!-- public.users -->
<g id="node2" class="node">
<title>public.users</title>
<polygon fill="#efefef" stroke="none" points="43.2,-135.6 43.2,-171.2 324.1,-171.2 324.1,-135.6 43.2,-135.6"/>
<polygon fill="none" stroke="black" points="43.2,-135.6 43.2,-171.2 324.1,-171.2 324.1,-135.6 43.2,-135.6"/>
<text text-anchor="start" x="78.16" y="-149" font-family="Arial Bold" font-size="18.00">public.users</text>
<text text-anchor="start" x="164.65" y="-149" font-family="Arial" font-size="14.00">    </text>
<text text-anchor="start" x="195.77" y="-149" font-family="Arial" font-size="14.00" fill="#666666">[BASE TABLE]</text>
<polygon fill="none" stroke="black" points="43.2,-104.8 43.2,-135.6 324.1,-135.6 324.1,-104.8 43.2,-104.8"/>
<text text-anchor="start" x="50.2" y="-117" font-family="Arial" font-size="14.00">id </text>
<text text-anchor="start" x="64.99" y="-117" font-family="Arial" font-size="14.00" fill="#666666">[uuid]</text>
<polygon fill="none" stroke="black" points="43.2,-74 43.2,-104.8 324.1,-104.8 324.1,-74 43.2,-74"/>
<text text-anchor="start" x="50.2" y="-86.2" font-family="Arial" font-size="14.00">created_at </text>
<text text-anchor="start" x="120.25" y="-86.2" font-family="Arial" font-size="14.00" fill="#666666">[timestamp with time zone]</text>
<polygon fill="none" stroke="black" points="43.2,-43.2 43.2,-74 324.1,-74 324.1,-43.2 43.2,-43.2"/>
<text text-anchor="start" x="50.2" y="-55.4" font-family="Arial" font-size="14.00">last_connection </text>
<text text-anchor="start" x="151.38" y="-55.4" font-family="Arial" font-size="14.00" fill="#666666">[timestamp with time zone]</text>
</g>
<!-- public.messages&#45;&gt;public.users -->
<g id="edge1" class="edge">
<title>public.messages:sender_id&#45;&gt;public.users:id</title>
<path fill="none" stroke="black" d="M322.48,-433.02C383.71,-405.19 391.74,-120.2 325.1,-120.2"/>
<polygon fill="black" stroke="black" points="322.72,-432.97 311.99,-430.73 317.51,-434.12 313.29,-435.06 313.29,-435.06 313.29,-435.06 317.51,-434.12 313.93,-439.52 322.72,-432.97"/>
<text text-anchor="start" x="319.63" y="-445.2" font-family="Arial" font-size="10.00">FOREIGN KEY (sender_id) REFERENCES users(id) ON DELETE CASCADE</text>
</g>
<!-- public.messages&#45;&gt;public.users -->
<g id="edge2" class="edge">
<title>public.messages:recipient_id&#45;&gt;public.users:id</title>
<path fill="none" stroke="black" d="M322.55,-401.94C376.99,-374.17 384.86,-120.2 325.1,-120.2"/>
<polygon fill="black" stroke="black" points="322.66,-401.91 311.88,-399.95 317.49,-403.2 313.28,-404.24 313.28,-404.24 313.28,-404.24 317.49,-403.2 314.04,-408.69 322.66,-401.91"/>
<text text-anchor="start" x="319.63" y="-414.4" font-family="Arial" font-size="10.00">FOREIGN KEY (recipient_id) REFERENCES users(id) ON DELETE CASCADE</text>
</g>
</g>
</svg>
