<?xml version="1.0" encoding="UTF-8" standalone="no"?>
<!DOCTYPE svg PUBLIC "-//W3C//DTD SVG 1.1//EN"
 "http://www.w3.org/Graphics/SVG/1.1/DTD/svg11.dtd">
<!-- Generated by graphviz version 12.1.2 (20240928.0832)
 -->
<!-- Title: public.user_tags Pages: 1 -->
<svg width="951pt" height="448pt"
 viewBox="0.00 0.00 950.78 448.00" xmlns="http://www.w3.org/2000/svg" xmlns:xlink="http://www.w3.org/1999/xlink">
<g id="graph0" class="graph" transform="scale(1 1) rotate(0) translate(4 444)">
<title>public.user_tags</title>
<polygon fill="white" stroke="none" points="-4,4 -4,-444 946.78,-444 946.78,4 -4,4"/>
<!-- public.user_tags -->
<g id="node1" class="node">
<title>public.user_tags</title>
<polygon fill="#efefef" stroke="none" points="348.96,-358.2 348.96,-393.8 604.92,-393.8 604.92,-358.2 348.96,-358.2"/>
<polygon fill="none" stroke="black" points="348.96,-358.2 348.96,-393.8 604.92,-393.8 604.92,-358.2 348.96,-358.2"/>
<text text-anchor="start" x="355.96" y="-371.6" font-family="Arial Bold" font-size="18.00">public.user_tags</text>
<text text-anchor="start" x="473.43" y="-371.6" font-family="Arial" font-size="14.00">    </text>
<text text-anchor="start" x="504.55" y="-371.6" font-family="Arial" font-size="14.00" fill="#666666">[BASE TABLE]</text>
<polygon fill="none" stroke="black" points="348.96,-327.4 348.96,-358.2 604.92,-358.2 604.92,-327.4 348.96,-327.4"/>
<text text-anchor="start" x="355.96" y="-339.6" font-family="Arial" font-size="14.00">user_id </text>
<text text-anchor="start" x="405.77" y="-339.6" font-family="Arial" font-size="14.00" fill="#666666">[uuid]</text>
<polygon fill="none" stroke="black" points="348.96,-296.6 348.96,-327.4 604.92,-327.4 604.92,-296.6 348.96,-296.6"/>
<text text-anchor="start" x="355.96" y="-308.8" font-family="Arial" font-size="14.00">tag_id </text>
<text text-anchor="start" x="397.99" y="-308.8" font-family="Arial" font-size="14.00" fill="#666666">[integer]</text>
<polygon fill="none" stroke="black" stroke-width="3" points="347.46,-295.1 347.46,-395.3 606.42,-395.3 606.42,-295.1 347.46,-295.1"/>
</g>
<!-- public.users -->
<g id="node2" class="node">
<title>public.users</title>
<polygon fill="#efefef" stroke="none" points="160.49,-135.6 160.49,-171.2 441.39,-171.2 441.39,-135.6 160.49,-135.6"/>
<polygon fill="none" stroke="black" points="160.49,-135.6 160.49,-171.2 441.39,-171.2 441.39,-135.6 160.49,-135.6"/>
<text text-anchor="start" x="195.46" y="-149" font-family="Arial Bold" font-size="18.00">public.users</text>
<text text-anchor="start" x="281.94" y="-149" font-family="Arial" font-size="14.00">    </text>
<text text-anchor="start" x="313.06" y="-149" font-family="Arial" font-size="14.00" fill="#666666">[BASE TABLE]</text>
<polygon fill="none" stroke="black" points="160.49,-104.8 160.49,-135.6 441.39,-135.6 441.39,-104.8 160.49,-104.8"/>
<text text-anchor="start" x="167.49" y="-117" font-family="Arial" font-size="14.00">id </text>
<text text-anchor="start" x="182.28" y="-117" font-family="Arial" font-size="14.00" fill="#666666">[uuid]</text>
<polygon fill="none" stroke="black" points="160.49,-74 160.49,-104.8 441.39,-104.8 441.39,-74 160.49,-74"/>
<text text-anchor="start" x="167.49" y="-86.2" font-family="Arial" font-size="14.00">created_at </text>
<text text-anchor="start" x="237.54" y="-86.2" font-family="Arial" font-size="14.00" fill="#666666">[timestamp with time zone]</text>
<polygon fill="none" stroke="black" points="160.49,-43.2 160.49,-74 441.39,-74 441.39,-43.2 160.49,-43.2"/>
<text text-anchor="start" x="167.49" y="-55.4" font-family="Arial" font-size="14.00">last_connection </text>
<text text-anchor="start" x="268.67" y="-55.4" font-family="Arial" font-size="14.00" fill="#666666">[timestamp with time zone]</text>
</g>
<!-- public.user_tags&#45;&gt;public.users -->
<g id="edge1" class="edge">
<title>public.user_tags:user_id&#45;&gt;public.users:id</title>
<path fill="none" stroke="black" d="M337.94,-341.32C310.44,-332.03 327.79,-281.01 348.96,-250.4 374.04,-214.14 416.32,-250.66 441.39,-214.4 465.21,-179.96 484.26,-120.2 442.39,-120.2"/>
<polygon fill="black" stroke="black" points="337.74,-341.29 346.97,-347.2 343.01,-342.07 347.3,-342.7 347.3,-342.7 347.3,-342.7 343.01,-342.07 348.29,-338.3 337.74,-341.29"/>
<text text-anchor="start" x="7" y="-352.8" font-family="Arial" font-size="10.00">FOREIGN KEY (user_id) REFERENCES users(id) ON DELETE CASCADE</text>
</g>
<!-- public.tags -->
<g id="node3" class="node">
<title>public.tags</title>
<polygon fill="#efefef" stroke="none" points="545.45,-120.2 545.45,-155.8 762.43,-155.8 762.43,-120.2 545.45,-120.2"/>
<polygon fill="none" stroke="black" points="545.45,-120.2 545.45,-155.8 762.43,-155.8 762.43,-120.2 545.45,-120.2"/>
<text text-anchor="start" x="552.45" y="-133.6" font-family="Arial Bold" font-size="18.00">public.tags</text>
<text text-anchor="start" x="630.94" y="-133.6" font-family="Arial" font-size="14.00">    </text>
<text text-anchor="start" x="662.06" y="-133.6" font-family="Arial" font-size="14.00" fill="#666666">[BASE TABLE]</text>
<polygon fill="none" stroke="black" points="545.45,-89.4 545.45,-120.2 762.43,-120.2 762.43,-89.4 545.45,-89.4"/>
<text text-anchor="start" x="552.45" y="-101.6" font-family="Arial" font-size="14.00">id </text>
<text text-anchor="start" x="567.24" y="-101.6" font-family="Arial" font-size="14.00" fill="#666666">[integer]</text>
<polygon fill="none" stroke="black" points="545.45,-58.6 545.45,-89.4 762.43,-89.4 762.43,-58.6 545.45,-58.6"/>
<text text-anchor="start" x="552.45" y="-70.8" font-family="Arial" font-size="14.00">name </text>
<text text-anchor="start" x="591.36" y="-70.8" font-family="Arial" font-size="14.00" fill="#666666">[varchar(50)]</text>
</g>
<!-- public.user_tags&#45;&gt;public.tags -->
<g id="edge2" class="edge">
<title>public.user_tags:tag_id&#45;&gt;public.tags:id</title>
<path fill="none" stroke="black" d="M615.71,-309.49C628.19,-300.79 614.7,-271.33 604.92,-250.4 590.13,-218.75 560.16,-230.69 545.45,-199 527.84,-161.02 502.59,-104.8 544.45,-104.8"/>
<polygon fill="black" stroke="black" points="615.93,-309.43 605.13,-307.56 610.77,-310.76 606.57,-311.83 606.57,-311.83 606.57,-311.83 610.77,-310.76 607.37,-316.28 615.93,-309.43"/>
<text text-anchor="start" x="612.92" y="-322" font-family="Arial" font-size="10.00">FOREIGN KEY (tag_id) REFERENCES tags(id) ON DELETE CASCADE</text>
</g>
</g>
</svg>
