<?xml version="1.0" encoding="UTF-8" standalone="no"?>
<!DOCTYPE svg PUBLIC "-//W3C//DTD SVG 1.1//EN"
 "http://www.w3.org/Graphics/SVG/1.1/DTD/svg11.dtd">
<!-- Generated by graphviz version 12.1.2 (20240928.0832)
 -->
<!-- Title: public.blocks Pages: 1 -->
<svg width="850pt" height="448pt"
 viewBox="0.00 0.00 850.21 448.00" xmlns="http://www.w3.org/2000/svg" xmlns:xlink="http://www.w3.org/1999/xlink">
<g id="graph0" class="graph" transform="scale(1 1) rotate(0) translate(4 444)">
<title>public.blocks</title>
<polygon fill="white" stroke="none" points="-4,4 -4,-444 846.21,-444 846.21,4 -4,4"/>
<!-- public.blocks -->
<g id="node1" class="node">
<title>public.blocks</title>
<polygon fill="#efefef" stroke="none" points="245.49,-358.2 245.49,-393.8 480.46,-393.8 480.46,-358.2 245.49,-358.2"/>
<polygon fill="none" stroke="black" points="245.49,-358.2 245.49,-393.8 480.46,-393.8 480.46,-358.2 245.49,-358.2"/>
<text text-anchor="start" x="252.49" y="-371.6" font-family="Arial Bold" font-size="18.00">public.blocks</text>
<text text-anchor="start" x="348.97" y="-371.6" font-family="Arial" font-size="14.00">    </text>
<text text-anchor="start" x="380.09" y="-371.6" font-family="Arial" font-size="14.00" fill="#666666">[BASE TABLE]</text>
<polygon fill="none" stroke="black" points="245.49,-327.4 245.49,-358.2 480.46,-358.2 480.46,-327.4 245.49,-327.4"/>
<text text-anchor="start" x="252.49" y="-339.6" font-family="Arial" font-size="14.00">blocker_id </text>
<text text-anchor="start" x="320.19" y="-339.6" font-family="Arial" font-size="14.00" fill="#666666">[uuid]</text>
<polygon fill="none" stroke="black" points="245.49,-296.6 245.49,-327.4 480.46,-327.4 480.46,-296.6 245.49,-296.6"/>
<text text-anchor="start" x="252.49" y="-308.8" font-family="Arial" font-size="14.00">blocked_id </text>
<text text-anchor="start" x="323.31" y="-308.8" font-family="Arial" font-size="14.00" fill="#666666">[uuid]</text>
<polygon fill="none" stroke="black" stroke-width="3" points="243.99,-295.1 243.99,-395.3 481.96,-395.3 481.96,-295.1 243.99,-295.1"/>
</g>
<!-- public.users -->
<g id="node2" class="node">
<title>public.users</title>
<polygon fill="#efefef" stroke="none" points="222.52,-135.6 222.52,-171.2 503.43,-171.2 503.43,-135.6 222.52,-135.6"/>
<polygon fill="none" stroke="black" points="222.52,-135.6 222.52,-171.2 503.43,-171.2 503.43,-135.6 222.52,-135.6"/>
<text text-anchor="start" x="257.49" y="-149" font-family="Arial Bold" font-size="18.00">public.users</text>
<text text-anchor="start" x="343.97" y="-149" font-family="Arial" font-size="14.00">    </text>
<text text-anchor="start" x="375.09" y="-149" font-family="Arial" font-size="14.00" fill="#666666">[BASE TABLE]</text>
<polygon fill="none" stroke="black" points="222.52,-104.8 222.52,-135.6 503.43,-135.6 503.43,-104.8 222.52,-104.8"/>
<text text-anchor="start" x="229.52" y="-117" font-family="Arial" font-size="14.00">id </text>
<text text-anchor="start" x="244.31" y="-117" font-family="Arial" font-size="14.00" fill="#666666">[uuid]</text>
<polygon fill="none" stroke="black" points="222.52,-74 222.52,-104.8 503.43,-104.8 503.43,-74 222.52,-74"/>
<text text-anchor="start" x="229.52" y="-86.2" font-family="Arial" font-size="14.00">created_at </text>
<text text-anchor="start" x="299.57" y="-86.2" font-family="Arial" font-size="14.00" fill="#666666">[timestamp with time zone]</text>
<polygon fill="none" stroke="black" points="222.52,-43.2 222.52,-74 503.43,-74 503.43,-43.2 222.52,-43.2"/>
<text text-anchor="start" x="229.52" y="-55.4" font-family="Arial" font-size="14.00">last_connection </text>
<text text-anchor="start" x="330.7" y="-55.4" font-family="Arial" font-size="14.00" fill="#666666">[timestamp with time zone]</text>
</g>
<!-- public.blocks&#45;&gt;public.users -->
<g id="edge1" class="edge">
<title>public.blocks:blocker_id&#45;&gt;public.users:id</title>
<path fill="none" stroke="black" d="M491.27,-339.82C533.99,-313.41 550.76,-120.2 504.43,-120.2"/>
<polygon fill="black" stroke="black" points="491.35,-339.8 480.47,-338.4 486.25,-341.35 482.1,-342.61 482.1,-342.61 482.1,-342.61 486.25,-341.35 483.09,-347.01 491.35,-339.8"/>
<text text-anchor="start" x="488.46" y="-352.8" font-family="Arial" font-size="10.00">FOREIGN KEY (blocker_id) REFERENCES users(id) ON DELETE CASCADE</text>
</g>
<!-- public.blocks&#45;&gt;public.users -->
<g id="edge2" class="edge">
<title>public.blocks:blocked_id&#45;&gt;public.users:id</title>
<path fill="none" stroke="black" d="M363.82,-285.2C373.76,-228.78 468.98,-273.38 503.43,-214.4 524.54,-178.25 546.29,-120.2 504.43,-120.2"/>
<polygon fill="black" stroke="black" points="363.81,-285.3 358.52,-294.9 363.38,-290.62 363.03,-294.93 363.03,-294.93 363.03,-294.93 363.38,-290.62 367.49,-295.63 363.81,-285.3"/>
<text text-anchor="start" x="7" y="-305.6" font-family="Arial" font-size="10.00">FOREIGN KEY (blocked_id) REFERENCES users(id) ON DELETE CASCADE</text>
</g>
</g>
</svg>
