<?xml version="1.0" encoding="UTF-8" standalone="no"?>
<!DOCTYPE svg PUBLIC "-//W3C//DTD SVG 1.1//EN"
 "http://www.w3.org/Graphics/SVG/1.1/DTD/svg11.dtd">
<!-- Generated by graphviz version 12.1.2 (20240928.0832)
 -->
<!-- Title: public.likes Pages: 1 -->
<svg width="667pt" height="479pt"
 viewBox="0.00 0.00 666.61 478.80" xmlns="http://www.w3.org/2000/svg" xmlns:xlink="http://www.w3.org/1999/xlink">
<g id="graph0" class="graph" transform="scale(1 1) rotate(0) translate(4 474.8)">
<title>public.likes</title>
<polygon fill="white" stroke="none" points="-4,4 -4,-474.8 662.61,-474.8 662.61,4 -4,4"/>
<!-- public.likes -->
<g id="node1" class="node">
<title>public.likes</title>
<polygon fill="#efefef" stroke="none" points="58.77,-389 58.77,-424.6 308.54,-424.6 308.54,-389 58.77,-389"/>
<polygon fill="none" stroke="black" points="58.77,-389 58.77,-424.6 308.54,-424.6 308.54,-389 58.77,-389"/>
<text text-anchor="start" x="79.66" y="-402.4" font-family="Arial Bold" font-size="18.00">public.likes</text>
<text text-anchor="start" x="163.15" y="-402.4" font-family="Arial" font-size="14.00">    </text>
<text text-anchor="start" x="194.27" y="-402.4" font-family="Arial" font-size="14.00" fill="#666666">[BASE TABLE]</text>
<polygon fill="none" stroke="black" points="58.77,-358.2 58.77,-389 308.54,-389 308.54,-358.2 58.77,-358.2"/>
<text text-anchor="start" x="65.77" y="-370.4" font-family="Arial" font-size="14.00">liker_id </text>
<text text-anchor="start" x="114.01" y="-370.4" font-family="Arial" font-size="14.00" fill="#666666">[uuid]</text>
<polygon fill="none" stroke="black" points="58.77,-327.4 58.77,-358.2 308.54,-358.2 308.54,-327.4 58.77,-327.4"/>
<text text-anchor="start" x="65.77" y="-339.6" font-family="Arial" font-size="14.00">liked_id </text>
<text text-anchor="start" x="117.13" y="-339.6" font-family="Arial" font-size="14.00" fill="#666666">[uuid]</text>
<polygon fill="none" stroke="black" points="58.77,-296.6 58.77,-327.4 308.54,-327.4 308.54,-296.6 58.77,-296.6"/>
<text text-anchor="start" x="65.77" y="-308.8" font-family="Arial" font-size="14.00">created_at </text>
<text text-anchor="start" x="135.81" y="-308.8" font-family="Arial" font-size="14.00" fill="#666666">[timestamp with time zone]</text>
<polygon fill="none" stroke="black" stroke-width="3" points="57.27,-295.1 57.27,-426.1 310.04,-426.1 310.04,-295.1 57.27,-295.1"/>
</g>
<!-- public.users -->
<g id="node2" class="node">
<title>public.users</title>
<polygon fill="#efefef" stroke="none" points="43.2,-135.6 43.2,-171.2 324.1,-171.2 324.1,-135.6 43.2,-135.6"/>
<polygon fill="none" stroke="black" points="43.2,-135.6 43.2,-171.2 324.1,-171.2 324.1,-135.6 43.2,-135.6"/>
<text text-anchor="start" x="78.16" y="-149" font-family="Arial Bold" font-size="18.00">public.users</text>
<text text-anchor="start" x="164.65" y="-149" font-family="Arial" font-size="14.00">    </text>
<text text-anchor="start" x="195.77" y="-149" font-family="Arial" font-size="14.00" fill="#666666">[BASE TABLE]</text>
<polygon fill="none" stroke="black" points="43.2,-104.8 43.2,-135.6 324.1,-135.6 324.1,-104.8 43.2,-104.8"/>
<text text-anchor="start" x="50.2" y="-117" font-family="Arial" font-size="14.00">id </text>
<text text-anchor="start" x="64.99" y="-117" font-family="Arial" font-size="14.00" fill="#666666">[uuid]</text>
<polygon fill="none" stroke="black" points="43.2,-74 43.2,-104.8 324.1,-104.8 324.1,-74 43.2,-74"/>
<text text-anchor="start" x="50.2" y="-86.2" font-family="Arial" font-size="14.00">created_at </text>
<text text-anchor="start" x="120.25" y="-86.2" font-family="Arial" font-size="14.00" fill="#666666">[timestamp with time zone]</text>
<polygon fill="none" stroke="black" points="43.2,-43.2 43.2,-74 324.1,-74 324.1,-43.2 43.2,-43.2"/>
<text text-anchor="start" x="50.2" y="-55.4" font-family="Arial" font-size="14.00">last_connection </text>
<text text-anchor="start" x="151.38" y="-55.4" font-family="Arial" font-size="14.00" fill="#666666">[timestamp with time zone]</text>
</g>
<!-- public.likes&#45;&gt;public.users -->
<g id="edge1" class="edge">
<title>public.likes:liker_id&#45;&gt;public.users:id</title>
<path fill="none" stroke="black" d="M319.33,-370.93C367.58,-343.84 378.1,-120.2 325.1,-120.2"/>
<polygon fill="black" stroke="black" points="319.51,-370.88 308.67,-369.17 314.36,-372.28 310.18,-373.42 310.18,-373.42 310.18,-373.42 314.36,-372.28 311.05,-377.85 319.51,-370.88"/>
<text text-anchor="start" x="316.54" y="-383.6" font-family="Arial" font-size="10.00">FOREIGN KEY (liker_id) REFERENCES users(id) ON DELETE CASCADE</text>
</g>
<!-- public.likes&#45;&gt;public.users -->
<g id="edge2" class="edge">
<title>public.likes:liked_id&#45;&gt;public.users:id</title>
<path fill="none" stroke="black" d="M319.48,-339.65C360.99,-312.6 371.2,-120.2 325.1,-120.2"/>
<polygon fill="black" stroke="black" points="319.39,-339.68 308.5,-338.41 314.3,-341.29 310.17,-342.6 310.17,-342.6 310.17,-342.6 314.3,-341.29 311.21,-346.99 319.39,-339.68"/>
<text text-anchor="start" x="316.54" y="-352.8" font-family="Arial" font-size="10.00">FOREIGN KEY (liked_id) REFERENCES users(id) ON DELETE CASCADE</text>
</g>
</g>
</svg>
