<?xml version="1.0" encoding="UTF-8" standalone="no"?>
<!DOCTYPE svg PUBLIC "-//W3C//DTD SVG 1.1//EN"
 "http://www.w3.org/Graphics/SVG/1.1/DTD/svg11.dtd">
<!-- Generated by graphviz version 12.1.2 (20240928.0832)
 -->
<!-- Title: public.pictures Pages: 1 -->
<svg width="665pt" height="540pt"
 viewBox="0.00 0.00 665.50 540.40" xmlns="http://www.w3.org/2000/svg" xmlns:xlink="http://www.w3.org/1999/xlink">
<g id="graph0" class="graph" transform="scale(1 1) rotate(0) translate(4 536.4)">
<title>public.pictures</title>
<polygon fill="white" stroke="none" points="-4,4 -4,-536.4 661.5,-536.4 661.5,4 -4,4"/>
<!-- public.pictures -->
<g id="node1" class="node">
<title>public.pictures</title>
<polygon fill="#efefef" stroke="none" points="58.77,-450.6 58.77,-486.2 308.54,-486.2 308.54,-450.6 58.77,-450.6"/>
<polygon fill="none" stroke="black" points="58.77,-450.6 58.77,-486.2 308.54,-486.2 308.54,-450.6 58.77,-450.6"/>
<text text-anchor="start" x="68.17" y="-464" font-family="Arial Bold" font-size="18.00">public.pictures</text>
<text text-anchor="start" x="174.64" y="-464" font-family="Arial" font-size="14.00">    </text>
<text text-anchor="start" x="205.76" y="-464" font-family="Arial" font-size="14.00" fill="#666666">[BASE TABLE]</text>
<polygon fill="none" stroke="black" points="58.77,-419.8 58.77,-450.6 308.54,-450.6 308.54,-419.8 58.77,-419.8"/>
<text text-anchor="start" x="65.77" y="-432" font-family="Arial" font-size="14.00">id </text>
<text text-anchor="start" x="80.55" y="-432" font-family="Arial" font-size="14.00" fill="#666666">[integer]</text>
<polygon fill="none" stroke="black" points="58.77,-389 58.77,-419.8 308.54,-419.8 308.54,-389 58.77,-389"/>
<text text-anchor="start" x="65.77" y="-401.2" font-family="Arial" font-size="14.00">user_id </text>
<text text-anchor="start" x="115.57" y="-401.2" font-family="Arial" font-size="14.00" fill="#666666">[uuid]</text>
<polygon fill="none" stroke="black" points="58.77,-358.2 58.77,-389 308.54,-389 308.54,-358.2 58.77,-358.2"/>
<text text-anchor="start" x="65.77" y="-370.4" font-family="Arial" font-size="14.00">url </text>
<text text-anchor="start" x="85.21" y="-370.4" font-family="Arial" font-size="14.00" fill="#666666">[varchar(255)]</text>
<polygon fill="none" stroke="black" points="58.77,-327.4 58.77,-358.2 308.54,-358.2 308.54,-327.4 58.77,-327.4"/>
<text text-anchor="start" x="65.77" y="-339.6" font-family="Arial" font-size="14.00">is_profile_pic </text>
<text text-anchor="start" x="151.37" y="-339.6" font-family="Arial" font-size="14.00" fill="#666666">[boolean]</text>
<polygon fill="none" stroke="black" points="58.77,-296.6 58.77,-327.4 308.54,-327.4 308.54,-296.6 58.77,-296.6"/>
<text text-anchor="start" x="65.77" y="-308.8" font-family="Arial" font-size="14.00">created_at </text>
<text text-anchor="start" x="135.81" y="-308.8" font-family="Arial" font-size="14.00" fill="#666666">[timestamp with time zone]</text>
<polygon fill="none" stroke="black" stroke-width="3" points="57.27,-295.1 57.27,-487.7 310.04,-487.7 310.04,-295.1 57.27,-295.1"/>
</g>
<!-- public.users -->
<g id="node2" class="node">
<title>public.users</title>
<polygon fill="#efefef" stroke="none" points="43.2,-135.6 43.2,-171.2 324.1,-171.2 324.1,-135.6 43.2,-135.6"/>
<polygon fill="none" stroke="black" points="43.2,-135.6 43.2,-171.2 324.1,-171.2 324.1,-135.6 43.2,-135.6"/>
<text text-anchor="start" x="78.16" y="-149" font-family="Arial Bold" font-size="18.00">public.users</text>
<text text-anchor="start" x="164.65" y="-149" font-family="Arial" font-size="14.00">    </text>
<text text-anchor="start" x="195.77" y="-149" font-family="Arial" font-size="14.00" fill="#666666">[BASE TABLE]</text>
<polygon fill="none" stroke="black" points="43.2,-104.8 43.2,-135.6 324.1,-135.6 324.1,-104.8 43.2,-104.8"/>
<text text-anchor="start" x="50.2" y="-117" font-family="Arial" font-size="14.00">id </text>
<text text-anchor="start" x="64.99" y="-117" font-family="Arial" font-size="14.00" fill="#666666">[uuid]</text>
<polygon fill="none" stroke="black" points="43.2,-74 43.2,-104.8 324.1,-104.8 324.1,-74 43.2,-74"/>
<text text-anchor="start" x="50.2" y="-86.2" font-family="Arial" font-size="14.00">created_at </text>
<text text-anchor="start" x="120.25" y="-86.2" font-family="Arial" font-size="14.00" fill="#666666">[timestamp with time zone]</text>
<polygon fill="none" stroke="black" points="43.2,-43.2 43.2,-74 324.1,-74 324.1,-43.2 43.2,-43.2"/>
<text text-anchor="start" x="50.2" y="-55.4" font-family="Arial" font-size="14.00">last_connection </text>
<text text-anchor="start" x="151.38" y="-55.4" font-family="Arial" font-size="14.00" fill="#666666">[timestamp with time zone]</text>
</g>
<!-- public.pictures&#45;&gt;public.users -->
<g id="edge1" class="edge">
<title>public.pictures:user_id&#45;&gt;public.users:id</title>
<path fill="none" stroke="black" d="M319.48,-401.94C374.25,-374.17 384.89,-120.2 325.1,-120.2"/>
<polygon fill="black" stroke="black" points="319.57,-401.92 308.78,-399.95 314.39,-403.2 310.19,-404.24 310.19,-404.24 310.19,-404.24 314.39,-403.2 310.94,-408.69 319.57,-401.92"/>
<text text-anchor="start" x="316.54" y="-414.4" font-family="Arial" font-size="10.00">FOREIGN KEY (user_id) REFERENCES users(id) ON DELETE CASCADE</text>
</g>
</g>
</svg>
