<?xml version="1.0" encoding="UTF-8" standalone="no"?>
<!DOCTYPE svg PUBLIC "-//W3C//DTD SVG 1.1//EN"
 "http://www.w3.org/Graphics/SVG/1.1/DTD/svg11.dtd">
<!-- Generated by graphviz version 12.1.2 (20240928.0832)
 -->
<!-- Title: public.connections Pages: 1 -->
<svg width="683pt" height="479pt"
 viewBox="0.00 0.00 683.15 478.80" xmlns="http://www.w3.org/2000/svg" xmlns:xlink="http://www.w3.org/1999/xlink">
<g id="graph0" class="graph" transform="scale(1 1) rotate(0) translate(4 474.8)">
<title>public.connections</title>
<polygon fill="white" stroke="none" points="-4,4 -4,-474.8 679.15,-474.8 679.15,4 -4,4"/>
<!-- public.connections -->
<g id="node1" class="node">
<title>public.connections</title>
<polygon fill="#efefef" stroke="none" points="46.67,-389 46.67,-424.6 320.63,-424.6 320.63,-389 46.67,-389"/>
<polygon fill="none" stroke="black" points="46.67,-389 46.67,-424.6 320.63,-424.6 320.63,-389 46.67,-389"/>
<text text-anchor="start" x="53.67" y="-402.4" font-family="Arial Bold" font-size="18.00">public.connections</text>
<text text-anchor="start" x="189.14" y="-402.4" font-family="Arial" font-size="14.00">    </text>
<text text-anchor="start" x="220.26" y="-402.4" font-family="Arial" font-size="14.00" fill="#666666">[BASE TABLE]</text>
<polygon fill="none" stroke="black" points="46.67,-358.2 46.67,-389 320.63,-389 320.63,-358.2 46.67,-358.2"/>
<text text-anchor="start" x="53.67" y="-370.4" font-family="Arial" font-size="14.00">user1_id </text>
<text text-anchor="start" x="111.27" y="-370.4" font-family="Arial" font-size="14.00" fill="#666666">[uuid]</text>
<polygon fill="none" stroke="black" points="46.67,-327.4 46.67,-358.2 320.63,-358.2 320.63,-327.4 46.67,-327.4"/>
<text text-anchor="start" x="53.67" y="-339.6" font-family="Arial" font-size="14.00">user2_id </text>
<text text-anchor="start" x="111.27" y="-339.6" font-family="Arial" font-size="14.00" fill="#666666">[uuid]</text>
<polygon fill="none" stroke="black" points="46.67,-296.6 46.67,-327.4 320.63,-327.4 320.63,-296.6 46.67,-296.6"/>
<text text-anchor="start" x="53.67" y="-308.8" font-family="Arial" font-size="14.00">created_at </text>
<text text-anchor="start" x="123.72" y="-308.8" font-family="Arial" font-size="14.00" fill="#666666">[timestamp with time zone]</text>
<polygon fill="none" stroke="black" stroke-width="3" points="45.17,-295.1 45.17,-426.1 322.13,-426.1 322.13,-295.1 45.17,-295.1"/>
</g>
<!-- public.users -->
<g id="node2" class="node">
<title>public.users</title>
<polygon fill="#efefef" stroke="none" points="43.2,-135.6 43.2,-171.2 324.1,-171.2 324.1,-135.6 43.2,-135.6"/>
<polygon fill="none" stroke="black" points="43.2,-135.6 43.2,-171.2 324.1,-171.2 324.1,-135.6 43.2,-135.6"/>
<text text-anchor="start" x="78.16" y="-149" font-family="Arial Bold" font-size="18.00">public.users</text>
<text text-anchor="start" x="164.65" y="-149" font-family="Arial" font-size="14.00">    </text>
<text text-anchor="start" x="195.77" y="-149" font-family="Arial" font-size="14.00" fill="#666666">[BASE TABLE]</text>
<polygon fill="none" stroke="black" points="43.2,-104.8 43.2,-135.6 324.1,-135.6 324.1,-104.8 43.2,-104.8"/>
<text text-anchor="start" x="50.2" y="-117" font-family="Arial" font-size="14.00">id </text>
<text text-anchor="start" x="64.99" y="-117" font-family="Arial" font-size="14.00" fill="#666666">[uuid]</text>
<polygon fill="none" stroke="black" points="43.2,-74 43.2,-104.8 324.1,-104.8 324.1,-74 43.2,-74"/>
<text text-anchor="start" x="50.2" y="-86.2" font-family="Arial" font-size="14.00">created_at </text>
<text text-anchor="start" x="120.25" y="-86.2" font-family="Arial" font-size="14.00" fill="#666666">[timestamp with time zone]</text>
<polygon fill="none" stroke="black" points="43.2,-43.2 43.2,-74 324.1,-74 324.1,-43.2 43.2,-43.2"/>
<text text-anchor="start" x="50.2" y="-55.4" font-family="Arial" font-size="14.00">last_connection </text>
<text text-anchor="start" x="151.38" y="-55.4" font-family="Arial" font-size="14.00" fill="#666666">[timestamp with time zone]</text>
</g>
<!-- public.connections&#45;&gt;public.users -->
<g id="edge1" class="edge">
<title>public.connections:user1_id&#45;&gt;public.users:id</title>
<path fill="none" stroke="black" d="M331.57,-370.75C378.15,-342.91 377.9,-120.2 325.1,-120.2"/>
<polygon fill="black" stroke="black" points="331.56,-370.76 320.71,-369.18 326.44,-372.22 322.27,-373.42 322.27,-373.42 322.27,-373.42 326.44,-372.22 323.19,-377.83 331.56,-370.76"/>
<text text-anchor="start" x="328.63" y="-383.6" font-family="Arial" font-size="10.00">FOREIGN KEY (user1_id) REFERENCES users(id) ON DELETE CASCADE</text>
</g>
<!-- public.connections&#45;&gt;public.users -->
<g id="edge2" class="edge">
<title>public.connections:user2_id&#45;&gt;public.users:id</title>
<path fill="none" stroke="black" d="M331.98,-341.95C420.69,-327 420.47,-120.2 325.1,-120.2"/>
<polygon fill="black" stroke="black" points="331.93,-341.95 321.59,-338.29 326.61,-342.39 322.3,-342.75 322.3,-342.75 322.3,-342.75 326.61,-342.39 322.33,-347.26 331.93,-341.95"/>
<text text-anchor="start" x="328.63" y="-352.8" font-family="Arial" font-size="10.00">FOREIGN KEY (user2_id) REFERENCES users(id) ON DELETE CASCADE</text>
</g>
</g>
</svg>
