<?xml version="1.0" encoding="UTF-8" standalone="no"?>
<!DOCTYPE svg PUBLIC "-//W3C//DTD SVG 1.1//EN"
 "http://www.w3.org/Graphics/SVG/1.1/DTD/svg11.dtd">
<!-- Generated by graphviz version 12.1.2 (20240928.0832)
 -->
<!-- Title: public.auths Pages: 1 -->
<svg width="654pt" height="602pt"
 viewBox="0.00 0.00 653.60 602.00" xmlns="http://www.w3.org/2000/svg" xmlns:xlink="http://www.w3.org/1999/xlink">
<g id="graph0" class="graph" transform="scale(1 1) rotate(0) translate(4 598)">
<title>public.auths</title>
<polygon fill="white" stroke="none" points="-4,4 -4,-598 649.6,-598 649.6,4 -4,4"/>
<!-- public.auths -->
<g id="node1" class="node">
<title>public.auths</title>
<polygon fill="#efefef" stroke="none" points="70.66,-512.2 70.66,-547.8 296.64,-547.8 296.64,-512.2 70.66,-512.2"/>
<polygon fill="none" stroke="black" points="70.66,-512.2 70.66,-547.8 296.64,-547.8 296.64,-512.2 70.66,-512.2"/>
<text text-anchor="start" x="77.66" y="-525.6" font-family="Arial Bold" font-size="18.00">public.auths</text>
<text text-anchor="start" x="165.15" y="-525.6" font-family="Arial" font-size="14.00">    </text>
<text text-anchor="start" x="196.27" y="-525.6" font-family="Arial" font-size="14.00" fill="#666666">[BASE TABLE]</text>
<polygon fill="none" stroke="black" points="70.66,-481.4 70.66,-512.2 296.64,-512.2 296.64,-481.4 70.66,-481.4"/>
<text text-anchor="start" x="77.66" y="-493.6" font-family="Arial" font-size="14.00">id </text>
<text text-anchor="start" x="92.45" y="-493.6" font-family="Arial" font-size="14.00" fill="#666666">[integer]</text>
<polygon fill="none" stroke="black" points="70.66,-450.6 70.66,-481.4 296.64,-481.4 296.64,-450.6 70.66,-450.6"/>
<text text-anchor="start" x="77.66" y="-462.8" font-family="Arial" font-size="14.00">user_id </text>
<text text-anchor="start" x="127.47" y="-462.8" font-family="Arial" font-size="14.00" fill="#666666">[uuid]</text>
<polygon fill="none" stroke="black" points="70.66,-419.8 70.66,-450.6 296.64,-450.6 296.64,-419.8 70.66,-419.8"/>
<text text-anchor="start" x="77.66" y="-432" font-family="Arial" font-size="14.00">provider </text>
<text text-anchor="start" x="132.13" y="-432" font-family="Arial" font-size="14.00" fill="#666666">[auth_provider_enum]</text>
<polygon fill="none" stroke="black" points="70.66,-389 70.66,-419.8 296.64,-419.8 296.64,-389 70.66,-389"/>
<text text-anchor="start" x="77.66" y="-401.2" font-family="Arial" font-size="14.00">provider_uid </text>
<text text-anchor="start" x="158.6" y="-401.2" font-family="Arial" font-size="14.00" fill="#666666">[varchar(255)]</text>
<polygon fill="none" stroke="black" points="70.66,-358.2 70.66,-389 296.64,-389 296.64,-358.2 70.66,-358.2"/>
<text text-anchor="start" x="77.66" y="-370.4" font-family="Arial" font-size="14.00">email </text>
<text text-anchor="start" x="115.01" y="-370.4" font-family="Arial" font-size="14.00" fill="#666666">[varchar(255)]</text>
<polygon fill="none" stroke="black" points="70.66,-327.4 70.66,-358.2 296.64,-358.2 296.64,-327.4 70.66,-327.4"/>
<text text-anchor="start" x="77.66" y="-339.6" font-family="Arial" font-size="14.00">is_verified </text>
<text text-anchor="start" x="144.58" y="-339.6" font-family="Arial" font-size="14.00" fill="#666666">[boolean]</text>
<polygon fill="none" stroke="black" points="70.66,-296.6 70.66,-327.4 296.64,-327.4 296.64,-296.6 70.66,-296.6"/>
<text text-anchor="start" x="77.66" y="-308.8" font-family="Arial" font-size="14.00">password_hash </text>
<text text-anchor="start" x="179.61" y="-308.8" font-family="Arial" font-size="14.00" fill="#666666">[varchar(255)]</text>
<polygon fill="none" stroke="black" stroke-width="3" points="69.16,-295.1 69.16,-549.3 298.14,-549.3 298.14,-295.1 69.16,-295.1"/>
</g>
<!-- public.users -->
<g id="node2" class="node">
<title>public.users</title>
<polygon fill="#efefef" stroke="none" points="43.2,-135.6 43.2,-171.2 324.1,-171.2 324.1,-135.6 43.2,-135.6"/>
<polygon fill="none" stroke="black" points="43.2,-135.6 43.2,-171.2 324.1,-171.2 324.1,-135.6 43.2,-135.6"/>
<text text-anchor="start" x="78.16" y="-149" font-family="Arial Bold" font-size="18.00">public.users</text>
<text text-anchor="start" x="164.65" y="-149" font-family="Arial" font-size="14.00">    </text>
<text text-anchor="start" x="195.77" y="-149" font-family="Arial" font-size="14.00" fill="#666666">[BASE TABLE]</text>
<polygon fill="none" stroke="black" points="43.2,-104.8 43.2,-135.6 324.1,-135.6 324.1,-104.8 43.2,-104.8"/>
<text text-anchor="start" x="50.2" y="-117" font-family="Arial" font-size="14.00">id </text>
<text text-anchor="start" x="64.99" y="-117" font-family="Arial" font-size="14.00" fill="#666666">[uuid]</text>
<polygon fill="none" stroke="black" points="43.2,-74 43.2,-104.8 324.1,-104.8 324.1,-74 43.2,-74"/>
<text text-anchor="start" x="50.2" y="-86.2" font-family="Arial" font-size="14.00">created_at </text>
<text text-anchor="start" x="120.25" y="-86.2" font-family="Arial" font-size="14.00" fill="#666666">[timestamp with time zone]</text>
<polygon fill="none" stroke="black" points="43.2,-43.2 43.2,-74 324.1,-74 324.1,-43.2 43.2,-43.2"/>
<text text-anchor="start" x="50.2" y="-55.4" font-family="Arial" font-size="14.00">last_connection </text>
<text text-anchor="start" x="151.38" y="-55.4" font-family="Arial" font-size="14.00" fill="#666666">[timestamp with time zone]</text>
</g>
<!-- public.auths&#45;&gt;public.users -->
<g id="edge1" class="edge">
<title>public.auths:user_id&#45;&gt;public.users:id</title>
<path fill="none" stroke="black" d="M307.72,-463.97C376.98,-435.63 398.73,-120.2 325.1,-120.2"/>
<polygon fill="black" stroke="black" points="307.77,-463.96 297.08,-461.52 302.54,-465.01 298.29,-465.87 298.29,-465.87 298.29,-465.87 302.54,-465.01 298.86,-470.35 307.77,-463.96"/>
<text text-anchor="start" x="304.64" y="-476" font-family="Arial" font-size="10.00">FOREIGN KEY (user_id) REFERENCES users(id) ON DELETE CASCADE</text>
</g>
</g>
</svg>
