<?xml version="1.0" encoding="UTF-8" standalone="no"?>
<!DOCTYPE svg PUBLIC "-//W3C//DTD SVG 1.1//EN"
 "http://www.w3.org/Graphics/SVG/1.1/DTD/svg11.dtd">
<!-- Generated by graphviz version 12.1.2 (20240928.0832)
 -->
<!-- Title: public.tags Pages: 1 -->
<svg width="516pt" height="417pt"
 viewBox="0.00 0.00 516.04 417.20" xmlns="http://www.w3.org/2000/svg" xmlns:xlink="http://www.w3.org/1999/xlink">
<g id="graph0" class="graph" transform="scale(1 1) rotate(0) translate(4 413.2)">
<title>public.tags</title>
<polygon fill="white" stroke="none" points="-4,4 -4,-413.2 512.04,-413.2 512.04,4 -4,4"/>
<!-- public.tags -->
<g id="node1" class="node">
<title>public.tags</title>
<polygon fill="#efefef" stroke="none" points="228.37,-107.8 228.37,-143.4 445.34,-143.4 445.34,-107.8 228.37,-107.8"/>
<polygon fill="none" stroke="black" points="228.37,-107.8 228.37,-143.4 445.34,-143.4 445.34,-107.8 228.37,-107.8"/>
<text text-anchor="start" x="235.37" y="-121.2" font-family="Arial Bold" font-size="18.00">public.tags</text>
<text text-anchor="start" x="313.85" y="-121.2" font-family="Arial" font-size="14.00">    </text>
<text text-anchor="start" x="344.97" y="-121.2" font-family="Arial" font-size="14.00" fill="#666666">[BASE TABLE]</text>
<polygon fill="none" stroke="black" points="228.37,-77 228.37,-107.8 445.34,-107.8 445.34,-77 228.37,-77"/>
<text text-anchor="start" x="235.37" y="-89.2" font-family="Arial" font-size="14.00">id </text>
<text text-anchor="start" x="250.15" y="-89.2" font-family="Arial" font-size="14.00" fill="#666666">[integer]</text>
<polygon fill="none" stroke="black" points="228.37,-46.2 228.37,-77 445.34,-77 445.34,-46.2 228.37,-46.2"/>
<text text-anchor="start" x="235.37" y="-58.4" font-family="Arial" font-size="14.00">name </text>
<text text-anchor="start" x="274.28" y="-58.4" font-family="Arial" font-size="14.00" fill="#666666">[varchar(50)]</text>
<polygon fill="none" stroke="black" stroke-width="3" points="226.87,-44.7 226.87,-144.9 446.84,-144.9 446.84,-44.7 226.87,-44.7"/>
</g>
<!-- public.user_tags -->
<g id="node2" class="node">
<title>public.user_tags</title>
<polygon fill="#efefef" stroke="none" points="208.87,-330.4 208.87,-366 464.84,-366 464.84,-330.4 208.87,-330.4"/>
<polygon fill="none" stroke="black" points="208.87,-330.4 208.87,-366 464.84,-366 464.84,-330.4 208.87,-330.4"/>
<text text-anchor="start" x="215.87" y="-343.8" font-family="Arial Bold" font-size="18.00">public.user_tags</text>
<text text-anchor="start" x="333.35" y="-343.8" font-family="Arial" font-size="14.00">    </text>
<text text-anchor="start" x="364.47" y="-343.8" font-family="Arial" font-size="14.00" fill="#666666">[BASE TABLE]</text>
<polygon fill="none" stroke="black" points="208.87,-299.6 208.87,-330.4 464.84,-330.4 464.84,-299.6 208.87,-299.6"/>
<text text-anchor="start" x="215.87" y="-311.8" font-family="Arial" font-size="14.00">user_id </text>
<text text-anchor="start" x="265.68" y="-311.8" font-family="Arial" font-size="14.00" fill="#666666">[uuid]</text>
<polygon fill="none" stroke="black" points="208.87,-268.8 208.87,-299.6 464.84,-299.6 464.84,-268.8 208.87,-268.8"/>
<text text-anchor="start" x="215.87" y="-281" font-family="Arial" font-size="14.00">tag_id </text>
<text text-anchor="start" x="257.91" y="-281" font-family="Arial" font-size="14.00" fill="#666666">[integer]</text>
</g>
<!-- public.user_tags&#45;&gt;public.tags -->
<g id="edge1" class="edge">
<title>public.user_tags:tag_id&#45;&gt;public.tags:id</title>
<path fill="none" stroke="black" d="M337.83,-257.42C347.09,-212.39 419.75,-238.97 445.34,-189.6 465.23,-151.25 489.55,-92.4 446.34,-92.4"/>
<polygon fill="black" stroke="black" points="337.82,-257.51 332.41,-267.05 337.32,-262.82 336.92,-267.13 336.92,-267.13 336.92,-267.13 337.32,-262.82 341.37,-267.89 337.82,-257.51"/>
<text text-anchor="start" x="7" y="-277.8" font-family="Arial" font-size="10.00">FOREIGN KEY (tag_id) REFERENCES tags(id) ON DELETE CASCADE</text>
</g>
</g>
</svg>
