<?xml version="1.0" encoding="UTF-8" standalone="no"?>
<!DOCTYPE svg PUBLIC "-//W3C//DTD SVG 1.1//EN"
 "http://www.w3.org/Graphics/SVG/1.1/DTD/svg11.dtd">
<!-- Generated by graphviz version 12.1.2 (20240928.0832)
 -->
<!-- Title: public.verification_tokens Pages: 1 -->
<svg width="730pt" height="479pt"
 viewBox="0.00 0.00 730.10 478.80" xmlns="http://www.w3.org/2000/svg" xmlns:xlink="http://www.w3.org/1999/xlink">
<g id="graph0" class="graph" transform="scale(1 1) rotate(0) translate(4 474.8)">
<title>public.verification_tokens</title>
<polygon fill="white" stroke="none" points="-4,4 -4,-474.8 726.1,-474.8 726.1,4 -4,4"/>
<!-- public.verification_tokens -->
<g id="node1" class="node">
<title>public.verification_tokens</title>
<polygon fill="#efefef" stroke="none" points="46.2,-389 46.2,-424.6 373.14,-424.6 373.14,-389 46.2,-389"/>
<polygon fill="none" stroke="black" points="46.2,-389 46.2,-424.6 373.14,-424.6 373.14,-389 46.2,-389"/>
<text text-anchor="start" x="53.2" y="-402.4" font-family="Arial Bold" font-size="18.00">public.verification_tokens</text>
<text text-anchor="start" x="241.65" y="-402.4" font-family="Arial" font-size="14.00">    </text>
<text text-anchor="start" x="272.76" y="-402.4" font-family="Arial" font-size="14.00" fill="#666666">[BASE TABLE]</text>
<polygon fill="none" stroke="black" points="46.2,-358.2 46.2,-389 373.14,-389 373.14,-358.2 46.2,-358.2"/>
<text text-anchor="start" x="53.2" y="-370.4" font-family="Arial" font-size="14.00">token </text>
<text text-anchor="start" x="91.34" y="-370.4" font-family="Arial" font-size="14.00" fill="#666666">[varchar(64)]</text>
<polygon fill="none" stroke="black" points="46.2,-327.4 46.2,-358.2 373.14,-358.2 373.14,-327.4 46.2,-327.4"/>
<text text-anchor="start" x="53.2" y="-339.6" font-family="Arial" font-size="14.00">user_id </text>
<text text-anchor="start" x="103.01" y="-339.6" font-family="Arial" font-size="14.00" fill="#666666">[uuid]</text>
<polygon fill="none" stroke="black" points="46.2,-296.6 46.2,-327.4 373.14,-327.4 373.14,-296.6 46.2,-296.6"/>
<text text-anchor="start" x="53.2" y="-308.8" font-family="Arial" font-size="14.00">expires_at </text>
<text text-anchor="start" x="121.68" y="-308.8" font-family="Arial" font-size="14.00" fill="#666666">[timestamp with time zone]</text>
<polygon fill="none" stroke="black" stroke-width="3" points="44.7,-295.1 44.7,-426.1 374.64,-426.1 374.64,-295.1 44.7,-295.1"/>
</g>
<!-- public.users -->
<g id="node2" class="node">
<title>public.users</title>
<polygon fill="#efefef" stroke="none" points="69.22,-135.6 69.22,-171.2 350.12,-171.2 350.12,-135.6 69.22,-135.6"/>
<polygon fill="none" stroke="black" points="69.22,-135.6 69.22,-171.2 350.12,-171.2 350.12,-135.6 69.22,-135.6"/>
<text text-anchor="start" x="104.18" y="-149" font-family="Arial Bold" font-size="18.00">public.users</text>
<text text-anchor="start" x="190.67" y="-149" font-family="Arial" font-size="14.00">    </text>
<text text-anchor="start" x="221.78" y="-149" font-family="Arial" font-size="14.00" fill="#666666">[BASE TABLE]</text>
<polygon fill="none" stroke="black" points="69.22,-104.8 69.22,-135.6 350.12,-135.6 350.12,-104.8 69.22,-104.8"/>
<text text-anchor="start" x="76.22" y="-117" font-family="Arial" font-size="14.00">id </text>
<text text-anchor="start" x="91" y="-117" font-family="Arial" font-size="14.00" fill="#666666">[uuid]</text>
<polygon fill="none" stroke="black" points="69.22,-74 69.22,-104.8 350.12,-104.8 350.12,-74 69.22,-74"/>
<text text-anchor="start" x="76.22" y="-86.2" font-family="Arial" font-size="14.00">created_at </text>
<text text-anchor="start" x="146.26" y="-86.2" font-family="Arial" font-size="14.00" fill="#666666">[timestamp with time zone]</text>
<polygon fill="none" stroke="black" points="69.22,-43.2 69.22,-74 350.12,-74 350.12,-43.2 69.22,-43.2"/>
<text text-anchor="start" x="76.22" y="-55.4" font-family="Arial" font-size="14.00">last_connection </text>
<text text-anchor="start" x="177.4" y="-55.4" font-family="Arial" font-size="14.00" fill="#666666">[timestamp with time zone]</text>
</g>
<!-- public.verification_tokens&#45;&gt;public.users -->
<g id="edge1" class="edge">
<title>public.verification_tokens:user_id&#45;&gt;public.users:id</title>
<path fill="none" stroke="black" d="M384.44,-341.95C471.83,-327 446.99,-120.2 351.12,-120.2"/>
<polygon fill="black" stroke="black" points="384.43,-341.95 374.1,-338.29 379.12,-342.39 374.8,-342.74 374.8,-342.74 374.8,-342.74 379.12,-342.39 374.84,-347.26 384.43,-341.95"/>
<text text-anchor="start" x="381.14" y="-352.8" font-family="Arial" font-size="10.00">FOREIGN KEY (user_id) REFERENCES users(id) ON DELETE CASCADE</text>
</g>
</g>
</svg>
