<?xml version="1.0" encoding="UTF-8" standalone="no"?>
<!DOCTYPE svg PUBLIC "-//W3C//DTD SVG 1.1//EN"
 "http://www.w3.org/Graphics/SVG/1.1/DTD/svg11.dtd">
<!-- Generated by graphviz version 12.1.2 (20240928.0832)
 -->
<!-- Title: public.views Pages: 1 -->
<svg width="675pt" height="479pt"
 viewBox="0.00 0.00 675.21 478.80" xmlns="http://www.w3.org/2000/svg" xmlns:xlink="http://www.w3.org/1999/xlink">
<g id="graph0" class="graph" transform="scale(1 1) rotate(0) translate(4 474.8)">
<title>public.views</title>
<polygon fill="white" stroke="none" points="-4,4 -4,-474.8 671.21,-474.8 671.21,4 -4,4"/>
<!-- public.views -->
<g id="node1" class="node">
<title>public.views</title>
<polygon fill="#efefef" stroke="none" points="60.72,-389 60.72,-424.6 306.58,-424.6 306.58,-389 60.72,-389"/>
<polygon fill="none" stroke="black" points="60.72,-389 60.72,-424.6 306.58,-424.6 306.58,-389 60.72,-389"/>
<text text-anchor="start" x="75.66" y="-402.4" font-family="Arial Bold" font-size="18.00">public.views</text>
<text text-anchor="start" x="167.15" y="-402.4" font-family="Arial" font-size="14.00">    </text>
<text text-anchor="start" x="198.27" y="-402.4" font-family="Arial" font-size="14.00" fill="#666666">[BASE TABLE]</text>
<polygon fill="none" stroke="black" points="60.72,-358.2 60.72,-389 306.58,-389 306.58,-358.2 60.72,-358.2"/>
<text text-anchor="start" x="67.72" y="-370.4" font-family="Arial" font-size="14.00">viewer_id </text>
<text text-anchor="start" x="130.75" y="-370.4" font-family="Arial" font-size="14.00" fill="#666666">[uuid]</text>
<polygon fill="none" stroke="black" points="60.72,-327.4 60.72,-358.2 306.58,-358.2 306.58,-327.4 60.72,-327.4"/>
<text text-anchor="start" x="67.72" y="-339.6" font-family="Arial" font-size="14.00">viewed_id </text>
<text text-anchor="start" x="133.88" y="-339.6" font-family="Arial" font-size="14.00" fill="#666666">[uuid]</text>
<polygon fill="none" stroke="black" points="60.72,-296.6 60.72,-327.4 306.58,-327.4 306.58,-296.6 60.72,-296.6"/>
<text text-anchor="start" x="67.72" y="-308.8" font-family="Arial" font-size="14.00">view_time </text>
<text text-anchor="start" x="133.85" y="-308.8" font-family="Arial" font-size="14.00" fill="#666666">[timestamp with time zone]</text>
<polygon fill="none" stroke="black" stroke-width="3" points="59.22,-295.1 59.22,-426.1 308.08,-426.1 308.08,-295.1 59.22,-295.1"/>
</g>
<!-- public.users -->
<g id="node2" class="node">
<title>public.users</title>
<polygon fill="#efefef" stroke="none" points="43.2,-135.6 43.2,-171.2 324.1,-171.2 324.1,-135.6 43.2,-135.6"/>
<polygon fill="none" stroke="black" points="43.2,-135.6 43.2,-171.2 324.1,-171.2 324.1,-135.6 43.2,-135.6"/>
<text text-anchor="start" x="78.16" y="-149" font-family="Arial Bold" font-size="18.00">public.users</text>
<text text-anchor="start" x="164.65" y="-149" font-family="Arial" font-size="14.00">    </text>
<text text-anchor="start" x="195.77" y="-149" font-family="Arial" font-size="14.00" fill="#666666">[BASE TABLE]</text>
<polygon fill="none" stroke="black" points="43.2,-104.8 43.2,-135.6 324.1,-135.6 324.1,-104.8 43.2,-104.8"/>
<text text-anchor="start" x="50.2" y="-117" font-family="Arial" font-size="14.00">id </text>
<text text-anchor="start" x="64.99" y="-117" font-family="Arial" font-size="14.00" fill="#666666">[uuid]</text>
<polygon fill="none" stroke="black" points="43.2,-74 43.2,-104.8 324.1,-104.8 324.1,-74 43.2,-74"/>
<text text-anchor="start" x="50.2" y="-86.2" font-family="Arial" font-size="14.00">created_at </text>
<text text-anchor="start" x="120.25" y="-86.2" font-family="Arial" font-size="14.00" fill="#666666">[timestamp with time zone]</text>
<polygon fill="none" stroke="black" points="43.2,-43.2 43.2,-74 324.1,-74 324.1,-43.2 43.2,-43.2"/>
<text text-anchor="start" x="50.2" y="-55.4" font-family="Arial" font-size="14.00">last_connection </text>
<text text-anchor="start" x="151.38" y="-55.4" font-family="Arial" font-size="14.00" fill="#666666">[timestamp with time zone]</text>
</g>
<!-- public.views&#45;&gt;public.users -->
<g id="edge1" class="edge">
<title>public.views:viewer_id&#45;&gt;public.users:id</title>
<path fill="none" stroke="black" d="M317.4,-370.93C365.87,-343.84 378.13,-120.2 325.1,-120.2"/>
<polygon fill="black" stroke="black" points="317.55,-370.88 306.72,-369.17 312.4,-372.29 308.22,-373.42 308.22,-373.42 308.22,-373.42 312.4,-372.29 309.08,-377.85 317.55,-370.88"/>
<text text-anchor="start" x="314.58" y="-383.6" font-family="Arial" font-size="10.00">FOREIGN KEY (viewer_id) REFERENCES users(id) ON DELETE CASCADE</text>
</g>
<!-- public.views&#45;&gt;public.users -->
<g id="edge2" class="edge">
<title>public.views:viewed_id&#45;&gt;public.users:id</title>
<path fill="none" stroke="black" d="M317.29,-339.82C359.28,-313.41 371.33,-120.2 325.1,-120.2"/>
<polygon fill="black" stroke="black" points="317.46,-339.77 306.58,-338.4 312.36,-341.33 308.22,-342.6 308.22,-342.6 308.22,-342.6 312.36,-341.33 309.22,-347 317.46,-339.77"/>
<text text-anchor="start" x="314.58" y="-352.8" font-family="Arial" font-size="10.00">FOREIGN KEY (viewed_id) REFERENCES users(id) ON DELETE CASCADE</text>
</g>
</g>
</svg>
