<?xml version="1.0" encoding="UTF-8" standalone="no"?>
<!DOCTYPE svg PUBLIC "-//W3C//DTD SVG 1.1//EN"
 "http://www.w3.org/Graphics/SVG/1.1/DTD/svg11.dtd">
<!-- Generated by graphviz version 12.1.2 (20240928.0832)
 -->
<!-- Title: public.user_data Pages: 1 -->
<svg width="669pt" height="510pt"
 viewBox="0.00 0.00 669.09 509.60" xmlns="http://www.w3.org/2000/svg" xmlns:xlink="http://www.w3.org/1999/xlink">
<g id="graph0" class="graph" transform="scale(1 1) rotate(0) translate(4 505.6)">
<title>public.user_data</title>
<polygon fill="white" stroke="none" points="-4,4 -4,-505.6 665.09,-505.6 665.09,4 -4,4"/>
<!-- public.user_data -->
<g id="node1" class="node">
<title>public.user_data</title>
<polygon fill="#efefef" stroke="none" points="55.18,-419.8 55.18,-455.4 312.13,-455.4 312.13,-419.8 55.18,-419.8"/>
<polygon fill="none" stroke="black" points="55.18,-419.8 55.18,-455.4 312.13,-455.4 312.13,-419.8 55.18,-419.8"/>
<text text-anchor="start" x="62.18" y="-433.2" font-family="Arial Bold" font-size="18.00">public.user_data</text>
<text text-anchor="start" x="180.64" y="-433.2" font-family="Arial" font-size="14.00">    </text>
<text text-anchor="start" x="211.75" y="-433.2" font-family="Arial" font-size="14.00" fill="#666666">[BASE TABLE]</text>
<polygon fill="none" stroke="black" points="55.18,-389 55.18,-419.8 312.13,-419.8 312.13,-389 55.18,-389"/>
<text text-anchor="start" x="62.18" y="-401.2" font-family="Arial" font-size="14.00">user_id </text>
<text text-anchor="start" x="111.98" y="-401.2" font-family="Arial" font-size="14.00" fill="#666666">[uuid]</text>
<polygon fill="none" stroke="black" points="55.18,-358.2 55.18,-389 312.13,-389 312.13,-358.2 55.18,-358.2"/>
<text text-anchor="start" x="62.18" y="-370.4" font-family="Arial" font-size="14.00">latitude </text>
<text text-anchor="start" x="111.21" y="-370.4" font-family="Arial" font-size="14.00" fill="#666666">[numeric(10,8)]</text>
<polygon fill="none" stroke="black" points="55.18,-327.4 55.18,-358.2 312.13,-358.2 312.13,-327.4 55.18,-327.4"/>
<text text-anchor="start" x="62.18" y="-339.6" font-family="Arial" font-size="14.00">longitude </text>
<text text-anchor="start" x="122.89" y="-339.6" font-family="Arial" font-size="14.00" fill="#666666">[numeric(11,8)]</text>
<polygon fill="none" stroke="black" points="55.18,-296.6 55.18,-327.4 312.13,-327.4 312.13,-296.6 55.18,-296.6"/>
<text text-anchor="start" x="62.18" y="-308.8" font-family="Arial" font-size="14.00">internal_score </text>
<text text-anchor="start" x="154" y="-308.8" font-family="Arial" font-size="14.00" fill="#666666">[integer]</text>
<polygon fill="none" stroke="black" stroke-width="3" points="53.68,-295.1 53.68,-456.9 313.63,-456.9 313.63,-295.1 53.68,-295.1"/>
</g>
<!-- public.users -->
<g id="node2" class="node">
<title>public.users</title>
<polygon fill="#efefef" stroke="none" points="43.2,-135.6 43.2,-171.2 324.1,-171.2 324.1,-135.6 43.2,-135.6"/>
<polygon fill="none" stroke="black" points="43.2,-135.6 43.2,-171.2 324.1,-171.2 324.1,-135.6 43.2,-135.6"/>
<text text-anchor="start" x="78.16" y="-149" font-family="Arial Bold" font-size="18.00">public.users</text>
<text text-anchor="start" x="164.65" y="-149" font-family="Arial" font-size="14.00">    </text>
<text text-anchor="start" x="195.77" y="-149" font-family="Arial" font-size="14.00" fill="#666666">[BASE TABLE]</text>
<polygon fill="none" stroke="black" points="43.2,-104.8 43.2,-135.6 324.1,-135.6 324.1,-104.8 43.2,-104.8"/>
<text text-anchor="start" x="50.2" y="-117" font-family="Arial" font-size="14.00">id </text>
<text text-anchor="start" x="64.99" y="-117" font-family="Arial" font-size="14.00" fill="#666666">[uuid]</text>
<polygon fill="none" stroke="black" points="43.2,-74 43.2,-104.8 324.1,-104.8 324.1,-74 43.2,-74"/>
<text text-anchor="start" x="50.2" y="-86.2" font-family="Arial" font-size="14.00">created_at </text>
<text text-anchor="start" x="120.25" y="-86.2" font-family="Arial" font-size="14.00" fill="#666666">[timestamp with time zone]</text>
<polygon fill="none" stroke="black" points="43.2,-43.2 43.2,-74 324.1,-74 324.1,-43.2 43.2,-43.2"/>
<text text-anchor="start" x="50.2" y="-55.4" font-family="Arial" font-size="14.00">last_connection </text>
<text text-anchor="start" x="151.38" y="-55.4" font-family="Arial" font-size="14.00" fill="#666666">[timestamp with time zone]</text>
</g>
<!-- public.user_data&#45;&gt;public.users -->
<g id="edge1" class="edge">
<title>public.user_data:user_id&#45;&gt;public.users:id</title>
<path fill="none" stroke="black" d="M323.03,-401.94C377.42,-374.17 384.86,-120.2 325.1,-120.2"/>
<polygon fill="black" stroke="black" points="323.16,-401.91 312.37,-399.95 317.98,-403.2 313.77,-404.24 313.77,-404.24 313.77,-404.24 317.98,-403.2 314.53,-408.69 323.16,-401.91"/>
<text text-anchor="start" x="320.13" y="-414.4" font-family="Arial" font-size="10.00">FOREIGN KEY (user_id) REFERENCES users(id) ON DELETE CASCADE</text>
</g>
</g>
</svg>
