<?xml version="1.0" encoding="UTF-8" standalone="no"?>
<!DOCTYPE svg PUBLIC "-//W3C//DTD SVG 1.1//EN"
 "http://www.w3.org/Graphics/SVG/1.1/DTD/svg11.dtd">
<!-- Generated by graphviz version 12.1.2 (20240928.0832)
 -->
<!-- Title: public.password_resets Pages: 1 -->
<svg width="709pt" height="479pt"
 viewBox="0.00 0.00 709.12 478.80" xmlns="http://www.w3.org/2000/svg" xmlns:xlink="http://www.w3.org/1999/xlink">
<g id="graph0" class="graph" transform="scale(1 1) rotate(0) translate(4 474.8)">
<title>public.password_resets</title>
<polygon fill="white" stroke="none" points="-4,4 -4,-474.8 705.12,-474.8 705.12,4 -4,4"/>
<!-- public.password_resets -->
<g id="node1" class="node">
<title>public.password_resets</title>
<polygon fill="#efefef" stroke="none" points="46.2,-389 46.2,-424.6 352.16,-424.6 352.16,-389 46.2,-389"/>
<polygon fill="none" stroke="black" points="46.2,-389 46.2,-424.6 352.16,-424.6 352.16,-389 46.2,-389"/>
<text text-anchor="start" x="53.2" y="-402.4" font-family="Arial Bold" font-size="18.00">public.password_resets</text>
<text text-anchor="start" x="220.67" y="-402.4" font-family="Arial" font-size="14.00">    </text>
<text text-anchor="start" x="251.78" y="-402.4" font-family="Arial" font-size="14.00" fill="#666666">[BASE TABLE]</text>
<polygon fill="none" stroke="black" points="46.2,-358.2 46.2,-389 352.16,-389 352.16,-358.2 46.2,-358.2"/>
<text text-anchor="start" x="53.2" y="-370.4" font-family="Arial" font-size="14.00">user_id </text>
<text text-anchor="start" x="103.01" y="-370.4" font-family="Arial" font-size="14.00" fill="#666666">[uuid]</text>
<polygon fill="none" stroke="black" points="46.2,-327.4 46.2,-358.2 352.16,-358.2 352.16,-327.4 46.2,-327.4"/>
<text text-anchor="start" x="53.2" y="-339.6" font-family="Arial" font-size="14.00">token </text>
<text text-anchor="start" x="91.34" y="-339.6" font-family="Arial" font-size="14.00" fill="#666666">[varchar(64)]</text>
<polygon fill="none" stroke="black" points="46.2,-296.6 46.2,-327.4 352.16,-327.4 352.16,-296.6 46.2,-296.6"/>
<text text-anchor="start" x="53.2" y="-308.8" font-family="Arial" font-size="14.00">expires_at </text>
<text text-anchor="start" x="121.68" y="-308.8" font-family="Arial" font-size="14.00" fill="#666666">[timestamp with time zone]</text>
<polygon fill="none" stroke="black" stroke-width="3" points="44.7,-295.1 44.7,-426.1 353.66,-426.1 353.66,-295.1 44.7,-295.1"/>
</g>
<!-- public.users -->
<g id="node2" class="node">
<title>public.users</title>
<polygon fill="#efefef" stroke="none" points="58.73,-135.6 58.73,-171.2 339.63,-171.2 339.63,-135.6 58.73,-135.6"/>
<polygon fill="none" stroke="black" points="58.73,-135.6 58.73,-171.2 339.63,-171.2 339.63,-135.6 58.73,-135.6"/>
<text text-anchor="start" x="93.69" y="-149" font-family="Arial Bold" font-size="18.00">public.users</text>
<text text-anchor="start" x="180.18" y="-149" font-family="Arial" font-size="14.00">    </text>
<text text-anchor="start" x="211.29" y="-149" font-family="Arial" font-size="14.00" fill="#666666">[BASE TABLE]</text>
<polygon fill="none" stroke="black" points="58.73,-104.8 58.73,-135.6 339.63,-135.6 339.63,-104.8 58.73,-104.8"/>
<text text-anchor="start" x="65.73" y="-117" font-family="Arial" font-size="14.00">id </text>
<text text-anchor="start" x="80.51" y="-117" font-family="Arial" font-size="14.00" fill="#666666">[uuid]</text>
<polygon fill="none" stroke="black" points="58.73,-74 58.73,-104.8 339.63,-104.8 339.63,-74 58.73,-74"/>
<text text-anchor="start" x="65.73" y="-86.2" font-family="Arial" font-size="14.00">created_at </text>
<text text-anchor="start" x="135.77" y="-86.2" font-family="Arial" font-size="14.00" fill="#666666">[timestamp with time zone]</text>
<polygon fill="none" stroke="black" points="58.73,-43.2 58.73,-74 339.63,-74 339.63,-43.2 58.73,-43.2"/>
<text text-anchor="start" x="65.73" y="-55.4" font-family="Arial" font-size="14.00">last_connection </text>
<text text-anchor="start" x="166.91" y="-55.4" font-family="Arial" font-size="14.00" fill="#666666">[timestamp with time zone]</text>
</g>
<!-- public.password_resets&#45;&gt;public.users -->
<g id="edge1" class="edge">
<title>public.password_resets:user_id&#45;&gt;public.users:id</title>
<path fill="none" stroke="black" d="M362.93,-370.75C407.8,-342.91 393.49,-120.2 340.63,-120.2"/>
<polygon fill="black" stroke="black" points="363.08,-370.71 352.22,-369.19 357.96,-372.2 353.8,-373.41 353.8,-373.41 353.8,-373.41 357.96,-372.2 354.74,-377.83 363.08,-370.71"/>
<text text-anchor="start" x="360.16" y="-383.6" font-family="Arial" font-size="10.00">FOREIGN KEY (user_id) REFERENCES users(id) ON DELETE CASCADE</text>
</g>
</g>
</svg>
