<?xml version="1.0" encoding="UTF-8" standalone="no"?>
<!DOCTYPE svg PUBLIC "-//W3C//DTD SVG 1.1//EN"
 "http://www.w3.org/Graphics/SVG/1.1/DTD/svg11.dtd">
<!-- Generated by graphviz version 12.1.2 (20240928.0832)
 -->
<!-- Title: public.users Pages: 1 -->
<svg width="5596pt" height="725pt"
 viewBox="0.00 0.00 5596.48 725.20" xmlns="http://www.w3.org/2000/svg" xmlns:xlink="http://www.w3.org/1999/xlink">
<g id="graph0" class="graph" transform="scale(1 1) rotate(0) translate(4 721.2)">
<title>public.users</title>
<polygon fill="white" stroke="none" points="-4,4 -4,-721.2 5592.48,-721.2 5592.48,4 -4,4"/>
<!-- public.users -->
<g id="node1" class="node">
<title>public.users</title>
<polygon fill="#efefef" stroke="none" points="3256.03,-138.6 3256.03,-174.2 3536.94,-174.2 3536.94,-138.6 3256.03,-138.6"/>
<polygon fill="none" stroke="black" points="3256.03,-138.6 3256.03,-174.2 3536.94,-174.2 3536.94,-138.6 3256.03,-138.6"/>
<text text-anchor="start" x="3291" y="-152" font-family="Arial Bold" font-size="18.00">public.users</text>
<text text-anchor="start" x="3377.48" y="-152" font-family="Arial" font-size="14.00">    </text>
<text text-anchor="start" x="3408.6" y="-152" font-family="Arial" font-size="14.00" fill="#666666">[BASE TABLE]</text>
<polygon fill="none" stroke="black" points="3256.03,-107.8 3256.03,-138.6 3536.94,-138.6 3536.94,-107.8 3256.03,-107.8"/>
<text text-anchor="start" x="3263.03" y="-120" font-family="Arial" font-size="14.00">id </text>
<text text-anchor="start" x="3277.82" y="-120" font-family="Arial" font-size="14.00" fill="#666666">[uuid]</text>
<polygon fill="none" stroke="black" points="3256.03,-77 3256.03,-107.8 3536.94,-107.8 3536.94,-77 3256.03,-77"/>
<text text-anchor="start" x="3263.03" y="-89.2" font-family="Arial" font-size="14.00">created_at </text>
<text text-anchor="start" x="3333.08" y="-89.2" font-family="Arial" font-size="14.00" fill="#666666">[timestamp with time zone]</text>
<polygon fill="none" stroke="black" points="3256.03,-46.2 3256.03,-77 3536.94,-77 3536.94,-46.2 3256.03,-46.2"/>
<text text-anchor="start" x="3263.03" y="-58.4" font-family="Arial" font-size="14.00">last_connection </text>
<text text-anchor="start" x="3364.21" y="-58.4" font-family="Arial" font-size="14.00" fill="#666666">[timestamp with time zone]</text>
<polygon fill="none" stroke="black" stroke-width="3" points="3254.53,-44.7 3254.53,-175.7 3538.44,-175.7 3538.44,-44.7 3254.53,-44.7"/>
</g>
<!-- public.user_data -->
<g id="node2" class="node">
<title>public.user_data</title>
<polygon fill="#efefef" stroke="none" points="90.01,-530.6 90.01,-566.2 346.96,-566.2 346.96,-530.6 90.01,-530.6"/>
<polygon fill="none" stroke="black" points="90.01,-530.6 90.01,-566.2 346.96,-566.2 346.96,-530.6 90.01,-530.6"/>
<text text-anchor="start" x="97.01" y="-544" font-family="Arial Bold" font-size="18.00">public.user_data</text>
<text text-anchor="start" x="215.47" y="-544" font-family="Arial" font-size="14.00">    </text>
<text text-anchor="start" x="246.59" y="-544" font-family="Arial" font-size="14.00" fill="#666666">[BASE TABLE]</text>
<polygon fill="none" stroke="black" points="90.01,-499.8 90.01,-530.6 346.96,-530.6 346.96,-499.8 90.01,-499.8"/>
<text text-anchor="start" x="97.01" y="-512" font-family="Arial" font-size="14.00">user_id </text>
<text text-anchor="start" x="146.82" y="-512" font-family="Arial" font-size="14.00" fill="#666666">[uuid]</text>
<polygon fill="none" stroke="black" points="90.01,-469 90.01,-499.8 346.96,-499.8 346.96,-469 90.01,-469"/>
<text text-anchor="start" x="97.01" y="-481.2" font-family="Arial" font-size="14.00">latitude </text>
<text text-anchor="start" x="146.05" y="-481.2" font-family="Arial" font-size="14.00" fill="#666666">[numeric(10,8)]</text>
<polygon fill="none" stroke="black" points="90.01,-438.2 90.01,-469 346.96,-469 346.96,-438.2 90.01,-438.2"/>
<text text-anchor="start" x="97.01" y="-450.4" font-family="Arial" font-size="14.00">longitude </text>
<text text-anchor="start" x="157.73" y="-450.4" font-family="Arial" font-size="14.00" fill="#666666">[numeric(11,8)]</text>
<polygon fill="none" stroke="black" points="90.01,-407.4 90.01,-438.2 346.96,-438.2 346.96,-407.4 90.01,-407.4"/>
<text text-anchor="start" x="97.01" y="-419.6" font-family="Arial" font-size="14.00">internal_score </text>
<text text-anchor="start" x="188.84" y="-419.6" font-family="Arial" font-size="14.00" fill="#666666">[integer]</text>
</g>
<!-- public.user_data&#45;&gt;public.users -->
<g id="edge1" class="edge">
<title>public.user_data:user_id&#45;&gt;public.users:id</title>
<path fill="none" stroke="black" d="M358.17,-514.67C455.81,-503.91 313.36,-330.5 399.49,-256.4 519.88,-152.83 3096.22,-123.2 3255.03,-123.2"/>
<polygon fill="black" stroke="black" points="358.28,-514.67 348.06,-510.69 352.95,-514.94 348.63,-515.17 348.63,-515.17 348.63,-515.17 352.95,-514.94 348.53,-519.68 358.28,-514.67"/>
<text text-anchor="start" x="7" y="-525.2" font-family="Arial" font-size="10.00">FOREIGN KEY (user_id) REFERENCES users(id) ON DELETE CASCADE</text>
</g>
<!-- public.auths -->
<g id="node3" class="node">
<title>public.auths</title>
<polygon fill="#efefef" stroke="none" points="451.5,-576.8 451.5,-612.4 677.47,-612.4 677.47,-576.8 451.5,-576.8"/>
<polygon fill="none" stroke="black" points="451.5,-576.8 451.5,-612.4 677.47,-612.4 677.47,-576.8 451.5,-576.8"/>
<text text-anchor="start" x="458.5" y="-590.2" font-family="Arial Bold" font-size="18.00">public.auths</text>
<text text-anchor="start" x="545.98" y="-590.2" font-family="Arial" font-size="14.00">    </text>
<text text-anchor="start" x="577.1" y="-590.2" font-family="Arial" font-size="14.00" fill="#666666">[BASE TABLE]</text>
<polygon fill="none" stroke="black" points="451.5,-546 451.5,-576.8 677.47,-576.8 677.47,-546 451.5,-546"/>
<text text-anchor="start" x="458.5" y="-558.2" font-family="Arial" font-size="14.00">id </text>
<text text-anchor="start" x="473.28" y="-558.2" font-family="Arial" font-size="14.00" fill="#666666">[integer]</text>
<polygon fill="none" stroke="black" points="451.5,-515.2 451.5,-546 677.47,-546 677.47,-515.2 451.5,-515.2"/>
<text text-anchor="start" x="458.5" y="-527.4" font-family="Arial" font-size="14.00">user_id </text>
<text text-anchor="start" x="508.3" y="-527.4" font-family="Arial" font-size="14.00" fill="#666666">[uuid]</text>
<polygon fill="none" stroke="black" points="451.5,-484.4 451.5,-515.2 677.47,-515.2 677.47,-484.4 451.5,-484.4"/>
<text text-anchor="start" x="458.5" y="-496.6" font-family="Arial" font-size="14.00">provider </text>
<text text-anchor="start" x="512.97" y="-496.6" font-family="Arial" font-size="14.00" fill="#666666">[auth_provider_enum]</text>
<polygon fill="none" stroke="black" points="451.5,-453.6 451.5,-484.4 677.47,-484.4 677.47,-453.6 451.5,-453.6"/>
<text text-anchor="start" x="458.5" y="-465.8" font-family="Arial" font-size="14.00">provider_uid </text>
<text text-anchor="start" x="539.44" y="-465.8" font-family="Arial" font-size="14.00" fill="#666666">[varchar(255)]</text>
<polygon fill="none" stroke="black" points="451.5,-422.8 451.5,-453.6 677.47,-453.6 677.47,-422.8 451.5,-422.8"/>
<text text-anchor="start" x="458.5" y="-435" font-family="Arial" font-size="14.00">email </text>
<text text-anchor="start" x="495.84" y="-435" font-family="Arial" font-size="14.00" fill="#666666">[varchar(255)]</text>
<polygon fill="none" stroke="black" points="451.5,-392 451.5,-422.8 677.47,-422.8 677.47,-392 451.5,-392"/>
<text text-anchor="start" x="458.5" y="-404.2" font-family="Arial" font-size="14.00">is_verified </text>
<text text-anchor="start" x="525.42" y="-404.2" font-family="Arial" font-size="14.00" fill="#666666">[boolean]</text>
<polygon fill="none" stroke="black" points="451.5,-361.2 451.5,-392 677.47,-392 677.47,-361.2 451.5,-361.2"/>
<text text-anchor="start" x="458.5" y="-373.4" font-family="Arial" font-size="14.00">password_hash </text>
<text text-anchor="start" x="560.45" y="-373.4" font-family="Arial" font-size="14.00" fill="#666666">[varchar(255)]</text>
</g>
<!-- public.auths&#45;&gt;public.users -->
<g id="edge2" class="edge">
<title>public.auths:user_id&#45;&gt;public.users:id</title>
<path fill="none" stroke="black" d="M688.64,-530.11C792.92,-519.42 639.01,-335.72 729.49,-256.4 835.14,-163.78 3114.53,-123.2 3255.03,-123.2"/>
<polygon fill="black" stroke="black" points="688.8,-530.1 678.59,-526.09 683.47,-530.36 679.14,-530.57 679.14,-530.57 679.14,-530.57 683.47,-530.36 679.02,-535.08 688.8,-530.1"/>
<text text-anchor="start" x="511.49" y="-514.6" font-family="Arial" font-size="10.00">FOREIGN KEY (user_id) REFERENCES users(id) ON DELETE CASCADE</text>
</g>
<!-- public.verification_tokens -->
<g id="node4" class="node">
<title>public.verification_tokens</title>
<polygon fill="#efefef" stroke="none" points="782.02,-515.2 782.02,-550.8 1108.95,-550.8 1108.95,-515.2 782.02,-515.2"/>
<polygon fill="none" stroke="black" points="782.02,-515.2 782.02,-550.8 1108.95,-550.8 1108.95,-515.2 782.02,-515.2"/>
<text text-anchor="start" x="789.02" y="-528.6" font-family="Arial Bold" font-size="18.00">public.verification_tokens</text>
<text text-anchor="start" x="977.46" y="-528.6" font-family="Arial" font-size="14.00">    </text>
<text text-anchor="start" x="1008.58" y="-528.6" font-family="Arial" font-size="14.00" fill="#666666">[BASE TABLE]</text>
<polygon fill="none" stroke="black" points="782.02,-484.4 782.02,-515.2 1108.95,-515.2 1108.95,-484.4 782.02,-484.4"/>
<text text-anchor="start" x="789.02" y="-496.6" font-family="Arial" font-size="14.00">token </text>
<text text-anchor="start" x="827.16" y="-496.6" font-family="Arial" font-size="14.00" fill="#666666">[varchar(64)]</text>
<polygon fill="none" stroke="black" points="782.02,-453.6 782.02,-484.4 1108.95,-484.4 1108.95,-453.6 782.02,-453.6"/>
<text text-anchor="start" x="789.02" y="-465.8" font-family="Arial" font-size="14.00">user_id </text>
<text text-anchor="start" x="838.82" y="-465.8" font-family="Arial" font-size="14.00" fill="#666666">[uuid]</text>
<polygon fill="none" stroke="black" points="782.02,-422.8 782.02,-453.6 1108.95,-453.6 1108.95,-422.8 782.02,-422.8"/>
<text text-anchor="start" x="789.02" y="-435" font-family="Arial" font-size="14.00">expires_at </text>
<text text-anchor="start" x="857.5" y="-435" font-family="Arial" font-size="14.00" fill="#666666">[timestamp with time zone]</text>
</g>
<!-- public.verification_tokens&#45;&gt;public.users -->
<g id="edge3" class="edge">
<title>public.verification_tokens:user_id&#45;&gt;public.users:id</title>
<path fill="none" stroke="black" d="M1119.9,-468.39C1198.53,-457.98 1089.78,-316.59 1161.49,-256.4 1250.75,-181.48 3138.49,-123.2 3255.03,-123.2"/>
<polygon fill="black" stroke="black" points="1120.27,-468.37 1110.01,-464.49 1114.94,-468.69 1110.62,-468.96 1110.62,-468.96 1110.62,-468.96 1114.94,-468.69 1110.56,-473.47 1120.27,-468.37"/>
<text text-anchor="start" x="942.97" y="-453" font-family="Arial" font-size="10.00">FOREIGN KEY (user_id) REFERENCES users(id) ON DELETE CASCADE</text>
</g>
<!-- public.password_resets -->
<g id="node5" class="node">
<title>public.password_resets</title>
<polygon fill="#efefef" stroke="none" points="1213.51,-515.2 1213.51,-550.8 1519.46,-550.8 1519.46,-515.2 1213.51,-515.2"/>
<polygon fill="none" stroke="black" points="1213.51,-515.2 1213.51,-550.8 1519.46,-550.8 1519.46,-515.2 1213.51,-515.2"/>
<text text-anchor="start" x="1220.51" y="-528.6" font-family="Arial Bold" font-size="18.00">public.password_resets</text>
<text text-anchor="start" x="1387.97" y="-528.6" font-family="Arial" font-size="14.00">    </text>
<text text-anchor="start" x="1419.09" y="-528.6" font-family="Arial" font-size="14.00" fill="#666666">[BASE TABLE]</text>
<polygon fill="none" stroke="black" points="1213.51,-484.4 1213.51,-515.2 1519.46,-515.2 1519.46,-484.4 1213.51,-484.4"/>
<text text-anchor="start" x="1220.51" y="-496.6" font-family="Arial" font-size="14.00">user_id </text>
<text text-anchor="start" x="1270.31" y="-496.6" font-family="Arial" font-size="14.00" fill="#666666">[uuid]</text>
<polygon fill="none" stroke="black" points="1213.51,-453.6 1213.51,-484.4 1519.46,-484.4 1519.46,-453.6 1213.51,-453.6"/>
<text text-anchor="start" x="1220.51" y="-465.8" font-family="Arial" font-size="14.00">token </text>
<text text-anchor="start" x="1258.65" y="-465.8" font-family="Arial" font-size="14.00" fill="#666666">[varchar(64)]</text>
<polygon fill="none" stroke="black" points="1213.51,-422.8 1213.51,-453.6 1519.46,-453.6 1519.46,-422.8 1213.51,-422.8"/>
<text text-anchor="start" x="1220.51" y="-435" font-family="Arial" font-size="14.00">expires_at </text>
<text text-anchor="start" x="1288.99" y="-435" font-family="Arial" font-size="14.00" fill="#666666">[timestamp with time zone]</text>
</g>
<!-- public.password_resets&#45;&gt;public.users -->
<g id="edge4" class="edge">
<title>public.password_resets:user_id&#45;&gt;public.users:id</title>
<path fill="none" stroke="black" d="M1530.65,-499.25C1621.78,-488.59 1491.26,-326.99 1571.49,-256.4 1712.37,-132.45 3067.39,-123.2 3255.03,-123.2"/>
<polygon fill="black" stroke="black" points="1530.78,-499.24 1520.55,-495.29 1525.46,-499.53 1521.13,-499.76 1521.13,-499.76 1521.13,-499.76 1525.46,-499.53 1521.04,-504.28 1530.78,-499.24"/>
<text text-anchor="start" x="1527.46" y="-509.8" font-family="Arial" font-size="10.00">FOREIGN KEY (user_id) REFERENCES users(id) ON DELETE CASCADE</text>
</g>
<!-- public.user_profiles -->
<g id="node6" class="node">
<title>public.user_profiles</title>
<polygon fill="#efefef" stroke="none" points="1623.51,-638.4 1623.51,-674 1905.46,-674 1905.46,-638.4 1623.51,-638.4"/>
<polygon fill="none" stroke="black" points="1623.51,-638.4 1623.51,-674 1905.46,-674 1905.46,-638.4 1623.51,-638.4"/>
<text text-anchor="start" x="1630.51" y="-651.8" font-family="Arial Bold" font-size="18.00">public.user_profiles</text>
<text text-anchor="start" x="1773.97" y="-651.8" font-family="Arial" font-size="14.00">    </text>
<text text-anchor="start" x="1805.09" y="-651.8" font-family="Arial" font-size="14.00" fill="#666666">[BASE TABLE]</text>
<polygon fill="none" stroke="black" points="1623.51,-607.6 1623.51,-638.4 1905.46,-638.4 1905.46,-607.6 1623.51,-607.6"/>
<text text-anchor="start" x="1630.51" y="-619.8" font-family="Arial" font-size="14.00">user_id </text>
<text text-anchor="start" x="1680.32" y="-619.8" font-family="Arial" font-size="14.00" fill="#666666">[uuid]</text>
<polygon fill="none" stroke="black" points="1623.51,-576.8 1623.51,-607.6 1905.46,-607.6 1905.46,-576.8 1623.51,-576.8"/>
<text text-anchor="start" x="1630.51" y="-589" font-family="Arial" font-size="14.00">first_name </text>
<text text-anchor="start" x="1699.76" y="-589" font-family="Arial" font-size="14.00" fill="#666666">[varchar(50)]</text>
<polygon fill="none" stroke="black" points="1623.51,-546 1623.51,-576.8 1905.46,-576.8 1905.46,-546 1623.51,-546"/>
<text text-anchor="start" x="1630.51" y="-558.2" font-family="Arial" font-size="14.00">last_name </text>
<text text-anchor="start" x="1698.99" y="-558.2" font-family="Arial" font-size="14.00" fill="#666666">[varchar(50)]</text>
<polygon fill="none" stroke="black" points="1623.51,-515.2 1623.51,-546 1905.46,-546 1905.46,-515.2 1623.51,-515.2"/>
<text text-anchor="start" x="1630.51" y="-527.4" font-family="Arial" font-size="14.00">username </text>
<text text-anchor="start" x="1696.65" y="-527.4" font-family="Arial" font-size="14.00" fill="#666666">[varchar(50)]</text>
<polygon fill="none" stroke="black" points="1623.51,-484.4 1623.51,-515.2 1905.46,-515.2 1905.46,-484.4 1623.51,-484.4"/>
<text text-anchor="start" x="1630.51" y="-496.6" font-family="Arial" font-size="14.00">gender </text>
<text text-anchor="start" x="1677.99" y="-496.6" font-family="Arial" font-size="14.00" fill="#666666">[gender_enum]</text>
<polygon fill="none" stroke="black" points="1623.51,-453.6 1623.51,-484.4 1905.46,-484.4 1905.46,-453.6 1623.51,-453.6"/>
<text text-anchor="start" x="1630.51" y="-465.8" font-family="Arial" font-size="14.00">sexual_preference </text>
<text text-anchor="start" x="1749.58" y="-465.8" font-family="Arial" font-size="14.00" fill="#666666">[preference_enum]</text>
<polygon fill="none" stroke="black" points="1623.51,-422.8 1623.51,-453.6 1905.46,-453.6 1905.46,-422.8 1623.51,-422.8"/>
<text text-anchor="start" x="1630.51" y="-435" font-family="Arial" font-size="14.00">birthday </text>
<text text-anchor="start" x="1684.21" y="-435" font-family="Arial" font-size="14.00" fill="#666666">[date]</text>
<polygon fill="none" stroke="black" points="1623.51,-392 1623.51,-422.8 1905.46,-422.8 1905.46,-392 1623.51,-392"/>
<text text-anchor="start" x="1630.51" y="-404.2" font-family="Arial" font-size="14.00">occupation </text>
<text text-anchor="start" x="1702.12" y="-404.2" font-family="Arial" font-size="14.00" fill="#666666">[varchar(255)]</text>
<polygon fill="none" stroke="black" points="1623.51,-361.2 1623.51,-392 1905.46,-392 1905.46,-361.2 1623.51,-361.2"/>
<text text-anchor="start" x="1630.51" y="-373.4" font-family="Arial" font-size="14.00">biography </text>
<text text-anchor="start" x="1695.89" y="-373.4" font-family="Arial" font-size="14.00" fill="#666666">[text]</text>
<polygon fill="none" stroke="black" points="1623.51,-330.4 1623.51,-361.2 1905.46,-361.2 1905.46,-330.4 1623.51,-330.4"/>
<text text-anchor="start" x="1630.51" y="-342.6" font-family="Arial" font-size="14.00">fame_rating </text>
<text text-anchor="start" x="1708.33" y="-342.6" font-family="Arial" font-size="14.00" fill="#666666">[integer]</text>
<polygon fill="none" stroke="black" points="1623.51,-299.6 1623.51,-330.4 1905.46,-330.4 1905.46,-299.6 1623.51,-299.6"/>
<text text-anchor="start" x="1630.51" y="-311.8" font-family="Arial" font-size="14.00">location_name </text>
<text text-anchor="start" x="1725.46" y="-311.8" font-family="Arial" font-size="14.00" fill="#666666">[varchar(255)]</text>
</g>
<!-- public.user_profiles&#45;&gt;public.users -->
<g id="edge5" class="edge">
<title>public.user_profiles:user_id&#45;&gt;public.users:id</title>
<path fill="none" stroke="black" d="M1916.53,-621.18C1980.89,-595.7 1900.95,-310.94 1957.49,-256.4 2061.79,-155.78 3110.1,-123.2 3255.03,-123.2"/>
<polygon fill="black" stroke="black" points="1916.63,-621.16 1905.99,-618.51 1911.38,-622.11 1907.12,-622.88 1907.12,-622.88 1907.12,-622.88 1911.38,-622.11 1907.59,-627.37 1916.63,-621.16"/>
<text text-anchor="start" x="1913.46" y="-633" font-family="Arial" font-size="10.00">FOREIGN KEY (user_id) REFERENCES users(id) ON DELETE CASCADE</text>
</g>
<!-- public.user_tags -->
<g id="node7" class="node">
<title>public.user_tags</title>
<polygon fill="#efefef" stroke="none" points="2009.5,-499.8 2009.5,-535.4 2265.47,-535.4 2265.47,-499.8 2009.5,-499.8"/>
<polygon fill="none" stroke="black" points="2009.5,-499.8 2009.5,-535.4 2265.47,-535.4 2265.47,-499.8 2009.5,-499.8"/>
<text text-anchor="start" x="2016.5" y="-513.2" font-family="Arial Bold" font-size="18.00">public.user_tags</text>
<text text-anchor="start" x="2133.98" y="-513.2" font-family="Arial" font-size="14.00">    </text>
<text text-anchor="start" x="2165.1" y="-513.2" font-family="Arial" font-size="14.00" fill="#666666">[BASE TABLE]</text>
<polygon fill="none" stroke="black" points="2009.5,-469 2009.5,-499.8 2265.47,-499.8 2265.47,-469 2009.5,-469"/>
<text text-anchor="start" x="2016.5" y="-481.2" font-family="Arial" font-size="14.00">user_id </text>
<text text-anchor="start" x="2066.31" y="-481.2" font-family="Arial" font-size="14.00" fill="#666666">[uuid]</text>
<polygon fill="none" stroke="black" points="2009.5,-438.2 2009.5,-469 2265.47,-469 2265.47,-438.2 2009.5,-438.2"/>
<text text-anchor="start" x="2016.5" y="-450.4" font-family="Arial" font-size="14.00">tag_id </text>
<text text-anchor="start" x="2058.54" y="-450.4" font-family="Arial" font-size="14.00" fill="#666666">[integer]</text>
</g>
<!-- public.user_tags&#45;&gt;public.users -->
<g id="edge6" class="edge">
<title>public.user_tags:user_id&#45;&gt;public.users:id</title>
<path fill="none" stroke="black" d="M2276.83,-483.79C2361.25,-473.13 2243.97,-324.32 2317.49,-256.4 2394.77,-185 3149.82,-123.2 3255.03,-123.2"/>
<polygon fill="black" stroke="black" points="2276.78,-483.8 2266.54,-479.89 2271.46,-484.11 2267.14,-484.36 2267.14,-484.36 2267.14,-484.36 2271.46,-484.11 2267.06,-488.87 2276.78,-483.8"/>
<text text-anchor="start" x="2099.49" y="-468.4" font-family="Arial" font-size="10.00">FOREIGN KEY (user_id) REFERENCES users(id) ON DELETE CASCADE</text>
</g>
<!-- public.pictures -->
<g id="node8" class="node">
<title>public.pictures</title>
<polygon fill="#efefef" stroke="none" points="2369.6,-546 2369.6,-581.6 2619.37,-581.6 2619.37,-546 2369.6,-546"/>
<polygon fill="none" stroke="black" points="2369.6,-546 2369.6,-581.6 2619.37,-581.6 2619.37,-546 2369.6,-546"/>
<text text-anchor="start" x="2379.01" y="-559.4" font-family="Arial Bold" font-size="18.00">public.pictures</text>
<text text-anchor="start" x="2485.48" y="-559.4" font-family="Arial" font-size="14.00">    </text>
<text text-anchor="start" x="2516.59" y="-559.4" font-family="Arial" font-size="14.00" fill="#666666">[BASE TABLE]</text>
<polygon fill="none" stroke="black" points="2369.6,-515.2 2369.6,-546 2619.37,-546 2619.37,-515.2 2369.6,-515.2"/>
<text text-anchor="start" x="2376.6" y="-527.4" font-family="Arial" font-size="14.00">id </text>
<text text-anchor="start" x="2391.39" y="-527.4" font-family="Arial" font-size="14.00" fill="#666666">[integer]</text>
<polygon fill="none" stroke="black" points="2369.6,-484.4 2369.6,-515.2 2619.37,-515.2 2619.37,-484.4 2369.6,-484.4"/>
<text text-anchor="start" x="2376.6" y="-496.6" font-family="Arial" font-size="14.00">user_id </text>
<text text-anchor="start" x="2426.41" y="-496.6" font-family="Arial" font-size="14.00" fill="#666666">[uuid]</text>
<polygon fill="none" stroke="black" points="2369.6,-453.6 2369.6,-484.4 2619.37,-484.4 2619.37,-453.6 2369.6,-453.6"/>
<text text-anchor="start" x="2376.6" y="-465.8" font-family="Arial" font-size="14.00">url </text>
<text text-anchor="start" x="2396.05" y="-465.8" font-family="Arial" font-size="14.00" fill="#666666">[varchar(255)]</text>
<polygon fill="none" stroke="black" points="2369.6,-422.8 2369.6,-453.6 2619.37,-453.6 2619.37,-422.8 2369.6,-422.8"/>
<text text-anchor="start" x="2376.6" y="-435" font-family="Arial" font-size="14.00">is_profile_pic </text>
<text text-anchor="start" x="2462.2" y="-435" font-family="Arial" font-size="14.00" fill="#666666">[boolean]</text>
<polygon fill="none" stroke="black" points="2369.6,-392 2369.6,-422.8 2619.37,-422.8 2619.37,-392 2369.6,-392"/>
<text text-anchor="start" x="2376.6" y="-404.2" font-family="Arial" font-size="14.00">created_at </text>
<text text-anchor="start" x="2446.65" y="-404.2" font-family="Arial" font-size="14.00" fill="#666666">[timestamp with time zone]</text>
</g>
<!-- public.pictures&#45;&gt;public.users -->
<g id="edge7" class="edge">
<title>public.pictures:user_id&#45;&gt;public.users:id</title>
<path fill="none" stroke="black" d="M2630.58,-499.26C2722.05,-488.97 2596.58,-332.62 2671.49,-256.4 2764.72,-161.53 3122.02,-123.2 3255.03,-123.2"/>
<polygon fill="black" stroke="black" points="2630.69,-499.26 2620.47,-495.29 2625.36,-499.54 2621.04,-499.76 2621.04,-499.76 2621.04,-499.76 2625.36,-499.54 2620.94,-504.28 2630.69,-499.26"/>
<text text-anchor="start" x="2627.37" y="-509.8" font-family="Arial" font-size="10.00">FOREIGN KEY (user_id) REFERENCES users(id) ON DELETE CASCADE</text>
</g>
<!-- public.likes -->
<g id="node9" class="node">
<title>public.likes</title>
<polygon fill="#efefef" stroke="none" points="2723.6,-515.2 2723.6,-550.8 2973.37,-550.8 2973.37,-515.2 2723.6,-515.2"/>
<polygon fill="none" stroke="black" points="2723.6,-515.2 2723.6,-550.8 2973.37,-550.8 2973.37,-515.2 2723.6,-515.2"/>
<text text-anchor="start" x="2744.5" y="-528.6" font-family="Arial Bold" font-size="18.00">public.likes</text>
<text text-anchor="start" x="2827.98" y="-528.6" font-family="Arial" font-size="14.00">    </text>
<text text-anchor="start" x="2859.1" y="-528.6" font-family="Arial" font-size="14.00" fill="#666666">[BASE TABLE]</text>
<polygon fill="none" stroke="black" points="2723.6,-484.4 2723.6,-515.2 2973.37,-515.2 2973.37,-484.4 2723.6,-484.4"/>
<text text-anchor="start" x="2730.6" y="-496.6" font-family="Arial" font-size="14.00">liker_id </text>
<text text-anchor="start" x="2778.84" y="-496.6" font-family="Arial" font-size="14.00" fill="#666666">[uuid]</text>
<polygon fill="none" stroke="black" points="2723.6,-453.6 2723.6,-484.4 2973.37,-484.4 2973.37,-453.6 2723.6,-453.6"/>
<text text-anchor="start" x="2730.6" y="-465.8" font-family="Arial" font-size="14.00">liked_id </text>
<text text-anchor="start" x="2781.97" y="-465.8" font-family="Arial" font-size="14.00" fill="#666666">[uuid]</text>
<polygon fill="none" stroke="black" points="2723.6,-422.8 2723.6,-453.6 2973.37,-453.6 2973.37,-422.8 2723.6,-422.8"/>
<text text-anchor="start" x="2730.6" y="-435" font-family="Arial" font-size="14.00">created_at </text>
<text text-anchor="start" x="2800.65" y="-435" font-family="Arial" font-size="14.00" fill="#666666">[timestamp with time zone]</text>
</g>
<!-- public.likes&#45;&gt;public.users -->
<g id="edge8" class="edge">
<title>public.likes:liked_id&#45;&gt;public.users:id</title>
<path fill="none" stroke="black" d="M2984.38,-468.45C3064.05,-459.08 2969.57,-331.43 3025.49,-256.4 3095.97,-161.82 3137.08,-123.2 3255.03,-123.2"/>
<polygon fill="black" stroke="black" points="2984.69,-468.44 2974.46,-464.49 2979.36,-468.73 2975.04,-468.96 2975.04,-468.96 2975.04,-468.96 2979.36,-468.73 2974.95,-473.48 2984.69,-468.44"/>
<text text-anchor="start" x="2632.3" y="-479" font-family="Arial" font-size="10.00">FOREIGN KEY (liked_id) REFERENCES users(id) ON DELETE CASCADE</text>
</g>
<!-- public.likes&#45;&gt;public.users -->
<g id="edge9" class="edge">
<title>public.likes:liker_id&#45;&gt;public.users:id</title>
<path fill="none" stroke="black" d="M2984.62,-499.3C3076.87,-489.66 2962.87,-343 3025.49,-256.4 3094.6,-160.81 3137.08,-123.2 3255.03,-123.2"/>
<polygon fill="black" stroke="black" points="2984.69,-499.3 2974.49,-495.29 2979.37,-499.56 2975.04,-499.77 2975.04,-499.77 2975.04,-499.77 2979.37,-499.56 2974.93,-504.28 2984.69,-499.3"/>
<text text-anchor="start" x="2807.95" y="-483.8" font-family="Arial" font-size="10.00">FOREIGN KEY (liker_id) REFERENCES users(id) ON DELETE CASCADE</text>
</g>
<!-- public.connections -->
<g id="node10" class="node">
<title>public.connections</title>
<polygon fill="#efefef" stroke="none" points="3077.51,-515.2 3077.51,-550.8 3351.46,-550.8 3351.46,-515.2 3077.51,-515.2"/>
<polygon fill="none" stroke="black" points="3077.51,-515.2 3077.51,-550.8 3351.46,-550.8 3351.46,-515.2 3077.51,-515.2"/>
<text text-anchor="start" x="3084.51" y="-528.6" font-family="Arial Bold" font-size="18.00">public.connections</text>
<text text-anchor="start" x="3219.97" y="-528.6" font-family="Arial" font-size="14.00">    </text>
<text text-anchor="start" x="3251.09" y="-528.6" font-family="Arial" font-size="14.00" fill="#666666">[BASE TABLE]</text>
<polygon fill="none" stroke="black" points="3077.51,-484.4 3077.51,-515.2 3351.46,-515.2 3351.46,-484.4 3077.51,-484.4"/>
<text text-anchor="start" x="3084.51" y="-496.6" font-family="Arial" font-size="14.00">user1_id </text>
<text text-anchor="start" x="3142.1" y="-496.6" font-family="Arial" font-size="14.00" fill="#666666">[uuid]</text>
<polygon fill="none" stroke="black" points="3077.51,-453.6 3077.51,-484.4 3351.46,-484.4 3351.46,-453.6 3077.51,-453.6"/>
<text text-anchor="start" x="3084.51" y="-465.8" font-family="Arial" font-size="14.00">user2_id </text>
<text text-anchor="start" x="3142.1" y="-465.8" font-family="Arial" font-size="14.00" fill="#666666">[uuid]</text>
<polygon fill="none" stroke="black" points="3077.51,-422.8 3077.51,-453.6 3351.46,-453.6 3351.46,-422.8 3077.51,-422.8"/>
<text text-anchor="start" x="3084.51" y="-435" font-family="Arial" font-size="14.00">created_at </text>
<text text-anchor="start" x="3154.56" y="-435" font-family="Arial" font-size="14.00" fill="#666666">[timestamp with time zone]</text>
</g>
<!-- public.connections&#45;&gt;public.users -->
<g id="edge10" class="edge">
<title>public.connections:user1_id&#45;&gt;public.users:id</title>
<path fill="none" stroke="black" d="M3362.39,-498.81C3400.39,-490.21 3364.91,-427.41 3351.46,-379.6 3329.13,-300.19 3278.45,-299.79 3256.03,-220.4 3244.3,-178.82 3211.83,-123.2 3255.03,-123.2"/>
<polygon fill="black" stroke="black" points="3362.75,-498.77 3352.35,-495.29 3357.44,-499.3 3353.13,-499.73 3353.13,-499.73 3353.13,-499.73 3357.44,-499.3 3353.24,-504.24 3362.75,-498.77"/>
<text text-anchor="start" x="3359.46" y="-509.8" font-family="Arial" font-size="10.00">FOREIGN KEY (user1_id) REFERENCES users(id) ON DELETE CASCADE</text>
</g>
<!-- public.connections&#45;&gt;public.users -->
<g id="edge11" class="edge">
<title>public.connections:user2_id&#45;&gt;public.users:id</title>
<path fill="none" stroke="black" d="M3362.76,-468.44C3492.92,-452.98 3099.1,-123.2 3255.03,-123.2"/>
<polygon fill="black" stroke="black" points="3362.78,-468.44 3352.55,-464.49 3357.46,-468.73 3353.13,-468.96 3353.13,-468.96 3353.13,-468.96 3357.46,-468.73 3353.04,-473.48 3362.78,-468.44"/>
<text text-anchor="start" x="3359.46" y="-479" font-family="Arial" font-size="10.00">FOREIGN KEY (user2_id) REFERENCES users(id) ON DELETE CASCADE</text>
</g>
<!-- public.views -->
<g id="node11" class="node">
<title>public.views</title>
<polygon fill="#efefef" stroke="none" points="3455.56,-515.2 3455.56,-550.8 3701.41,-550.8 3701.41,-515.2 3455.56,-515.2"/>
<polygon fill="none" stroke="black" points="3455.56,-515.2 3455.56,-550.8 3701.41,-550.8 3701.41,-515.2 3455.56,-515.2"/>
<text text-anchor="start" x="3470.5" y="-528.6" font-family="Arial Bold" font-size="18.00">public.views</text>
<text text-anchor="start" x="3561.98" y="-528.6" font-family="Arial" font-size="14.00">    </text>
<text text-anchor="start" x="3593.1" y="-528.6" font-family="Arial" font-size="14.00" fill="#666666">[BASE TABLE]</text>
<polygon fill="none" stroke="black" points="3455.56,-484.4 3455.56,-515.2 3701.41,-515.2 3701.41,-484.4 3455.56,-484.4"/>
<text text-anchor="start" x="3462.56" y="-496.6" font-family="Arial" font-size="14.00">viewer_id </text>
<text text-anchor="start" x="3525.59" y="-496.6" font-family="Arial" font-size="14.00" fill="#666666">[uuid]</text>
<polygon fill="none" stroke="black" points="3455.56,-453.6 3455.56,-484.4 3701.41,-484.4 3701.41,-453.6 3455.56,-453.6"/>
<text text-anchor="start" x="3462.56" y="-465.8" font-family="Arial" font-size="14.00">viewed_id </text>
<text text-anchor="start" x="3528.71" y="-465.8" font-family="Arial" font-size="14.00" fill="#666666">[uuid]</text>
<polygon fill="none" stroke="black" points="3455.56,-422.8 3455.56,-453.6 3701.41,-453.6 3701.41,-422.8 3455.56,-422.8"/>
<text text-anchor="start" x="3462.56" y="-435" font-family="Arial" font-size="14.00">view_time </text>
<text text-anchor="start" x="3528.69" y="-435" font-family="Arial" font-size="14.00" fill="#666666">[timestamp with time zone]</text>
</g>
<!-- public.views&#45;&gt;public.users -->
<g id="edge12" class="edge">
<title>public.views:viewed_id&#45;&gt;public.users:id</title>
<path fill="none" stroke="black" d="M3444.35,-468.44C3314.89,-452.98 3692.33,-123.2 3537.94,-123.2"/>
<polygon fill="black" stroke="black" points="3444.24,-468.43 3453.98,-473.47 3449.57,-468.73 3453.89,-468.96 3453.89,-468.96 3453.89,-468.96 3449.57,-468.73 3454.47,-464.49 3444.24,-468.43"/>
<text text-anchor="start" x="3191.83" y="-453" font-family="Arial" font-size="10.00">FOREIGN KEY (viewed_id) REFERENCES users(id) ON DELETE CASCADE</text>
</g>
<!-- public.views&#45;&gt;public.users -->
<g id="edge13" class="edge">
<title>public.views:viewer_id&#45;&gt;public.users:id</title>
<path fill="none" stroke="black" d="M3444.33,-499.29C3301.17,-483.79 3705.68,-123.2 3537.94,-123.2"/>
<polygon fill="black" stroke="black" points="3444.24,-499.28 3454,-504.28 3449.56,-499.55 3453.89,-499.77 3453.89,-499.77 3453.89,-499.77 3449.56,-499.55 3454.45,-495.29 3444.24,-499.28"/>
<text text-anchor="start" x="3193.51" y="-483.8" font-family="Arial" font-size="10.00">FOREIGN KEY (viewer_id) REFERENCES users(id) ON DELETE CASCADE</text>
</g>
<!-- public.blocks -->
<g id="node12" class="node">
<title>public.blocks</title>
<polygon fill="#efefef" stroke="none" points="3806,-499.8 3806,-535.4 4040.97,-535.4 4040.97,-499.8 3806,-499.8"/>
<polygon fill="none" stroke="black" points="3806,-499.8 3806,-535.4 4040.97,-535.4 4040.97,-499.8 3806,-499.8"/>
<text text-anchor="start" x="3813" y="-513.2" font-family="Arial Bold" font-size="18.00">public.blocks</text>
<text text-anchor="start" x="3909.48" y="-513.2" font-family="Arial" font-size="14.00">    </text>
<text text-anchor="start" x="3940.6" y="-513.2" font-family="Arial" font-size="14.00" fill="#666666">[BASE TABLE]</text>
<polygon fill="none" stroke="black" points="3806,-469 3806,-499.8 4040.97,-499.8 4040.97,-469 3806,-469"/>
<text text-anchor="start" x="3813" y="-481.2" font-family="Arial" font-size="14.00">blocker_id </text>
<text text-anchor="start" x="3880.7" y="-481.2" font-family="Arial" font-size="14.00" fill="#666666">[uuid]</text>
<polygon fill="none" stroke="black" points="3806,-438.2 3806,-469 4040.97,-469 4040.97,-438.2 3806,-438.2"/>
<text text-anchor="start" x="3813" y="-450.4" font-family="Arial" font-size="14.00">blocked_id </text>
<text text-anchor="start" x="3883.83" y="-450.4" font-family="Arial" font-size="14.00" fill="#666666">[uuid]</text>
</g>
<!-- public.blocks&#45;&gt;public.users -->
<g id="edge14" class="edge">
<title>public.blocks:blocked_id&#45;&gt;public.users:id</title>
<path fill="none" stroke="black" d="M3794.76,-452.98C3721.79,-443.49 3805.11,-326.26 3753.49,-256.4 3686.56,-165.83 3650.55,-123.2 3537.94,-123.2"/>
<polygon fill="black" stroke="black" points="3794.68,-452.98 3804.39,-458.07 3800.01,-453.3 3804.33,-453.56 3804.33,-453.56 3804.33,-453.56 3800.01,-453.3 3804.93,-449.09 3794.68,-452.98"/>
<text text-anchor="start" x="3630.51" y="-437.6" font-family="Arial" font-size="10.00">FOREIGN KEY (blocked_id) REFERENCES users(id) ON DELETE CASCADE</text>
</g>
<!-- public.blocks&#45;&gt;public.users -->
<g id="edge15" class="edge">
<title>public.blocks:blocker_id&#45;&gt;public.users:id</title>
<path fill="none" stroke="black" d="M3794.83,-483.88C3708.82,-474.39 3811.7,-337.99 3753.49,-256.4 3688.08,-164.73 3650.55,-123.2 3537.94,-123.2"/>
<polygon fill="black" stroke="black" points="3794.68,-483.87 3804.43,-488.88 3800,-484.14 3804.33,-484.37 3804.33,-484.37 3804.33,-484.37 3800,-484.14 3804.9,-479.89 3794.68,-483.87"/>
<text text-anchor="start" x="3812" y="-494.4" font-family="Arial" font-size="10.00">FOREIGN KEY (blocker_id) REFERENCES users(id) ON DELETE CASCADE</text>
</g>
<!-- public.reports -->
<g id="node13" class="node">
<title>public.reports</title>
<polygon fill="#efefef" stroke="none" points="4145.6,-546 4145.6,-581.6 4395.37,-581.6 4395.37,-546 4145.6,-546"/>
<polygon fill="none" stroke="black" points="4145.6,-546 4145.6,-581.6 4395.37,-581.6 4395.37,-546 4145.6,-546"/>
<text text-anchor="start" x="4158.5" y="-559.4" font-family="Arial Bold" font-size="18.00">public.reports</text>
<text text-anchor="start" x="4257.98" y="-559.4" font-family="Arial" font-size="14.00">    </text>
<text text-anchor="start" x="4289.1" y="-559.4" font-family="Arial" font-size="14.00" fill="#666666">[BASE TABLE]</text>
<polygon fill="none" stroke="black" points="4145.6,-515.2 4145.6,-546 4395.37,-546 4395.37,-515.2 4145.6,-515.2"/>
<text text-anchor="start" x="4152.6" y="-527.4" font-family="Arial" font-size="14.00">id </text>
<text text-anchor="start" x="4167.39" y="-527.4" font-family="Arial" font-size="14.00" fill="#666666">[bigint]</text>
<polygon fill="none" stroke="black" points="4145.6,-484.4 4145.6,-515.2 4395.37,-515.2 4395.37,-484.4 4145.6,-484.4"/>
<text text-anchor="start" x="4152.6" y="-496.6" font-family="Arial" font-size="14.00">reporter_id </text>
<text text-anchor="start" x="4224.19" y="-496.6" font-family="Arial" font-size="14.00" fill="#666666">[uuid]</text>
<polygon fill="none" stroke="black" points="4145.6,-453.6 4145.6,-484.4 4395.37,-484.4 4395.37,-453.6 4145.6,-453.6"/>
<text text-anchor="start" x="4152.6" y="-465.8" font-family="Arial" font-size="14.00">reported_id </text>
<text text-anchor="start" x="4227.32" y="-465.8" font-family="Arial" font-size="14.00" fill="#666666">[uuid]</text>
<polygon fill="none" stroke="black" points="4145.6,-422.8 4145.6,-453.6 4395.37,-453.6 4395.37,-422.8 4145.6,-422.8"/>
<text text-anchor="start" x="4152.6" y="-435" font-family="Arial" font-size="14.00">reason </text>
<text text-anchor="start" x="4199.3" y="-435" font-family="Arial" font-size="14.00" fill="#666666">[text]</text>
<polygon fill="none" stroke="black" points="4145.6,-392 4145.6,-422.8 4395.37,-422.8 4395.37,-392 4145.6,-392"/>
<text text-anchor="start" x="4152.6" y="-404.2" font-family="Arial" font-size="14.00">created_at </text>
<text text-anchor="start" x="4222.65" y="-404.2" font-family="Arial" font-size="14.00" fill="#666666">[timestamp with time zone]</text>
</g>
<!-- public.reports&#45;&gt;public.users -->
<g id="edge16" class="edge">
<title>public.reports:reported_id&#45;&gt;public.users:id</title>
<path fill="none" stroke="black" d="M4134.64,-468.42C4055.69,-458.42 4159.67,-322.55 4093.49,-256.4 4003.69,-166.66 3664.89,-123.2 3537.94,-123.2"/>
<polygon fill="black" stroke="black" points="4134.28,-468.4 4144,-473.47 4139.61,-468.71 4143.93,-468.96 4143.93,-468.96 4143.93,-468.96 4139.61,-468.71 4144.53,-464.49 4134.28,-468.4"/>
<text text-anchor="start" x="4151.6" y="-453" font-family="Arial" font-size="10.00">FOREIGN KEY (reported_id) REFERENCES users(id) ON DELETE CASCADE</text>
</g>
<!-- public.reports&#45;&gt;public.users -->
<g id="edge17" class="edge">
<title>public.reports:reporter_id&#45;&gt;public.users:id</title>
<path fill="none" stroke="black" d="M4134.39,-499.27C4042.89,-488.99 4167.97,-333.03 4093.49,-256.4 4005,-165.37 3664.89,-123.2 3537.94,-123.2"/>
<polygon fill="black" stroke="black" points="4134.28,-499.26 4144.03,-504.28 4139.61,-499.54 4143.93,-499.77 4143.93,-499.77 4143.93,-499.77 4139.61,-499.54 4144.5,-495.29 4134.28,-499.26"/>
<text text-anchor="start" x="3878.96" y="-483.8" font-family="Arial" font-size="10.00">FOREIGN KEY (reporter_id) REFERENCES users(id) ON DELETE CASCADE</text>
</g>
<!-- public.notifications -->
<g id="node14" class="node">
<title>public.notifications</title>
<polygon fill="#efefef" stroke="none" points="4499.5,-561.4 4499.5,-597 4777.47,-597 4777.47,-561.4 4499.5,-561.4"/>
<polygon fill="none" stroke="black" points="4499.5,-561.4 4499.5,-597 4777.47,-597 4777.47,-561.4 4499.5,-561.4"/>
<text text-anchor="start" x="4506.5" y="-574.8" font-family="Arial Bold" font-size="18.00">public.notifications</text>
<text text-anchor="start" x="4645.98" y="-574.8" font-family="Arial" font-size="14.00">    </text>
<text text-anchor="start" x="4677.1" y="-574.8" font-family="Arial" font-size="14.00" fill="#666666">[BASE TABLE]</text>
<polygon fill="none" stroke="black" points="4499.5,-530.6 4499.5,-561.4 4777.47,-561.4 4777.47,-530.6 4499.5,-530.6"/>
<text text-anchor="start" x="4506.5" y="-542.8" font-family="Arial" font-size="14.00">id </text>
<text text-anchor="start" x="4521.29" y="-542.8" font-family="Arial" font-size="14.00" fill="#666666">[bigint]</text>
<polygon fill="none" stroke="black" points="4499.5,-499.8 4499.5,-530.6 4777.47,-530.6 4777.47,-499.8 4499.5,-499.8"/>
<text text-anchor="start" x="4506.5" y="-512" font-family="Arial" font-size="14.00">recipient_id </text>
<text text-anchor="start" x="4581.99" y="-512" font-family="Arial" font-size="14.00" fill="#666666">[uuid]</text>
<polygon fill="none" stroke="black" points="4499.5,-469 4499.5,-499.8 4777.47,-499.8 4777.47,-469 4499.5,-469"/>
<text text-anchor="start" x="4506.5" y="-481.2" font-family="Arial" font-size="14.00">sender_id </text>
<text text-anchor="start" x="4571.88" y="-481.2" font-family="Arial" font-size="14.00" fill="#666666">[uuid]</text>
<polygon fill="none" stroke="black" points="4499.5,-438.2 4499.5,-469 4777.47,-469 4777.47,-438.2 4499.5,-438.2"/>
<text text-anchor="start" x="4506.5" y="-450.4" font-family="Arial" font-size="14.00">type </text>
<text text-anchor="start" x="4536.86" y="-450.4" font-family="Arial" font-size="14.00" fill="#666666">[notification_type_enum]</text>
<polygon fill="none" stroke="black" points="4499.5,-407.4 4499.5,-438.2 4777.47,-438.2 4777.47,-407.4 4499.5,-407.4"/>
<text text-anchor="start" x="4506.5" y="-419.6" font-family="Arial" font-size="14.00">is_read </text>
<text text-anchor="start" x="4556.31" y="-419.6" font-family="Arial" font-size="14.00" fill="#666666">[boolean]</text>
<polygon fill="none" stroke="black" points="4499.5,-376.6 4499.5,-407.4 4777.47,-407.4 4777.47,-376.6 4499.5,-376.6"/>
<text text-anchor="start" x="4506.5" y="-388.8" font-family="Arial" font-size="14.00">created_at </text>
<text text-anchor="start" x="4576.55" y="-388.8" font-family="Arial" font-size="14.00" fill="#666666">[timestamp with time zone]</text>
</g>
<!-- public.notifications&#45;&gt;public.users -->
<g id="edge18" class="edge">
<title>public.notifications:recipient_id&#45;&gt;public.users:id</title>
<path fill="none" stroke="black" d="M4488.28,-514.69C4390.48,-504.17 4529.75,-334.71 4447.49,-256.4 4373.51,-185.98 3640.08,-123.2 3537.94,-123.2"/>
<polygon fill="black" stroke="black" points="4488.18,-514.68 4497.94,-519.68 4493.51,-514.95 4497.84,-515.17 4497.84,-515.17 4497.84,-515.17 4493.51,-514.95 4498.4,-510.69 4488.18,-514.68"/>
<text text-anchor="start" x="4505.5" y="-525.2" font-family="Arial" font-size="10.00">FOREIGN KEY (recipient_id) REFERENCES users(id) ON DELETE CASCADE</text>
</g>
<!-- public.notifications&#45;&gt;public.users -->
<g id="edge19" class="edge">
<title>public.notifications:sender_id&#45;&gt;public.users:id</title>
<path fill="none" stroke="black" d="M4488.14,-483.8C4403.72,-473.14 4520.85,-324.48 4447.49,-256.4 4372.62,-186.93 3640.08,-123.2 3537.94,-123.2"/>
<polygon fill="black" stroke="black" points="4488.19,-483.8 4497.91,-488.87 4493.51,-484.11 4497.84,-484.36 4497.84,-484.36 4497.84,-484.36 4493.51,-484.11 4498.43,-479.89 4488.19,-483.8"/>
<text text-anchor="start" x="4505.5" y="-494.4" font-family="Arial" font-size="10.00">FOREIGN KEY (sender_id) REFERENCES users(id) ON DELETE SET NULL</text>
</g>
<!-- public.messages -->
<g id="node15" class="node">
<title>public.messages</title>
<polygon fill="#efefef" stroke="none" points="4881.5,-561.4 4881.5,-597 5137.47,-597 5137.47,-561.4 4881.5,-561.4"/>
<polygon fill="none" stroke="black" points="4881.5,-561.4 4881.5,-597 5137.47,-597 5137.47,-561.4 4881.5,-561.4"/>
<text text-anchor="start" x="4888.5" y="-574.8" font-family="Arial Bold" font-size="18.00">public.messages</text>
<text text-anchor="start" x="5005.98" y="-574.8" font-family="Arial" font-size="14.00">    </text>
<text text-anchor="start" x="5037.1" y="-574.8" font-family="Arial" font-size="14.00" fill="#666666">[BASE TABLE]</text>
<polygon fill="none" stroke="black" points="4881.5,-530.6 4881.5,-561.4 5137.47,-561.4 5137.47,-530.6 4881.5,-530.6"/>
<text text-anchor="start" x="4888.5" y="-542.8" font-family="Arial" font-size="14.00">id </text>
<text text-anchor="start" x="4903.29" y="-542.8" font-family="Arial" font-size="14.00" fill="#666666">[bigint]</text>
<polygon fill="none" stroke="black" points="4881.5,-499.8 4881.5,-530.6 5137.47,-530.6 5137.47,-499.8 4881.5,-499.8"/>
<text text-anchor="start" x="4888.5" y="-512" font-family="Arial" font-size="14.00">sender_id </text>
<text text-anchor="start" x="4953.88" y="-512" font-family="Arial" font-size="14.00" fill="#666666">[uuid]</text>
<polygon fill="none" stroke="black" points="4881.5,-469 4881.5,-499.8 5137.47,-499.8 5137.47,-469 4881.5,-469"/>
<text text-anchor="start" x="4888.5" y="-481.2" font-family="Arial" font-size="14.00">recipient_id </text>
<text text-anchor="start" x="4963.99" y="-481.2" font-family="Arial" font-size="14.00" fill="#666666">[uuid]</text>
<polygon fill="none" stroke="black" points="4881.5,-438.2 4881.5,-469 5137.47,-469 5137.47,-438.2 4881.5,-438.2"/>
<text text-anchor="start" x="4888.5" y="-450.4" font-family="Arial" font-size="14.00">content </text>
<text text-anchor="start" x="4938.32" y="-450.4" font-family="Arial" font-size="14.00" fill="#666666">[text]</text>
<polygon fill="none" stroke="black" points="4881.5,-407.4 4881.5,-438.2 5137.47,-438.2 5137.47,-407.4 4881.5,-407.4"/>
<text text-anchor="start" x="4888.5" y="-419.6" font-family="Arial" font-size="14.00">sent_at </text>
<text text-anchor="start" x="4938.32" y="-419.6" font-family="Arial" font-size="14.00" fill="#666666">[timestamp with time zone]</text>
<polygon fill="none" stroke="black" points="4881.5,-376.6 4881.5,-407.4 5137.47,-407.4 5137.47,-376.6 4881.5,-376.6"/>
<text text-anchor="start" x="4888.5" y="-388.8" font-family="Arial" font-size="14.00">is_read </text>
<text text-anchor="start" x="4938.31" y="-388.8" font-family="Arial" font-size="14.00" fill="#666666">[boolean]</text>
</g>
<!-- public.messages&#45;&gt;public.users -->
<g id="edge20" class="edge">
<title>public.messages:recipient_id&#45;&gt;public.users:id</title>
<path fill="none" stroke="black" d="M4870.14,-483.79C4785.82,-473.03 4904.29,-322.9 4829.49,-256.4 4721.67,-160.55 3682.2,-123.2 3537.94,-123.2"/>
<polygon fill="black" stroke="black" points="4870.19,-483.79 4879.9,-488.87 4875.51,-484.11 4879.84,-484.36 4879.84,-484.36 4879.84,-484.36 4875.51,-484.11 4880.44,-479.89 4870.19,-483.79"/>
<text text-anchor="start" x="4612.78" y="-468.4" font-family="Arial" font-size="10.00">FOREIGN KEY (recipient_id) REFERENCES users(id) ON DELETE CASCADE</text>
</g>
<!-- public.messages&#45;&gt;public.users -->
<g id="edge21" class="edge">
<title>public.messages:sender_id&#45;&gt;public.users:id</title>
<path fill="none" stroke="black" d="M4870.29,-514.68C4772.59,-504.06 4913.4,-332.94 4829.49,-256.4 4722.9,-159.18 3682.2,-123.2 3537.94,-123.2"/>
<polygon fill="black" stroke="black" points="4870.18,-514.68 4879.94,-519.68 4875.51,-514.95 4879.84,-515.17 4879.84,-515.17 4879.84,-515.17 4875.51,-514.95 4880.4,-510.69 4870.18,-514.68"/>
<text text-anchor="start" x="4618.19" y="-499.2" font-family="Arial" font-size="10.00">FOREIGN KEY (sender_id) REFERENCES users(id) ON DELETE CASCADE</text>
</g>
<!-- public.refresh_tokens -->
<g id="node16" class="node">
<title>public.refresh_tokens</title>
<polygon fill="#efefef" stroke="none" points="5241.52,-546 5241.52,-581.6 5535.46,-581.6 5535.46,-546 5241.52,-546"/>
<polygon fill="none" stroke="black" points="5241.52,-546 5241.52,-581.6 5535.46,-581.6 5535.46,-546 5241.52,-546"/>
<text text-anchor="start" x="5248.52" y="-559.4" font-family="Arial Bold" font-size="18.00">public.refresh_tokens</text>
<text text-anchor="start" x="5403.97" y="-559.4" font-family="Arial" font-size="14.00">    </text>
<text text-anchor="start" x="5435.08" y="-559.4" font-family="Arial" font-size="14.00" fill="#666666">[BASE TABLE]</text>
<polygon fill="none" stroke="black" points="5241.52,-515.2 5241.52,-546 5535.46,-546 5535.46,-515.2 5241.52,-515.2"/>
<text text-anchor="start" x="5248.52" y="-527.4" font-family="Arial" font-size="14.00">token_hash </text>
<text text-anchor="start" x="5324.8" y="-527.4" font-family="Arial" font-size="14.00" fill="#666666">[varchar(255)]</text>
<polygon fill="none" stroke="black" points="5241.52,-484.4 5241.52,-515.2 5535.46,-515.2 5535.46,-484.4 5241.52,-484.4"/>
<text text-anchor="start" x="5248.52" y="-496.6" font-family="Arial" font-size="14.00">user_id </text>
<text text-anchor="start" x="5298.32" y="-496.6" font-family="Arial" font-size="14.00" fill="#666666">[uuid]</text>
<polygon fill="none" stroke="black" points="5241.52,-453.6 5241.52,-484.4 5535.46,-484.4 5535.46,-453.6 5241.52,-453.6"/>
<text text-anchor="start" x="5248.52" y="-465.8" font-family="Arial" font-size="14.00">expires_at </text>
<text text-anchor="start" x="5317" y="-465.8" font-family="Arial" font-size="14.00" fill="#666666">[timestamp with time zone]</text>
<polygon fill="none" stroke="black" points="5241.52,-422.8 5241.52,-453.6 5535.46,-453.6 5535.46,-422.8 5241.52,-422.8"/>
<text text-anchor="start" x="5248.52" y="-435" font-family="Arial" font-size="14.00">created_at </text>
<text text-anchor="start" x="5318.56" y="-435" font-family="Arial" font-size="14.00" fill="#666666">[timestamp with time zone]</text>
<polygon fill="none" stroke="black" points="5241.52,-392 5241.52,-422.8 5535.46,-422.8 5535.46,-392 5241.52,-392"/>
<text text-anchor="start" x="5248.52" y="-404.2" font-family="Arial" font-size="14.00">revoked </text>
<text text-anchor="start" x="5302.21" y="-404.2" font-family="Arial" font-size="14.00" fill="#666666">[boolean]</text>
</g>
<!-- public.refresh_tokens&#45;&gt;public.users -->
<g id="edge22" class="edge">
<title>public.refresh_tokens:user_id&#45;&gt;public.users:id</title>
<path fill="none" stroke="black" d="M5230.32,-499.25C5139.2,-488.6 5269.66,-327.05 5189.49,-256.4 5051.36,-134.69 3722.04,-123.2 3537.94,-123.2"/>
<polygon fill="black" stroke="black" points="5230.2,-499.24 5239.94,-504.28 5235.52,-499.53 5239.85,-499.76 5239.85,-499.76 5239.85,-499.76 5235.52,-499.53 5240.43,-495.29 5230.2,-499.24"/>
<text text-anchor="start" x="5247.52" y="-509.8" font-family="Arial" font-size="10.00">FOREIGN KEY (user_id) REFERENCES users(id) ON DELETE CASCADE</text>
</g>
</g>
</svg>
