<?xml version="1.0" encoding="UTF-8" standalone="no"?>
<!DOCTYPE svg PUBLIC "-//W3C//DTD SVG 1.1//EN"
 "http://www.w3.org/Graphics/SVG/1.1/DTD/svg11.dtd">
<!-- Generated by graphviz version 12.1.2 (20240928.0832)
 -->
<!-- Title: public.users Pages: 1 -->
<svg width="5233pt" height="725pt"
 viewBox="0.00 0.00 5232.66 725.20" xmlns="http://www.w3.org/2000/svg" xmlns:xlink="http://www.w3.org/1999/xlink">
<g id="graph0" class="graph" transform="scale(1 1) rotate(0) translate(4 721.2)">
<title>public.users</title>
<polygon fill="white" stroke="none" points="-4,4 -4,-721.2 5228.66,-721.2 5228.66,4 -4,4"/>
<!-- public.users -->
<g id="node1" class="node">
<title>public.users</title>
<polygon fill="#efefef" stroke="none" points="3074.03,-138.6 3074.03,-174.2 3354.94,-174.2 3354.94,-138.6 3074.03,-138.6"/>
<polygon fill="none" stroke="black" points="3074.03,-138.6 3074.03,-174.2 3354.94,-174.2 3354.94,-138.6 3074.03,-138.6"/>
<text text-anchor="start" x="3109" y="-152" font-family="Arial Bold" font-size="18.00">public.users</text>
<text text-anchor="start" x="3195.48" y="-152" font-family="Arial" font-size="14.00">    </text>
<text text-anchor="start" x="3226.6" y="-152" font-family="Arial" font-size="14.00" fill="#666666">[BASE TABLE]</text>
<polygon fill="none" stroke="black" points="3074.03,-107.8 3074.03,-138.6 3354.94,-138.6 3354.94,-107.8 3074.03,-107.8"/>
<text text-anchor="start" x="3081.03" y="-120" font-family="Arial" font-size="14.00">id </text>
<text text-anchor="start" x="3095.82" y="-120" font-family="Arial" font-size="14.00" fill="#666666">[uuid]</text>
<polygon fill="none" stroke="black" points="3074.03,-77 3074.03,-107.8 3354.94,-107.8 3354.94,-77 3074.03,-77"/>
<text text-anchor="start" x="3081.03" y="-89.2" font-family="Arial" font-size="14.00">created_at </text>
<text text-anchor="start" x="3151.08" y="-89.2" font-family="Arial" font-size="14.00" fill="#666666">[timestamp with time zone]</text>
<polygon fill="none" stroke="black" points="3074.03,-46.2 3074.03,-77 3354.94,-77 3354.94,-46.2 3074.03,-46.2"/>
<text text-anchor="start" x="3081.03" y="-58.4" font-family="Arial" font-size="14.00">last_connection </text>
<text text-anchor="start" x="3182.21" y="-58.4" font-family="Arial" font-size="14.00" fill="#666666">[timestamp with time zone]</text>
<polygon fill="none" stroke="black" stroke-width="3" points="3072.53,-44.7 3072.53,-175.7 3356.44,-175.7 3356.44,-44.7 3072.53,-44.7"/>
</g>
<!-- public.user_data -->
<g id="node2" class="node">
<title>public.user_data</title>
<polygon fill="#efefef" stroke="none" points="90.01,-530.6 90.01,-566.2 346.96,-566.2 346.96,-530.6 90.01,-530.6"/>
<polygon fill="none" stroke="black" points="90.01,-530.6 90.01,-566.2 346.96,-566.2 346.96,-530.6 90.01,-530.6"/>
<text text-anchor="start" x="97.01" y="-544" font-family="Arial Bold" font-size="18.00">public.user_data</text>
<text text-anchor="start" x="215.47" y="-544" font-family="Arial" font-size="14.00">    </text>
<text text-anchor="start" x="246.59" y="-544" font-family="Arial" font-size="14.00" fill="#666666">[BASE TABLE]</text>
<polygon fill="none" stroke="black" points="90.01,-499.8 90.01,-530.6 346.96,-530.6 346.96,-499.8 90.01,-499.8"/>
<text text-anchor="start" x="97.01" y="-512" font-family="Arial" font-size="14.00">user_id </text>
<text text-anchor="start" x="146.82" y="-512" font-family="Arial" font-size="14.00" fill="#666666">[uuid]</text>
<polygon fill="none" stroke="black" points="90.01,-469 90.01,-499.8 346.96,-499.8 346.96,-469 90.01,-469"/>
<text text-anchor="start" x="97.01" y="-481.2" font-family="Arial" font-size="14.00">latitude </text>
<text text-anchor="start" x="146.05" y="-481.2" font-family="Arial" font-size="14.00" fill="#666666">[numeric(10,8)]</text>
<polygon fill="none" stroke="black" points="90.01,-438.2 90.01,-469 346.96,-469 346.96,-438.2 90.01,-438.2"/>
<text text-anchor="start" x="97.01" y="-450.4" font-family="Arial" font-size="14.00">longitude </text>
<text text-anchor="start" x="157.73" y="-450.4" font-family="Arial" font-size="14.00" fill="#666666">[numeric(11,8)]</text>
<polygon fill="none" stroke="black" points="90.01,-407.4 90.01,-438.2 346.96,-438.2 346.96,-407.4 90.01,-407.4"/>
<text text-anchor="start" x="97.01" y="-419.6" font-family="Arial" font-size="14.00">internal_score </text>
<text text-anchor="start" x="188.84" y="-419.6" font-family="Arial" font-size="14.00" fill="#666666">[integer]</text>
</g>
<!-- public.user_data&#45;&gt;public.users -->
<g id="edge1" class="edge">
<title>public.user_data:user_id&#45;&gt;public.users:id</title>
<path fill="none" stroke="black" d="M358.17,-514.68C455.82,-503.92 313.47,-330.63 399.49,-256.4 512.07,-159.23 2924.32,-123.2 3073.03,-123.2"/>
<polygon fill="black" stroke="black" points="358.28,-514.67 348.06,-510.69 352.95,-514.94 348.63,-515.17 348.63,-515.17 348.63,-515.17 352.95,-514.94 348.53,-519.68 358.28,-514.67"/>
<text text-anchor="start" x="7" y="-525.2" font-family="Arial" font-size="10.00">FOREIGN KEY (user_id) REFERENCES users(id) ON DELETE CASCADE</text>
</g>
<!-- public.auths -->
<g id="node3" class="node">
<title>public.auths</title>
<polygon fill="#efefef" stroke="none" points="451.5,-576.8 451.5,-612.4 677.47,-612.4 677.47,-576.8 451.5,-576.8"/>
<polygon fill="none" stroke="black" points="451.5,-576.8 451.5,-612.4 677.47,-612.4 677.47,-576.8 451.5,-576.8"/>
<text text-anchor="start" x="458.5" y="-590.2" font-family="Arial Bold" font-size="18.00">public.auths</text>
<text text-anchor="start" x="545.98" y="-590.2" font-family="Arial" font-size="14.00">    </text>
<text text-anchor="start" x="577.1" y="-590.2" font-family="Arial" font-size="14.00" fill="#666666">[BASE TABLE]</text>
<polygon fill="none" stroke="black" points="451.5,-546 451.5,-576.8 677.47,-576.8 677.47,-546 451.5,-546"/>
<text text-anchor="start" x="458.5" y="-558.2" font-family="Arial" font-size="14.00">id </text>
<text text-anchor="start" x="473.28" y="-558.2" font-family="Arial" font-size="14.00" fill="#666666">[integer]</text>
<polygon fill="none" stroke="black" points="451.5,-515.2 451.5,-546 677.47,-546 677.47,-515.2 451.5,-515.2"/>
<text text-anchor="start" x="458.5" y="-527.4" font-family="Arial" font-size="14.00">user_id </text>
<text text-anchor="start" x="508.3" y="-527.4" font-family="Arial" font-size="14.00" fill="#666666">[uuid]</text>
<polygon fill="none" stroke="black" points="451.5,-484.4 451.5,-515.2 677.47,-515.2 677.47,-484.4 451.5,-484.4"/>
<text text-anchor="start" x="458.5" y="-496.6" font-family="Arial" font-size="14.00">provider </text>
<text text-anchor="start" x="512.97" y="-496.6" font-family="Arial" font-size="14.00" fill="#666666">[auth_provider_enum]</text>
<polygon fill="none" stroke="black" points="451.5,-453.6 451.5,-484.4 677.47,-484.4 677.47,-453.6 451.5,-453.6"/>
<text text-anchor="start" x="458.5" y="-465.8" font-family="Arial" font-size="14.00">provider_uid </text>
<text text-anchor="start" x="539.44" y="-465.8" font-family="Arial" font-size="14.00" fill="#666666">[varchar(255)]</text>
<polygon fill="none" stroke="black" points="451.5,-422.8 451.5,-453.6 677.47,-453.6 677.47,-422.8 451.5,-422.8"/>
<text text-anchor="start" x="458.5" y="-435" font-family="Arial" font-size="14.00">email </text>
<text text-anchor="start" x="495.84" y="-435" font-family="Arial" font-size="14.00" fill="#666666">[varchar(255)]</text>
<polygon fill="none" stroke="black" points="451.5,-392 451.5,-422.8 677.47,-422.8 677.47,-392 451.5,-392"/>
<text text-anchor="start" x="458.5" y="-404.2" font-family="Arial" font-size="14.00">is_verified </text>
<text text-anchor="start" x="525.42" y="-404.2" font-family="Arial" font-size="14.00" fill="#666666">[boolean]</text>
<polygon fill="none" stroke="black" points="451.5,-361.2 451.5,-392 677.47,-392 677.47,-361.2 451.5,-361.2"/>
<text text-anchor="start" x="458.5" y="-373.4" font-family="Arial" font-size="14.00">password_hash </text>
<text text-anchor="start" x="560.45" y="-373.4" font-family="Arial" font-size="14.00" fill="#666666">[varchar(255)]</text>
</g>
<!-- public.auths&#45;&gt;public.users -->
<g id="edge2" class="edge">
<title>public.auths:user_id&#45;&gt;public.users:id</title>
<path fill="none" stroke="black" d="M688.64,-530.11C792.93,-519.43 639.17,-335.91 729.49,-256.4 827.37,-170.23 2942.63,-123.2 3073.03,-123.2"/>
<polygon fill="black" stroke="black" points="688.8,-530.1 678.59,-526.09 683.47,-530.36 679.14,-530.57 679.14,-530.57 679.14,-530.57 683.47,-530.36 679.02,-535.08 688.8,-530.1"/>
<text text-anchor="start" x="511.49" y="-514.6" font-family="Arial" font-size="10.00">FOREIGN KEY (user_id) REFERENCES users(id) ON DELETE CASCADE</text>
</g>
<!-- public.verification_tokens -->
<g id="node4" class="node">
<title>public.verification_tokens</title>
<polygon fill="#efefef" stroke="none" points="782.02,-515.2 782.02,-550.8 1108.95,-550.8 1108.95,-515.2 782.02,-515.2"/>
<polygon fill="none" stroke="black" points="782.02,-515.2 782.02,-550.8 1108.95,-550.8 1108.95,-515.2 782.02,-515.2"/>
<text text-anchor="start" x="789.02" y="-528.6" font-family="Arial Bold" font-size="18.00">public.verification_tokens</text>
<text text-anchor="start" x="977.46" y="-528.6" font-family="Arial" font-size="14.00">    </text>
<text text-anchor="start" x="1008.58" y="-528.6" font-family="Arial" font-size="14.00" fill="#666666">[BASE TABLE]</text>
<polygon fill="none" stroke="black" points="782.02,-484.4 782.02,-515.2 1108.95,-515.2 1108.95,-484.4 782.02,-484.4"/>
<text text-anchor="start" x="789.02" y="-496.6" font-family="Arial" font-size="14.00">token </text>
<text text-anchor="start" x="827.16" y="-496.6" font-family="Arial" font-size="14.00" fill="#666666">[varchar(64)]</text>
<polygon fill="none" stroke="black" points="782.02,-453.6 782.02,-484.4 1108.95,-484.4 1108.95,-453.6 782.02,-453.6"/>
<text text-anchor="start" x="789.02" y="-465.8" font-family="Arial" font-size="14.00">user_id </text>
<text text-anchor="start" x="838.82" y="-465.8" font-family="Arial" font-size="14.00" fill="#666666">[uuid]</text>
<polygon fill="none" stroke="black" points="782.02,-422.8 782.02,-453.6 1108.95,-453.6 1108.95,-422.8 782.02,-422.8"/>
<text text-anchor="start" x="789.02" y="-435" font-family="Arial" font-size="14.00">expires_at </text>
<text text-anchor="start" x="857.5" y="-435" font-family="Arial" font-size="14.00" fill="#666666">[timestamp with time zone]</text>
</g>
<!-- public.verification_tokens&#45;&gt;public.users -->
<g id="edge3" class="edge">
<title>public.verification_tokens:user_id&#45;&gt;public.users:id</title>
<path fill="none" stroke="black" d="M1119.9,-468.39C1198.54,-458 1089.96,-316.8 1161.49,-256.4 1242.82,-187.72 2966.58,-123.2 3073.03,-123.2"/>
<polygon fill="black" stroke="black" points="1120.27,-468.37 1110.01,-464.49 1114.94,-468.7 1110.62,-468.96 1110.62,-468.96 1110.62,-468.96 1114.94,-468.7 1110.56,-473.47 1120.27,-468.37"/>
<text text-anchor="start" x="1116.95" y="-479" font-family="Arial" font-size="10.00">FOREIGN KEY (user_id) REFERENCES users(id) ON DELETE CASCADE</text>
</g>
<!-- public.password_resets -->
<g id="node5" class="node">
<title>public.password_resets</title>
<polygon fill="#efefef" stroke="none" points="1213.51,-515.2 1213.51,-550.8 1519.46,-550.8 1519.46,-515.2 1213.51,-515.2"/>
<polygon fill="none" stroke="black" points="1213.51,-515.2 1213.51,-550.8 1519.46,-550.8 1519.46,-515.2 1213.51,-515.2"/>
<text text-anchor="start" x="1220.51" y="-528.6" font-family="Arial Bold" font-size="18.00">public.password_resets</text>
<text text-anchor="start" x="1387.97" y="-528.6" font-family="Arial" font-size="14.00">    </text>
<text text-anchor="start" x="1419.09" y="-528.6" font-family="Arial" font-size="14.00" fill="#666666">[BASE TABLE]</text>
<polygon fill="none" stroke="black" points="1213.51,-484.4 1213.51,-515.2 1519.46,-515.2 1519.46,-484.4 1213.51,-484.4"/>
<text text-anchor="start" x="1220.51" y="-496.6" font-family="Arial" font-size="14.00">user_id </text>
<text text-anchor="start" x="1270.31" y="-496.6" font-family="Arial" font-size="14.00" fill="#666666">[uuid]</text>
<polygon fill="none" stroke="black" points="1213.51,-453.6 1213.51,-484.4 1519.46,-484.4 1519.46,-453.6 1213.51,-453.6"/>
<text text-anchor="start" x="1220.51" y="-465.8" font-family="Arial" font-size="14.00">token </text>
<text text-anchor="start" x="1258.65" y="-465.8" font-family="Arial" font-size="14.00" fill="#666666">[varchar(64)]</text>
<polygon fill="none" stroke="black" points="1213.51,-422.8 1213.51,-453.6 1519.46,-453.6 1519.46,-422.8 1213.51,-422.8"/>
<text text-anchor="start" x="1220.51" y="-435" font-family="Arial" font-size="14.00">expires_at </text>
<text text-anchor="start" x="1288.99" y="-435" font-family="Arial" font-size="14.00" fill="#666666">[timestamp with time zone]</text>
</g>
<!-- public.password_resets&#45;&gt;public.users -->
<g id="edge4" class="edge">
<title>public.password_resets:user_id&#45;&gt;public.users:id</title>
<path fill="none" stroke="black" d="M1530.66,-499.25C1621.8,-488.62 1491.6,-327.37 1571.49,-256.4 1696.71,-145.16 2905.54,-123.2 3073.03,-123.2"/>
<polygon fill="black" stroke="black" points="1530.78,-499.24 1520.55,-495.29 1525.46,-499.53 1521.13,-499.76 1521.13,-499.76 1521.13,-499.76 1525.46,-499.53 1521.04,-504.28 1530.78,-499.24"/>
<text text-anchor="start" x="1179.5" y="-509.8" font-family="Arial" font-size="10.00">FOREIGN KEY (user_id) REFERENCES users(id) ON DELETE CASCADE</text>
</g>
<!-- public.user_profiles -->
<g id="node6" class="node">
<title>public.user_profiles</title>
<polygon fill="#efefef" stroke="none" points="1623.51,-638.4 1623.51,-674 1905.46,-674 1905.46,-638.4 1623.51,-638.4"/>
<polygon fill="none" stroke="black" points="1623.51,-638.4 1623.51,-674 1905.46,-674 1905.46,-638.4 1623.51,-638.4"/>
<text text-anchor="start" x="1630.51" y="-651.8" font-family="Arial Bold" font-size="18.00">public.user_profiles</text>
<text text-anchor="start" x="1773.97" y="-651.8" font-family="Arial" font-size="14.00">    </text>
<text text-anchor="start" x="1805.09" y="-651.8" font-family="Arial" font-size="14.00" fill="#666666">[BASE TABLE]</text>
<polygon fill="none" stroke="black" points="1623.51,-607.6 1623.51,-638.4 1905.46,-638.4 1905.46,-607.6 1623.51,-607.6"/>
<text text-anchor="start" x="1630.51" y="-619.8" font-family="Arial" font-size="14.00">user_id </text>
<text text-anchor="start" x="1680.32" y="-619.8" font-family="Arial" font-size="14.00" fill="#666666">[uuid]</text>
<polygon fill="none" stroke="black" points="1623.51,-576.8 1623.51,-607.6 1905.46,-607.6 1905.46,-576.8 1623.51,-576.8"/>
<text text-anchor="start" x="1630.51" y="-589" font-family="Arial" font-size="14.00">first_name </text>
<text text-anchor="start" x="1699.76" y="-589" font-family="Arial" font-size="14.00" fill="#666666">[varchar(50)]</text>
<polygon fill="none" stroke="black" points="1623.51,-546 1623.51,-576.8 1905.46,-576.8 1905.46,-546 1623.51,-546"/>
<text text-anchor="start" x="1630.51" y="-558.2" font-family="Arial" font-size="14.00">last_name </text>
<text text-anchor="start" x="1698.99" y="-558.2" font-family="Arial" font-size="14.00" fill="#666666">[varchar(50)]</text>
<polygon fill="none" stroke="black" points="1623.51,-515.2 1623.51,-546 1905.46,-546 1905.46,-515.2 1623.51,-515.2"/>
<text text-anchor="start" x="1630.51" y="-527.4" font-family="Arial" font-size="14.00">username </text>
<text text-anchor="start" x="1696.65" y="-527.4" font-family="Arial" font-size="14.00" fill="#666666">[varchar(50)]</text>
<polygon fill="none" stroke="black" points="1623.51,-484.4 1623.51,-515.2 1905.46,-515.2 1905.46,-484.4 1623.51,-484.4"/>
<text text-anchor="start" x="1630.51" y="-496.6" font-family="Arial" font-size="14.00">gender </text>
<text text-anchor="start" x="1677.99" y="-496.6" font-family="Arial" font-size="14.00" fill="#666666">[gender_enum]</text>
<polygon fill="none" stroke="black" points="1623.51,-453.6 1623.51,-484.4 1905.46,-484.4 1905.46,-453.6 1623.51,-453.6"/>
<text text-anchor="start" x="1630.51" y="-465.8" font-family="Arial" font-size="14.00">sexual_preference </text>
<text text-anchor="start" x="1749.58" y="-465.8" font-family="Arial" font-size="14.00" fill="#666666">[preference_enum]</text>
<polygon fill="none" stroke="black" points="1623.51,-422.8 1623.51,-453.6 1905.46,-453.6 1905.46,-422.8 1623.51,-422.8"/>
<text text-anchor="start" x="1630.51" y="-435" font-family="Arial" font-size="14.00">birthday </text>
<text text-anchor="start" x="1684.21" y="-435" font-family="Arial" font-size="14.00" fill="#666666">[date]</text>
<polygon fill="none" stroke="black" points="1623.51,-392 1623.51,-422.8 1905.46,-422.8 1905.46,-392 1623.51,-392"/>
<text text-anchor="start" x="1630.51" y="-404.2" font-family="Arial" font-size="14.00">occupation </text>
<text text-anchor="start" x="1702.12" y="-404.2" font-family="Arial" font-size="14.00" fill="#666666">[varchar(255)]</text>
<polygon fill="none" stroke="black" points="1623.51,-361.2 1623.51,-392 1905.46,-392 1905.46,-361.2 1623.51,-361.2"/>
<text text-anchor="start" x="1630.51" y="-373.4" font-family="Arial" font-size="14.00">biography </text>
<text text-anchor="start" x="1695.89" y="-373.4" font-family="Arial" font-size="14.00" fill="#666666">[text]</text>
<polygon fill="none" stroke="black" points="1623.51,-330.4 1623.51,-361.2 1905.46,-361.2 1905.46,-330.4 1623.51,-330.4"/>
<text text-anchor="start" x="1630.51" y="-342.6" font-family="Arial" font-size="14.00">fame_rating </text>
<text text-anchor="start" x="1708.33" y="-342.6" font-family="Arial" font-size="14.00" fill="#666666">[integer]</text>
<polygon fill="none" stroke="black" points="1623.51,-299.6 1623.51,-330.4 1905.46,-330.4 1905.46,-299.6 1623.51,-299.6"/>
<text text-anchor="start" x="1630.51" y="-311.8" font-family="Arial" font-size="14.00">location_name </text>
<text text-anchor="start" x="1725.46" y="-311.8" font-family="Arial" font-size="14.00" fill="#666666">[varchar(255)]</text>
</g>
<!-- public.user_profiles&#45;&gt;public.users -->
<g id="edge5" class="edge">
<title>public.user_profiles:user_id&#45;&gt;public.users:id</title>
<path fill="none" stroke="black" d="M1916.53,-621.18C1980.93,-595.74 1901.4,-311.41 1957.49,-256.4 2046.61,-168.99 2948.2,-123.2 3073.03,-123.2"/>
<polygon fill="black" stroke="black" points="1916.63,-621.16 1905.99,-618.51 1911.38,-622.11 1907.12,-622.88 1907.12,-622.88 1907.12,-622.88 1911.38,-622.11 1907.59,-627.37 1916.63,-621.16"/>
<text text-anchor="start" x="1913.46" y="-633" font-family="Arial" font-size="10.00">FOREIGN KEY (user_id) REFERENCES users(id) ON DELETE CASCADE</text>
</g>
<!-- public.user_tags -->
<g id="node7" class="node">
<title>public.user_tags</title>
<polygon fill="#efefef" stroke="none" points="2009.5,-499.8 2009.5,-535.4 2265.47,-535.4 2265.47,-499.8 2009.5,-499.8"/>
<polygon fill="none" stroke="black" points="2009.5,-499.8 2009.5,-535.4 2265.47,-535.4 2265.47,-499.8 2009.5,-499.8"/>
<text text-anchor="start" x="2016.5" y="-513.2" font-family="Arial Bold" font-size="18.00">public.user_tags</text>
<text text-anchor="start" x="2133.98" y="-513.2" font-family="Arial" font-size="14.00">    </text>
<text text-anchor="start" x="2165.1" y="-513.2" font-family="Arial" font-size="14.00" fill="#666666">[BASE TABLE]</text>
<polygon fill="none" stroke="black" points="2009.5,-469 2009.5,-499.8 2265.47,-499.8 2265.47,-469 2009.5,-469"/>
<text text-anchor="start" x="2016.5" y="-481.2" font-family="Arial" font-size="14.00">user_id </text>
<text text-anchor="start" x="2066.31" y="-481.2" font-family="Arial" font-size="14.00" fill="#666666">[uuid]</text>
<polygon fill="none" stroke="black" points="2009.5,-438.2 2009.5,-469 2265.47,-469 2265.47,-438.2 2009.5,-438.2"/>
<text text-anchor="start" x="2016.5" y="-450.4" font-family="Arial" font-size="14.00">tag_id </text>
<text text-anchor="start" x="2058.54" y="-450.4" font-family="Arial" font-size="14.00" fill="#666666">[integer]</text>
</g>
<!-- public.user_tags&#45;&gt;public.users -->
<g id="edge6" class="edge">
<title>public.user_tags:user_id&#45;&gt;public.users:id</title>
<path fill="none" stroke="black" d="M2276.84,-483.8C2361.33,-473.22 2245.12,-325.54 2317.49,-256.4 2440.76,-138.63 2902.55,-123.2 3073.03,-123.2"/>
<polygon fill="black" stroke="black" points="2276.78,-483.8 2266.54,-479.89 2271.46,-484.11 2267.14,-484.36 2267.14,-484.36 2267.14,-484.36 2271.46,-484.11 2267.06,-488.87 2276.78,-483.8"/>
<text text-anchor="start" x="1925.51" y="-494.4" font-family="Arial" font-size="10.00">FOREIGN KEY (user_id) REFERENCES users(id) ON DELETE CASCADE</text>
</g>
<!-- public.pictures -->
<g id="node8" class="node">
<title>public.pictures</title>
<polygon fill="#efefef" stroke="none" points="2369.6,-546 2369.6,-581.6 2619.37,-581.6 2619.37,-546 2369.6,-546"/>
<polygon fill="none" stroke="black" points="2369.6,-546 2369.6,-581.6 2619.37,-581.6 2619.37,-546 2369.6,-546"/>
<text text-anchor="start" x="2379.01" y="-559.4" font-family="Arial Bold" font-size="18.00">public.pictures</text>
<text text-anchor="start" x="2485.48" y="-559.4" font-family="Arial" font-size="14.00">    </text>
<text text-anchor="start" x="2516.59" y="-559.4" font-family="Arial" font-size="14.00" fill="#666666">[BASE TABLE]</text>
<polygon fill="none" stroke="black" points="2369.6,-515.2 2369.6,-546 2619.37,-546 2619.37,-515.2 2369.6,-515.2"/>
<text text-anchor="start" x="2376.6" y="-527.4" font-family="Arial" font-size="14.00">id </text>
<text text-anchor="start" x="2391.39" y="-527.4" font-family="Arial" font-size="14.00" fill="#666666">[integer]</text>
<polygon fill="none" stroke="black" points="2369.6,-484.4 2369.6,-515.2 2619.37,-515.2 2619.37,-484.4 2369.6,-484.4"/>
<text text-anchor="start" x="2376.6" y="-496.6" font-family="Arial" font-size="14.00">user_id </text>
<text text-anchor="start" x="2426.41" y="-496.6" font-family="Arial" font-size="14.00" fill="#666666">[uuid]</text>
<polygon fill="none" stroke="black" points="2369.6,-453.6 2369.6,-484.4 2619.37,-484.4 2619.37,-453.6 2369.6,-453.6"/>
<text text-anchor="start" x="2376.6" y="-465.8" font-family="Arial" font-size="14.00">url </text>
<text text-anchor="start" x="2396.05" y="-465.8" font-family="Arial" font-size="14.00" fill="#666666">[varchar(255)]</text>
<polygon fill="none" stroke="black" points="2369.6,-422.8 2369.6,-453.6 2619.37,-453.6 2619.37,-422.8 2369.6,-422.8"/>
<text text-anchor="start" x="2376.6" y="-435" font-family="Arial" font-size="14.00">is_profile_pic </text>
<text text-anchor="start" x="2462.2" y="-435" font-family="Arial" font-size="14.00" fill="#666666">[boolean]</text>
<polygon fill="none" stroke="black" points="2369.6,-392 2369.6,-422.8 2619.37,-422.8 2619.37,-392 2369.6,-392"/>
<text text-anchor="start" x="2376.6" y="-404.2" font-family="Arial" font-size="14.00">created_at </text>
<text text-anchor="start" x="2446.65" y="-404.2" font-family="Arial" font-size="14.00" fill="#666666">[timestamp with time zone]</text>
</g>
<!-- public.pictures&#45;&gt;public.users -->
<g id="edge7" class="edge">
<title>public.pictures:user_id&#45;&gt;public.users:id</title>
<path fill="none" stroke="black" d="M2630.59,-499.28C2722.3,-489.2 2600.32,-336.12 2671.49,-256.4 2734.09,-186.26 2979.02,-123.2 3073.03,-123.2"/>
<polygon fill="black" stroke="black" points="2630.69,-499.27 2620.48,-495.29 2625.37,-499.54 2621.04,-499.77 2621.04,-499.77 2621.04,-499.77 2625.37,-499.54 2620.94,-504.28 2630.69,-499.27"/>
<text text-anchor="start" x="2453.39" y="-483.8" font-family="Arial" font-size="10.00">FOREIGN KEY (user_id) REFERENCES users(id) ON DELETE CASCADE</text>
</g>
<!-- public.likes -->
<g id="node9" class="node">
<title>public.likes</title>
<polygon fill="#efefef" stroke="none" points="2723.6,-515.2 2723.6,-550.8 2973.37,-550.8 2973.37,-515.2 2723.6,-515.2"/>
<polygon fill="none" stroke="black" points="2723.6,-515.2 2723.6,-550.8 2973.37,-550.8 2973.37,-515.2 2723.6,-515.2"/>
<text text-anchor="start" x="2744.5" y="-528.6" font-family="Arial Bold" font-size="18.00">public.likes</text>
<text text-anchor="start" x="2827.98" y="-528.6" font-family="Arial" font-size="14.00">    </text>
<text text-anchor="start" x="2859.1" y="-528.6" font-family="Arial" font-size="14.00" fill="#666666">[BASE TABLE]</text>
<polygon fill="none" stroke="black" points="2723.6,-484.4 2723.6,-515.2 2973.37,-515.2 2973.37,-484.4 2723.6,-484.4"/>
<text text-anchor="start" x="2730.6" y="-496.6" font-family="Arial" font-size="14.00">liker_id </text>
<text text-anchor="start" x="2778.84" y="-496.6" font-family="Arial" font-size="14.00" fill="#666666">[uuid]</text>
<polygon fill="none" stroke="black" points="2723.6,-453.6 2723.6,-484.4 2973.37,-484.4 2973.37,-453.6 2723.6,-453.6"/>
<text text-anchor="start" x="2730.6" y="-465.8" font-family="Arial" font-size="14.00">liked_id </text>
<text text-anchor="start" x="2781.97" y="-465.8" font-family="Arial" font-size="14.00" fill="#666666">[uuid]</text>
<polygon fill="none" stroke="black" points="2723.6,-422.8 2723.6,-453.6 2973.37,-453.6 2973.37,-422.8 2723.6,-422.8"/>
<text text-anchor="start" x="2730.6" y="-435" font-family="Arial" font-size="14.00">created_at </text>
<text text-anchor="start" x="2800.65" y="-435" font-family="Arial" font-size="14.00" fill="#666666">[timestamp with time zone]</text>
</g>
<!-- public.likes&#45;&gt;public.users -->
<g id="edge8" class="edge">
<title>public.likes:liked_id&#45;&gt;public.users:id</title>
<path fill="none" stroke="black" d="M2984.23,-466.37C3021.42,-445.01 3012.65,-299.51 3025.49,-256.4 3043.42,-196.16 3010.18,-123.2 3073.03,-123.2"/>
<polygon fill="black" stroke="black" points="2984.36,-466.34 2973.54,-464.57 2979.2,-467.71 2975.02,-468.83 2975.02,-468.83 2975.02,-468.83 2979.2,-467.71 2975.85,-473.26 2984.36,-466.34"/>
<text text-anchor="start" x="2981.37" y="-479" font-family="Arial" font-size="10.00">FOREIGN KEY (liked_id) REFERENCES users(id) ON DELETE CASCADE</text>
</g>
<!-- public.likes&#45;&gt;public.users -->
<g id="edge9" class="edge">
<title>public.likes:liker_id&#45;&gt;public.users:id</title>
<path fill="none" stroke="black" d="M2984.43,-497.38C3027.25,-475.14 3011.48,-306.06 3025.49,-256.4 3042.55,-195.9 3010.18,-123.2 3073.03,-123.2"/>
<polygon fill="black" stroke="black" points="2984.42,-497.38 2973.64,-495.35 2979.23,-498.63 2975.02,-499.64 2975.02,-499.64 2975.02,-499.64 2979.23,-498.63 2975.75,-504.1 2984.42,-497.38"/>
<text text-anchor="start" x="2981.37" y="-509.8" font-family="Arial" font-size="10.00">FOREIGN KEY (liker_id) REFERENCES users(id) ON DELETE CASCADE</text>
</g>
<!-- public.connections -->
<g id="node10" class="node">
<title>public.connections</title>
<polygon fill="#efefef" stroke="none" points="3077.51,-499.8 3077.51,-535.4 3351.46,-535.4 3351.46,-499.8 3077.51,-499.8"/>
<polygon fill="none" stroke="black" points="3077.51,-499.8 3077.51,-535.4 3351.46,-535.4 3351.46,-499.8 3077.51,-499.8"/>
<text text-anchor="start" x="3084.51" y="-513.2" font-family="Arial Bold" font-size="18.00">public.connections</text>
<text text-anchor="start" x="3219.97" y="-513.2" font-family="Arial" font-size="14.00">    </text>
<text text-anchor="start" x="3251.09" y="-513.2" font-family="Arial" font-size="14.00" fill="#666666">[BASE TABLE]</text>
<polygon fill="none" stroke="black" points="3077.51,-469 3077.51,-499.8 3351.46,-499.8 3351.46,-469 3077.51,-469"/>
<text text-anchor="start" x="3084.51" y="-481.2" font-family="Arial" font-size="14.00">user1_id </text>
<text text-anchor="start" x="3142.1" y="-481.2" font-family="Arial" font-size="14.00" fill="#666666">[uuid]</text>
<polygon fill="none" stroke="black" points="3077.51,-438.2 3077.51,-469 3351.46,-469 3351.46,-438.2 3077.51,-438.2"/>
<text text-anchor="start" x="3084.51" y="-450.4" font-family="Arial" font-size="14.00">user2_id </text>
<text text-anchor="start" x="3142.1" y="-450.4" font-family="Arial" font-size="14.00" fill="#666666">[uuid]</text>
</g>
<!-- public.connections&#45;&gt;public.users -->
<g id="edge10" class="edge">
<title>public.connections:user1_id&#45;&gt;public.users:id</title>
<path fill="none" stroke="black" d="M3360.99,-478.43C3392.87,-431.47 3393.02,-123.2 3355.94,-123.2"/>
<polygon fill="black" stroke="black" points="3360.93,-478.48 3350.16,-480.52 3356.56,-481.53 3353.01,-484.02 3353.01,-484.02 3353.01,-484.02 3356.56,-481.53 3355.32,-487.9 3360.93,-478.48"/>
<text text-anchor="start" x="3182.7" y="-468.4" font-family="Arial" font-size="10.00">FOREIGN KEY (user1_id) REFERENCES users(id) ON DELETE CASCADE</text>
</g>
<!-- public.connections&#45;&gt;public.users -->
<g id="edge11" class="edge">
<title>public.connections:user2_id&#45;&gt;public.users:id</title>
<path fill="none" stroke="black" d="M3214.79,-426.79C3221.12,-322.77 3322.86,-326.89 3354.94,-220.4 3367.4,-179.03 3399.14,-123.2 3355.94,-123.2"/>
<polygon fill="black" stroke="black" points="3214.79,-426.87 3210,-436.73 3214.63,-432.2 3214.51,-436.53 3214.51,-436.53 3214.51,-436.53 3214.63,-432.2 3218.99,-437 3214.79,-426.87"/>
<text text-anchor="start" x="3044.73" y="-421.2" font-family="Arial" font-size="10.00">FOREIGN KEY (user2_id) REFERENCES users(id) ON DELETE CASCADE</text>
</g>
<!-- public.views -->
<g id="node11" class="node">
<title>public.views</title>
<polygon fill="#efefef" stroke="none" points="3455.56,-515.2 3455.56,-550.8 3701.41,-550.8 3701.41,-515.2 3455.56,-515.2"/>
<polygon fill="none" stroke="black" points="3455.56,-515.2 3455.56,-550.8 3701.41,-550.8 3701.41,-515.2 3455.56,-515.2"/>
<text text-anchor="start" x="3470.5" y="-528.6" font-family="Arial Bold" font-size="18.00">public.views</text>
<text text-anchor="start" x="3561.98" y="-528.6" font-family="Arial" font-size="14.00">    </text>
<text text-anchor="start" x="3593.1" y="-528.6" font-family="Arial" font-size="14.00" fill="#666666">[BASE TABLE]</text>
<polygon fill="none" stroke="black" points="3455.56,-484.4 3455.56,-515.2 3701.41,-515.2 3701.41,-484.4 3455.56,-484.4"/>
<text text-anchor="start" x="3462.56" y="-496.6" font-family="Arial" font-size="14.00">viewer_id </text>
<text text-anchor="start" x="3525.59" y="-496.6" font-family="Arial" font-size="14.00" fill="#666666">[uuid]</text>
<polygon fill="none" stroke="black" points="3455.56,-453.6 3455.56,-484.4 3701.41,-484.4 3701.41,-453.6 3455.56,-453.6"/>
<text text-anchor="start" x="3462.56" y="-465.8" font-family="Arial" font-size="14.00">viewed_id </text>
<text text-anchor="start" x="3528.71" y="-465.8" font-family="Arial" font-size="14.00" fill="#666666">[uuid]</text>
<polygon fill="none" stroke="black" points="3455.56,-422.8 3455.56,-453.6 3701.41,-453.6 3701.41,-422.8 3455.56,-422.8"/>
<text text-anchor="start" x="3462.56" y="-435" font-family="Arial" font-size="14.00">view_time </text>
<text text-anchor="start" x="3528.69" y="-435" font-family="Arial" font-size="14.00" fill="#666666">[timestamp with time zone]</text>
</g>
<!-- public.views&#45;&gt;public.users -->
<g id="edge12" class="edge">
<title>public.views:viewed_id&#45;&gt;public.users:id</title>
<path fill="none" stroke="black" d="M3444.7,-466.37C3407.52,-445.01 3416.32,-299.51 3403.49,-256.4 3385.55,-196.15 3418.8,-123.2 3355.94,-123.2"/>
<polygon fill="black" stroke="black" points="3444.57,-466.34 3453.08,-473.26 3449.73,-467.71 3453.91,-468.83 3453.91,-468.83 3453.91,-468.83 3449.73,-467.71 3455.39,-464.57 3444.57,-466.34"/>
<text text-anchor="start" x="3191.83" y="-453" font-family="Arial" font-size="10.00">FOREIGN KEY (viewed_id) REFERENCES users(id) ON DELETE CASCADE</text>
</g>
<!-- public.views&#45;&gt;public.users -->
<g id="edge13" class="edge">
<title>public.views:viewer_id&#45;&gt;public.users:id</title>
<path fill="none" stroke="black" d="M3444.5,-497.38C3401.69,-475.14 3417.49,-306.06 3403.49,-256.4 3386.43,-195.9 3418.8,-123.2 3355.94,-123.2"/>
<polygon fill="black" stroke="black" points="3444.51,-497.38 3453.18,-504.1 3449.7,-498.63 3453.91,-499.64 3453.91,-499.64 3453.91,-499.64 3449.7,-498.63 3455.29,-495.35 3444.51,-497.38"/>
<text text-anchor="start" x="3461.56" y="-509.8" font-family="Arial" font-size="10.00">FOREIGN KEY (viewer_id) REFERENCES users(id) ON DELETE CASCADE</text>
</g>
<!-- public.blocks -->
<g id="node12" class="node">
<title>public.blocks</title>
<polygon fill="#efefef" stroke="none" points="3806,-499.8 3806,-535.4 4040.97,-535.4 4040.97,-499.8 3806,-499.8"/>
<polygon fill="none" stroke="black" points="3806,-499.8 3806,-535.4 4040.97,-535.4 4040.97,-499.8 3806,-499.8"/>
<text text-anchor="start" x="3813" y="-513.2" font-family="Arial Bold" font-size="18.00">public.blocks</text>
<text text-anchor="start" x="3909.48" y="-513.2" font-family="Arial" font-size="14.00">    </text>
<text text-anchor="start" x="3940.6" y="-513.2" font-family="Arial" font-size="14.00" fill="#666666">[BASE TABLE]</text>
<polygon fill="none" stroke="black" points="3806,-469 3806,-499.8 4040.97,-499.8 4040.97,-469 3806,-469"/>
<text text-anchor="start" x="3813" y="-481.2" font-family="Arial" font-size="14.00">blocker_id </text>
<text text-anchor="start" x="3880.7" y="-481.2" font-family="Arial" font-size="14.00" fill="#666666">[uuid]</text>
<polygon fill="none" stroke="black" points="3806,-438.2 3806,-469 4040.97,-469 4040.97,-438.2 3806,-438.2"/>
<text text-anchor="start" x="3813" y="-450.4" font-family="Arial" font-size="14.00">blocked_id </text>
<text text-anchor="start" x="3883.83" y="-450.4" font-family="Arial" font-size="14.00" fill="#666666">[uuid]</text>
</g>
<!-- public.blocks&#45;&gt;public.users -->
<g id="edge14" class="edge">
<title>public.blocks:blocked_id&#45;&gt;public.users:id</title>
<path fill="none" stroke="black" d="M3794.79,-452.95C3722.42,-442.96 3812.8,-319.87 3753.49,-256.4 3689.87,-188.32 3449.11,-123.2 3355.94,-123.2"/>
<polygon fill="black" stroke="black" points="3794.68,-452.95 3804.38,-458.07 3800.01,-453.28 3804.33,-453.56 3804.33,-453.56 3804.33,-453.56 3800.01,-453.28 3804.95,-449.09 3794.68,-452.95"/>
<text text-anchor="start" x="3812" y="-463.6" font-family="Arial" font-size="10.00">FOREIGN KEY (blocked_id) REFERENCES users(id) ON DELETE CASCADE</text>
</g>
<!-- public.blocks&#45;&gt;public.users -->
<g id="edge15" class="edge">
<title>public.blocks:blocker_id&#45;&gt;public.users:id</title>
<path fill="none" stroke="black" d="M3794.6,-483.82C3709.68,-473.59 3820.62,-330.69 3753.49,-256.4 3691.02,-187.27 3449.11,-123.2 3355.94,-123.2"/>
<polygon fill="black" stroke="black" points="3794.68,-483.82 3804.41,-488.87 3800.01,-484.12 3804.33,-484.36 3804.33,-484.36 3804.33,-484.36 3800.01,-484.12 3804.92,-479.89 3794.68,-483.82"/>
<text text-anchor="start" x="3812" y="-494.4" font-family="Arial" font-size="10.00">FOREIGN KEY (blocker_id) REFERENCES users(id) ON DELETE CASCADE</text>
</g>
<!-- public.notifications -->
<g id="node13" class="node">
<title>public.notifications</title>
<polygon fill="#efefef" stroke="none" points="4145.5,-561.4 4145.5,-597 4423.47,-597 4423.47,-561.4 4145.5,-561.4"/>
<polygon fill="none" stroke="black" points="4145.5,-561.4 4145.5,-597 4423.47,-597 4423.47,-561.4 4145.5,-561.4"/>
<text text-anchor="start" x="4152.5" y="-574.8" font-family="Arial Bold" font-size="18.00">public.notifications</text>
<text text-anchor="start" x="4291.98" y="-574.8" font-family="Arial" font-size="14.00">    </text>
<text text-anchor="start" x="4323.1" y="-574.8" font-family="Arial" font-size="14.00" fill="#666666">[BASE TABLE]</text>
<polygon fill="none" stroke="black" points="4145.5,-530.6 4145.5,-561.4 4423.47,-561.4 4423.47,-530.6 4145.5,-530.6"/>
<text text-anchor="start" x="4152.5" y="-542.8" font-family="Arial" font-size="14.00">id </text>
<text text-anchor="start" x="4167.29" y="-542.8" font-family="Arial" font-size="14.00" fill="#666666">[bigint]</text>
<polygon fill="none" stroke="black" points="4145.5,-499.8 4145.5,-530.6 4423.47,-530.6 4423.47,-499.8 4145.5,-499.8"/>
<text text-anchor="start" x="4152.5" y="-512" font-family="Arial" font-size="14.00">recipient_id </text>
<text text-anchor="start" x="4227.99" y="-512" font-family="Arial" font-size="14.00" fill="#666666">[uuid]</text>
<polygon fill="none" stroke="black" points="4145.5,-469 4145.5,-499.8 4423.47,-499.8 4423.47,-469 4145.5,-469"/>
<text text-anchor="start" x="4152.5" y="-481.2" font-family="Arial" font-size="14.00">sender_id </text>
<text text-anchor="start" x="4217.88" y="-481.2" font-family="Arial" font-size="14.00" fill="#666666">[uuid]</text>
<polygon fill="none" stroke="black" points="4145.5,-438.2 4145.5,-469 4423.47,-469 4423.47,-438.2 4145.5,-438.2"/>
<text text-anchor="start" x="4152.5" y="-450.4" font-family="Arial" font-size="14.00">type </text>
<text text-anchor="start" x="4182.86" y="-450.4" font-family="Arial" font-size="14.00" fill="#666666">[notification_type_enum]</text>
<polygon fill="none" stroke="black" points="4145.5,-407.4 4145.5,-438.2 4423.47,-438.2 4423.47,-407.4 4145.5,-407.4"/>
<text text-anchor="start" x="4152.5" y="-419.6" font-family="Arial" font-size="14.00">is_read </text>
<text text-anchor="start" x="4202.31" y="-419.6" font-family="Arial" font-size="14.00" fill="#666666">[boolean]</text>
<polygon fill="none" stroke="black" points="4145.5,-376.6 4145.5,-407.4 4423.47,-407.4 4423.47,-376.6 4145.5,-376.6"/>
<text text-anchor="start" x="4152.5" y="-388.8" font-family="Arial" font-size="14.00">created_at </text>
<text text-anchor="start" x="4222.55" y="-388.8" font-family="Arial" font-size="14.00" fill="#666666">[timestamp with time zone]</text>
</g>
<!-- public.notifications&#45;&gt;public.users -->
<g id="edge16" class="edge">
<title>public.notifications:recipient_id&#45;&gt;public.users:id</title>
<path fill="none" stroke="black" d="M4134.28,-514.69C4036.4,-504.26 4174.43,-336.06 4093.49,-256.4 3974.78,-139.57 3522.49,-123.2 3355.94,-123.2"/>
<polygon fill="black" stroke="black" points="4134.18,-514.69 4143.95,-519.68 4139.51,-514.95 4143.84,-515.17 4143.84,-515.17 4143.84,-515.17 4139.51,-514.95 4144.39,-510.69 4134.18,-514.69"/>
<text text-anchor="start" x="3876.78" y="-499.2" font-family="Arial" font-size="10.00">FOREIGN KEY (recipient_id) REFERENCES users(id) ON DELETE CASCADE</text>
</g>
<!-- public.notifications&#45;&gt;public.users -->
<g id="edge17" class="edge">
<title>public.notifications:sender_id&#45;&gt;public.users:id</title>
<path fill="none" stroke="black" d="M4134.13,-483.8C4049.63,-473.23 4165.71,-325.69 4093.49,-256.4 3973.3,-141.1 3522.49,-123.2 3355.94,-123.2"/>
<polygon fill="black" stroke="black" points="4134.19,-483.8 4143.91,-488.87 4139.51,-484.11 4143.84,-484.36 4143.84,-484.36 4143.84,-484.36 4139.51,-484.11 4144.43,-479.89 4134.19,-483.8"/>
<text text-anchor="start" x="3882.61" y="-468.4" font-family="Arial" font-size="10.00">FOREIGN KEY (sender_id) REFERENCES users(id) ON DELETE SET NULL</text>
</g>
<!-- public.messages -->
<g id="node14" class="node">
<title>public.messages</title>
<polygon fill="#efefef" stroke="none" points="4527.5,-561.4 4527.5,-597 4783.47,-597 4783.47,-561.4 4527.5,-561.4"/>
<polygon fill="none" stroke="black" points="4527.5,-561.4 4527.5,-597 4783.47,-597 4783.47,-561.4 4527.5,-561.4"/>
<text text-anchor="start" x="4534.5" y="-574.8" font-family="Arial Bold" font-size="18.00">public.messages</text>
<text text-anchor="start" x="4651.98" y="-574.8" font-family="Arial" font-size="14.00">    </text>
<text text-anchor="start" x="4683.1" y="-574.8" font-family="Arial" font-size="14.00" fill="#666666">[BASE TABLE]</text>
<polygon fill="none" stroke="black" points="4527.5,-530.6 4527.5,-561.4 4783.47,-561.4 4783.47,-530.6 4527.5,-530.6"/>
<text text-anchor="start" x="4534.5" y="-542.8" font-family="Arial" font-size="14.00">id </text>
<text text-anchor="start" x="4549.29" y="-542.8" font-family="Arial" font-size="14.00" fill="#666666">[bigint]</text>
<polygon fill="none" stroke="black" points="4527.5,-499.8 4527.5,-530.6 4783.47,-530.6 4783.47,-499.8 4527.5,-499.8"/>
<text text-anchor="start" x="4534.5" y="-512" font-family="Arial" font-size="14.00">sender_id </text>
<text text-anchor="start" x="4599.88" y="-512" font-family="Arial" font-size="14.00" fill="#666666">[uuid]</text>
<polygon fill="none" stroke="black" points="4527.5,-469 4527.5,-499.8 4783.47,-499.8 4783.47,-469 4527.5,-469"/>
<text text-anchor="start" x="4534.5" y="-481.2" font-family="Arial" font-size="14.00">recipient_id </text>
<text text-anchor="start" x="4609.99" y="-481.2" font-family="Arial" font-size="14.00" fill="#666666">[uuid]</text>
<polygon fill="none" stroke="black" points="4527.5,-438.2 4527.5,-469 4783.47,-469 4783.47,-438.2 4527.5,-438.2"/>
<text text-anchor="start" x="4534.5" y="-450.4" font-family="Arial" font-size="14.00">content </text>
<text text-anchor="start" x="4584.32" y="-450.4" font-family="Arial" font-size="14.00" fill="#666666">[text]</text>
<polygon fill="none" stroke="black" points="4527.5,-407.4 4527.5,-438.2 4783.47,-438.2 4783.47,-407.4 4527.5,-407.4"/>
<text text-anchor="start" x="4534.5" y="-419.6" font-family="Arial" font-size="14.00">sent_at </text>
<text text-anchor="start" x="4584.32" y="-419.6" font-family="Arial" font-size="14.00" fill="#666666">[timestamp with time zone]</text>
<polygon fill="none" stroke="black" points="4527.5,-376.6 4527.5,-407.4 4783.47,-407.4 4783.47,-376.6 4527.5,-376.6"/>
<text text-anchor="start" x="4534.5" y="-388.8" font-family="Arial" font-size="14.00">is_read </text>
<text text-anchor="start" x="4584.31" y="-388.8" font-family="Arial" font-size="14.00" fill="#666666">[boolean]</text>
</g>
<!-- public.messages&#45;&gt;public.users -->
<g id="edge18" class="edge">
<title>public.messages:recipient_id&#45;&gt;public.users:id</title>
<path fill="none" stroke="black" d="M4516.14,-483.79C4431.78,-473.07 4549.76,-323.48 4475.49,-256.4 4382.52,-172.44 3481.21,-123.2 3355.94,-123.2"/>
<polygon fill="black" stroke="black" points="4516.19,-483.79 4525.91,-488.87 4521.51,-484.11 4525.84,-484.36 4525.84,-484.36 4525.84,-484.36 4521.51,-484.11 4526.43,-479.89 4516.19,-483.79"/>
<text text-anchor="start" x="4533.5" y="-494.4" font-family="Arial" font-size="10.00">FOREIGN KEY (recipient_id) REFERENCES users(id) ON DELETE CASCADE</text>
</g>
<!-- public.messages&#45;&gt;public.users -->
<g id="edge19" class="edge">
<title>public.messages:sender_id&#45;&gt;public.users:id</title>
<path fill="none" stroke="black" d="M4516.29,-514.68C4418.55,-504.1 4558.79,-333.59 4475.49,-256.4 4383.59,-171.26 3481.21,-123.2 3355.94,-123.2"/>
<polygon fill="black" stroke="black" points="4516.18,-514.68 4525.94,-519.68 4521.51,-514.95 4525.84,-515.17 4525.84,-515.17 4525.84,-515.17 4521.51,-514.95 4526.4,-510.69 4516.18,-514.68"/>
<text text-anchor="start" x="4533.5" y="-525.2" font-family="Arial" font-size="10.00">FOREIGN KEY (sender_id) REFERENCES users(id) ON DELETE CASCADE</text>
</g>
<!-- public.refresh_tokens -->
<g id="node15" class="node">
<title>public.refresh_tokens</title>
<polygon fill="#efefef" stroke="none" points="4887.52,-546 4887.52,-581.6 5181.46,-581.6 5181.46,-546 4887.52,-546"/>
<polygon fill="none" stroke="black" points="4887.52,-546 4887.52,-581.6 5181.46,-581.6 5181.46,-546 4887.52,-546"/>
<text text-anchor="start" x="4894.52" y="-559.4" font-family="Arial Bold" font-size="18.00">public.refresh_tokens</text>
<text text-anchor="start" x="5049.97" y="-559.4" font-family="Arial" font-size="14.00">    </text>
<text text-anchor="start" x="5081.08" y="-559.4" font-family="Arial" font-size="14.00" fill="#666666">[BASE TABLE]</text>
<polygon fill="none" stroke="black" points="4887.52,-515.2 4887.52,-546 5181.46,-546 5181.46,-515.2 4887.52,-515.2"/>
<text text-anchor="start" x="4894.52" y="-527.4" font-family="Arial" font-size="14.00">token_hash </text>
<text text-anchor="start" x="4970.8" y="-527.4" font-family="Arial" font-size="14.00" fill="#666666">[varchar(255)]</text>
<polygon fill="none" stroke="black" points="4887.52,-484.4 4887.52,-515.2 5181.46,-515.2 5181.46,-484.4 4887.52,-484.4"/>
<text text-anchor="start" x="4894.52" y="-496.6" font-family="Arial" font-size="14.00">user_id </text>
<text text-anchor="start" x="4944.32" y="-496.6" font-family="Arial" font-size="14.00" fill="#666666">[uuid]</text>
<polygon fill="none" stroke="black" points="4887.52,-453.6 4887.52,-484.4 5181.46,-484.4 5181.46,-453.6 4887.52,-453.6"/>
<text text-anchor="start" x="4894.52" y="-465.8" font-family="Arial" font-size="14.00">expires_at </text>
<text text-anchor="start" x="4963" y="-465.8" font-family="Arial" font-size="14.00" fill="#666666">[timestamp with time zone]</text>
<polygon fill="none" stroke="black" points="4887.52,-422.8 4887.52,-453.6 5181.46,-453.6 5181.46,-422.8 4887.52,-422.8"/>
<text text-anchor="start" x="4894.52" y="-435" font-family="Arial" font-size="14.00">created_at </text>
<text text-anchor="start" x="4964.56" y="-435" font-family="Arial" font-size="14.00" fill="#666666">[timestamp with time zone]</text>
<polygon fill="none" stroke="black" points="4887.52,-392 4887.52,-422.8 5181.46,-422.8 5181.46,-392 4887.52,-392"/>
<text text-anchor="start" x="4894.52" y="-404.2" font-family="Arial" font-size="14.00">revoked </text>
<text text-anchor="start" x="4948.21" y="-404.2" font-family="Arial" font-size="14.00" fill="#666666">[boolean]</text>
</g>
<!-- public.refresh_tokens&#45;&gt;public.users -->
<g id="edge20" class="edge">
<title>public.refresh_tokens:user_id&#45;&gt;public.users:id</title>
<path fill="none" stroke="black" d="M4876.32,-499.25C4785.17,-488.62 4915.33,-327.42 4835.49,-256.4 4712.15,-146.7 3521,-123.2 3355.94,-123.2"/>
<polygon fill="black" stroke="black" points="4876.2,-499.24 4885.94,-504.28 4881.52,-499.53 4885.85,-499.76 4885.85,-499.76 4885.85,-499.76 4881.52,-499.53 4886.42,-495.29 4876.2,-499.24"/>
<text text-anchor="start" x="4632.55" y="-483.8" font-family="Arial" font-size="10.00">FOREIGN KEY (user_id) REFERENCES users(id) ON DELETE CASCADE</text>
</g>
</g>
</svg>
