<?xml version="1.0" encoding="UTF-8" standalone="no"?>
<!DOCTYPE svg PUBLIC "-//W3C//DTD SVG 1.1//EN"
 "http://www.w3.org/Graphics/SVG/1.1/DTD/svg11.dtd">
<!-- Generated by graphviz version 12.1.2 (20240928.0832)
 -->
<!-- Title: public.user_profiles Pages: 1 -->
<svg width="685pt" height="664pt"
 viewBox="0.00 0.00 685.11 663.60" xmlns="http://www.w3.org/2000/svg" xmlns:xlink="http://www.w3.org/1999/xlink">
<g id="graph0" class="graph" transform="scale(1 1) rotate(0) translate(4 659.6)">
<title>public.user_profiles</title>
<polygon fill="white" stroke="none" points="-4,4 -4,-659.6 681.11,-659.6 681.11,4 -4,4"/>
<!-- public.user_profiles -->
<g id="node1" class="node">
<title>public.user_profiles</title>
<polygon fill="#efefef" stroke="none" points="46.2,-573.8 46.2,-609.4 328.15,-609.4 328.15,-573.8 46.2,-573.8"/>
<polygon fill="none" stroke="black" points="46.2,-573.8 46.2,-609.4 328.15,-609.4 328.15,-573.8 46.2,-573.8"/>
<text text-anchor="start" x="53.2" y="-587.2" font-family="Arial Bold" font-size="18.00">public.user_profiles</text>
<text text-anchor="start" x="196.66" y="-587.2" font-family="Arial" font-size="14.00">    </text>
<text text-anchor="start" x="227.78" y="-587.2" font-family="Arial" font-size="14.00" fill="#666666">[BASE TABLE]</text>
<polygon fill="none" stroke="black" points="46.2,-543 46.2,-573.8 328.15,-573.8 328.15,-543 46.2,-543"/>
<text text-anchor="start" x="53.2" y="-555.2" font-family="Arial" font-size="14.00">user_id </text>
<text text-anchor="start" x="103.01" y="-555.2" font-family="Arial" font-size="14.00" fill="#666666">[uuid]</text>
<polygon fill="none" stroke="black" points="46.2,-512.2 46.2,-543 328.15,-543 328.15,-512.2 46.2,-512.2"/>
<text text-anchor="start" x="53.2" y="-524.4" font-family="Arial" font-size="14.00">first_name </text>
<text text-anchor="start" x="122.45" y="-524.4" font-family="Arial" font-size="14.00" fill="#666666">[varchar(50)]</text>
<polygon fill="none" stroke="black" points="46.2,-481.4 46.2,-512.2 328.15,-512.2 328.15,-481.4 46.2,-481.4"/>
<text text-anchor="start" x="53.2" y="-493.6" font-family="Arial" font-size="14.00">last_name </text>
<text text-anchor="start" x="121.68" y="-493.6" font-family="Arial" font-size="14.00" fill="#666666">[varchar(50)]</text>
<polygon fill="none" stroke="black" points="46.2,-450.6 46.2,-481.4 328.15,-481.4 328.15,-450.6 46.2,-450.6"/>
<text text-anchor="start" x="53.2" y="-462.8" font-family="Arial" font-size="14.00">username </text>
<text text-anchor="start" x="119.34" y="-462.8" font-family="Arial" font-size="14.00" fill="#666666">[varchar(50)]</text>
<polygon fill="none" stroke="black" points="46.2,-419.8 46.2,-450.6 328.15,-450.6 328.15,-419.8 46.2,-419.8"/>
<text text-anchor="start" x="53.2" y="-432" font-family="Arial" font-size="14.00">gender </text>
<text text-anchor="start" x="100.68" y="-432" font-family="Arial" font-size="14.00" fill="#666666">[gender_enum]</text>
<polygon fill="none" stroke="black" points="46.2,-389 46.2,-419.8 328.15,-419.8 328.15,-389 46.2,-389"/>
<text text-anchor="start" x="53.2" y="-401.2" font-family="Arial" font-size="14.00">sexual_preference </text>
<text text-anchor="start" x="172.28" y="-401.2" font-family="Arial" font-size="14.00" fill="#666666">[preference_enum]</text>
<polygon fill="none" stroke="black" points="46.2,-358.2 46.2,-389 328.15,-389 328.15,-358.2 46.2,-358.2"/>
<text text-anchor="start" x="53.2" y="-370.4" font-family="Arial" font-size="14.00">biography </text>
<text text-anchor="start" x="118.58" y="-370.4" font-family="Arial" font-size="14.00" fill="#666666">[text]</text>
<polygon fill="none" stroke="black" points="46.2,-327.4 46.2,-358.2 328.15,-358.2 328.15,-327.4 46.2,-327.4"/>
<text text-anchor="start" x="53.2" y="-339.6" font-family="Arial" font-size="14.00">fame_rating </text>
<text text-anchor="start" x="131.02" y="-339.6" font-family="Arial" font-size="14.00" fill="#666666">[integer]</text>
<polygon fill="none" stroke="black" points="46.2,-296.6 46.2,-327.4 328.15,-327.4 328.15,-296.6 46.2,-296.6"/>
<text text-anchor="start" x="53.2" y="-308.8" font-family="Arial" font-size="14.00">location_name </text>
<text text-anchor="start" x="148.15" y="-308.8" font-family="Arial" font-size="14.00" fill="#666666">[varchar(255)]</text>
<polygon fill="none" stroke="black" stroke-width="3" points="44.7,-295.1 44.7,-610.9 329.65,-610.9 329.65,-295.1 44.7,-295.1"/>
</g>
<!-- public.users -->
<g id="node2" class="node">
<title>public.users</title>
<polygon fill="#efefef" stroke="none" points="46.73,-135.6 46.73,-171.2 327.63,-171.2 327.63,-135.6 46.73,-135.6"/>
<polygon fill="none" stroke="black" points="46.73,-135.6 46.73,-171.2 327.63,-171.2 327.63,-135.6 46.73,-135.6"/>
<text text-anchor="start" x="81.69" y="-149" font-family="Arial Bold" font-size="18.00">public.users</text>
<text text-anchor="start" x="168.17" y="-149" font-family="Arial" font-size="14.00">    </text>
<text text-anchor="start" x="199.29" y="-149" font-family="Arial" font-size="14.00" fill="#666666">[BASE TABLE]</text>
<polygon fill="none" stroke="black" points="46.73,-104.8 46.73,-135.6 327.63,-135.6 327.63,-104.8 46.73,-104.8"/>
<text text-anchor="start" x="53.73" y="-117" font-family="Arial" font-size="14.00">id </text>
<text text-anchor="start" x="68.51" y="-117" font-family="Arial" font-size="14.00" fill="#666666">[uuid]</text>
<polygon fill="none" stroke="black" points="46.73,-74 46.73,-104.8 327.63,-104.8 327.63,-74 46.73,-74"/>
<text text-anchor="start" x="53.73" y="-86.2" font-family="Arial" font-size="14.00">created_at </text>
<text text-anchor="start" x="123.77" y="-86.2" font-family="Arial" font-size="14.00" fill="#666666">[timestamp with time zone]</text>
<polygon fill="none" stroke="black" points="46.73,-43.2 46.73,-74 327.63,-74 327.63,-43.2 46.73,-43.2"/>
<text text-anchor="start" x="53.73" y="-55.4" font-family="Arial" font-size="14.00">last_connection </text>
<text text-anchor="start" x="154.9" y="-55.4" font-family="Arial" font-size="14.00" fill="#666666">[timestamp with time zone]</text>
</g>
<!-- public.user_profiles&#45;&gt;public.users -->
<g id="edge1" class="edge">
<title>public.user_profiles:user_id&#45;&gt;public.users:id</title>
<path fill="none" stroke="black" d="M339.33,-556.73C426.37,-527.31 422.49,-120.2 328.63,-120.2"/>
<polygon fill="black" stroke="black" points="339.35,-556.72 328.75,-553.91 334.09,-557.59 329.81,-558.29 329.81,-558.29 329.81,-558.29 334.09,-557.59 330.21,-562.79 339.35,-556.72"/>
<text text-anchor="start" x="336.15" y="-568.4" font-family="Arial" font-size="10.00">FOREIGN KEY (user_id) REFERENCES users(id) ON DELETE CASCADE</text>
</g>
</g>
</svg>
