<?xml version="1.0" encoding="UTF-8" standalone="no"?>
<!DOCTYPE svg PUBLIC "-//W3C//DTD SVG 1.1//EN"
 "http://www.w3.org/Graphics/SVG/1.1/DTD/svg11.dtd">
<!-- Generated by graphviz version 12.1.2 (20240928.0832)
 -->
<!-- Title: public.notifications Pages: 1 -->
<svg width="699pt" height="571pt"
 viewBox="0.00 0.00 699.47 571.20" xmlns="http://www.w3.org/2000/svg" xmlns:xlink="http://www.w3.org/1999/xlink">
<g id="graph0" class="graph" transform="scale(1 1) rotate(0) translate(4 567.2)">
<title>public.notifications</title>
<polygon fill="white" stroke="none" points="-4,4 -4,-567.2 695.47,-567.2 695.47,4 -4,4"/>
<!-- public.notifications -->
<g id="node1" class="node">
<title>public.notifications</title>
<polygon fill="#efefef" stroke="none" points="46.2,-481.4 46.2,-517 324.16,-517 324.16,-481.4 46.2,-481.4"/>
<polygon fill="none" stroke="black" points="46.2,-481.4 46.2,-517 324.16,-517 324.16,-481.4 46.2,-481.4"/>
<text text-anchor="start" x="53.2" y="-494.8" font-family="Arial Bold" font-size="18.00">public.notifications</text>
<text text-anchor="start" x="192.67" y="-494.8" font-family="Arial" font-size="14.00">    </text>
<text text-anchor="start" x="223.79" y="-494.8" font-family="Arial" font-size="14.00" fill="#666666">[BASE TABLE]</text>
<polygon fill="none" stroke="black" points="46.2,-450.6 46.2,-481.4 324.16,-481.4 324.16,-450.6 46.2,-450.6"/>
<text text-anchor="start" x="53.2" y="-462.8" font-family="Arial" font-size="14.00">id </text>
<text text-anchor="start" x="67.99" y="-462.8" font-family="Arial" font-size="14.00" fill="#666666">[bigint]</text>
<polygon fill="none" stroke="black" points="46.2,-419.8 46.2,-450.6 324.16,-450.6 324.16,-419.8 46.2,-419.8"/>
<text text-anchor="start" x="53.2" y="-432" font-family="Arial" font-size="14.00">recipient_id </text>
<text text-anchor="start" x="128.69" y="-432" font-family="Arial" font-size="14.00" fill="#666666">[uuid]</text>
<polygon fill="none" stroke="black" points="46.2,-389 46.2,-419.8 324.16,-419.8 324.16,-389 46.2,-389"/>
<text text-anchor="start" x="53.2" y="-401.2" font-family="Arial" font-size="14.00">sender_id </text>
<text text-anchor="start" x="118.58" y="-401.2" font-family="Arial" font-size="14.00" fill="#666666">[uuid]</text>
<polygon fill="none" stroke="black" points="46.2,-358.2 46.2,-389 324.16,-389 324.16,-358.2 46.2,-358.2"/>
<text text-anchor="start" x="53.2" y="-370.4" font-family="Arial" font-size="14.00">type </text>
<text text-anchor="start" x="83.55" y="-370.4" font-family="Arial" font-size="14.00" fill="#666666">[notification_type_enum]</text>
<polygon fill="none" stroke="black" points="46.2,-327.4 46.2,-358.2 324.16,-358.2 324.16,-327.4 46.2,-327.4"/>
<text text-anchor="start" x="53.2" y="-339.6" font-family="Arial" font-size="14.00">is_read </text>
<text text-anchor="start" x="103.01" y="-339.6" font-family="Arial" font-size="14.00" fill="#666666">[boolean]</text>
<polygon fill="none" stroke="black" points="46.2,-296.6 46.2,-327.4 324.16,-327.4 324.16,-296.6 46.2,-296.6"/>
<text text-anchor="start" x="53.2" y="-308.8" font-family="Arial" font-size="14.00">created_at </text>
<text text-anchor="start" x="123.25" y="-308.8" font-family="Arial" font-size="14.00" fill="#666666">[timestamp with time zone]</text>
<polygon fill="none" stroke="black" stroke-width="3" points="44.7,-295.1 44.7,-518.5 325.66,-518.5 325.66,-295.1 44.7,-295.1"/>
</g>
<!-- public.users -->
<g id="node2" class="node">
<title>public.users</title>
<polygon fill="#efefef" stroke="none" points="44.73,-135.6 44.73,-171.2 325.63,-171.2 325.63,-135.6 44.73,-135.6"/>
<polygon fill="none" stroke="black" points="44.73,-135.6 44.73,-171.2 325.63,-171.2 325.63,-135.6 44.73,-135.6"/>
<text text-anchor="start" x="79.69" y="-149" font-family="Arial Bold" font-size="18.00">public.users</text>
<text text-anchor="start" x="166.18" y="-149" font-family="Arial" font-size="14.00">    </text>
<text text-anchor="start" x="197.3" y="-149" font-family="Arial" font-size="14.00" fill="#666666">[BASE TABLE]</text>
<polygon fill="none" stroke="black" points="44.73,-104.8 44.73,-135.6 325.63,-135.6 325.63,-104.8 44.73,-104.8"/>
<text text-anchor="start" x="51.73" y="-117" font-family="Arial" font-size="14.00">id </text>
<text text-anchor="start" x="66.52" y="-117" font-family="Arial" font-size="14.00" fill="#666666">[uuid]</text>
<polygon fill="none" stroke="black" points="44.73,-74 44.73,-104.8 325.63,-104.8 325.63,-74 44.73,-74"/>
<text text-anchor="start" x="51.73" y="-86.2" font-family="Arial" font-size="14.00">created_at </text>
<text text-anchor="start" x="121.78" y="-86.2" font-family="Arial" font-size="14.00" fill="#666666">[timestamp with time zone]</text>
<polygon fill="none" stroke="black" points="44.73,-43.2 44.73,-74 325.63,-74 325.63,-43.2 44.73,-43.2"/>
<text text-anchor="start" x="51.73" y="-55.4" font-family="Arial" font-size="14.00">last_connection </text>
<text text-anchor="start" x="152.91" y="-55.4" font-family="Arial" font-size="14.00" fill="#666666">[timestamp with time zone]</text>
</g>
<!-- public.notifications&#45;&gt;public.users -->
<g id="edge1" class="edge">
<title>public.notifications:recipient_id&#45;&gt;public.users:id</title>
<path fill="none" stroke="black" d="M335.3,-432.85C395.13,-404.02 393.08,-120.2 326.63,-120.2"/>
<polygon fill="black" stroke="black" points="335.23,-432.86 324.47,-430.74 330.03,-434.07 325.81,-435.05 325.81,-435.05 325.81,-435.05 330.03,-434.07 326.51,-439.51 335.23,-432.86"/>
<text text-anchor="start" x="332.16" y="-445.2" font-family="Arial" font-size="10.00">FOREIGN KEY (recipient_id) REFERENCES users(id) ON DELETE CASCADE</text>
</g>
<!-- public.notifications&#45;&gt;public.users -->
<g id="edge2" class="edge">
<title>public.notifications:sender_id&#45;&gt;public.users:id</title>
<path fill="none" stroke="black" d="M334.97,-401.94C388.29,-374.17 386.34,-120.2 326.63,-120.2"/>
<polygon fill="black" stroke="black" points="335.19,-401.89 324.39,-399.95 330.01,-403.18 325.81,-404.24 325.81,-404.24 325.81,-404.24 330.01,-403.18 326.58,-408.68 335.19,-401.89"/>
<text text-anchor="start" x="332.16" y="-414.4" font-family="Arial" font-size="10.00">FOREIGN KEY (sender_id) REFERENCES users(id) ON DELETE SET NULL</text>
</g>
</g>
</svg>
