<?xml version="1.0" encoding="UTF-8" standalone="no"?>
<!DOCTYPE svg PUBLIC "-//W3C//DTD SVG 1.1//EN"
 "http://www.w3.org/Graphics/SVG/1.1/DTD/svg11.dtd">
<!-- Generated by graphviz version 12.1.2 (20240928.0832)
 -->
<!-- Title: public.refresh_tokens Pages: 1 -->
<svg width="697pt" height="540pt"
 viewBox="0.00 0.00 697.10 540.40" xmlns="http://www.w3.org/2000/svg" xmlns:xlink="http://www.w3.org/1999/xlink">
<g id="graph0" class="graph" transform="scale(1 1) rotate(0) translate(4 536.4)">
<title>public.refresh_tokens</title>
<polygon fill="white" stroke="none" points="-4,4 -4,-536.4 693.1,-536.4 693.1,4 -4,4"/>
<!-- public.refresh_tokens -->
<g id="node1" class="node">
<title>public.refresh_tokens</title>
<polygon fill="#efefef" stroke="none" points="46.2,-450.6 46.2,-486.2 340.14,-486.2 340.14,-450.6 46.2,-450.6"/>
<polygon fill="none" stroke="black" points="46.2,-450.6 46.2,-486.2 340.14,-486.2 340.14,-450.6 46.2,-450.6"/>
<text text-anchor="start" x="53.2" y="-464" font-family="Arial Bold" font-size="18.00">public.refresh_tokens</text>
<text text-anchor="start" x="208.65" y="-464" font-family="Arial" font-size="14.00">    </text>
<text text-anchor="start" x="239.77" y="-464" font-family="Arial" font-size="14.00" fill="#666666">[BASE TABLE]</text>
<polygon fill="none" stroke="black" points="46.2,-419.8 46.2,-450.6 340.14,-450.6 340.14,-419.8 46.2,-419.8"/>
<text text-anchor="start" x="53.2" y="-432" font-family="Arial" font-size="14.00">token_hash </text>
<text text-anchor="start" x="129.48" y="-432" font-family="Arial" font-size="14.00" fill="#666666">[varchar(255)]</text>
<polygon fill="none" stroke="black" points="46.2,-389 46.2,-419.8 340.14,-419.8 340.14,-389 46.2,-389"/>
<text text-anchor="start" x="53.2" y="-401.2" font-family="Arial" font-size="14.00">user_id </text>
<text text-anchor="start" x="103.01" y="-401.2" font-family="Arial" font-size="14.00" fill="#666666">[uuid]</text>
<polygon fill="none" stroke="black" points="46.2,-358.2 46.2,-389 340.14,-389 340.14,-358.2 46.2,-358.2"/>
<text text-anchor="start" x="53.2" y="-370.4" font-family="Arial" font-size="14.00">expires_at </text>
<text text-anchor="start" x="121.68" y="-370.4" font-family="Arial" font-size="14.00" fill="#666666">[timestamp with time zone]</text>
<polygon fill="none" stroke="black" points="46.2,-327.4 46.2,-358.2 340.14,-358.2 340.14,-327.4 46.2,-327.4"/>
<text text-anchor="start" x="53.2" y="-339.6" font-family="Arial" font-size="14.00">created_at </text>
<text text-anchor="start" x="123.25" y="-339.6" font-family="Arial" font-size="14.00" fill="#666666">[timestamp with time zone]</text>
<polygon fill="none" stroke="black" points="46.2,-296.6 46.2,-327.4 340.14,-327.4 340.14,-296.6 46.2,-296.6"/>
<text text-anchor="start" x="53.2" y="-308.8" font-family="Arial" font-size="14.00">revoked </text>
<text text-anchor="start" x="106.9" y="-308.8" font-family="Arial" font-size="14.00" fill="#666666">[boolean]</text>
<polygon fill="none" stroke="black" stroke-width="3" points="44.7,-295.1 44.7,-487.7 341.64,-487.7 341.64,-295.1 44.7,-295.1"/>
</g>
<!-- public.users -->
<g id="node2" class="node">
<title>public.users</title>
<polygon fill="#efefef" stroke="none" points="52.72,-135.6 52.72,-171.2 333.62,-171.2 333.62,-135.6 52.72,-135.6"/>
<polygon fill="none" stroke="black" points="52.72,-135.6 52.72,-171.2 333.62,-171.2 333.62,-135.6 52.72,-135.6"/>
<text text-anchor="start" x="87.68" y="-149" font-family="Arial Bold" font-size="18.00">public.users</text>
<text text-anchor="start" x="174.17" y="-149" font-family="Arial" font-size="14.00">    </text>
<text text-anchor="start" x="205.29" y="-149" font-family="Arial" font-size="14.00" fill="#666666">[BASE TABLE]</text>
<polygon fill="none" stroke="black" points="52.72,-104.8 52.72,-135.6 333.62,-135.6 333.62,-104.8 52.72,-104.8"/>
<text text-anchor="start" x="59.72" y="-117" font-family="Arial" font-size="14.00">id </text>
<text text-anchor="start" x="74.51" y="-117" font-family="Arial" font-size="14.00" fill="#666666">[uuid]</text>
<polygon fill="none" stroke="black" points="52.72,-74 52.72,-104.8 333.62,-104.8 333.62,-74 52.72,-74"/>
<text text-anchor="start" x="59.72" y="-86.2" font-family="Arial" font-size="14.00">created_at </text>
<text text-anchor="start" x="129.77" y="-86.2" font-family="Arial" font-size="14.00" fill="#666666">[timestamp with time zone]</text>
<polygon fill="none" stroke="black" points="52.72,-43.2 52.72,-74 333.62,-74 333.62,-43.2 52.72,-43.2"/>
<text text-anchor="start" x="59.72" y="-55.4" font-family="Arial" font-size="14.00">last_connection </text>
<text text-anchor="start" x="160.9" y="-55.4" font-family="Arial" font-size="14.00" fill="#666666">[timestamp with time zone]</text>
</g>
<!-- public.refresh_tokens&#45;&gt;public.users -->
<g id="edge1" class="edge">
<title>public.refresh_tokens:user_id&#45;&gt;public.users:id</title>
<path fill="none" stroke="black" d="M351.21,-401.77C403.39,-373.12 394.22,-120.2 334.62,-120.2"/>
<polygon fill="black" stroke="black" points="351.14,-401.79 340.33,-399.96 345.98,-403.14 341.79,-404.23 341.79,-404.23 341.79,-404.23 345.98,-403.14 342.6,-408.67 351.14,-401.79"/>
<text text-anchor="start" x="348.14" y="-414.4" font-family="Arial" font-size="10.00">FOREIGN KEY (user_id) REFERENCES users(id) ON DELETE CASCADE</text>
</g>
</g>
</svg>
