<?xml version="1.0" encoding="UTF-8" standalone="no"?>
<!DOCTYPE svg PUBLIC "-//W3C//DTD SVG 1.1//EN"
 "http://www.w3.org/Graphics/SVG/1.1/DTD/svg11.dtd">
<!-- Generated by graphviz version 12.1.2 (20240928.0832)
 -->
<!-- Title: public.connections Pages: 1 -->
<svg width="853pt" height="448pt"
 viewBox="0.00 0.00 853.02 448.00" xmlns="http://www.w3.org/2000/svg" xmlns:xlink="http://www.w3.org/1999/xlink">
<g id="graph0" class="graph" transform="scale(1 1) rotate(0) translate(4 444)">
<title>public.connections</title>
<polygon fill="white" stroke="none" points="-4,4 -4,-444 849.02,-444 849.02,4 -4,4"/>
<!-- public.connections -->
<g id="node1" class="node">
<title>public.connections</title>
<polygon fill="#efefef" stroke="none" points="216.54,-358.2 216.54,-393.8 490.5,-393.8 490.5,-358.2 216.54,-358.2"/>
<polygon fill="none" stroke="black" points="216.54,-358.2 216.54,-393.8 490.5,-393.8 490.5,-358.2 216.54,-358.2"/>
<text text-anchor="start" x="223.54" y="-371.6" font-family="Arial Bold" font-size="18.00">public.connections</text>
<text text-anchor="start" x="359.01" y="-371.6" font-family="Arial" font-size="14.00">    </text>
<text text-anchor="start" x="390.13" y="-371.6" font-family="Arial" font-size="14.00" fill="#666666">[BASE TABLE]</text>
<polygon fill="none" stroke="black" points="216.54,-327.4 216.54,-358.2 490.5,-358.2 490.5,-327.4 216.54,-327.4"/>
<text text-anchor="start" x="223.54" y="-339.6" font-family="Arial" font-size="14.00">user1_id </text>
<text text-anchor="start" x="281.14" y="-339.6" font-family="Arial" font-size="14.00" fill="#666666">[uuid]</text>
<polygon fill="none" stroke="black" points="216.54,-296.6 216.54,-327.4 490.5,-327.4 490.5,-296.6 216.54,-296.6"/>
<text text-anchor="start" x="223.54" y="-308.8" font-family="Arial" font-size="14.00">user2_id </text>
<text text-anchor="start" x="281.14" y="-308.8" font-family="Arial" font-size="14.00" fill="#666666">[uuid]</text>
<polygon fill="none" stroke="black" stroke-width="3" points="215.04,-295.1 215.04,-395.3 492,-395.3 492,-295.1 215.04,-295.1"/>
</g>
<!-- public.users -->
<g id="node2" class="node">
<title>public.users</title>
<polygon fill="#efefef" stroke="none" points="213.07,-135.6 213.07,-171.2 493.97,-171.2 493.97,-135.6 213.07,-135.6"/>
<polygon fill="none" stroke="black" points="213.07,-135.6 213.07,-171.2 493.97,-171.2 493.97,-135.6 213.07,-135.6"/>
<text text-anchor="start" x="248.03" y="-149" font-family="Arial Bold" font-size="18.00">public.users</text>
<text text-anchor="start" x="334.52" y="-149" font-family="Arial" font-size="14.00">    </text>
<text text-anchor="start" x="365.64" y="-149" font-family="Arial" font-size="14.00" fill="#666666">[BASE TABLE]</text>
<polygon fill="none" stroke="black" points="213.07,-104.8 213.07,-135.6 493.97,-135.6 493.97,-104.8 213.07,-104.8"/>
<text text-anchor="start" x="220.07" y="-117" font-family="Arial" font-size="14.00">id </text>
<text text-anchor="start" x="234.86" y="-117" font-family="Arial" font-size="14.00" fill="#666666">[uuid]</text>
<polygon fill="none" stroke="black" points="213.07,-74 213.07,-104.8 493.97,-104.8 493.97,-74 213.07,-74"/>
<text text-anchor="start" x="220.07" y="-86.2" font-family="Arial" font-size="14.00">created_at </text>
<text text-anchor="start" x="290.12" y="-86.2" font-family="Arial" font-size="14.00" fill="#666666">[timestamp with time zone]</text>
<polygon fill="none" stroke="black" points="213.07,-43.2 213.07,-74 493.97,-74 493.97,-43.2 213.07,-43.2"/>
<text text-anchor="start" x="220.07" y="-55.4" font-family="Arial" font-size="14.00">last_connection </text>
<text text-anchor="start" x="321.25" y="-55.4" font-family="Arial" font-size="14.00" fill="#666666">[timestamp with time zone]</text>
</g>
<!-- public.connections&#45;&gt;public.users -->
<g id="edge1" class="edge">
<title>public.connections:user1_id&#45;&gt;public.users:id</title>
<path fill="none" stroke="black" d="M501.85,-341.95C590.56,-327 590.34,-120.2 494.97,-120.2"/>
<polygon fill="black" stroke="black" points="501.8,-341.95 491.46,-338.29 496.48,-342.39 492.17,-342.75 492.17,-342.75 492.17,-342.75 496.48,-342.39 492.2,-347.26 501.8,-341.95"/>
<text text-anchor="start" x="498.5" y="-352.8" font-family="Arial" font-size="10.00">FOREIGN KEY (user1_id) REFERENCES users(id) ON DELETE CASCADE</text>
</g>
<!-- public.connections&#45;&gt;public.users -->
<g id="edge2" class="edge">
<title>public.connections:user2_id&#45;&gt;public.users:id</title>
<path fill="none" stroke="black" d="M354.36,-285.2C364.31,-228.78 459.53,-273.38 493.97,-214.4 515.09,-178.25 536.84,-120.2 494.97,-120.2"/>
<polygon fill="black" stroke="black" points="354.36,-285.3 349.06,-294.9 353.93,-290.62 353.58,-294.93 353.58,-294.93 353.58,-294.93 353.93,-290.62 358.03,-295.63 354.36,-285.3"/>
<text text-anchor="start" x="7" y="-305.6" font-family="Arial" font-size="10.00">FOREIGN KEY (user2_id) REFERENCES users(id) ON DELETE CASCADE</text>
</g>
</g>
</svg>
