<?xml version="1.0" encoding="UTF-8" standalone="no"?>
<!DOCTYPE svg PUBLIC "-//W3C//DTD SVG 1.1//EN"
 "http://www.w3.org/Graphics/SVG/1.1/DTD/svg11.dtd">
<!-- Generated by graphviz version 12.1.2 (20240928.0832)
 -->
<!-- Title: matcha Pages: 1 -->
<svg width="5398pt" height="719pt"
 viewBox="0.00 0.00 5398.34 719.20" xmlns="http://www.w3.org/2000/svg" xmlns:xlink="http://www.w3.org/1999/xlink">
<g id="graph0" class="graph" transform="scale(1 1) rotate(0) translate(4 715.2)">
<title>matcha</title>
<polygon fill="white" stroke="none" points="-4,4 -4,-715.2 5394.34,-715.2 5394.34,4 -4,4"/>
<!-- public.users -->
<g id="node1" class="node">
<title>public.users</title>
<polygon fill="#efefef" stroke="none" points="2896.03,-135.6 2896.03,-171.2 3176.94,-171.2 3176.94,-135.6 2896.03,-135.6"/>
<polygon fill="none" stroke="black" points="2896.03,-135.6 2896.03,-171.2 3176.94,-171.2 3176.94,-135.6 2896.03,-135.6"/>
<text text-anchor="start" x="2931" y="-149" font-family="Arial Bold" font-size="18.00">public.users</text>
<text text-anchor="start" x="3017.48" y="-149" font-family="Arial" font-size="14.00">    </text>
<text text-anchor="start" x="3048.6" y="-149" font-family="Arial" font-size="14.00" fill="#666666">[BASE TABLE]</text>
<polygon fill="none" stroke="black" points="2896.03,-104.8 2896.03,-135.6 3176.94,-135.6 3176.94,-104.8 2896.03,-104.8"/>
<text text-anchor="start" x="2903.03" y="-117" font-family="Arial" font-size="14.00">id </text>
<text text-anchor="start" x="2917.82" y="-117" font-family="Arial" font-size="14.00" fill="#666666">[uuid]</text>
<polygon fill="none" stroke="black" points="2896.03,-74 2896.03,-104.8 3176.94,-104.8 3176.94,-74 2896.03,-74"/>
<text text-anchor="start" x="2903.03" y="-86.2" font-family="Arial" font-size="14.00">created_at </text>
<text text-anchor="start" x="2973.08" y="-86.2" font-family="Arial" font-size="14.00" fill="#666666">[timestamp with time zone]</text>
<polygon fill="none" stroke="black" points="2896.03,-43.2 2896.03,-74 3176.94,-74 3176.94,-43.2 2896.03,-43.2"/>
<text text-anchor="start" x="2903.03" y="-55.4" font-family="Arial" font-size="14.00">last_connection </text>
<text text-anchor="start" x="3004.21" y="-55.4" font-family="Arial" font-size="14.00" fill="#666666">[timestamp with time zone]</text>
</g>
<!-- public.user_data -->
<g id="node2" class="node">
<title>public.user_data</title>
<polygon fill="#efefef" stroke="none" points="90.01,-524.6 90.01,-560.2 346.96,-560.2 346.96,-524.6 90.01,-524.6"/>
<polygon fill="none" stroke="black" points="90.01,-524.6 90.01,-560.2 346.96,-560.2 346.96,-524.6 90.01,-524.6"/>
<text text-anchor="start" x="97.01" y="-538" font-family="Arial Bold" font-size="18.00">public.user_data</text>
<text text-anchor="start" x="215.47" y="-538" font-family="Arial" font-size="14.00">    </text>
<text text-anchor="start" x="246.59" y="-538" font-family="Arial" font-size="14.00" fill="#666666">[BASE TABLE]</text>
<polygon fill="none" stroke="black" points="90.01,-493.8 90.01,-524.6 346.96,-524.6 346.96,-493.8 90.01,-493.8"/>
<text text-anchor="start" x="97.01" y="-506" font-family="Arial" font-size="14.00">user_id </text>
<text text-anchor="start" x="146.82" y="-506" font-family="Arial" font-size="14.00" fill="#666666">[uuid]</text>
<polygon fill="none" stroke="black" points="90.01,-463 90.01,-493.8 346.96,-493.8 346.96,-463 90.01,-463"/>
<text text-anchor="start" x="97.01" y="-475.2" font-family="Arial" font-size="14.00">latitude </text>
<text text-anchor="start" x="146.05" y="-475.2" font-family="Arial" font-size="14.00" fill="#666666">[numeric(10,8)]</text>
<polygon fill="none" stroke="black" points="90.01,-432.2 90.01,-463 346.96,-463 346.96,-432.2 90.01,-432.2"/>
<text text-anchor="start" x="97.01" y="-444.4" font-family="Arial" font-size="14.00">longitude </text>
<text text-anchor="start" x="157.73" y="-444.4" font-family="Arial" font-size="14.00" fill="#666666">[numeric(11,8)]</text>
<polygon fill="none" stroke="black" points="90.01,-401.4 90.01,-432.2 346.96,-432.2 346.96,-401.4 90.01,-401.4"/>
<text text-anchor="start" x="97.01" y="-413.6" font-family="Arial" font-size="14.00">internal_score </text>
<text text-anchor="start" x="188.84" y="-413.6" font-family="Arial" font-size="14.00" fill="#666666">[integer]</text>
</g>
<!-- public.user_data&#45;&gt;public.users -->
<g id="edge1" class="edge">
<title>public.user_data:user_id&#45;&gt;public.users:id</title>
<path fill="none" stroke="black" d="M358.17,-508.68C455.82,-497.92 313.56,-324.73 399.49,-250.4 504.48,-159.57 2756.2,-120.2 2895.03,-120.2"/>
<polygon fill="black" stroke="black" points="358.28,-508.67 348.06,-504.69 352.95,-508.94 348.63,-509.17 348.63,-509.17 348.63,-509.17 352.95,-508.94 348.52,-513.68 358.28,-508.67"/>
<text text-anchor="start" x="7" y="-519.2" font-family="Arial" font-size="10.00">FOREIGN KEY (user_id) REFERENCES users(id) ON DELETE CASCADE</text>
</g>
<!-- public.auths -->
<g id="node3" class="node">
<title>public.auths</title>
<polygon fill="#efefef" stroke="none" points="451.5,-570.8 451.5,-606.4 677.47,-606.4 677.47,-570.8 451.5,-570.8"/>
<polygon fill="none" stroke="black" points="451.5,-570.8 451.5,-606.4 677.47,-606.4 677.47,-570.8 451.5,-570.8"/>
<text text-anchor="start" x="458.5" y="-584.2" font-family="Arial Bold" font-size="18.00">public.auths</text>
<text text-anchor="start" x="545.98" y="-584.2" font-family="Arial" font-size="14.00">    </text>
<text text-anchor="start" x="577.1" y="-584.2" font-family="Arial" font-size="14.00" fill="#666666">[BASE TABLE]</text>
<polygon fill="none" stroke="black" points="451.5,-540 451.5,-570.8 677.47,-570.8 677.47,-540 451.5,-540"/>
<text text-anchor="start" x="458.5" y="-552.2" font-family="Arial" font-size="14.00">id </text>
<text text-anchor="start" x="473.28" y="-552.2" font-family="Arial" font-size="14.00" fill="#666666">[integer]</text>
<polygon fill="none" stroke="black" points="451.5,-509.2 451.5,-540 677.47,-540 677.47,-509.2 451.5,-509.2"/>
<text text-anchor="start" x="458.5" y="-521.4" font-family="Arial" font-size="14.00">user_id </text>
<text text-anchor="start" x="508.3" y="-521.4" font-family="Arial" font-size="14.00" fill="#666666">[uuid]</text>
<polygon fill="none" stroke="black" points="451.5,-478.4 451.5,-509.2 677.47,-509.2 677.47,-478.4 451.5,-478.4"/>
<text text-anchor="start" x="458.5" y="-490.6" font-family="Arial" font-size="14.00">provider </text>
<text text-anchor="start" x="512.97" y="-490.6" font-family="Arial" font-size="14.00" fill="#666666">[auth_provider_enum]</text>
<polygon fill="none" stroke="black" points="451.5,-447.6 451.5,-478.4 677.47,-478.4 677.47,-447.6 451.5,-447.6"/>
<text text-anchor="start" x="458.5" y="-459.8" font-family="Arial" font-size="14.00">provider_uid </text>
<text text-anchor="start" x="539.44" y="-459.8" font-family="Arial" font-size="14.00" fill="#666666">[varchar(255)]</text>
<polygon fill="none" stroke="black" points="451.5,-416.8 451.5,-447.6 677.47,-447.6 677.47,-416.8 451.5,-416.8"/>
<text text-anchor="start" x="458.5" y="-429" font-family="Arial" font-size="14.00">email </text>
<text text-anchor="start" x="495.84" y="-429" font-family="Arial" font-size="14.00" fill="#666666">[varchar(255)]</text>
<polygon fill="none" stroke="black" points="451.5,-386 451.5,-416.8 677.47,-416.8 677.47,-386 451.5,-386"/>
<text text-anchor="start" x="458.5" y="-398.2" font-family="Arial" font-size="14.00">is_verified </text>
<text text-anchor="start" x="525.42" y="-398.2" font-family="Arial" font-size="14.00" fill="#666666">[boolean]</text>
<polygon fill="none" stroke="black" points="451.5,-355.2 451.5,-386 677.47,-386 677.47,-355.2 451.5,-355.2"/>
<text text-anchor="start" x="458.5" y="-367.4" font-family="Arial" font-size="14.00">password_hash </text>
<text text-anchor="start" x="560.45" y="-367.4" font-family="Arial" font-size="14.00" fill="#666666">[varchar(255)]</text>
</g>
<!-- public.auths&#45;&gt;public.users -->
<g id="edge2" class="edge">
<title>public.auths:user_id&#45;&gt;public.users:id</title>
<path fill="none" stroke="black" d="M688.64,-524.11C792.94,-513.44 639.3,-330.05 729.49,-250.4 819.82,-170.61 2774.51,-120.2 2895.03,-120.2"/>
<polygon fill="black" stroke="black" points="688.8,-524.11 678.59,-520.09 683.47,-524.36 679.14,-524.57 679.14,-524.57 679.14,-524.57 683.47,-524.36 679.02,-529.08 688.8,-524.11"/>
<text text-anchor="start" x="685.47" y="-534.6" font-family="Arial" font-size="10.00">FOREIGN KEY (user_id) REFERENCES users(id) ON DELETE CASCADE</text>
</g>
<!-- public.verification_tokens -->
<g id="node4" class="node">
<title>public.verification_tokens</title>
<polygon fill="#efefef" stroke="none" points="782.02,-509.2 782.02,-544.8 1108.95,-544.8 1108.95,-509.2 782.02,-509.2"/>
<polygon fill="none" stroke="black" points="782.02,-509.2 782.02,-544.8 1108.95,-544.8 1108.95,-509.2 782.02,-509.2"/>
<text text-anchor="start" x="789.02" y="-522.6" font-family="Arial Bold" font-size="18.00">public.verification_tokens</text>
<text text-anchor="start" x="977.46" y="-522.6" font-family="Arial" font-size="14.00">    </text>
<text text-anchor="start" x="1008.58" y="-522.6" font-family="Arial" font-size="14.00" fill="#666666">[BASE TABLE]</text>
<polygon fill="none" stroke="black" points="782.02,-478.4 782.02,-509.2 1108.95,-509.2 1108.95,-478.4 782.02,-478.4"/>
<text text-anchor="start" x="789.02" y="-490.6" font-family="Arial" font-size="14.00">token </text>
<text text-anchor="start" x="827.16" y="-490.6" font-family="Arial" font-size="14.00" fill="#666666">[varchar(64)]</text>
<polygon fill="none" stroke="black" points="782.02,-447.6 782.02,-478.4 1108.95,-478.4 1108.95,-447.6 782.02,-447.6"/>
<text text-anchor="start" x="789.02" y="-459.8" font-family="Arial" font-size="14.00">user_id </text>
<text text-anchor="start" x="838.82" y="-459.8" font-family="Arial" font-size="14.00" fill="#666666">[uuid]</text>
<polygon fill="none" stroke="black" points="782.02,-416.8 782.02,-447.6 1108.95,-447.6 1108.95,-416.8 782.02,-416.8"/>
<text text-anchor="start" x="789.02" y="-429" font-family="Arial" font-size="14.00">expires_at </text>
<text text-anchor="start" x="857.5" y="-429" font-family="Arial" font-size="14.00" fill="#666666">[timestamp with time zone]</text>
</g>
<!-- public.verification_tokens&#45;&gt;public.users -->
<g id="edge3" class="edge">
<title>public.verification_tokens:user_id&#45;&gt;public.users:id</title>
<path fill="none" stroke="black" d="M1119.9,-462.39C1198.55,-452.01 1090.12,-310.99 1161.49,-250.4 1308.73,-125.38 2701.88,-120.2 2895.03,-120.2"/>
<polygon fill="black" stroke="black" points="1120.27,-462.37 1110.01,-458.49 1114.94,-462.7 1110.62,-462.96 1110.62,-462.96 1110.62,-462.96 1114.94,-462.7 1110.56,-467.47 1120.27,-462.37"/>
<text text-anchor="start" x="942.97" y="-447" font-family="Arial" font-size="10.00">FOREIGN KEY (user_id) REFERENCES users(id) ON DELETE CASCADE</text>
</g>
<!-- public.password_resets -->
<g id="node5" class="node">
<title>public.password_resets</title>
<polygon fill="#efefef" stroke="none" points="1213.51,-509.2 1213.51,-544.8 1519.46,-544.8 1519.46,-509.2 1213.51,-509.2"/>
<polygon fill="none" stroke="black" points="1213.51,-509.2 1213.51,-544.8 1519.46,-544.8 1519.46,-509.2 1213.51,-509.2"/>
<text text-anchor="start" x="1220.51" y="-522.6" font-family="Arial Bold" font-size="18.00">public.password_resets</text>
<text text-anchor="start" x="1387.97" y="-522.6" font-family="Arial" font-size="14.00">    </text>
<text text-anchor="start" x="1419.09" y="-522.6" font-family="Arial" font-size="14.00" fill="#666666">[BASE TABLE]</text>
<polygon fill="none" stroke="black" points="1213.51,-478.4 1213.51,-509.2 1519.46,-509.2 1519.46,-478.4 1213.51,-478.4"/>
<text text-anchor="start" x="1220.51" y="-490.6" font-family="Arial" font-size="14.00">user_id </text>
<text text-anchor="start" x="1270.31" y="-490.6" font-family="Arial" font-size="14.00" fill="#666666">[uuid]</text>
<polygon fill="none" stroke="black" points="1213.51,-447.6 1213.51,-478.4 1519.46,-478.4 1519.46,-447.6 1213.51,-447.6"/>
<text text-anchor="start" x="1220.51" y="-459.8" font-family="Arial" font-size="14.00">token </text>
<text text-anchor="start" x="1258.65" y="-459.8" font-family="Arial" font-size="14.00" fill="#666666">[varchar(64)]</text>
<polygon fill="none" stroke="black" points="1213.51,-416.8 1213.51,-447.6 1519.46,-447.6 1519.46,-416.8 1213.51,-416.8"/>
<text text-anchor="start" x="1220.51" y="-429" font-family="Arial" font-size="14.00">expires_at </text>
<text text-anchor="start" x="1288.99" y="-429" font-family="Arial" font-size="14.00" fill="#666666">[timestamp with time zone]</text>
</g>
<!-- public.password_resets&#45;&gt;public.users -->
<g id="edge4" class="edge">
<title>public.password_resets:user_id&#45;&gt;public.users:id</title>
<path fill="none" stroke="black" d="M1530.66,-493.25C1621.82,-482.64 1491.94,-321.75 1571.49,-250.4 1681.49,-151.73 2747.26,-120.2 2895.03,-120.2"/>
<polygon fill="black" stroke="black" points="1530.78,-493.24 1520.55,-489.29 1525.46,-493.53 1521.13,-493.76 1521.13,-493.76 1521.13,-493.76 1525.46,-493.53 1521.04,-498.28 1530.78,-493.24"/>
<text text-anchor="start" x="1353.48" y="-477.8" font-family="Arial" font-size="10.00">FOREIGN KEY (user_id) REFERENCES users(id) ON DELETE CASCADE</text>
</g>
<!-- public.user_profiles -->
<g id="node6" class="node">
<title>public.user_profiles</title>
<polygon fill="#efefef" stroke="none" points="1623.51,-632.4 1623.51,-668 1905.46,-668 1905.46,-632.4 1623.51,-632.4"/>
<polygon fill="none" stroke="black" points="1623.51,-632.4 1623.51,-668 1905.46,-668 1905.46,-632.4 1623.51,-632.4"/>
<text text-anchor="start" x="1630.51" y="-645.8" font-family="Arial Bold" font-size="18.00">public.user_profiles</text>
<text text-anchor="start" x="1773.97" y="-645.8" font-family="Arial" font-size="14.00">    </text>
<text text-anchor="start" x="1805.09" y="-645.8" font-family="Arial" font-size="14.00" fill="#666666">[BASE TABLE]</text>
<polygon fill="none" stroke="black" points="1623.51,-601.6 1623.51,-632.4 1905.46,-632.4 1905.46,-601.6 1623.51,-601.6"/>
<text text-anchor="start" x="1630.51" y="-613.8" font-family="Arial" font-size="14.00">user_id </text>
<text text-anchor="start" x="1680.32" y="-613.8" font-family="Arial" font-size="14.00" fill="#666666">[uuid]</text>
<polygon fill="none" stroke="black" points="1623.51,-570.8 1623.51,-601.6 1905.46,-601.6 1905.46,-570.8 1623.51,-570.8"/>
<text text-anchor="start" x="1630.51" y="-583" font-family="Arial" font-size="14.00">first_name </text>
<text text-anchor="start" x="1699.76" y="-583" font-family="Arial" font-size="14.00" fill="#666666">[varchar(50)]</text>
<polygon fill="none" stroke="black" points="1623.51,-540 1623.51,-570.8 1905.46,-570.8 1905.46,-540 1623.51,-540"/>
<text text-anchor="start" x="1630.51" y="-552.2" font-family="Arial" font-size="14.00">last_name </text>
<text text-anchor="start" x="1698.99" y="-552.2" font-family="Arial" font-size="14.00" fill="#666666">[varchar(50)]</text>
<polygon fill="none" stroke="black" points="1623.51,-509.2 1623.51,-540 1905.46,-540 1905.46,-509.2 1623.51,-509.2"/>
<text text-anchor="start" x="1630.51" y="-521.4" font-family="Arial" font-size="14.00">username </text>
<text text-anchor="start" x="1696.65" y="-521.4" font-family="Arial" font-size="14.00" fill="#666666">[varchar(50)]</text>
<polygon fill="none" stroke="black" points="1623.51,-478.4 1623.51,-509.2 1905.46,-509.2 1905.46,-478.4 1623.51,-478.4"/>
<text text-anchor="start" x="1630.51" y="-490.6" font-family="Arial" font-size="14.00">gender </text>
<text text-anchor="start" x="1677.99" y="-490.6" font-family="Arial" font-size="14.00" fill="#666666">[gender_enum]</text>
<polygon fill="none" stroke="black" points="1623.51,-447.6 1623.51,-478.4 1905.46,-478.4 1905.46,-447.6 1623.51,-447.6"/>
<text text-anchor="start" x="1630.51" y="-459.8" font-family="Arial" font-size="14.00">sexual_preference </text>
<text text-anchor="start" x="1749.58" y="-459.8" font-family="Arial" font-size="14.00" fill="#666666">[preference_enum]</text>
<polygon fill="none" stroke="black" points="1623.51,-416.8 1623.51,-447.6 1905.46,-447.6 1905.46,-416.8 1623.51,-416.8"/>
<text text-anchor="start" x="1630.51" y="-429" font-family="Arial" font-size="14.00">birthday </text>
<text text-anchor="start" x="1684.21" y="-429" font-family="Arial" font-size="14.00" fill="#666666">[date]</text>
<polygon fill="none" stroke="black" points="1623.51,-386 1623.51,-416.8 1905.46,-416.8 1905.46,-386 1623.51,-386"/>
<text text-anchor="start" x="1630.51" y="-398.2" font-family="Arial" font-size="14.00">occupation </text>
<text text-anchor="start" x="1702.12" y="-398.2" font-family="Arial" font-size="14.00" fill="#666666">[varchar(255)]</text>
<polygon fill="none" stroke="black" points="1623.51,-355.2 1623.51,-386 1905.46,-386 1905.46,-355.2 1623.51,-355.2"/>
<text text-anchor="start" x="1630.51" y="-367.4" font-family="Arial" font-size="14.00">biography </text>
<text text-anchor="start" x="1695.89" y="-367.4" font-family="Arial" font-size="14.00" fill="#666666">[text]</text>
<polygon fill="none" stroke="black" points="1623.51,-324.4 1623.51,-355.2 1905.46,-355.2 1905.46,-324.4 1623.51,-324.4"/>
<text text-anchor="start" x="1630.51" y="-336.6" font-family="Arial" font-size="14.00">fame_rating </text>
<text text-anchor="start" x="1708.33" y="-336.6" font-family="Arial" font-size="14.00" fill="#666666">[integer]</text>
<polygon fill="none" stroke="black" points="1623.51,-293.6 1623.51,-324.4 1905.46,-324.4 1905.46,-293.6 1623.51,-293.6"/>
<text text-anchor="start" x="1630.51" y="-305.8" font-family="Arial" font-size="14.00">location_name </text>
<text text-anchor="start" x="1725.46" y="-305.8" font-family="Arial" font-size="14.00" fill="#666666">[varchar(255)]</text>
</g>
<!-- public.user_profiles&#45;&gt;public.users -->
<g id="edge5" class="edge">
<title>public.user_profiles:user_id&#45;&gt;public.users:id</title>
<path fill="none" stroke="black" d="M1916.54,-615.18C1980.98,-589.79 1901.93,-305.94 1957.49,-250.4 2031.86,-176.04 2789.86,-120.2 2895.03,-120.2"/>
<polygon fill="black" stroke="black" points="1916.63,-615.17 1905.99,-612.51 1911.38,-616.11 1907.12,-616.88 1907.12,-616.88 1907.12,-616.88 1911.38,-616.11 1907.59,-621.37 1916.63,-615.17"/>
<text text-anchor="start" x="1913.46" y="-627" font-family="Arial" font-size="10.00">FOREIGN KEY (user_id) REFERENCES users(id) ON DELETE CASCADE</text>
</g>
<!-- public.tags -->
<g id="node7" class="node">
<title>public.tags</title>
<polygon fill="#efefef" stroke="none" points="4945,-120.2 4945,-155.8 5161.97,-155.8 5161.97,-120.2 4945,-120.2"/>
<polygon fill="none" stroke="black" points="4945,-120.2 4945,-155.8 5161.97,-155.8 5161.97,-120.2 4945,-120.2"/>
<text text-anchor="start" x="4952" y="-133.6" font-family="Arial Bold" font-size="18.00">public.tags</text>
<text text-anchor="start" x="5030.48" y="-133.6" font-family="Arial" font-size="14.00">    </text>
<text text-anchor="start" x="5061.6" y="-133.6" font-family="Arial" font-size="14.00" fill="#666666">[BASE TABLE]</text>
<polygon fill="none" stroke="black" points="4945,-89.4 4945,-120.2 5161.97,-120.2 5161.97,-89.4 4945,-89.4"/>
<text text-anchor="start" x="4952" y="-101.6" font-family="Arial" font-size="14.00">id </text>
<text text-anchor="start" x="4966.78" y="-101.6" font-family="Arial" font-size="14.00" fill="#666666">[integer]</text>
<polygon fill="none" stroke="black" points="4945,-58.6 4945,-89.4 5161.97,-89.4 5161.97,-58.6 4945,-58.6"/>
<text text-anchor="start" x="4952" y="-70.8" font-family="Arial" font-size="14.00">name </text>
<text text-anchor="start" x="4990.91" y="-70.8" font-family="Arial" font-size="14.00" fill="#666666">[varchar(50)]</text>
</g>
<!-- public.user_tags -->
<g id="node8" class="node">
<title>public.user_tags</title>
<polygon fill="#efefef" stroke="none" points="4925.5,-493.8 4925.5,-529.4 5181.47,-529.4 5181.47,-493.8 4925.5,-493.8"/>
<polygon fill="none" stroke="black" points="4925.5,-493.8 4925.5,-529.4 5181.47,-529.4 5181.47,-493.8 4925.5,-493.8"/>
<text text-anchor="start" x="4932.5" y="-507.2" font-family="Arial Bold" font-size="18.00">public.user_tags</text>
<text text-anchor="start" x="5049.98" y="-507.2" font-family="Arial" font-size="14.00">    </text>
<text text-anchor="start" x="5081.1" y="-507.2" font-family="Arial" font-size="14.00" fill="#666666">[BASE TABLE]</text>
<polygon fill="none" stroke="black" points="4925.5,-463 4925.5,-493.8 5181.47,-493.8 5181.47,-463 4925.5,-463"/>
<text text-anchor="start" x="4932.5" y="-475.2" font-family="Arial" font-size="14.00">user_id </text>
<text text-anchor="start" x="4982.31" y="-475.2" font-family="Arial" font-size="14.00" fill="#666666">[uuid]</text>
<polygon fill="none" stroke="black" points="4925.5,-432.2 4925.5,-463 5181.47,-463 5181.47,-432.2 4925.5,-432.2"/>
<text text-anchor="start" x="4932.5" y="-444.4" font-family="Arial" font-size="14.00">tag_id </text>
<text text-anchor="start" x="4974.54" y="-444.4" font-family="Arial" font-size="14.00" fill="#666666">[integer]</text>
</g>
<!-- public.user_tags&#45;&gt;public.users -->
<g id="edge6" class="edge">
<title>public.user_tags:user_id&#45;&gt;public.users:id</title>
<path fill="none" stroke="black" d="M4914.15,-477.79C4829.88,-466.96 4949.15,-315.92 4873.49,-250.4 4730.64,-126.71 3366.89,-120.2 3177.94,-120.2"/>
<polygon fill="black" stroke="black" points="4914.19,-477.79 4923.9,-482.87 4919.51,-478.1 4923.84,-478.36 4923.84,-478.36 4923.84,-478.36 4919.51,-478.1 4924.44,-473.89 4914.19,-477.79"/>
<text text-anchor="start" x="4931.5" y="-488.4" font-family="Arial" font-size="10.00">FOREIGN KEY (user_id) REFERENCES users(id) ON DELETE CASCADE</text>
</g>
<!-- public.user_tags&#45;&gt;public.tags -->
<g id="edge7" class="edge">
<title>public.user_tags:tag_id&#45;&gt;public.tags:id</title>
<path fill="none" stroke="black" d="M5053.88,-420.86C5065.07,-270.49 5312.55,-104.8 5162.97,-104.8"/>
<polygon fill="black" stroke="black" points="5053.88,-420.87 5049,-430.7 5053.67,-426.2 5053.51,-430.53 5053.51,-430.53 5053.51,-430.53 5053.67,-426.2 5058,-431.04 5053.88,-420.87"/>
<text text-anchor="start" x="5060.49" y="-441.2" font-family="Arial" font-size="10.00">FOREIGN KEY (tag_id) REFERENCES tags(id) ON DELETE CASCADE</text>
</g>
<!-- public.pictures -->
<g id="node9" class="node">
<title>public.pictures</title>
<polygon fill="#efefef" stroke="none" points="2009.6,-540 2009.6,-575.6 2259.37,-575.6 2259.37,-540 2009.6,-540"/>
<polygon fill="none" stroke="black" points="2009.6,-540 2009.6,-575.6 2259.37,-575.6 2259.37,-540 2009.6,-540"/>
<text text-anchor="start" x="2019.01" y="-553.4" font-family="Arial Bold" font-size="18.00">public.pictures</text>
<text text-anchor="start" x="2125.48" y="-553.4" font-family="Arial" font-size="14.00">    </text>
<text text-anchor="start" x="2156.59" y="-553.4" font-family="Arial" font-size="14.00" fill="#666666">[BASE TABLE]</text>
<polygon fill="none" stroke="black" points="2009.6,-509.2 2009.6,-540 2259.37,-540 2259.37,-509.2 2009.6,-509.2"/>
<text text-anchor="start" x="2016.6" y="-521.4" font-family="Arial" font-size="14.00">id </text>
<text text-anchor="start" x="2031.39" y="-521.4" font-family="Arial" font-size="14.00" fill="#666666">[integer]</text>
<polygon fill="none" stroke="black" points="2009.6,-478.4 2009.6,-509.2 2259.37,-509.2 2259.37,-478.4 2009.6,-478.4"/>
<text text-anchor="start" x="2016.6" y="-490.6" font-family="Arial" font-size="14.00">user_id </text>
<text text-anchor="start" x="2066.41" y="-490.6" font-family="Arial" font-size="14.00" fill="#666666">[uuid]</text>
<polygon fill="none" stroke="black" points="2009.6,-447.6 2009.6,-478.4 2259.37,-478.4 2259.37,-447.6 2009.6,-447.6"/>
<text text-anchor="start" x="2016.6" y="-459.8" font-family="Arial" font-size="14.00">url </text>
<text text-anchor="start" x="2036.05" y="-459.8" font-family="Arial" font-size="14.00" fill="#666666">[varchar(255)]</text>
<polygon fill="none" stroke="black" points="2009.6,-416.8 2009.6,-447.6 2259.37,-447.6 2259.37,-416.8 2009.6,-416.8"/>
<text text-anchor="start" x="2016.6" y="-429" font-family="Arial" font-size="14.00">is_profile_pic </text>
<text text-anchor="start" x="2102.2" y="-429" font-family="Arial" font-size="14.00" fill="#666666">[boolean]</text>
<polygon fill="none" stroke="black" points="2009.6,-386 2009.6,-416.8 2259.37,-416.8 2259.37,-386 2009.6,-386"/>
<text text-anchor="start" x="2016.6" y="-398.2" font-family="Arial" font-size="14.00">created_at </text>
<text text-anchor="start" x="2086.65" y="-398.2" font-family="Arial" font-size="14.00" fill="#666666">[timestamp with time zone]</text>
</g>
<!-- public.pictures&#45;&gt;public.users -->
<g id="edge8" class="edge">
<title>public.pictures:user_id&#45;&gt;public.users:id</title>
<path fill="none" stroke="black" d="M2270.58,-493.26C2362.04,-482.95 2236.39,-326.44 2311.49,-250.4 2404.85,-155.86 2762.17,-120.2 2895.03,-120.2"/>
<polygon fill="black" stroke="black" points="2270.69,-493.26 2260.47,-489.29 2265.36,-493.54 2261.04,-493.76 2261.04,-493.76 2261.04,-493.76 2265.36,-493.54 2260.94,-498.28 2270.69,-493.26"/>
<text text-anchor="start" x="2267.37" y="-503.8" font-family="Arial" font-size="10.00">FOREIGN KEY (user_id) REFERENCES users(id) ON DELETE CASCADE</text>
</g>
<!-- public.likes -->
<g id="node10" class="node">
<title>public.likes</title>
<polygon fill="#efefef" stroke="none" points="2363.6,-509.2 2363.6,-544.8 2613.37,-544.8 2613.37,-509.2 2363.6,-509.2"/>
<polygon fill="none" stroke="black" points="2363.6,-509.2 2363.6,-544.8 2613.37,-544.8 2613.37,-509.2 2363.6,-509.2"/>
<text text-anchor="start" x="2384.5" y="-522.6" font-family="Arial Bold" font-size="18.00">public.likes</text>
<text text-anchor="start" x="2467.98" y="-522.6" font-family="Arial" font-size="14.00">    </text>
<text text-anchor="start" x="2499.1" y="-522.6" font-family="Arial" font-size="14.00" fill="#666666">[BASE TABLE]</text>
<polygon fill="none" stroke="black" points="2363.6,-478.4 2363.6,-509.2 2613.37,-509.2 2613.37,-478.4 2363.6,-478.4"/>
<text text-anchor="start" x="2370.6" y="-490.6" font-family="Arial" font-size="14.00">liker_id </text>
<text text-anchor="start" x="2418.84" y="-490.6" font-family="Arial" font-size="14.00" fill="#666666">[uuid]</text>
<polygon fill="none" stroke="black" points="2363.6,-447.6 2363.6,-478.4 2613.37,-478.4 2613.37,-447.6 2363.6,-447.6"/>
<text text-anchor="start" x="2370.6" y="-459.8" font-family="Arial" font-size="14.00">liked_id </text>
<text text-anchor="start" x="2421.97" y="-459.8" font-family="Arial" font-size="14.00" fill="#666666">[uuid]</text>
<polygon fill="none" stroke="black" points="2363.6,-416.8 2363.6,-447.6 2613.37,-447.6 2613.37,-416.8 2363.6,-416.8"/>
<text text-anchor="start" x="2370.6" y="-429" font-family="Arial" font-size="14.00">created_at </text>
<text text-anchor="start" x="2440.65" y="-429" font-family="Arial" font-size="14.00" fill="#666666">[timestamp with time zone]</text>
</g>
<!-- public.likes&#45;&gt;public.users -->
<g id="edge9" class="edge">
<title>public.likes:liked_id&#45;&gt;public.users:id</title>
<path fill="none" stroke="black" d="M2624.38,-462.45C2704.02,-453.06 2609.2,-325.15 2665.49,-250.4 2736.04,-156.7 2777.74,-120.2 2895.03,-120.2"/>
<polygon fill="black" stroke="black" points="2624.69,-462.43 2614.46,-458.49 2619.36,-462.73 2615.04,-462.96 2615.04,-462.96 2615.04,-462.96 2619.36,-462.73 2614.95,-467.47 2624.69,-462.43"/>
<text text-anchor="start" x="2272.3" y="-473" font-family="Arial" font-size="10.00">FOREIGN KEY (liked_id) REFERENCES users(id) ON DELETE CASCADE</text>
</g>
<!-- public.likes&#45;&gt;public.users -->
<g id="edge10" class="edge">
<title>public.likes:liker_id&#45;&gt;public.users:id</title>
<path fill="none" stroke="black" d="M2624.62,-493.3C2716.84,-483.64 2602.45,-336.69 2665.49,-250.4 2734.67,-155.69 2777.74,-120.2 2895.03,-120.2"/>
<polygon fill="black" stroke="black" points="2624.69,-493.29 2614.49,-489.29 2619.37,-493.56 2615.04,-493.77 2615.04,-493.77 2615.04,-493.77 2619.37,-493.56 2614.93,-498.28 2624.69,-493.29"/>
<text text-anchor="start" x="2447.95" y="-477.8" font-family="Arial" font-size="10.00">FOREIGN KEY (liker_id) REFERENCES users(id) ON DELETE CASCADE</text>
</g>
<!-- public.connections -->
<g id="node11" class="node">
<title>public.connections</title>
<polygon fill="#efefef" stroke="none" points="2717.51,-493.8 2717.51,-529.4 2991.46,-529.4 2991.46,-493.8 2717.51,-493.8"/>
<polygon fill="none" stroke="black" points="2717.51,-493.8 2717.51,-529.4 2991.46,-529.4 2991.46,-493.8 2717.51,-493.8"/>
<text text-anchor="start" x="2724.51" y="-507.2" font-family="Arial Bold" font-size="18.00">public.connections</text>
<text text-anchor="start" x="2859.97" y="-507.2" font-family="Arial" font-size="14.00">    </text>
<text text-anchor="start" x="2891.09" y="-507.2" font-family="Arial" font-size="14.00" fill="#666666">[BASE TABLE]</text>
<polygon fill="none" stroke="black" points="2717.51,-463 2717.51,-493.8 2991.46,-493.8 2991.46,-463 2717.51,-463"/>
<text text-anchor="start" x="2724.51" y="-475.2" font-family="Arial" font-size="14.00">user1_id </text>
<text text-anchor="start" x="2782.1" y="-475.2" font-family="Arial" font-size="14.00" fill="#666666">[uuid]</text>
<polygon fill="none" stroke="black" points="2717.51,-432.2 2717.51,-463 2991.46,-463 2991.46,-432.2 2717.51,-432.2"/>
<text text-anchor="start" x="2724.51" y="-444.4" font-family="Arial" font-size="14.00">user2_id </text>
<text text-anchor="start" x="2782.1" y="-444.4" font-family="Arial" font-size="14.00" fill="#666666">[uuid]</text>
</g>
<!-- public.connections&#45;&gt;public.users -->
<g id="edge11" class="edge">
<title>public.connections:user1_id&#45;&gt;public.users:id</title>
<path fill="none" stroke="black" d="M3002.7,-477.87C3138.55,-462.49 2733.76,-120.2 2895.03,-120.2"/>
<polygon fill="black" stroke="black" points="3002.78,-477.86 2992.56,-473.89 2997.46,-478.14 2993.13,-478.37 2993.13,-478.37 2993.13,-478.37 2997.46,-478.14 2993.03,-482.88 3002.78,-477.86"/>
<text text-anchor="start" x="2999.46" y="-488.4" font-family="Arial" font-size="10.00">FOREIGN KEY (user1_id) REFERENCES users(id) ON DELETE CASCADE</text>
</g>
<!-- public.connections&#45;&gt;public.users -->
<g id="edge12" class="edge">
<title>public.connections:user2_id&#45;&gt;public.users:id</title>
<path fill="none" stroke="black" d="M3002.61,-447.02C3125.03,-431.81 2746.92,-120.2 2895.03,-120.2"/>
<polygon fill="black" stroke="black" points="3002.78,-447.01 2992.54,-443.09 2997.46,-447.32 2993.13,-447.56 2993.13,-447.56 2993.13,-447.56 2997.46,-447.32 2993.05,-452.07 3002.78,-447.01"/>
<text text-anchor="start" x="2999.46" y="-457.6" font-family="Arial" font-size="10.00">FOREIGN KEY (user2_id) REFERENCES users(id) ON DELETE CASCADE</text>
</g>
<!-- public.views -->
<g id="node12" class="node">
<title>public.views</title>
<polygon fill="#efefef" stroke="none" points="3095.56,-509.2 3095.56,-544.8 3341.41,-544.8 3341.41,-509.2 3095.56,-509.2"/>
<polygon fill="none" stroke="black" points="3095.56,-509.2 3095.56,-544.8 3341.41,-544.8 3341.41,-509.2 3095.56,-509.2"/>
<text text-anchor="start" x="3110.5" y="-522.6" font-family="Arial Bold" font-size="18.00">public.views</text>
<text text-anchor="start" x="3201.98" y="-522.6" font-family="Arial" font-size="14.00">    </text>
<text text-anchor="start" x="3233.1" y="-522.6" font-family="Arial" font-size="14.00" fill="#666666">[BASE TABLE]</text>
<polygon fill="none" stroke="black" points="3095.56,-478.4 3095.56,-509.2 3341.41,-509.2 3341.41,-478.4 3095.56,-478.4"/>
<text text-anchor="start" x="3102.56" y="-490.6" font-family="Arial" font-size="14.00">viewer_id </text>
<text text-anchor="start" x="3165.59" y="-490.6" font-family="Arial" font-size="14.00" fill="#666666">[uuid]</text>
<polygon fill="none" stroke="black" points="3095.56,-447.6 3095.56,-478.4 3341.41,-478.4 3341.41,-447.6 3095.56,-447.6"/>
<text text-anchor="start" x="3102.56" y="-459.8" font-family="Arial" font-size="14.00">viewed_id </text>
<text text-anchor="start" x="3168.71" y="-459.8" font-family="Arial" font-size="14.00" fill="#666666">[uuid]</text>
<polygon fill="none" stroke="black" points="3095.56,-416.8 3095.56,-447.6 3341.41,-447.6 3341.41,-416.8 3095.56,-416.8"/>
<text text-anchor="start" x="3102.56" y="-429" font-family="Arial" font-size="14.00">view_time </text>
<text text-anchor="start" x="3168.69" y="-429" font-family="Arial" font-size="14.00" fill="#666666">[timestamp with time zone]</text>
</g>
<!-- public.views&#45;&gt;public.users -->
<g id="edge13" class="edge">
<title>public.views:viewed_id&#45;&gt;public.users:id</title>
<path fill="none" stroke="black" d="M3084.43,-462.44C2956.07,-447.12 3331.06,-120.2 3177.94,-120.2"/>
<polygon fill="black" stroke="black" points="3084.24,-462.43 3093.98,-467.47 3089.57,-462.73 3093.89,-462.96 3093.89,-462.96 3093.89,-462.96 3089.57,-462.73 3094.47,-458.49 3084.24,-462.43"/>
<text text-anchor="start" x="3101.56" y="-473" font-family="Arial" font-size="10.00">FOREIGN KEY (viewed_id) REFERENCES users(id) ON DELETE CASCADE</text>
</g>
<!-- public.views&#45;&gt;public.users -->
<g id="edge14" class="edge">
<title>public.views:viewer_id&#45;&gt;public.users:id</title>
<path fill="none" stroke="black" d="M3084.4,-493.29C2942.36,-477.92 3344.41,-120.2 3177.94,-120.2"/>
<polygon fill="black" stroke="black" points="3084.24,-493.28 3094,-498.28 3089.56,-493.55 3093.89,-493.77 3093.89,-493.77 3093.89,-493.77 3089.56,-493.55 3094.45,-489.29 3084.24,-493.28"/>
<text text-anchor="start" x="3101.56" y="-503.8" font-family="Arial" font-size="10.00">FOREIGN KEY (viewer_id) REFERENCES users(id) ON DELETE CASCADE</text>
</g>
<!-- public.blocks -->
<g id="node13" class="node">
<title>public.blocks</title>
<polygon fill="#efefef" stroke="none" points="3446,-493.8 3446,-529.4 3680.97,-529.4 3680.97,-493.8 3446,-493.8"/>
<polygon fill="none" stroke="black" points="3446,-493.8 3446,-529.4 3680.97,-529.4 3680.97,-493.8 3446,-493.8"/>
<text text-anchor="start" x="3453" y="-507.2" font-family="Arial Bold" font-size="18.00">public.blocks</text>
<text text-anchor="start" x="3549.48" y="-507.2" font-family="Arial" font-size="14.00">    </text>
<text text-anchor="start" x="3580.6" y="-507.2" font-family="Arial" font-size="14.00" fill="#666666">[BASE TABLE]</text>
<polygon fill="none" stroke="black" points="3446,-463 3446,-493.8 3680.97,-493.8 3680.97,-463 3446,-463"/>
<text text-anchor="start" x="3453" y="-475.2" font-family="Arial" font-size="14.00">blocker_id </text>
<text text-anchor="start" x="3520.7" y="-475.2" font-family="Arial" font-size="14.00" fill="#666666">[uuid]</text>
<polygon fill="none" stroke="black" points="3446,-432.2 3446,-463 3680.97,-463 3680.97,-432.2 3446,-432.2"/>
<text text-anchor="start" x="3453" y="-444.4" font-family="Arial" font-size="14.00">blocked_id </text>
<text text-anchor="start" x="3523.83" y="-444.4" font-family="Arial" font-size="14.00" fill="#666666">[uuid]</text>
</g>
<!-- public.blocks&#45;&gt;public.users -->
<g id="edge15" class="edge">
<title>public.blocks:blocked_id&#45;&gt;public.users:id</title>
<path fill="none" stroke="black" d="M3434.76,-446.98C3361.82,-437.46 3445.47,-320 3393.49,-250.4 3326.52,-160.73 3289.86,-120.2 3177.94,-120.2"/>
<polygon fill="black" stroke="black" points="3434.68,-446.98 3444.39,-452.07 3440.01,-447.3 3444.33,-447.56 3444.33,-447.56 3444.33,-447.56 3440.01,-447.3 3444.93,-443.09 3434.68,-446.98"/>
<text text-anchor="start" x="3179.77" y="-431.6" font-family="Arial" font-size="10.00">FOREIGN KEY (blocked_id) REFERENCES users(id) ON DELETE CASCADE</text>
</g>
<!-- public.blocks&#45;&gt;public.users -->
<g id="edge16" class="edge">
<title>public.blocks:blocker_id&#45;&gt;public.users:id</title>
<path fill="none" stroke="black" d="M3434.83,-477.88C3348.85,-468.37 3452.12,-331.7 3393.49,-250.4 3328.02,-159.62 3289.86,-120.2 3177.94,-120.2"/>
<polygon fill="black" stroke="black" points="3434.68,-477.87 3444.43,-482.88 3440,-478.14 3444.33,-478.37 3444.33,-478.37 3444.33,-478.37 3440,-478.14 3444.9,-473.89 3434.68,-477.87"/>
<text text-anchor="start" x="3181.44" y="-462.4" font-family="Arial" font-size="10.00">FOREIGN KEY (blocker_id) REFERENCES users(id) ON DELETE CASCADE</text>
</g>
<!-- public.notifications -->
<g id="node14" class="node">
<title>public.notifications</title>
<polygon fill="#efefef" stroke="none" points="3785.5,-555.4 3785.5,-591 4063.47,-591 4063.47,-555.4 3785.5,-555.4"/>
<polygon fill="none" stroke="black" points="3785.5,-555.4 3785.5,-591 4063.47,-591 4063.47,-555.4 3785.5,-555.4"/>
<text text-anchor="start" x="3792.5" y="-568.8" font-family="Arial Bold" font-size="18.00">public.notifications</text>
<text text-anchor="start" x="3931.98" y="-568.8" font-family="Arial" font-size="14.00">    </text>
<text text-anchor="start" x="3963.1" y="-568.8" font-family="Arial" font-size="14.00" fill="#666666">[BASE TABLE]</text>
<polygon fill="none" stroke="black" points="3785.5,-524.6 3785.5,-555.4 4063.47,-555.4 4063.47,-524.6 3785.5,-524.6"/>
<text text-anchor="start" x="3792.5" y="-536.8" font-family="Arial" font-size="14.00">id </text>
<text text-anchor="start" x="3807.29" y="-536.8" font-family="Arial" font-size="14.00" fill="#666666">[bigint]</text>
<polygon fill="none" stroke="black" points="3785.5,-493.8 3785.5,-524.6 4063.47,-524.6 4063.47,-493.8 3785.5,-493.8"/>
<text text-anchor="start" x="3792.5" y="-506" font-family="Arial" font-size="14.00">recipient_id </text>
<text text-anchor="start" x="3867.99" y="-506" font-family="Arial" font-size="14.00" fill="#666666">[uuid]</text>
<polygon fill="none" stroke="black" points="3785.5,-463 3785.5,-493.8 4063.47,-493.8 4063.47,-463 3785.5,-463"/>
<text text-anchor="start" x="3792.5" y="-475.2" font-family="Arial" font-size="14.00">sender_id </text>
<text text-anchor="start" x="3857.88" y="-475.2" font-family="Arial" font-size="14.00" fill="#666666">[uuid]</text>
<polygon fill="none" stroke="black" points="3785.5,-432.2 3785.5,-463 4063.47,-463 4063.47,-432.2 3785.5,-432.2"/>
<text text-anchor="start" x="3792.5" y="-444.4" font-family="Arial" font-size="14.00">type </text>
<text text-anchor="start" x="3822.86" y="-444.4" font-family="Arial" font-size="14.00" fill="#666666">[notification_type_enum]</text>
<polygon fill="none" stroke="black" points="3785.5,-401.4 3785.5,-432.2 4063.47,-432.2 4063.47,-401.4 3785.5,-401.4"/>
<text text-anchor="start" x="3792.5" y="-413.6" font-family="Arial" font-size="14.00">is_read </text>
<text text-anchor="start" x="3842.31" y="-413.6" font-family="Arial" font-size="14.00" fill="#666666">[boolean]</text>
<polygon fill="none" stroke="black" points="3785.5,-370.6 3785.5,-401.4 4063.47,-401.4 4063.47,-370.6 3785.5,-370.6"/>
<text text-anchor="start" x="3792.5" y="-382.8" font-family="Arial" font-size="14.00">created_at </text>
<text text-anchor="start" x="3862.55" y="-382.8" font-family="Arial" font-size="14.00" fill="#666666">[timestamp with time zone]</text>
</g>
<!-- public.notifications&#45;&gt;public.users -->
<g id="edge17" class="edge">
<title>public.notifications:recipient_id&#45;&gt;public.users:id</title>
<path fill="none" stroke="black" d="M3774.27,-508.7C3676.27,-498.39 3812.35,-332.12 3733.49,-250.4 3645.43,-159.16 3304.74,-120.2 3177.94,-120.2"/>
<polygon fill="black" stroke="black" points="3774.18,-508.69 3783.95,-513.68 3779.51,-508.95 3783.84,-509.17 3783.84,-509.17 3783.84,-509.17 3779.51,-508.95 3784.39,-504.69 3774.18,-508.69"/>
<text text-anchor="start" x="3791.5" y="-519.2" font-family="Arial" font-size="10.00">FOREIGN KEY (recipient_id) REFERENCES users(id) ON DELETE CASCADE</text>
</g>
<!-- public.notifications&#45;&gt;public.users -->
<g id="edge18" class="edge">
<title>public.notifications:sender_id&#45;&gt;public.users:id</title>
<path fill="none" stroke="black" d="M3774.13,-477.81C3689.5,-467.36 3803.9,-321.53 3733.49,-250.4 3644.28,-160.29 3304.74,-120.2 3177.94,-120.2"/>
<polygon fill="black" stroke="black" points="3774.19,-477.81 3783.91,-482.87 3779.51,-478.11 3783.84,-478.36 3783.84,-478.36 3783.84,-478.36 3779.51,-478.11 3784.43,-473.89 3774.19,-477.81"/>
<text text-anchor="start" x="3791.5" y="-488.4" font-family="Arial" font-size="10.00">FOREIGN KEY (sender_id) REFERENCES users(id) ON DELETE SET NULL</text>
</g>
<!-- public.messages -->
<g id="node15" class="node">
<title>public.messages</title>
<polygon fill="#efefef" stroke="none" points="4167.5,-555.4 4167.5,-591 4423.47,-591 4423.47,-555.4 4167.5,-555.4"/>
<polygon fill="none" stroke="black" points="4167.5,-555.4 4167.5,-591 4423.47,-591 4423.47,-555.4 4167.5,-555.4"/>
<text text-anchor="start" x="4174.5" y="-568.8" font-family="Arial Bold" font-size="18.00">public.messages</text>
<text text-anchor="start" x="4291.98" y="-568.8" font-family="Arial" font-size="14.00">    </text>
<text text-anchor="start" x="4323.1" y="-568.8" font-family="Arial" font-size="14.00" fill="#666666">[BASE TABLE]</text>
<polygon fill="none" stroke="black" points="4167.5,-524.6 4167.5,-555.4 4423.47,-555.4 4423.47,-524.6 4167.5,-524.6"/>
<text text-anchor="start" x="4174.5" y="-536.8" font-family="Arial" font-size="14.00">id </text>
<text text-anchor="start" x="4189.29" y="-536.8" font-family="Arial" font-size="14.00" fill="#666666">[bigint]</text>
<polygon fill="none" stroke="black" points="4167.5,-493.8 4167.5,-524.6 4423.47,-524.6 4423.47,-493.8 4167.5,-493.8"/>
<text text-anchor="start" x="4174.5" y="-506" font-family="Arial" font-size="14.00">sender_id </text>
<text text-anchor="start" x="4239.88" y="-506" font-family="Arial" font-size="14.00" fill="#666666">[uuid]</text>
<polygon fill="none" stroke="black" points="4167.5,-463 4167.5,-493.8 4423.47,-493.8 4423.47,-463 4167.5,-463"/>
<text text-anchor="start" x="4174.5" y="-475.2" font-family="Arial" font-size="14.00">recipient_id </text>
<text text-anchor="start" x="4249.99" y="-475.2" font-family="Arial" font-size="14.00" fill="#666666">[uuid]</text>
<polygon fill="none" stroke="black" points="4167.5,-432.2 4167.5,-463 4423.47,-463 4423.47,-432.2 4167.5,-432.2"/>
<text text-anchor="start" x="4174.5" y="-444.4" font-family="Arial" font-size="14.00">content </text>
<text text-anchor="start" x="4224.32" y="-444.4" font-family="Arial" font-size="14.00" fill="#666666">[text]</text>
<polygon fill="none" stroke="black" points="4167.5,-401.4 4167.5,-432.2 4423.47,-432.2 4423.47,-401.4 4167.5,-401.4"/>
<text text-anchor="start" x="4174.5" y="-413.6" font-family="Arial" font-size="14.00">sent_at </text>
<text text-anchor="start" x="4224.32" y="-413.6" font-family="Arial" font-size="14.00" fill="#666666">[timestamp with time zone]</text>
<polygon fill="none" stroke="black" points="4167.5,-370.6 4167.5,-401.4 4423.47,-401.4 4423.47,-370.6 4167.5,-370.6"/>
<text text-anchor="start" x="4174.5" y="-382.8" font-family="Arial" font-size="14.00">is_read </text>
<text text-anchor="start" x="4224.31" y="-382.8" font-family="Arial" font-size="14.00" fill="#666666">[boolean]</text>
</g>
<!-- public.messages&#45;&gt;public.users -->
<g id="edge19" class="edge">
<title>public.messages:recipient_id&#45;&gt;public.users:id</title>
<path fill="none" stroke="black" d="M4156.14,-477.79C4071.73,-467.12 4189.1,-318.21 4115.49,-250.4 4038.13,-179.15 3283.11,-120.2 3177.94,-120.2"/>
<polygon fill="black" stroke="black" points="4156.19,-477.8 4165.91,-482.87 4161.51,-478.11 4165.84,-478.36 4165.84,-478.36 4165.84,-478.36 4161.51,-478.11 4166.43,-473.89 4156.19,-477.8"/>
<text text-anchor="start" x="4173.5" y="-488.4" font-family="Arial" font-size="10.00">FOREIGN KEY (recipient_id) REFERENCES users(id) ON DELETE CASCADE</text>
</g>
<!-- public.messages&#45;&gt;public.users -->
<g id="edge20" class="edge">
<title>public.messages:sender_id&#45;&gt;public.users:id</title>
<path fill="none" stroke="black" d="M4156.28,-508.69C4058.5,-498.15 4198.04,-328.4 4115.49,-250.4 4039.04,-178.17 3283.11,-120.2 3177.94,-120.2"/>
<polygon fill="black" stroke="black" points="4156.18,-508.68 4165.94,-513.68 4161.51,-508.95 4165.84,-509.17 4165.84,-509.17 4165.84,-509.17 4161.51,-508.95 4166.4,-504.69 4156.18,-508.68"/>
<text text-anchor="start" x="4173.5" y="-519.2" font-family="Arial" font-size="10.00">FOREIGN KEY (sender_id) REFERENCES users(id) ON DELETE CASCADE</text>
</g>
<!-- public.refresh_tokens -->
<g id="node16" class="node">
<title>public.refresh_tokens</title>
<polygon fill="#efefef" stroke="none" points="4527.52,-540 4527.52,-575.6 4821.46,-575.6 4821.46,-540 4527.52,-540"/>
<polygon fill="none" stroke="black" points="4527.52,-540 4527.52,-575.6 4821.46,-575.6 4821.46,-540 4527.52,-540"/>
<text text-anchor="start" x="4534.52" y="-553.4" font-family="Arial Bold" font-size="18.00">public.refresh_tokens</text>
<text text-anchor="start" x="4689.97" y="-553.4" font-family="Arial" font-size="14.00">    </text>
<text text-anchor="start" x="4721.08" y="-553.4" font-family="Arial" font-size="14.00" fill="#666666">[BASE TABLE]</text>
<polygon fill="none" stroke="black" points="4527.52,-509.2 4527.52,-540 4821.46,-540 4821.46,-509.2 4527.52,-509.2"/>
<text text-anchor="start" x="4534.52" y="-521.4" font-family="Arial" font-size="14.00">token_hash </text>
<text text-anchor="start" x="4610.8" y="-521.4" font-family="Arial" font-size="14.00" fill="#666666">[varchar(255)]</text>
<polygon fill="none" stroke="black" points="4527.52,-478.4 4527.52,-509.2 4821.46,-509.2 4821.46,-478.4 4527.52,-478.4"/>
<text text-anchor="start" x="4534.52" y="-490.6" font-family="Arial" font-size="14.00">user_id </text>
<text text-anchor="start" x="4584.32" y="-490.6" font-family="Arial" font-size="14.00" fill="#666666">[uuid]</text>
<polygon fill="none" stroke="black" points="4527.52,-447.6 4527.52,-478.4 4821.46,-478.4 4821.46,-447.6 4527.52,-447.6"/>
<text text-anchor="start" x="4534.52" y="-459.8" font-family="Arial" font-size="14.00">expires_at </text>
<text text-anchor="start" x="4603" y="-459.8" font-family="Arial" font-size="14.00" fill="#666666">[timestamp with time zone]</text>
<polygon fill="none" stroke="black" points="4527.52,-416.8 4527.52,-447.6 4821.46,-447.6 4821.46,-416.8 4527.52,-416.8"/>
<text text-anchor="start" x="4534.52" y="-429" font-family="Arial" font-size="14.00">created_at </text>
<text text-anchor="start" x="4604.56" y="-429" font-family="Arial" font-size="14.00" fill="#666666">[timestamp with time zone]</text>
<polygon fill="none" stroke="black" points="4527.52,-386 4527.52,-416.8 4821.46,-416.8 4821.46,-386 4527.52,-386"/>
<text text-anchor="start" x="4534.52" y="-398.2" font-family="Arial" font-size="14.00">revoked </text>
<text text-anchor="start" x="4588.21" y="-398.2" font-family="Arial" font-size="14.00" fill="#666666">[boolean]</text>
</g>
<!-- public.refresh_tokens&#45;&gt;public.users -->
<g id="edge21" class="edge">
<title>public.refresh_tokens:user_id&#45;&gt;public.users:id</title>
<path fill="none" stroke="black" d="M4516.32,-493.25C4425.15,-482.65 4554.97,-321.83 4475.49,-250.4 4367.71,-153.55 3322.83,-120.2 3177.94,-120.2"/>
<polygon fill="black" stroke="black" points="4516.2,-493.24 4525.94,-498.28 4521.52,-493.53 4525.85,-493.76 4525.85,-493.76 4525.85,-493.76 4521.52,-493.53 4526.42,-489.29 4516.2,-493.24"/>
<text text-anchor="start" x="4272.55" y="-477.8" font-family="Arial" font-size="10.00">FOREIGN KEY (user_id) REFERENCES users(id) ON DELETE CASCADE</text>
</g>
</g>
</svg>
