<?xml version="1.0" encoding="UTF-8" standalone="no"?>
<!DOCTYPE svg PUBLIC "-//W3C//DTD SVG 1.1//EN"
 "http://www.w3.org/Graphics/SVG/1.1/DTD/svg11.dtd">
<!-- Generated by graphviz version 12.1.2 (20240928.0832)
 -->
<!-- Title: matcha Pages: 1 -->
<svg width="5398pt" height="658pt"
 viewBox="0.00 0.00 5398.34 657.60" xmlns="http://www.w3.org/2000/svg" xmlns:xlink="http://www.w3.org/1999/xlink">
<g id="graph0" class="graph" transform="scale(1 1) rotate(0) translate(4 653.6)">
<title>matcha</title>
<polygon fill="white" stroke="none" points="-4,4 -4,-653.6 5394.34,-653.6 5394.34,4 -4,4"/>
<!-- public.users -->
<g id="node1" class="node">
<title>public.users</title>
<polygon fill="#efefef" stroke="none" points="2896.03,-135.6 2896.03,-171.2 3176.94,-171.2 3176.94,-135.6 2896.03,-135.6"/>
<polygon fill="none" stroke="black" points="2896.03,-135.6 2896.03,-171.2 3176.94,-171.2 3176.94,-135.6 2896.03,-135.6"/>
<text text-anchor="start" x="2931" y="-149" font-family="Arial Bold" font-size="18.00">public.users</text>
<text text-anchor="start" x="3017.48" y="-149" font-family="Arial" font-size="14.00">    </text>
<text text-anchor="start" x="3048.6" y="-149" font-family="Arial" font-size="14.00" fill="#666666">[BASE TABLE]</text>
<polygon fill="none" stroke="black" points="2896.03,-104.8 2896.03,-135.6 3176.94,-135.6 3176.94,-104.8 2896.03,-104.8"/>
<text text-anchor="start" x="2903.03" y="-117" font-family="Arial" font-size="14.00">id </text>
<text text-anchor="start" x="2917.82" y="-117" font-family="Arial" font-size="14.00" fill="#666666">[uuid]</text>
<polygon fill="none" stroke="black" points="2896.03,-74 2896.03,-104.8 3176.94,-104.8 3176.94,-74 2896.03,-74"/>
<text text-anchor="start" x="2903.03" y="-86.2" font-family="Arial" font-size="14.00">created_at </text>
<text text-anchor="start" x="2973.08" y="-86.2" font-family="Arial" font-size="14.00" fill="#666666">[timestamp with time zone]</text>
<polygon fill="none" stroke="black" points="2896.03,-43.2 2896.03,-74 3176.94,-74 3176.94,-43.2 2896.03,-43.2"/>
<text text-anchor="start" x="2903.03" y="-55.4" font-family="Arial" font-size="14.00">last_connection </text>
<text text-anchor="start" x="3004.21" y="-55.4" font-family="Arial" font-size="14.00" fill="#666666">[timestamp with time zone]</text>
</g>
<!-- public.user_data -->
<g id="node2" class="node">
<title>public.user_data</title>
<polygon fill="#efefef" stroke="none" points="90.01,-493.8 90.01,-529.4 346.96,-529.4 346.96,-493.8 90.01,-493.8"/>
<polygon fill="none" stroke="black" points="90.01,-493.8 90.01,-529.4 346.96,-529.4 346.96,-493.8 90.01,-493.8"/>
<text text-anchor="start" x="97.01" y="-507.2" font-family="Arial Bold" font-size="18.00">public.user_data</text>
<text text-anchor="start" x="215.47" y="-507.2" font-family="Arial" font-size="14.00">    </text>
<text text-anchor="start" x="246.59" y="-507.2" font-family="Arial" font-size="14.00" fill="#666666">[BASE TABLE]</text>
<polygon fill="none" stroke="black" points="90.01,-463 90.01,-493.8 346.96,-493.8 346.96,-463 90.01,-463"/>
<text text-anchor="start" x="97.01" y="-475.2" font-family="Arial" font-size="14.00">user_id </text>
<text text-anchor="start" x="146.82" y="-475.2" font-family="Arial" font-size="14.00" fill="#666666">[uuid]</text>
<polygon fill="none" stroke="black" points="90.01,-432.2 90.01,-463 346.96,-463 346.96,-432.2 90.01,-432.2"/>
<text text-anchor="start" x="97.01" y="-444.4" font-family="Arial" font-size="14.00">latitude </text>
<text text-anchor="start" x="146.05" y="-444.4" font-family="Arial" font-size="14.00" fill="#666666">[numeric(10,8)]</text>
<polygon fill="none" stroke="black" points="90.01,-401.4 90.01,-432.2 346.96,-432.2 346.96,-401.4 90.01,-401.4"/>
<text text-anchor="start" x="97.01" y="-413.6" font-family="Arial" font-size="14.00">longitude </text>
<text text-anchor="start" x="157.73" y="-413.6" font-family="Arial" font-size="14.00" fill="#666666">[numeric(11,8)]</text>
<polygon fill="none" stroke="black" points="90.01,-370.6 90.01,-401.4 346.96,-401.4 346.96,-370.6 90.01,-370.6"/>
<text text-anchor="start" x="97.01" y="-382.8" font-family="Arial" font-size="14.00">internal_score </text>
<text text-anchor="start" x="188.84" y="-382.8" font-family="Arial" font-size="14.00" fill="#666666">[integer]</text>
</g>
<!-- public.user_data&#45;&gt;public.users -->
<g id="edge1" class="edge">
<title>public.user_data:user_id&#45;&gt;public.users:id</title>
<path fill="none" stroke="black" d="M358.32,-477.78C442.6,-466.88 322.92,-314.93 399.49,-250.4 505.64,-160.93 2756.2,-120.2 2895.03,-120.2"/>
<polygon fill="black" stroke="black" points="358.28,-477.78 348.03,-473.89 352.95,-478.1 348.63,-478.36 348.63,-478.36 348.63,-478.36 352.95,-478.1 348.56,-482.87 358.28,-477.78"/>
<text text-anchor="start" x="7" y="-488.4" font-family="Arial" font-size="10.00">FOREIGN KEY (user_id) REFERENCES users(id) ON DELETE CASCADE</text>
</g>
<!-- public.auths -->
<g id="node3" class="node">
<title>public.auths</title>
<polygon fill="#efefef" stroke="none" points="451.5,-540 451.5,-575.6 677.47,-575.6 677.47,-540 451.5,-540"/>
<polygon fill="none" stroke="black" points="451.5,-540 451.5,-575.6 677.47,-575.6 677.47,-540 451.5,-540"/>
<text text-anchor="start" x="458.5" y="-553.4" font-family="Arial Bold" font-size="18.00">public.auths</text>
<text text-anchor="start" x="545.98" y="-553.4" font-family="Arial" font-size="14.00">    </text>
<text text-anchor="start" x="577.1" y="-553.4" font-family="Arial" font-size="14.00" fill="#666666">[BASE TABLE]</text>
<polygon fill="none" stroke="black" points="451.5,-509.2 451.5,-540 677.47,-540 677.47,-509.2 451.5,-509.2"/>
<text text-anchor="start" x="458.5" y="-521.4" font-family="Arial" font-size="14.00">id </text>
<text text-anchor="start" x="473.28" y="-521.4" font-family="Arial" font-size="14.00" fill="#666666">[integer]</text>
<polygon fill="none" stroke="black" points="451.5,-478.4 451.5,-509.2 677.47,-509.2 677.47,-478.4 451.5,-478.4"/>
<text text-anchor="start" x="458.5" y="-490.6" font-family="Arial" font-size="14.00">user_id </text>
<text text-anchor="start" x="508.3" y="-490.6" font-family="Arial" font-size="14.00" fill="#666666">[uuid]</text>
<polygon fill="none" stroke="black" points="451.5,-447.6 451.5,-478.4 677.47,-478.4 677.47,-447.6 451.5,-447.6"/>
<text text-anchor="start" x="458.5" y="-459.8" font-family="Arial" font-size="14.00">provider </text>
<text text-anchor="start" x="512.97" y="-459.8" font-family="Arial" font-size="14.00" fill="#666666">[auth_provider_enum]</text>
<polygon fill="none" stroke="black" points="451.5,-416.8 451.5,-447.6 677.47,-447.6 677.47,-416.8 451.5,-416.8"/>
<text text-anchor="start" x="458.5" y="-429" font-family="Arial" font-size="14.00">provider_uid </text>
<text text-anchor="start" x="539.44" y="-429" font-family="Arial" font-size="14.00" fill="#666666">[varchar(255)]</text>
<polygon fill="none" stroke="black" points="451.5,-386 451.5,-416.8 677.47,-416.8 677.47,-386 451.5,-386"/>
<text text-anchor="start" x="458.5" y="-398.2" font-family="Arial" font-size="14.00">email </text>
<text text-anchor="start" x="495.84" y="-398.2" font-family="Arial" font-size="14.00" fill="#666666">[varchar(255)]</text>
<polygon fill="none" stroke="black" points="451.5,-355.2 451.5,-386 677.47,-386 677.47,-355.2 451.5,-355.2"/>
<text text-anchor="start" x="458.5" y="-367.4" font-family="Arial" font-size="14.00">is_verified </text>
<text text-anchor="start" x="525.42" y="-367.4" font-family="Arial" font-size="14.00" fill="#666666">[boolean]</text>
<polygon fill="none" stroke="black" points="451.5,-324.4 451.5,-355.2 677.47,-355.2 677.47,-324.4 451.5,-324.4"/>
<text text-anchor="start" x="458.5" y="-336.6" font-family="Arial" font-size="14.00">password_hash </text>
<text text-anchor="start" x="560.45" y="-336.6" font-family="Arial" font-size="14.00" fill="#666666">[varchar(255)]</text>
</g>
<!-- public.auths&#45;&gt;public.users -->
<g id="edge2" class="edge">
<title>public.auths:user_id&#45;&gt;public.users:id</title>
<path fill="none" stroke="black" d="M688.66,-493.24C779.74,-482.54 648.6,-320.23 729.49,-250.4 820.72,-171.64 2774.51,-120.2 2895.03,-120.2"/>
<polygon fill="black" stroke="black" points="688.79,-493.24 678.56,-489.29 683.47,-493.53 679.14,-493.76 679.14,-493.76 679.14,-493.76 683.47,-493.53 679.05,-498.28 688.79,-493.24"/>
<text text-anchor="start" x="685.47" y="-503.8" font-family="Arial" font-size="10.00">FOREIGN KEY (user_id) REFERENCES users(id) ON DELETE CASCADE</text>
</g>
<!-- public.verification_tokens -->
<g id="node4" class="node">
<title>public.verification_tokens</title>
<polygon fill="#efefef" stroke="none" points="782.02,-478.4 782.02,-514 1108.95,-514 1108.95,-478.4 782.02,-478.4"/>
<polygon fill="none" stroke="black" points="782.02,-478.4 782.02,-514 1108.95,-514 1108.95,-478.4 782.02,-478.4"/>
<text text-anchor="start" x="789.02" y="-491.8" font-family="Arial Bold" font-size="18.00">public.verification_tokens</text>
<text text-anchor="start" x="977.46" y="-491.8" font-family="Arial" font-size="14.00">    </text>
<text text-anchor="start" x="1008.58" y="-491.8" font-family="Arial" font-size="14.00" fill="#666666">[BASE TABLE]</text>
<polygon fill="none" stroke="black" points="782.02,-447.6 782.02,-478.4 1108.95,-478.4 1108.95,-447.6 782.02,-447.6"/>
<text text-anchor="start" x="789.02" y="-459.8" font-family="Arial" font-size="14.00">token </text>
<text text-anchor="start" x="827.16" y="-459.8" font-family="Arial" font-size="14.00" fill="#666666">[varchar(64)]</text>
<polygon fill="none" stroke="black" points="782.02,-416.8 782.02,-447.6 1108.95,-447.6 1108.95,-416.8 782.02,-416.8"/>
<text text-anchor="start" x="789.02" y="-429" font-family="Arial" font-size="14.00">user_id </text>
<text text-anchor="start" x="838.82" y="-429" font-family="Arial" font-size="14.00" fill="#666666">[uuid]</text>
<polygon fill="none" stroke="black" points="782.02,-386 782.02,-416.8 1108.95,-416.8 1108.95,-386 782.02,-386"/>
<text text-anchor="start" x="789.02" y="-398.2" font-family="Arial" font-size="14.00">expires_at </text>
<text text-anchor="start" x="857.5" y="-398.2" font-family="Arial" font-size="14.00" fill="#666666">[timestamp with time zone]</text>
</g>
<!-- public.verification_tokens&#45;&gt;public.users -->
<g id="edge3" class="edge">
<title>public.verification_tokens:user_id&#45;&gt;public.users:id</title>
<path fill="none" stroke="black" d="M1120.2,-431.44C1185.51,-420.79 1099.36,-301.13 1161.49,-250.4 1311.1,-128.23 2701.88,-120.2 2895.03,-120.2"/>
<polygon fill="black" stroke="black" points="1120.26,-431.44 1109.95,-427.69 1114.94,-431.83 1110.62,-432.15 1110.62,-432.15 1110.62,-432.15 1114.94,-431.83 1110.62,-436.66 1120.26,-431.44"/>
<text text-anchor="start" x="942.97" y="-416.2" font-family="Arial" font-size="10.00">FOREIGN KEY (user_id) REFERENCES users(id) ON DELETE CASCADE</text>
</g>
<!-- public.password_resets -->
<g id="node5" class="node">
<title>public.password_resets</title>
<polygon fill="#efefef" stroke="none" points="1213.51,-478.4 1213.51,-514 1519.46,-514 1519.46,-478.4 1213.51,-478.4"/>
<polygon fill="none" stroke="black" points="1213.51,-478.4 1213.51,-514 1519.46,-514 1519.46,-478.4 1213.51,-478.4"/>
<text text-anchor="start" x="1220.51" y="-491.8" font-family="Arial Bold" font-size="18.00">public.password_resets</text>
<text text-anchor="start" x="1387.97" y="-491.8" font-family="Arial" font-size="14.00">    </text>
<text text-anchor="start" x="1419.09" y="-491.8" font-family="Arial" font-size="14.00" fill="#666666">[BASE TABLE]</text>
<polygon fill="none" stroke="black" points="1213.51,-447.6 1213.51,-478.4 1519.46,-478.4 1519.46,-447.6 1213.51,-447.6"/>
<text text-anchor="start" x="1220.51" y="-459.8" font-family="Arial" font-size="14.00">user_id </text>
<text text-anchor="start" x="1270.31" y="-459.8" font-family="Arial" font-size="14.00" fill="#666666">[uuid]</text>
<polygon fill="none" stroke="black" points="1213.51,-416.8 1213.51,-447.6 1519.46,-447.6 1519.46,-416.8 1213.51,-416.8"/>
<text text-anchor="start" x="1220.51" y="-429" font-family="Arial" font-size="14.00">token </text>
<text text-anchor="start" x="1258.65" y="-429" font-family="Arial" font-size="14.00" fill="#666666">[varchar(64)]</text>
<polygon fill="none" stroke="black" points="1213.51,-386 1213.51,-416.8 1519.46,-416.8 1519.46,-386 1213.51,-386"/>
<text text-anchor="start" x="1220.51" y="-398.2" font-family="Arial" font-size="14.00">expires_at </text>
<text text-anchor="start" x="1288.99" y="-398.2" font-family="Arial" font-size="14.00" fill="#666666">[timestamp with time zone]</text>
</g>
<!-- public.password_resets&#45;&gt;public.users -->
<g id="edge4" class="edge">
<title>public.password_resets:user_id&#45;&gt;public.users:id</title>
<path fill="none" stroke="black" d="M1530.88,-462.33C1608.6,-451.51 1501.08,-311.74 1571.49,-250.4 1682.91,-153.33 2747.26,-120.2 2895.03,-120.2"/>
<polygon fill="black" stroke="black" points="1530.78,-462.34 1520.51,-458.49 1525.45,-462.68 1521.13,-462.96 1521.13,-462.96 1521.13,-462.96 1525.45,-462.68 1521.09,-467.47 1530.78,-462.34"/>
<text text-anchor="start" x="1353.48" y="-447" font-family="Arial" font-size="10.00">FOREIGN KEY (user_id) REFERENCES users(id) ON DELETE CASCADE</text>
</g>
<!-- public.user_profiles -->
<g id="node6" class="node">
<title>public.user_profiles</title>
<polygon fill="#efefef" stroke="none" points="1623.51,-570.8 1623.51,-606.4 1905.46,-606.4 1905.46,-570.8 1623.51,-570.8"/>
<polygon fill="none" stroke="black" points="1623.51,-570.8 1623.51,-606.4 1905.46,-606.4 1905.46,-570.8 1623.51,-570.8"/>
<text text-anchor="start" x="1630.51" y="-584.2" font-family="Arial Bold" font-size="18.00">public.user_profiles</text>
<text text-anchor="start" x="1773.97" y="-584.2" font-family="Arial" font-size="14.00">    </text>
<text text-anchor="start" x="1805.09" y="-584.2" font-family="Arial" font-size="14.00" fill="#666666">[BASE TABLE]</text>
<polygon fill="none" stroke="black" points="1623.51,-540 1623.51,-570.8 1905.46,-570.8 1905.46,-540 1623.51,-540"/>
<text text-anchor="start" x="1630.51" y="-552.2" font-family="Arial" font-size="14.00">user_id </text>
<text text-anchor="start" x="1680.32" y="-552.2" font-family="Arial" font-size="14.00" fill="#666666">[uuid]</text>
<polygon fill="none" stroke="black" points="1623.51,-509.2 1623.51,-540 1905.46,-540 1905.46,-509.2 1623.51,-509.2"/>
<text text-anchor="start" x="1630.51" y="-521.4" font-family="Arial" font-size="14.00">first_name </text>
<text text-anchor="start" x="1699.76" y="-521.4" font-family="Arial" font-size="14.00" fill="#666666">[varchar(50)]</text>
<polygon fill="none" stroke="black" points="1623.51,-478.4 1623.51,-509.2 1905.46,-509.2 1905.46,-478.4 1623.51,-478.4"/>
<text text-anchor="start" x="1630.51" y="-490.6" font-family="Arial" font-size="14.00">last_name </text>
<text text-anchor="start" x="1698.99" y="-490.6" font-family="Arial" font-size="14.00" fill="#666666">[varchar(50)]</text>
<polygon fill="none" stroke="black" points="1623.51,-447.6 1623.51,-478.4 1905.46,-478.4 1905.46,-447.6 1623.51,-447.6"/>
<text text-anchor="start" x="1630.51" y="-459.8" font-family="Arial" font-size="14.00">username </text>
<text text-anchor="start" x="1696.65" y="-459.8" font-family="Arial" font-size="14.00" fill="#666666">[varchar(50)]</text>
<polygon fill="none" stroke="black" points="1623.51,-416.8 1623.51,-447.6 1905.46,-447.6 1905.46,-416.8 1623.51,-416.8"/>
<text text-anchor="start" x="1630.51" y="-429" font-family="Arial" font-size="14.00">gender </text>
<text text-anchor="start" x="1677.99" y="-429" font-family="Arial" font-size="14.00" fill="#666666">[gender_enum]</text>
<polygon fill="none" stroke="black" points="1623.51,-386 1623.51,-416.8 1905.46,-416.8 1905.46,-386 1623.51,-386"/>
<text text-anchor="start" x="1630.51" y="-398.2" font-family="Arial" font-size="14.00">sexual_preference </text>
<text text-anchor="start" x="1749.58" y="-398.2" font-family="Arial" font-size="14.00" fill="#666666">[preference_enum]</text>
<polygon fill="none" stroke="black" points="1623.51,-355.2 1623.51,-386 1905.46,-386 1905.46,-355.2 1623.51,-355.2"/>
<text text-anchor="start" x="1630.51" y="-367.4" font-family="Arial" font-size="14.00">biography </text>
<text text-anchor="start" x="1695.89" y="-367.4" font-family="Arial" font-size="14.00" fill="#666666">[text]</text>
<polygon fill="none" stroke="black" points="1623.51,-324.4 1623.51,-355.2 1905.46,-355.2 1905.46,-324.4 1623.51,-324.4"/>
<text text-anchor="start" x="1630.51" y="-336.6" font-family="Arial" font-size="14.00">fame_rating </text>
<text text-anchor="start" x="1708.33" y="-336.6" font-family="Arial" font-size="14.00" fill="#666666">[integer]</text>
<polygon fill="none" stroke="black" points="1623.51,-293.6 1623.51,-324.4 1905.46,-324.4 1905.46,-293.6 1623.51,-293.6"/>
<text text-anchor="start" x="1630.51" y="-305.8" font-family="Arial" font-size="14.00">location_name </text>
<text text-anchor="start" x="1725.46" y="-305.8" font-family="Arial" font-size="14.00" fill="#666666">[varchar(255)]</text>
</g>
<!-- public.user_profiles&#45;&gt;public.users -->
<g id="edge5" class="edge">
<title>public.user_profiles:user_id&#45;&gt;public.users:id</title>
<path fill="none" stroke="black" d="M1916.56,-553.17C1968.21,-527.91 1910.92,-295.69 1957.49,-250.4 2032.88,-177.07 2789.86,-120.2 2895.03,-120.2"/>
<polygon fill="black" stroke="black" points="1916.55,-553.17 1905.82,-550.93 1911.34,-554.32 1907.12,-555.26 1907.12,-555.26 1907.12,-555.26 1911.34,-554.32 1907.76,-559.72 1916.55,-553.17"/>
<text text-anchor="start" x="1739.48" y="-539.4" font-family="Arial" font-size="10.00">FOREIGN KEY (user_id) REFERENCES users(id) ON DELETE CASCADE</text>
</g>
<!-- public.tags -->
<g id="node7" class="node">
<title>public.tags</title>
<polygon fill="#efefef" stroke="none" points="4945,-120.2 4945,-155.8 5161.97,-155.8 5161.97,-120.2 4945,-120.2"/>
<polygon fill="none" stroke="black" points="4945,-120.2 4945,-155.8 5161.97,-155.8 5161.97,-120.2 4945,-120.2"/>
<text text-anchor="start" x="4952" y="-133.6" font-family="Arial Bold" font-size="18.00">public.tags</text>
<text text-anchor="start" x="5030.48" y="-133.6" font-family="Arial" font-size="14.00">    </text>
<text text-anchor="start" x="5061.6" y="-133.6" font-family="Arial" font-size="14.00" fill="#666666">[BASE TABLE]</text>
<polygon fill="none" stroke="black" points="4945,-89.4 4945,-120.2 5161.97,-120.2 5161.97,-89.4 4945,-89.4"/>
<text text-anchor="start" x="4952" y="-101.6" font-family="Arial" font-size="14.00">id </text>
<text text-anchor="start" x="4966.78" y="-101.6" font-family="Arial" font-size="14.00" fill="#666666">[integer]</text>
<polygon fill="none" stroke="black" points="4945,-58.6 4945,-89.4 5161.97,-89.4 5161.97,-58.6 4945,-58.6"/>
<text text-anchor="start" x="4952" y="-70.8" font-family="Arial" font-size="14.00">name </text>
<text text-anchor="start" x="4990.91" y="-70.8" font-family="Arial" font-size="14.00" fill="#666666">[varchar(50)]</text>
</g>
<!-- public.user_tags -->
<g id="node8" class="node">
<title>public.user_tags</title>
<polygon fill="#efefef" stroke="none" points="4925.5,-463 4925.5,-498.6 5181.47,-498.6 5181.47,-463 4925.5,-463"/>
<polygon fill="none" stroke="black" points="4925.5,-463 4925.5,-498.6 5181.47,-498.6 5181.47,-463 4925.5,-463"/>
<text text-anchor="start" x="4932.5" y="-476.4" font-family="Arial Bold" font-size="18.00">public.user_tags</text>
<text text-anchor="start" x="5049.98" y="-476.4" font-family="Arial" font-size="14.00">    </text>
<text text-anchor="start" x="5081.1" y="-476.4" font-family="Arial" font-size="14.00" fill="#666666">[BASE TABLE]</text>
<polygon fill="none" stroke="black" points="4925.5,-432.2 4925.5,-463 5181.47,-463 5181.47,-432.2 4925.5,-432.2"/>
<text text-anchor="start" x="4932.5" y="-444.4" font-family="Arial" font-size="14.00">user_id </text>
<text text-anchor="start" x="4982.31" y="-444.4" font-family="Arial" font-size="14.00" fill="#666666">[uuid]</text>
<polygon fill="none" stroke="black" points="4925.5,-401.4 4925.5,-432.2 5181.47,-432.2 5181.47,-401.4 4925.5,-401.4"/>
<text text-anchor="start" x="4932.5" y="-413.6" font-family="Arial" font-size="14.00">tag_id </text>
<text text-anchor="start" x="4974.54" y="-413.6" font-family="Arial" font-size="14.00" fill="#666666">[integer]</text>
</g>
<!-- public.user_tags&#45;&gt;public.users -->
<g id="edge6" class="edge">
<title>public.user_tags:user_id&#45;&gt;public.users:id</title>
<path fill="none" stroke="black" d="M4914.34,-446.91C4842.61,-436.33 4940.05,-306.14 4873.49,-250.4 4728.62,-129.09 3366.89,-120.2 3177.94,-120.2"/>
<polygon fill="black" stroke="black" points="4914.19,-446.9 4923.87,-452.07 4919.52,-447.26 4923.84,-447.55 4923.84,-447.55 4923.84,-447.55 4919.52,-447.26 4924.47,-443.09 4914.19,-446.9"/>
<text text-anchor="start" x="4931.5" y="-457.6" font-family="Arial" font-size="10.00">FOREIGN KEY (user_id) REFERENCES users(id) ON DELETE CASCADE</text>
</g>
<!-- public.user_tags&#45;&gt;public.tags -->
<g id="edge7" class="edge">
<title>public.user_tags:tag_id&#45;&gt;public.tags:id</title>
<path fill="none" stroke="black" d="M5053.79,-390.04C5059.26,-298.52 5137.48,-293.99 5161.97,-199 5172.43,-158.46 5204.84,-104.8 5162.97,-104.8"/>
<polygon fill="black" stroke="black" points="5053.79,-390.07 5049,-399.93 5053.63,-395.4 5053.51,-399.73 5053.51,-399.73 5053.51,-399.73 5053.63,-395.4 5057.99,-400.2 5053.79,-390.07"/>
<text text-anchor="start" x="5060.49" y="-410.4" font-family="Arial" font-size="10.00">FOREIGN KEY (tag_id) REFERENCES tags(id) ON DELETE CASCADE</text>
</g>
<!-- public.pictures -->
<g id="node9" class="node">
<title>public.pictures</title>
<polygon fill="#efefef" stroke="none" points="2009.6,-509.2 2009.6,-544.8 2259.37,-544.8 2259.37,-509.2 2009.6,-509.2"/>
<polygon fill="none" stroke="black" points="2009.6,-509.2 2009.6,-544.8 2259.37,-544.8 2259.37,-509.2 2009.6,-509.2"/>
<text text-anchor="start" x="2019.01" y="-522.6" font-family="Arial Bold" font-size="18.00">public.pictures</text>
<text text-anchor="start" x="2125.48" y="-522.6" font-family="Arial" font-size="14.00">    </text>
<text text-anchor="start" x="2156.59" y="-522.6" font-family="Arial" font-size="14.00" fill="#666666">[BASE TABLE]</text>
<polygon fill="none" stroke="black" points="2009.6,-478.4 2009.6,-509.2 2259.37,-509.2 2259.37,-478.4 2009.6,-478.4"/>
<text text-anchor="start" x="2016.6" y="-490.6" font-family="Arial" font-size="14.00">id </text>
<text text-anchor="start" x="2031.39" y="-490.6" font-family="Arial" font-size="14.00" fill="#666666">[integer]</text>
<polygon fill="none" stroke="black" points="2009.6,-447.6 2009.6,-478.4 2259.37,-478.4 2259.37,-447.6 2009.6,-447.6"/>
<text text-anchor="start" x="2016.6" y="-459.8" font-family="Arial" font-size="14.00">user_id </text>
<text text-anchor="start" x="2066.41" y="-459.8" font-family="Arial" font-size="14.00" fill="#666666">[uuid]</text>
<polygon fill="none" stroke="black" points="2009.6,-416.8 2009.6,-447.6 2259.37,-447.6 2259.37,-416.8 2009.6,-416.8"/>
<text text-anchor="start" x="2016.6" y="-429" font-family="Arial" font-size="14.00">url </text>
<text text-anchor="start" x="2036.05" y="-429" font-family="Arial" font-size="14.00" fill="#666666">[varchar(255)]</text>
<polygon fill="none" stroke="black" points="2009.6,-386 2009.6,-416.8 2259.37,-416.8 2259.37,-386 2009.6,-386"/>
<text text-anchor="start" x="2016.6" y="-398.2" font-family="Arial" font-size="14.00">is_profile_pic </text>
<text text-anchor="start" x="2102.2" y="-398.2" font-family="Arial" font-size="14.00" fill="#666666">[boolean]</text>
<polygon fill="none" stroke="black" points="2009.6,-355.2 2009.6,-386 2259.37,-386 2259.37,-355.2 2009.6,-355.2"/>
<text text-anchor="start" x="2016.6" y="-367.4" font-family="Arial" font-size="14.00">created_at </text>
<text text-anchor="start" x="2086.65" y="-367.4" font-family="Arial" font-size="14.00" fill="#666666">[timestamp with time zone]</text>
</g>
<!-- public.pictures&#45;&gt;public.users -->
<g id="edge8" class="edge">
<title>public.pictures:user_id&#45;&gt;public.users:id</title>
<path fill="none" stroke="black" d="M2270.33,-462.41C2349.25,-452.38 2244.78,-316.02 2311.49,-250.4 2406.2,-157.22 2762.17,-120.2 2895.03,-120.2"/>
<polygon fill="black" stroke="black" points="2270.69,-462.39 2260.44,-458.49 2265.36,-462.71 2261.04,-462.96 2261.04,-462.96 2261.04,-462.96 2265.36,-462.71 2260.97,-467.47 2270.69,-462.39"/>
<text text-anchor="start" x="2267.37" y="-473" font-family="Arial" font-size="10.00">FOREIGN KEY (user_id) REFERENCES users(id) ON DELETE CASCADE</text>
</g>
<!-- public.likes -->
<g id="node10" class="node">
<title>public.likes</title>
<polygon fill="#efefef" stroke="none" points="2363.6,-478.4 2363.6,-514 2613.37,-514 2613.37,-478.4 2363.6,-478.4"/>
<polygon fill="none" stroke="black" points="2363.6,-478.4 2363.6,-514 2613.37,-514 2613.37,-478.4 2363.6,-478.4"/>
<text text-anchor="start" x="2384.5" y="-491.8" font-family="Arial Bold" font-size="18.00">public.likes</text>
<text text-anchor="start" x="2467.98" y="-491.8" font-family="Arial" font-size="14.00">    </text>
<text text-anchor="start" x="2499.1" y="-491.8" font-family="Arial" font-size="14.00" fill="#666666">[BASE TABLE]</text>
<polygon fill="none" stroke="black" points="2363.6,-447.6 2363.6,-478.4 2613.37,-478.4 2613.37,-447.6 2363.6,-447.6"/>
<text text-anchor="start" x="2370.6" y="-459.8" font-family="Arial" font-size="14.00">liker_id </text>
<text text-anchor="start" x="2418.84" y="-459.8" font-family="Arial" font-size="14.00" fill="#666666">[uuid]</text>
<polygon fill="none" stroke="black" points="2363.6,-416.8 2363.6,-447.6 2613.37,-447.6 2613.37,-416.8 2363.6,-416.8"/>
<text text-anchor="start" x="2370.6" y="-429" font-family="Arial" font-size="14.00">liked_id </text>
<text text-anchor="start" x="2421.97" y="-429" font-family="Arial" font-size="14.00" fill="#666666">[uuid]</text>
<polygon fill="none" stroke="black" points="2363.6,-386 2363.6,-416.8 2613.37,-416.8 2613.37,-386 2363.6,-386"/>
<text text-anchor="start" x="2370.6" y="-398.2" font-family="Arial" font-size="14.00">created_at </text>
<text text-anchor="start" x="2440.65" y="-398.2" font-family="Arial" font-size="14.00" fill="#666666">[timestamp with time zone]</text>
</g>
<!-- public.likes&#45;&gt;public.users -->
<g id="edge9" class="edge">
<title>public.likes:liked_id&#45;&gt;public.users:id</title>
<path fill="none" stroke="black" d="M2624.69,-431.51C2690.98,-421.9 2616.05,-313.51 2665.49,-250.4 2737.81,-158.06 2777.74,-120.2 2895.03,-120.2"/>
<polygon fill="black" stroke="black" points="2624.68,-431.51 2614.41,-427.69 2619.36,-431.87 2615.04,-432.16 2615.04,-432.16 2615.04,-432.16 2619.36,-431.87 2615,-436.67 2624.68,-431.51"/>
<text text-anchor="start" x="2272.3" y="-442.2" font-family="Arial" font-size="10.00">FOREIGN KEY (liked_id) REFERENCES users(id) ON DELETE CASCADE</text>
</g>
<!-- public.likes&#45;&gt;public.users -->
<g id="edge10" class="edge">
<title>public.likes:liker_id&#45;&gt;public.users:id</title>
<path fill="none" stroke="black" d="M2624.38,-462.45C2704.02,-453.06 2609.2,-325.15 2665.49,-250.4 2736.04,-156.7 2777.74,-120.2 2895.03,-120.2"/>
<polygon fill="black" stroke="black" points="2624.69,-462.43 2614.46,-458.49 2619.36,-462.73 2615.04,-462.96 2615.04,-462.96 2615.04,-462.96 2619.36,-462.73 2614.95,-467.47 2624.69,-462.43"/>
<text text-anchor="start" x="2447.95" y="-447" font-family="Arial" font-size="10.00">FOREIGN KEY (liker_id) REFERENCES users(id) ON DELETE CASCADE</text>
</g>
<!-- public.connections -->
<g id="node11" class="node">
<title>public.connections</title>
<polygon fill="#efefef" stroke="none" points="2717.51,-463 2717.51,-498.6 2991.46,-498.6 2991.46,-463 2717.51,-463"/>
<polygon fill="none" stroke="black" points="2717.51,-463 2717.51,-498.6 2991.46,-498.6 2991.46,-463 2717.51,-463"/>
<text text-anchor="start" x="2724.51" y="-476.4" font-family="Arial Bold" font-size="18.00">public.connections</text>
<text text-anchor="start" x="2859.97" y="-476.4" font-family="Arial" font-size="14.00">    </text>
<text text-anchor="start" x="2891.09" y="-476.4" font-family="Arial" font-size="14.00" fill="#666666">[BASE TABLE]</text>
<polygon fill="none" stroke="black" points="2717.51,-432.2 2717.51,-463 2991.46,-463 2991.46,-432.2 2717.51,-432.2"/>
<text text-anchor="start" x="2724.51" y="-444.4" font-family="Arial" font-size="14.00">user1_id </text>
<text text-anchor="start" x="2782.1" y="-444.4" font-family="Arial" font-size="14.00" fill="#666666">[uuid]</text>
<polygon fill="none" stroke="black" points="2717.51,-401.4 2717.51,-432.2 2991.46,-432.2 2991.46,-401.4 2717.51,-401.4"/>
<text text-anchor="start" x="2724.51" y="-413.6" font-family="Arial" font-size="14.00">user2_id </text>
<text text-anchor="start" x="2782.1" y="-413.6" font-family="Arial" font-size="14.00" fill="#666666">[uuid]</text>
</g>
<!-- public.connections&#45;&gt;public.users -->
<g id="edge11" class="edge">
<title>public.connections:user1_id&#45;&gt;public.users:id</title>
<path fill="none" stroke="black" d="M3002.61,-447.02C3125.03,-431.81 2746.92,-120.2 2895.03,-120.2"/>
<polygon fill="black" stroke="black" points="3002.78,-447.01 2992.54,-443.09 2997.46,-447.32 2993.13,-447.56 2993.13,-447.56 2993.13,-447.56 2997.46,-447.32 2993.05,-452.07 3002.78,-447.01"/>
<text text-anchor="start" x="2999.46" y="-457.6" font-family="Arial" font-size="10.00">FOREIGN KEY (user1_id) REFERENCES users(id) ON DELETE CASCADE</text>
</g>
<!-- public.connections&#45;&gt;public.users -->
<g id="edge12" class="edge">
<title>public.connections:user2_id&#45;&gt;public.users:id</title>
<path fill="none" stroke="black" d="M3002.44,-413.78C3011.94,-404.97 2997.81,-378.6 2991.46,-358.2 2968.69,-284.96 2918.57,-287.72 2896.03,-214.4 2883.73,-174.38 2853.17,-120.2 2895.03,-120.2"/>
<polygon fill="black" stroke="black" points="3002.35,-413.81 2991.48,-412.4 2997.25,-415.35 2993.1,-416.61 2993.1,-416.61 2993.1,-416.61 2997.25,-415.35 2994.09,-421.01 3002.35,-413.81"/>
<text text-anchor="start" x="2999.46" y="-426.8" font-family="Arial" font-size="10.00">FOREIGN KEY (user2_id) REFERENCES users(id) ON DELETE CASCADE</text>
</g>
<!-- public.views -->
<g id="node12" class="node">
<title>public.views</title>
<polygon fill="#efefef" stroke="none" points="3095.56,-478.4 3095.56,-514 3341.41,-514 3341.41,-478.4 3095.56,-478.4"/>
<polygon fill="none" stroke="black" points="3095.56,-478.4 3095.56,-514 3341.41,-514 3341.41,-478.4 3095.56,-478.4"/>
<text text-anchor="start" x="3110.5" y="-491.8" font-family="Arial Bold" font-size="18.00">public.views</text>
<text text-anchor="start" x="3201.98" y="-491.8" font-family="Arial" font-size="14.00">    </text>
<text text-anchor="start" x="3233.1" y="-491.8" font-family="Arial" font-size="14.00" fill="#666666">[BASE TABLE]</text>
<polygon fill="none" stroke="black" points="3095.56,-447.6 3095.56,-478.4 3341.41,-478.4 3341.41,-447.6 3095.56,-447.6"/>
<text text-anchor="start" x="3102.56" y="-459.8" font-family="Arial" font-size="14.00">viewer_id </text>
<text text-anchor="start" x="3165.59" y="-459.8" font-family="Arial" font-size="14.00" fill="#666666">[uuid]</text>
<polygon fill="none" stroke="black" points="3095.56,-416.8 3095.56,-447.6 3341.41,-447.6 3341.41,-416.8 3095.56,-416.8"/>
<text text-anchor="start" x="3102.56" y="-429" font-family="Arial" font-size="14.00">viewed_id </text>
<text text-anchor="start" x="3168.71" y="-429" font-family="Arial" font-size="14.00" fill="#666666">[uuid]</text>
<polygon fill="none" stroke="black" points="3095.56,-386 3095.56,-416.8 3341.41,-416.8 3341.41,-386 3095.56,-386"/>
<text text-anchor="start" x="3102.56" y="-398.2" font-family="Arial" font-size="14.00">view_time </text>
<text text-anchor="start" x="3168.69" y="-398.2" font-family="Arial" font-size="14.00" fill="#666666">[timestamp with time zone]</text>
</g>
<!-- public.views&#45;&gt;public.users -->
<g id="edge13" class="edge">
<title>public.views:viewed_id&#45;&gt;public.users:id</title>
<path fill="none" stroke="black" d="M3084.26,-431.56C2970.2,-415.96 3317.69,-120.2 3177.94,-120.2"/>
<polygon fill="black" stroke="black" points="3084.24,-431.56 3093.95,-436.67 3089.57,-431.89 3093.89,-432.16 3093.89,-432.16 3093.89,-432.16 3089.57,-431.89 3094.5,-427.69 3084.24,-431.56"/>
<text text-anchor="start" x="3101.56" y="-442.2" font-family="Arial" font-size="10.00">FOREIGN KEY (viewed_id) REFERENCES users(id) ON DELETE CASCADE</text>
</g>
<!-- public.views&#45;&gt;public.users -->
<g id="edge14" class="edge">
<title>public.views:viewer_id&#45;&gt;public.users:id</title>
<path fill="none" stroke="black" d="M3084.62,-462.01C3046.54,-453.39 3081.52,-390.44 3095.56,-342.8 3114.66,-277.99 3157.76,-279.18 3176.94,-214.4 3188.82,-174.25 3219.81,-120.2 3177.94,-120.2"/>
<polygon fill="black" stroke="black" points="3084.28,-461.97 3093.78,-467.44 3089.58,-462.5 3093.89,-462.93 3093.89,-462.93 3093.89,-462.93 3089.58,-462.5 3094.67,-458.49 3084.28,-461.97"/>
<text text-anchor="start" x="3101.56" y="-473" font-family="Arial" font-size="10.00">FOREIGN KEY (viewer_id) REFERENCES users(id) ON DELETE CASCADE</text>
</g>
<!-- public.blocks -->
<g id="node13" class="node">
<title>public.blocks</title>
<polygon fill="#efefef" stroke="none" points="3446,-463 3446,-498.6 3680.97,-498.6 3680.97,-463 3446,-463"/>
<polygon fill="none" stroke="black" points="3446,-463 3446,-498.6 3680.97,-498.6 3680.97,-463 3446,-463"/>
<text text-anchor="start" x="3453" y="-476.4" font-family="Arial Bold" font-size="18.00">public.blocks</text>
<text text-anchor="start" x="3549.48" y="-476.4" font-family="Arial" font-size="14.00">    </text>
<text text-anchor="start" x="3580.6" y="-476.4" font-family="Arial" font-size="14.00" fill="#666666">[BASE TABLE]</text>
<polygon fill="none" stroke="black" points="3446,-432.2 3446,-463 3680.97,-463 3680.97,-432.2 3446,-432.2"/>
<text text-anchor="start" x="3453" y="-444.4" font-family="Arial" font-size="14.00">blocker_id </text>
<text text-anchor="start" x="3520.7" y="-444.4" font-family="Arial" font-size="14.00" fill="#666666">[uuid]</text>
<polygon fill="none" stroke="black" points="3446,-401.4 3446,-432.2 3680.97,-432.2 3680.97,-401.4 3446,-401.4"/>
<text text-anchor="start" x="3453" y="-413.6" font-family="Arial" font-size="14.00">blocked_id </text>
<text text-anchor="start" x="3523.83" y="-413.6" font-family="Arial" font-size="14.00" fill="#666666">[uuid]</text>
</g>
<!-- public.blocks&#45;&gt;public.users -->
<g id="edge15" class="edge">
<title>public.blocks:blocked_id&#45;&gt;public.users:id</title>
<path fill="none" stroke="black" d="M3434.71,-416.06C3374.48,-406.61 3438.86,-308.4 3393.49,-250.4 3324.53,-162.25 3289.86,-120.2 3177.94,-120.2"/>
<polygon fill="black" stroke="black" points="3434.69,-416.06 3444.34,-421.26 3440.01,-416.44 3444.33,-416.75 3444.33,-416.75 3444.33,-416.75 3440.01,-416.44 3444.99,-412.29 3434.69,-416.06"/>
<text text-anchor="start" x="3179.77" y="-400.8" font-family="Arial" font-size="10.00">FOREIGN KEY (blocked_id) REFERENCES users(id) ON DELETE CASCADE</text>
</g>
<!-- public.blocks&#45;&gt;public.users -->
<g id="edge16" class="edge">
<title>public.blocks:blocker_id&#45;&gt;public.users:id</title>
<path fill="none" stroke="black" d="M3434.76,-446.98C3361.82,-437.46 3445.47,-320 3393.49,-250.4 3326.52,-160.73 3289.86,-120.2 3177.94,-120.2"/>
<polygon fill="black" stroke="black" points="3434.68,-446.98 3444.39,-452.07 3440.01,-447.3 3444.33,-447.56 3444.33,-447.56 3444.33,-447.56 3440.01,-447.3 3444.93,-443.09 3434.68,-446.98"/>
<text text-anchor="start" x="3181.44" y="-431.6" font-family="Arial" font-size="10.00">FOREIGN KEY (blocker_id) REFERENCES users(id) ON DELETE CASCADE</text>
</g>
<!-- public.notifications -->
<g id="node14" class="node">
<title>public.notifications</title>
<polygon fill="#efefef" stroke="none" points="3785.5,-524.6 3785.5,-560.2 4063.47,-560.2 4063.47,-524.6 3785.5,-524.6"/>
<polygon fill="none" stroke="black" points="3785.5,-524.6 3785.5,-560.2 4063.47,-560.2 4063.47,-524.6 3785.5,-524.6"/>
<text text-anchor="start" x="3792.5" y="-538" font-family="Arial Bold" font-size="18.00">public.notifications</text>
<text text-anchor="start" x="3931.98" y="-538" font-family="Arial" font-size="14.00">    </text>
<text text-anchor="start" x="3963.1" y="-538" font-family="Arial" font-size="14.00" fill="#666666">[BASE TABLE]</text>
<polygon fill="none" stroke="black" points="3785.5,-493.8 3785.5,-524.6 4063.47,-524.6 4063.47,-493.8 3785.5,-493.8"/>
<text text-anchor="start" x="3792.5" y="-506" font-family="Arial" font-size="14.00">id </text>
<text text-anchor="start" x="3807.29" y="-506" font-family="Arial" font-size="14.00" fill="#666666">[bigint]</text>
<polygon fill="none" stroke="black" points="3785.5,-463 3785.5,-493.8 4063.47,-493.8 4063.47,-463 3785.5,-463"/>
<text text-anchor="start" x="3792.5" y="-475.2" font-family="Arial" font-size="14.00">recipient_id </text>
<text text-anchor="start" x="3867.99" y="-475.2" font-family="Arial" font-size="14.00" fill="#666666">[uuid]</text>
<polygon fill="none" stroke="black" points="3785.5,-432.2 3785.5,-463 4063.47,-463 4063.47,-432.2 3785.5,-432.2"/>
<text text-anchor="start" x="3792.5" y="-444.4" font-family="Arial" font-size="14.00">sender_id </text>
<text text-anchor="start" x="3857.88" y="-444.4" font-family="Arial" font-size="14.00" fill="#666666">[uuid]</text>
<polygon fill="none" stroke="black" points="3785.5,-401.4 3785.5,-432.2 4063.47,-432.2 4063.47,-401.4 3785.5,-401.4"/>
<text text-anchor="start" x="3792.5" y="-413.6" font-family="Arial" font-size="14.00">type </text>
<text text-anchor="start" x="3822.86" y="-413.6" font-family="Arial" font-size="14.00" fill="#666666">[notification_type_enum]</text>
<polygon fill="none" stroke="black" points="3785.5,-370.6 3785.5,-401.4 4063.47,-401.4 4063.47,-370.6 3785.5,-370.6"/>
<text text-anchor="start" x="3792.5" y="-382.8" font-family="Arial" font-size="14.00">is_read </text>
<text text-anchor="start" x="3842.31" y="-382.8" font-family="Arial" font-size="14.00" fill="#666666">[boolean]</text>
<polygon fill="none" stroke="black" points="3785.5,-339.8 3785.5,-370.6 4063.47,-370.6 4063.47,-339.8 3785.5,-339.8"/>
<text text-anchor="start" x="3792.5" y="-352" font-family="Arial" font-size="14.00">created_at </text>
<text text-anchor="start" x="3862.55" y="-352" font-family="Arial" font-size="14.00" fill="#666666">[timestamp with time zone]</text>
</g>
<!-- public.notifications&#45;&gt;public.users -->
<g id="edge17" class="edge">
<title>public.notifications:recipient_id&#45;&gt;public.users:id</title>
<path fill="none" stroke="black" d="M3774.13,-477.81C3689.5,-467.36 3803.9,-321.53 3733.49,-250.4 3644.28,-160.29 3304.74,-120.2 3177.94,-120.2"/>
<polygon fill="black" stroke="black" points="3774.19,-477.81 3783.91,-482.87 3779.51,-478.11 3783.84,-478.36 3783.84,-478.36 3783.84,-478.36 3779.51,-478.11 3784.43,-473.89 3774.19,-477.81"/>
<text text-anchor="start" x="3791.5" y="-488.4" font-family="Arial" font-size="10.00">FOREIGN KEY (recipient_id) REFERENCES users(id) ON DELETE CASCADE</text>
</g>
<!-- public.notifications&#45;&gt;public.users -->
<g id="edge18" class="edge">
<title>public.notifications:sender_id&#45;&gt;public.users:id</title>
<path fill="none" stroke="black" d="M3774.32,-446.94C3702.24,-436.73 3795.58,-311.08 3733.49,-250.4 3642.8,-161.77 3304.74,-120.2 3177.94,-120.2"/>
<polygon fill="black" stroke="black" points="3774.19,-446.93 3783.88,-452.07 3779.51,-447.28 3783.84,-447.56 3783.84,-447.56 3783.84,-447.56 3779.51,-447.28 3784.46,-443.09 3774.19,-446.93"/>
<text text-anchor="start" x="3791.5" y="-457.6" font-family="Arial" font-size="10.00">FOREIGN KEY (sender_id) REFERENCES users(id) ON DELETE SET NULL</text>
</g>
<!-- public.messages -->
<g id="node15" class="node">
<title>public.messages</title>
<polygon fill="#efefef" stroke="none" points="4167.5,-524.6 4167.5,-560.2 4423.47,-560.2 4423.47,-524.6 4167.5,-524.6"/>
<polygon fill="none" stroke="black" points="4167.5,-524.6 4167.5,-560.2 4423.47,-560.2 4423.47,-524.6 4167.5,-524.6"/>
<text text-anchor="start" x="4174.5" y="-538" font-family="Arial Bold" font-size="18.00">public.messages</text>
<text text-anchor="start" x="4291.98" y="-538" font-family="Arial" font-size="14.00">    </text>
<text text-anchor="start" x="4323.1" y="-538" font-family="Arial" font-size="14.00" fill="#666666">[BASE TABLE]</text>
<polygon fill="none" stroke="black" points="4167.5,-493.8 4167.5,-524.6 4423.47,-524.6 4423.47,-493.8 4167.5,-493.8"/>
<text text-anchor="start" x="4174.5" y="-506" font-family="Arial" font-size="14.00">id </text>
<text text-anchor="start" x="4189.29" y="-506" font-family="Arial" font-size="14.00" fill="#666666">[bigint]</text>
<polygon fill="none" stroke="black" points="4167.5,-463 4167.5,-493.8 4423.47,-493.8 4423.47,-463 4167.5,-463"/>
<text text-anchor="start" x="4174.5" y="-475.2" font-family="Arial" font-size="14.00">sender_id </text>
<text text-anchor="start" x="4239.88" y="-475.2" font-family="Arial" font-size="14.00" fill="#666666">[uuid]</text>
<polygon fill="none" stroke="black" points="4167.5,-432.2 4167.5,-463 4423.47,-463 4423.47,-432.2 4167.5,-432.2"/>
<text text-anchor="start" x="4174.5" y="-444.4" font-family="Arial" font-size="14.00">recipient_id </text>
<text text-anchor="start" x="4249.99" y="-444.4" font-family="Arial" font-size="14.00" fill="#666666">[uuid]</text>
<polygon fill="none" stroke="black" points="4167.5,-401.4 4167.5,-432.2 4423.47,-432.2 4423.47,-401.4 4167.5,-401.4"/>
<text text-anchor="start" x="4174.5" y="-413.6" font-family="Arial" font-size="14.00">content </text>
<text text-anchor="start" x="4224.32" y="-413.6" font-family="Arial" font-size="14.00" fill="#666666">[text]</text>
<polygon fill="none" stroke="black" points="4167.5,-370.6 4167.5,-401.4 4423.47,-401.4 4423.47,-370.6 4167.5,-370.6"/>
<text text-anchor="start" x="4174.5" y="-382.8" font-family="Arial" font-size="14.00">sent_at </text>
<text text-anchor="start" x="4224.32" y="-382.8" font-family="Arial" font-size="14.00" fill="#666666">[timestamp with time zone]</text>
<polygon fill="none" stroke="black" points="4167.5,-339.8 4167.5,-370.6 4423.47,-370.6 4423.47,-339.8 4167.5,-339.8"/>
<text text-anchor="start" x="4174.5" y="-352" font-family="Arial" font-size="14.00">is_read </text>
<text text-anchor="start" x="4224.31" y="-352" font-family="Arial" font-size="14.00" fill="#666666">[boolean]</text>
</g>
<!-- public.messages&#45;&gt;public.users -->
<g id="edge19" class="edge">
<title>public.messages:recipient_id&#45;&gt;public.users:id</title>
<path fill="none" stroke="black" d="M4156.34,-446.92C4084.47,-436.49 4180.31,-308.15 4115.49,-250.4 4036.96,-180.44 3283.11,-120.2 3177.94,-120.2"/>
<polygon fill="black" stroke="black" points="4156.19,-446.91 4165.87,-452.07 4161.51,-447.27 4165.84,-447.56 4165.84,-447.56 4165.84,-447.56 4161.51,-447.27 4166.47,-443.09 4156.19,-446.91"/>
<text text-anchor="start" x="4173.5" y="-457.6" font-family="Arial" font-size="10.00">FOREIGN KEY (recipient_id) REFERENCES users(id) ON DELETE CASCADE</text>
</g>
<!-- public.messages&#45;&gt;public.users -->
<g id="edge20" class="edge">
<title>public.messages:sender_id&#45;&gt;public.users:id</title>
<path fill="none" stroke="black" d="M4156.14,-477.79C4071.73,-467.12 4189.1,-318.21 4115.49,-250.4 4038.13,-179.15 3283.11,-120.2 3177.94,-120.2"/>
<polygon fill="black" stroke="black" points="4156.19,-477.8 4165.91,-482.87 4161.51,-478.11 4165.84,-478.36 4165.84,-478.36 4165.84,-478.36 4161.51,-478.11 4166.43,-473.89 4156.19,-477.8"/>
<text text-anchor="start" x="4173.5" y="-488.4" font-family="Arial" font-size="10.00">FOREIGN KEY (sender_id) REFERENCES users(id) ON DELETE CASCADE</text>
</g>
<!-- public.refresh_tokens -->
<g id="node16" class="node">
<title>public.refresh_tokens</title>
<polygon fill="#efefef" stroke="none" points="4527.52,-509.2 4527.52,-544.8 4821.46,-544.8 4821.46,-509.2 4527.52,-509.2"/>
<polygon fill="none" stroke="black" points="4527.52,-509.2 4527.52,-544.8 4821.46,-544.8 4821.46,-509.2 4527.52,-509.2"/>
<text text-anchor="start" x="4534.52" y="-522.6" font-family="Arial Bold" font-size="18.00">public.refresh_tokens</text>
<text text-anchor="start" x="4689.97" y="-522.6" font-family="Arial" font-size="14.00">    </text>
<text text-anchor="start" x="4721.08" y="-522.6" font-family="Arial" font-size="14.00" fill="#666666">[BASE TABLE]</text>
<polygon fill="none" stroke="black" points="4527.52,-478.4 4527.52,-509.2 4821.46,-509.2 4821.46,-478.4 4527.52,-478.4"/>
<text text-anchor="start" x="4534.52" y="-490.6" font-family="Arial" font-size="14.00">token_hash </text>
<text text-anchor="start" x="4610.8" y="-490.6" font-family="Arial" font-size="14.00" fill="#666666">[varchar(255)]</text>
<polygon fill="none" stroke="black" points="4527.52,-447.6 4527.52,-478.4 4821.46,-478.4 4821.46,-447.6 4527.52,-447.6"/>
<text text-anchor="start" x="4534.52" y="-459.8" font-family="Arial" font-size="14.00">user_id </text>
<text text-anchor="start" x="4584.32" y="-459.8" font-family="Arial" font-size="14.00" fill="#666666">[uuid]</text>
<polygon fill="none" stroke="black" points="4527.52,-416.8 4527.52,-447.6 4821.46,-447.6 4821.46,-416.8 4527.52,-416.8"/>
<text text-anchor="start" x="4534.52" y="-429" font-family="Arial" font-size="14.00">expires_at </text>
<text text-anchor="start" x="4603" y="-429" font-family="Arial" font-size="14.00" fill="#666666">[timestamp with time zone]</text>
<polygon fill="none" stroke="black" points="4527.52,-386 4527.52,-416.8 4821.46,-416.8 4821.46,-386 4527.52,-386"/>
<text text-anchor="start" x="4534.52" y="-398.2" font-family="Arial" font-size="14.00">created_at </text>
<text text-anchor="start" x="4604.56" y="-398.2" font-family="Arial" font-size="14.00" fill="#666666">[timestamp with time zone]</text>
<polygon fill="none" stroke="black" points="4527.52,-355.2 4527.52,-386 4821.46,-386 4821.46,-355.2 4527.52,-355.2"/>
<text text-anchor="start" x="4534.52" y="-367.4" font-family="Arial" font-size="14.00">revoked </text>
<text text-anchor="start" x="4588.21" y="-367.4" font-family="Arial" font-size="14.00" fill="#666666">[boolean]</text>
</g>
<!-- public.refresh_tokens&#45;&gt;public.users -->
<g id="edge21" class="edge">
<title>public.refresh_tokens:user_id&#45;&gt;public.users:id</title>
<path fill="none" stroke="black" d="M4516.57,-462.4C4437.94,-452.08 4545.98,-311.93 4475.49,-250.4 4366.32,-155.12 3322.83,-120.2 3177.94,-120.2"/>
<polygon fill="black" stroke="black" points="4516.2,-462.38 4525.91,-467.47 4521.52,-462.7 4525.85,-462.96 4525.85,-462.96 4525.85,-462.96 4521.52,-462.7 4526.45,-458.49 4516.2,-462.38"/>
<text text-anchor="start" x="4272.55" y="-447" font-family="Arial" font-size="10.00">FOREIGN KEY (user_id) REFERENCES users(id) ON DELETE CASCADE</text>
</g>
</g>
</svg>
