<?xml version="1.0" encoding="UTF-8" standalone="no"?>
<!DOCTYPE svg PUBLIC "-//W3C//DTD SVG 1.1//EN"
 "http://www.w3.org/Graphics/SVG/1.1/DTD/svg11.dtd">
<!-- Generated by graphviz version 12.1.2 (20240928.0832)
 -->
<!-- Title: matcha Pages: 1 -->
<svg width="5000pt" height="658pt"
 viewBox="0.00 0.00 5000.34 657.60" xmlns="http://www.w3.org/2000/svg" xmlns:xlink="http://www.w3.org/1999/xlink">
<g id="graph0" class="graph" transform="scale(1 1) rotate(0) translate(4 653.6)">
<title>matcha</title>
<polygon fill="white" stroke="none" points="-4,4 -4,-653.6 4996.34,-653.6 4996.34,4 -4,4"/>
<!-- public.users -->
<g id="node1" class="node">
<title>public.users</title>
<polygon fill="#efefef" stroke="none" points="2714.03,-135.6 2714.03,-171.2 2994.94,-171.2 2994.94,-135.6 2714.03,-135.6"/>
<polygon fill="none" stroke="black" points="2714.03,-135.6 2714.03,-171.2 2994.94,-171.2 2994.94,-135.6 2714.03,-135.6"/>
<text text-anchor="start" x="2749" y="-149" font-family="Arial Bold" font-size="18.00">public.users</text>
<text text-anchor="start" x="2835.48" y="-149" font-family="Arial" font-size="14.00">    </text>
<text text-anchor="start" x="2866.6" y="-149" font-family="Arial" font-size="14.00" fill="#666666">[BASE TABLE]</text>
<polygon fill="none" stroke="black" points="2714.03,-104.8 2714.03,-135.6 2994.94,-135.6 2994.94,-104.8 2714.03,-104.8"/>
<text text-anchor="start" x="2721.03" y="-117" font-family="Arial" font-size="14.00">id </text>
<text text-anchor="start" x="2735.82" y="-117" font-family="Arial" font-size="14.00" fill="#666666">[uuid]</text>
<polygon fill="none" stroke="black" points="2714.03,-74 2714.03,-104.8 2994.94,-104.8 2994.94,-74 2714.03,-74"/>
<text text-anchor="start" x="2721.03" y="-86.2" font-family="Arial" font-size="14.00">created_at </text>
<text text-anchor="start" x="2791.08" y="-86.2" font-family="Arial" font-size="14.00" fill="#666666">[timestamp with time zone]</text>
<polygon fill="none" stroke="black" points="2714.03,-43.2 2714.03,-74 2994.94,-74 2994.94,-43.2 2714.03,-43.2"/>
<text text-anchor="start" x="2721.03" y="-55.4" font-family="Arial" font-size="14.00">last_connection </text>
<text text-anchor="start" x="2822.21" y="-55.4" font-family="Arial" font-size="14.00" fill="#666666">[timestamp with time zone]</text>
</g>
<!-- public.user_data -->
<g id="node2" class="node">
<title>public.user_data</title>
<polygon fill="#efefef" stroke="none" points="90.01,-493.8 90.01,-529.4 346.96,-529.4 346.96,-493.8 90.01,-493.8"/>
<polygon fill="none" stroke="black" points="90.01,-493.8 90.01,-529.4 346.96,-529.4 346.96,-493.8 90.01,-493.8"/>
<text text-anchor="start" x="97.01" y="-507.2" font-family="Arial Bold" font-size="18.00">public.user_data</text>
<text text-anchor="start" x="215.47" y="-507.2" font-family="Arial" font-size="14.00">    </text>
<text text-anchor="start" x="246.59" y="-507.2" font-family="Arial" font-size="14.00" fill="#666666">[BASE TABLE]</text>
<polygon fill="none" stroke="black" points="90.01,-463 90.01,-493.8 346.96,-493.8 346.96,-463 90.01,-463"/>
<text text-anchor="start" x="97.01" y="-475.2" font-family="Arial" font-size="14.00">user_id </text>
<text text-anchor="start" x="146.82" y="-475.2" font-family="Arial" font-size="14.00" fill="#666666">[uuid]</text>
<polygon fill="none" stroke="black" points="90.01,-432.2 90.01,-463 346.96,-463 346.96,-432.2 90.01,-432.2"/>
<text text-anchor="start" x="97.01" y="-444.4" font-family="Arial" font-size="14.00">latitude </text>
<text text-anchor="start" x="146.05" y="-444.4" font-family="Arial" font-size="14.00" fill="#666666">[numeric(10,8)]</text>
<polygon fill="none" stroke="black" points="90.01,-401.4 90.01,-432.2 346.96,-432.2 346.96,-401.4 90.01,-401.4"/>
<text text-anchor="start" x="97.01" y="-413.6" font-family="Arial" font-size="14.00">longitude </text>
<text text-anchor="start" x="157.73" y="-413.6" font-family="Arial" font-size="14.00" fill="#666666">[numeric(11,8)]</text>
<polygon fill="none" stroke="black" points="90.01,-370.6 90.01,-401.4 346.96,-401.4 346.96,-370.6 90.01,-370.6"/>
<text text-anchor="start" x="97.01" y="-382.8" font-family="Arial" font-size="14.00">internal_score </text>
<text text-anchor="start" x="188.84" y="-382.8" font-family="Arial" font-size="14.00" fill="#666666">[integer]</text>
</g>
<!-- public.user_data&#45;&gt;public.users -->
<g id="edge1" class="edge">
<title>public.user_data:user_id&#45;&gt;public.users:id</title>
<path fill="none" stroke="black" d="M358.32,-477.78C442.61,-466.9 323.05,-315.09 399.49,-250.4 497.75,-167.23 2584.3,-120.2 2713.03,-120.2"/>
<polygon fill="black" stroke="black" points="358.28,-477.78 348.03,-473.89 352.95,-478.1 348.63,-478.36 348.63,-478.36 348.63,-478.36 352.95,-478.1 348.56,-482.87 358.28,-477.78"/>
<text text-anchor="start" x="7" y="-488.4" font-family="Arial" font-size="10.00">FOREIGN KEY (user_id) REFERENCES users(id) ON DELETE CASCADE</text>
</g>
<!-- public.auths -->
<g id="node3" class="node">
<title>public.auths</title>
<polygon fill="#efefef" stroke="none" points="451.5,-493.8 451.5,-529.4 677.47,-529.4 677.47,-493.8 451.5,-493.8"/>
<polygon fill="none" stroke="black" points="451.5,-493.8 451.5,-529.4 677.47,-529.4 677.47,-493.8 451.5,-493.8"/>
<text text-anchor="start" x="458.5" y="-507.2" font-family="Arial Bold" font-size="18.00">public.auths</text>
<text text-anchor="start" x="545.98" y="-507.2" font-family="Arial" font-size="14.00">    </text>
<text text-anchor="start" x="577.1" y="-507.2" font-family="Arial" font-size="14.00" fill="#666666">[BASE TABLE]</text>
<polygon fill="none" stroke="black" points="451.5,-463 451.5,-493.8 677.47,-493.8 677.47,-463 451.5,-463"/>
<text text-anchor="start" x="458.5" y="-475.2" font-family="Arial" font-size="14.00">user_id </text>
<text text-anchor="start" x="508.3" y="-475.2" font-family="Arial" font-size="14.00" fill="#666666">[uuid]</text>
<polygon fill="none" stroke="black" points="451.5,-432.2 451.5,-463 677.47,-463 677.47,-432.2 451.5,-432.2"/>
<text text-anchor="start" x="458.5" y="-444.4" font-family="Arial" font-size="14.00">provider </text>
<text text-anchor="start" x="512.97" y="-444.4" font-family="Arial" font-size="14.00" fill="#666666">[auth_provider_enum]</text>
<polygon fill="none" stroke="black" points="451.5,-401.4 451.5,-432.2 677.47,-432.2 677.47,-401.4 451.5,-401.4"/>
<text text-anchor="start" x="458.5" y="-413.6" font-family="Arial" font-size="14.00">provider_uid </text>
<text text-anchor="start" x="539.44" y="-413.6" font-family="Arial" font-size="14.00" fill="#666666">[varchar(255)]</text>
<polygon fill="none" stroke="black" points="451.5,-370.6 451.5,-401.4 677.47,-401.4 677.47,-370.6 451.5,-370.6"/>
<text text-anchor="start" x="458.5" y="-382.8" font-family="Arial" font-size="14.00">password_hash </text>
<text text-anchor="start" x="560.45" y="-382.8" font-family="Arial" font-size="14.00" fill="#666666">[varchar(255)]</text>
</g>
<!-- public.auths&#45;&gt;public.users -->
<g id="edge2" class="edge">
<title>public.auths:user_id&#45;&gt;public.users:id</title>
<path fill="none" stroke="black" d="M688.83,-477.78C773.07,-466.93 653.46,-315.5 729.49,-250.4 813.37,-178.57 2602.6,-120.2 2713.03,-120.2"/>
<polygon fill="black" stroke="black" points="688.79,-477.79 678.54,-473.89 683.46,-478.1 679.14,-478.36 679.14,-478.36 679.14,-478.36 683.46,-478.1 679.08,-482.87 688.79,-477.79"/>
<text text-anchor="start" x="685.47" y="-488.4" font-family="Arial" font-size="10.00">FOREIGN KEY (user_id) REFERENCES users(id) ON DELETE CASCADE</text>
</g>
<!-- public.verification_tokens -->
<g id="node4" class="node">
<title>public.verification_tokens</title>
<polygon fill="#efefef" stroke="none" points="782.02,-478.4 782.02,-514 1108.95,-514 1108.95,-478.4 782.02,-478.4"/>
<polygon fill="none" stroke="black" points="782.02,-478.4 782.02,-514 1108.95,-514 1108.95,-478.4 782.02,-478.4"/>
<text text-anchor="start" x="789.02" y="-491.8" font-family="Arial Bold" font-size="18.00">public.verification_tokens</text>
<text text-anchor="start" x="977.46" y="-491.8" font-family="Arial" font-size="14.00">    </text>
<text text-anchor="start" x="1008.58" y="-491.8" font-family="Arial" font-size="14.00" fill="#666666">[BASE TABLE]</text>
<polygon fill="none" stroke="black" points="782.02,-447.6 782.02,-478.4 1108.95,-478.4 1108.95,-447.6 782.02,-447.6"/>
<text text-anchor="start" x="789.02" y="-459.8" font-family="Arial" font-size="14.00">token </text>
<text text-anchor="start" x="827.16" y="-459.8" font-family="Arial" font-size="14.00" fill="#666666">[varchar(64)]</text>
<polygon fill="none" stroke="black" points="782.02,-416.8 782.02,-447.6 1108.95,-447.6 1108.95,-416.8 782.02,-416.8"/>
<text text-anchor="start" x="789.02" y="-429" font-family="Arial" font-size="14.00">user_id </text>
<text text-anchor="start" x="838.82" y="-429" font-family="Arial" font-size="14.00" fill="#666666">[uuid]</text>
<polygon fill="none" stroke="black" points="782.02,-386 782.02,-416.8 1108.95,-416.8 1108.95,-386 782.02,-386"/>
<text text-anchor="start" x="789.02" y="-398.2" font-family="Arial" font-size="14.00">expires_at </text>
<text text-anchor="start" x="857.5" y="-398.2" font-family="Arial" font-size="14.00" fill="#666666">[timestamp with time zone]</text>
</g>
<!-- public.verification_tokens&#45;&gt;public.users -->
<g id="edge3" class="edge">
<title>public.verification_tokens:user_id&#45;&gt;public.users:id</title>
<path fill="none" stroke="black" d="M1120.21,-431.44C1185.53,-420.82 1099.58,-301.4 1161.49,-250.4 1295,-140.39 2540.03,-120.2 2713.03,-120.2"/>
<polygon fill="black" stroke="black" points="1120.26,-431.44 1109.95,-427.69 1114.94,-431.83 1110.62,-432.15 1110.62,-432.15 1110.62,-432.15 1114.94,-431.83 1110.62,-436.66 1120.26,-431.44"/>
<text text-anchor="start" x="942.97" y="-416.2" font-family="Arial" font-size="10.00">FOREIGN KEY (user_id) REFERENCES users(id) ON DELETE CASCADE</text>
</g>
<!-- public.password_resets -->
<g id="node5" class="node">
<title>public.password_resets</title>
<polygon fill="#efefef" stroke="none" points="1213.51,-478.4 1213.51,-514 1519.46,-514 1519.46,-478.4 1213.51,-478.4"/>
<polygon fill="none" stroke="black" points="1213.51,-478.4 1213.51,-514 1519.46,-514 1519.46,-478.4 1213.51,-478.4"/>
<text text-anchor="start" x="1220.51" y="-491.8" font-family="Arial Bold" font-size="18.00">public.password_resets</text>
<text text-anchor="start" x="1387.97" y="-491.8" font-family="Arial" font-size="14.00">    </text>
<text text-anchor="start" x="1419.09" y="-491.8" font-family="Arial" font-size="14.00" fill="#666666">[BASE TABLE]</text>
<polygon fill="none" stroke="black" points="1213.51,-447.6 1213.51,-478.4 1519.46,-478.4 1519.46,-447.6 1213.51,-447.6"/>
<text text-anchor="start" x="1220.51" y="-459.8" font-family="Arial" font-size="14.00">user_id </text>
<text text-anchor="start" x="1270.31" y="-459.8" font-family="Arial" font-size="14.00" fill="#666666">[uuid]</text>
<polygon fill="none" stroke="black" points="1213.51,-416.8 1213.51,-447.6 1519.46,-447.6 1519.46,-416.8 1213.51,-416.8"/>
<text text-anchor="start" x="1220.51" y="-429" font-family="Arial" font-size="14.00">token </text>
<text text-anchor="start" x="1258.65" y="-429" font-family="Arial" font-size="14.00" fill="#666666">[varchar(64)]</text>
<polygon fill="none" stroke="black" points="1213.51,-386 1213.51,-416.8 1519.46,-416.8 1519.46,-386 1213.51,-386"/>
<text text-anchor="start" x="1220.51" y="-398.2" font-family="Arial" font-size="14.00">expires_at </text>
<text text-anchor="start" x="1288.99" y="-398.2" font-family="Arial" font-size="14.00" fill="#666666">[timestamp with time zone]</text>
</g>
<!-- public.password_resets&#45;&gt;public.users -->
<g id="edge4" class="edge">
<title>public.password_resets:user_id&#45;&gt;public.users:id</title>
<path fill="none" stroke="black" d="M1530.41,-462.4C1609.07,-452.12 1501.42,-312.41 1571.49,-250.4 1667.09,-165.8 2585.37,-120.2 2713.03,-120.2"/>
<polygon fill="black" stroke="black" points="1530.78,-462.38 1520.53,-458.49 1525.45,-462.7 1521.13,-462.96 1521.13,-462.96 1521.13,-462.96 1525.45,-462.7 1521.07,-467.47 1530.78,-462.38"/>
<text text-anchor="start" x="1527.46" y="-473" font-family="Arial" font-size="10.00">FOREIGN KEY (user_id) REFERENCES users(id) ON DELETE CASCADE</text>
</g>
<!-- public.user_profiles -->
<g id="node6" class="node">
<title>public.user_profiles</title>
<polygon fill="#efefef" stroke="none" points="1623.51,-570.8 1623.51,-606.4 1905.46,-606.4 1905.46,-570.8 1623.51,-570.8"/>
<polygon fill="none" stroke="black" points="1623.51,-570.8 1623.51,-606.4 1905.46,-606.4 1905.46,-570.8 1623.51,-570.8"/>
<text text-anchor="start" x="1630.51" y="-584.2" font-family="Arial Bold" font-size="18.00">public.user_profiles</text>
<text text-anchor="start" x="1773.97" y="-584.2" font-family="Arial" font-size="14.00">    </text>
<text text-anchor="start" x="1805.09" y="-584.2" font-family="Arial" font-size="14.00" fill="#666666">[BASE TABLE]</text>
<polygon fill="none" stroke="black" points="1623.51,-540 1623.51,-570.8 1905.46,-570.8 1905.46,-540 1623.51,-540"/>
<text text-anchor="start" x="1630.51" y="-552.2" font-family="Arial" font-size="14.00">user_id </text>
<text text-anchor="start" x="1680.32" y="-552.2" font-family="Arial" font-size="14.00" fill="#666666">[uuid]</text>
<polygon fill="none" stroke="black" points="1623.51,-509.2 1623.51,-540 1905.46,-540 1905.46,-509.2 1623.51,-509.2"/>
<text text-anchor="start" x="1630.51" y="-521.4" font-family="Arial" font-size="14.00">first_name </text>
<text text-anchor="start" x="1699.76" y="-521.4" font-family="Arial" font-size="14.00" fill="#666666">[varchar(50)]</text>
<polygon fill="none" stroke="black" points="1623.51,-478.4 1623.51,-509.2 1905.46,-509.2 1905.46,-478.4 1623.51,-478.4"/>
<text text-anchor="start" x="1630.51" y="-490.6" font-family="Arial" font-size="14.00">last_name </text>
<text text-anchor="start" x="1698.99" y="-490.6" font-family="Arial" font-size="14.00" fill="#666666">[varchar(50)]</text>
<polygon fill="none" stroke="black" points="1623.51,-447.6 1623.51,-478.4 1905.46,-478.4 1905.46,-447.6 1623.51,-447.6"/>
<text text-anchor="start" x="1630.51" y="-459.8" font-family="Arial" font-size="14.00">username </text>
<text text-anchor="start" x="1696.65" y="-459.8" font-family="Arial" font-size="14.00" fill="#666666">[varchar(50)]</text>
<polygon fill="none" stroke="black" points="1623.51,-416.8 1623.51,-447.6 1905.46,-447.6 1905.46,-416.8 1623.51,-416.8"/>
<text text-anchor="start" x="1630.51" y="-429" font-family="Arial" font-size="14.00">gender </text>
<text text-anchor="start" x="1677.99" y="-429" font-family="Arial" font-size="14.00" fill="#666666">[gender_enum]</text>
<polygon fill="none" stroke="black" points="1623.51,-386 1623.51,-416.8 1905.46,-416.8 1905.46,-386 1623.51,-386"/>
<text text-anchor="start" x="1630.51" y="-398.2" font-family="Arial" font-size="14.00">sexual_preference </text>
<text text-anchor="start" x="1749.58" y="-398.2" font-family="Arial" font-size="14.00" fill="#666666">[preference_enum]</text>
<polygon fill="none" stroke="black" points="1623.51,-355.2 1623.51,-386 1905.46,-386 1905.46,-355.2 1623.51,-355.2"/>
<text text-anchor="start" x="1630.51" y="-367.4" font-family="Arial" font-size="14.00">biography </text>
<text text-anchor="start" x="1695.89" y="-367.4" font-family="Arial" font-size="14.00" fill="#666666">[text]</text>
<polygon fill="none" stroke="black" points="1623.51,-324.4 1623.51,-355.2 1905.46,-355.2 1905.46,-324.4 1623.51,-324.4"/>
<text text-anchor="start" x="1630.51" y="-336.6" font-family="Arial" font-size="14.00">fame_rating </text>
<text text-anchor="start" x="1708.33" y="-336.6" font-family="Arial" font-size="14.00" fill="#666666">[integer]</text>
<polygon fill="none" stroke="black" points="1623.51,-293.6 1623.51,-324.4 1905.46,-324.4 1905.46,-293.6 1623.51,-293.6"/>
<text text-anchor="start" x="1630.51" y="-305.8" font-family="Arial" font-size="14.00">location_name </text>
<text text-anchor="start" x="1725.46" y="-305.8" font-family="Arial" font-size="14.00" fill="#666666">[varchar(255)]</text>
</g>
<!-- public.user_profiles&#45;&gt;public.users -->
<g id="edge5" class="edge">
<title>public.user_profiles:user_id&#45;&gt;public.users:id</title>
<path fill="none" stroke="black" d="M1916.57,-553.18C1968.29,-527.99 1911.66,-296.45 1957.49,-250.4 2077.66,-129.63 2542.66,-120.2 2713.03,-120.2"/>
<polygon fill="black" stroke="black" points="1916.56,-553.18 1905.82,-550.93 1911.35,-554.33 1907.12,-555.26 1907.12,-555.26 1907.12,-555.26 1911.35,-554.33 1907.76,-559.72 1916.56,-553.18"/>
<text text-anchor="start" x="1565.5" y="-565.4" font-family="Arial" font-size="10.00">FOREIGN KEY (user_id) REFERENCES users(id) ON DELETE CASCADE</text>
</g>
<!-- public.tags -->
<g id="node7" class="node">
<title>public.tags</title>
<polygon fill="#efefef" stroke="none" points="4547,-120.2 4547,-155.8 4763.97,-155.8 4763.97,-120.2 4547,-120.2"/>
<polygon fill="none" stroke="black" points="4547,-120.2 4547,-155.8 4763.97,-155.8 4763.97,-120.2 4547,-120.2"/>
<text text-anchor="start" x="4554" y="-133.6" font-family="Arial Bold" font-size="18.00">public.tags</text>
<text text-anchor="start" x="4632.48" y="-133.6" font-family="Arial" font-size="14.00">    </text>
<text text-anchor="start" x="4663.6" y="-133.6" font-family="Arial" font-size="14.00" fill="#666666">[BASE TABLE]</text>
<polygon fill="none" stroke="black" points="4547,-89.4 4547,-120.2 4763.97,-120.2 4763.97,-89.4 4547,-89.4"/>
<text text-anchor="start" x="4554" y="-101.6" font-family="Arial" font-size="14.00">id </text>
<text text-anchor="start" x="4568.78" y="-101.6" font-family="Arial" font-size="14.00" fill="#666666">[integer]</text>
<polygon fill="none" stroke="black" points="4547,-58.6 4547,-89.4 4763.97,-89.4 4763.97,-58.6 4547,-58.6"/>
<text text-anchor="start" x="4554" y="-70.8" font-family="Arial" font-size="14.00">name </text>
<text text-anchor="start" x="4592.91" y="-70.8" font-family="Arial" font-size="14.00" fill="#666666">[varchar(50)]</text>
</g>
<!-- public.user_tags -->
<g id="node8" class="node">
<title>public.user_tags</title>
<polygon fill="#efefef" stroke="none" points="4527.5,-463 4527.5,-498.6 4783.47,-498.6 4783.47,-463 4527.5,-463"/>
<polygon fill="none" stroke="black" points="4527.5,-463 4527.5,-498.6 4783.47,-498.6 4783.47,-463 4527.5,-463"/>
<text text-anchor="start" x="4534.5" y="-476.4" font-family="Arial Bold" font-size="18.00">public.user_tags</text>
<text text-anchor="start" x="4651.98" y="-476.4" font-family="Arial" font-size="14.00">    </text>
<text text-anchor="start" x="4683.1" y="-476.4" font-family="Arial" font-size="14.00" fill="#666666">[BASE TABLE]</text>
<polygon fill="none" stroke="black" points="4527.5,-432.2 4527.5,-463 4783.47,-463 4783.47,-432.2 4527.5,-432.2"/>
<text text-anchor="start" x="4534.5" y="-444.4" font-family="Arial" font-size="14.00">user_id </text>
<text text-anchor="start" x="4584.31" y="-444.4" font-family="Arial" font-size="14.00" fill="#666666">[uuid]</text>
<polygon fill="none" stroke="black" points="4527.5,-401.4 4527.5,-432.2 4783.47,-432.2 4783.47,-401.4 4527.5,-401.4"/>
<text text-anchor="start" x="4534.5" y="-413.6" font-family="Arial" font-size="14.00">tag_id </text>
<text text-anchor="start" x="4576.54" y="-413.6" font-family="Arial" font-size="14.00" fill="#666666">[integer]</text>
</g>
<!-- public.user_tags&#45;&gt;public.users -->
<g id="edge6" class="edge">
<title>public.user_tags:user_id&#45;&gt;public.users:id</title>
<path fill="none" stroke="black" d="M4516.34,-446.92C4444.58,-436.36 4541.74,-306.51 4475.49,-250.4 4349.55,-143.74 3160.97,-120.2 2995.94,-120.2"/>
<polygon fill="black" stroke="black" points="4516.19,-446.9 4525.87,-452.07 4521.52,-447.26 4525.84,-447.56 4525.84,-447.56 4525.84,-447.56 4521.52,-447.26 4526.47,-443.09 4516.19,-446.9"/>
<text text-anchor="start" x="4533.5" y="-457.6" font-family="Arial" font-size="10.00">FOREIGN KEY (user_id) REFERENCES users(id) ON DELETE CASCADE</text>
</g>
<!-- public.user_tags&#45;&gt;public.tags -->
<g id="edge7" class="edge">
<title>public.user_tags:tag_id&#45;&gt;public.tags:id</title>
<path fill="none" stroke="black" d="M4655.79,-390.04C4661.26,-298.52 4739.48,-293.99 4763.97,-199 4774.43,-158.46 4806.84,-104.8 4764.97,-104.8"/>
<polygon fill="black" stroke="black" points="4655.79,-390.07 4651,-399.93 4655.63,-395.4 4655.51,-399.73 4655.51,-399.73 4655.51,-399.73 4655.63,-395.4 4659.99,-400.2 4655.79,-390.07"/>
<text text-anchor="start" x="4662.49" y="-410.4" font-family="Arial" font-size="10.00">FOREIGN KEY (tag_id) REFERENCES tags(id) ON DELETE CASCADE</text>
</g>
<!-- public.pictures -->
<g id="node9" class="node">
<title>public.pictures</title>
<polygon fill="#efefef" stroke="none" points="2009.6,-509.2 2009.6,-544.8 2259.37,-544.8 2259.37,-509.2 2009.6,-509.2"/>
<polygon fill="none" stroke="black" points="2009.6,-509.2 2009.6,-544.8 2259.37,-544.8 2259.37,-509.2 2009.6,-509.2"/>
<text text-anchor="start" x="2019.01" y="-522.6" font-family="Arial Bold" font-size="18.00">public.pictures</text>
<text text-anchor="start" x="2125.48" y="-522.6" font-family="Arial" font-size="14.00">    </text>
<text text-anchor="start" x="2156.59" y="-522.6" font-family="Arial" font-size="14.00" fill="#666666">[BASE TABLE]</text>
<polygon fill="none" stroke="black" points="2009.6,-478.4 2009.6,-509.2 2259.37,-509.2 2259.37,-478.4 2009.6,-478.4"/>
<text text-anchor="start" x="2016.6" y="-490.6" font-family="Arial" font-size="14.00">id </text>
<text text-anchor="start" x="2031.39" y="-490.6" font-family="Arial" font-size="14.00" fill="#666666">[integer]</text>
<polygon fill="none" stroke="black" points="2009.6,-447.6 2009.6,-478.4 2259.37,-478.4 2259.37,-447.6 2009.6,-447.6"/>
<text text-anchor="start" x="2016.6" y="-459.8" font-family="Arial" font-size="14.00">user_id </text>
<text text-anchor="start" x="2066.41" y="-459.8" font-family="Arial" font-size="14.00" fill="#666666">[uuid]</text>
<polygon fill="none" stroke="black" points="2009.6,-416.8 2009.6,-447.6 2259.37,-447.6 2259.37,-416.8 2009.6,-416.8"/>
<text text-anchor="start" x="2016.6" y="-429" font-family="Arial" font-size="14.00">url </text>
<text text-anchor="start" x="2036.05" y="-429" font-family="Arial" font-size="14.00" fill="#666666">[varchar(255)]</text>
<polygon fill="none" stroke="black" points="2009.6,-386 2009.6,-416.8 2259.37,-416.8 2259.37,-386 2009.6,-386"/>
<text text-anchor="start" x="2016.6" y="-398.2" font-family="Arial" font-size="14.00">is_profile_pic </text>
<text text-anchor="start" x="2102.2" y="-398.2" font-family="Arial" font-size="14.00" fill="#666666">[boolean]</text>
<polygon fill="none" stroke="black" points="2009.6,-355.2 2009.6,-386 2259.37,-386 2259.37,-355.2 2009.6,-355.2"/>
<text text-anchor="start" x="2016.6" y="-367.4" font-family="Arial" font-size="14.00">created_at </text>
<text text-anchor="start" x="2086.65" y="-367.4" font-family="Arial" font-size="14.00" fill="#666666">[timestamp with time zone]</text>
</g>
<!-- public.pictures&#45;&gt;public.users -->
<g id="edge8" class="edge">
<title>public.pictures:user_id&#45;&gt;public.users:id</title>
<path fill="none" stroke="black" d="M2270.35,-462.43C2349.48,-452.61 2247.93,-319.08 2311.49,-250.4 2375.19,-181.55 2619.23,-120.2 2713.03,-120.2"/>
<polygon fill="black" stroke="black" points="2270.69,-462.41 2260.45,-458.49 2265.36,-462.71 2261.04,-462.96 2261.04,-462.96 2261.04,-462.96 2265.36,-462.71 2260.96,-467.47 2270.69,-462.41"/>
<text text-anchor="start" x="2093.39" y="-447" font-family="Arial" font-size="10.00">FOREIGN KEY (user_id) REFERENCES users(id) ON DELETE CASCADE</text>
</g>
<!-- public.likes -->
<g id="node10" class="node">
<title>public.likes</title>
<polygon fill="#efefef" stroke="none" points="2363.6,-478.4 2363.6,-514 2613.37,-514 2613.37,-478.4 2363.6,-478.4"/>
<polygon fill="none" stroke="black" points="2363.6,-478.4 2363.6,-514 2613.37,-514 2613.37,-478.4 2363.6,-478.4"/>
<text text-anchor="start" x="2384.5" y="-491.8" font-family="Arial Bold" font-size="18.00">public.likes</text>
<text text-anchor="start" x="2467.98" y="-491.8" font-family="Arial" font-size="14.00">    </text>
<text text-anchor="start" x="2499.1" y="-491.8" font-family="Arial" font-size="14.00" fill="#666666">[BASE TABLE]</text>
<polygon fill="none" stroke="black" points="2363.6,-447.6 2363.6,-478.4 2613.37,-478.4 2613.37,-447.6 2363.6,-447.6"/>
<text text-anchor="start" x="2370.6" y="-459.8" font-family="Arial" font-size="14.00">liker_id </text>
<text text-anchor="start" x="2418.84" y="-459.8" font-family="Arial" font-size="14.00" fill="#666666">[uuid]</text>
<polygon fill="none" stroke="black" points="2363.6,-416.8 2363.6,-447.6 2613.37,-447.6 2613.37,-416.8 2363.6,-416.8"/>
<text text-anchor="start" x="2370.6" y="-429" font-family="Arial" font-size="14.00">liked_id </text>
<text text-anchor="start" x="2421.97" y="-429" font-family="Arial" font-size="14.00" fill="#666666">[uuid]</text>
<polygon fill="none" stroke="black" points="2363.6,-386 2363.6,-416.8 2613.37,-416.8 2613.37,-386 2363.6,-386"/>
<text text-anchor="start" x="2370.6" y="-398.2" font-family="Arial" font-size="14.00">created_at </text>
<text text-anchor="start" x="2440.65" y="-398.2" font-family="Arial" font-size="14.00" fill="#666666">[timestamp with time zone]</text>
</g>
<!-- public.likes&#45;&gt;public.users -->
<g id="edge9" class="edge">
<title>public.likes:liked_id&#45;&gt;public.users:id</title>
<path fill="none" stroke="black" d="M2624.42,-431.65C2693.42,-423.48 2640.82,-326.85 2665.49,-250.4 2684.4,-191.77 2651.43,-120.2 2713.03,-120.2"/>
<polygon fill="black" stroke="black" points="2624.69,-431.63 2614.46,-427.69 2619.36,-431.92 2615.04,-432.16 2615.04,-432.16 2615.04,-432.16 2619.36,-431.92 2614.95,-436.67 2624.69,-431.63"/>
<text text-anchor="start" x="2621.37" y="-442.2" font-family="Arial" font-size="10.00">FOREIGN KEY (liked_id) REFERENCES users(id) ON DELETE CASCADE</text>
</g>
<!-- public.likes&#45;&gt;public.users -->
<g id="edge10" class="edge">
<title>public.likes:liker_id&#45;&gt;public.users:id</title>
<path fill="none" stroke="black" d="M2624.23,-460.37C2661.39,-439.01 2652.49,-293.47 2665.49,-250.4 2683.28,-191.42 2651.43,-120.2 2713.03,-120.2"/>
<polygon fill="black" stroke="black" points="2624.36,-460.34 2613.54,-458.57 2619.2,-461.71 2615.02,-462.83 2615.02,-462.83 2615.02,-462.83 2619.2,-461.71 2615.85,-467.26 2624.36,-460.34"/>
<text text-anchor="start" x="2621.37" y="-473" font-family="Arial" font-size="10.00">FOREIGN KEY (liker_id) REFERENCES users(id) ON DELETE CASCADE</text>
</g>
<!-- public.connections -->
<g id="node11" class="node">
<title>public.connections</title>
<polygon fill="#efefef" stroke="none" points="2717.51,-463 2717.51,-498.6 2991.46,-498.6 2991.46,-463 2717.51,-463"/>
<polygon fill="none" stroke="black" points="2717.51,-463 2717.51,-498.6 2991.46,-498.6 2991.46,-463 2717.51,-463"/>
<text text-anchor="start" x="2724.51" y="-476.4" font-family="Arial Bold" font-size="18.00">public.connections</text>
<text text-anchor="start" x="2859.97" y="-476.4" font-family="Arial" font-size="14.00">    </text>
<text text-anchor="start" x="2891.09" y="-476.4" font-family="Arial" font-size="14.00" fill="#666666">[BASE TABLE]</text>
<polygon fill="none" stroke="black" points="2717.51,-432.2 2717.51,-463 2991.46,-463 2991.46,-432.2 2717.51,-432.2"/>
<text text-anchor="start" x="2724.51" y="-444.4" font-family="Arial" font-size="14.00">user1_id </text>
<text text-anchor="start" x="2782.1" y="-444.4" font-family="Arial" font-size="14.00" fill="#666666">[uuid]</text>
<polygon fill="none" stroke="black" points="2717.51,-401.4 2717.51,-432.2 2991.46,-432.2 2991.46,-401.4 2717.51,-401.4"/>
<text text-anchor="start" x="2724.51" y="-413.6" font-family="Arial" font-size="14.00">user2_id </text>
<text text-anchor="start" x="2782.1" y="-413.6" font-family="Arial" font-size="14.00" fill="#666666">[uuid]</text>
</g>
<!-- public.connections&#45;&gt;public.users -->
<g id="edge11" class="edge">
<title>public.connections:user1_id&#45;&gt;public.users:id</title>
<path fill="none" stroke="black" d="M3000.75,-441.35C3029.14,-396.09 3029.33,-120.2 2995.94,-120.2"/>
<polygon fill="black" stroke="black" points="3000.71,-441.38 2990.02,-443.81 2996.46,-444.59 2993,-447.2 2993,-447.2 2993,-447.2 2996.46,-444.59 2995.44,-450.99 3000.71,-441.38"/>
<text text-anchor="start" x="2822.7" y="-431.6" font-family="Arial" font-size="10.00">FOREIGN KEY (user1_id) REFERENCES users(id) ON DELETE CASCADE</text>
</g>
<!-- public.connections&#45;&gt;public.users -->
<g id="edge12" class="edge">
<title>public.connections:user2_id&#45;&gt;public.users:id</title>
<path fill="none" stroke="black" d="M2854.85,-390.19C2861.72,-297.75 2962.64,-309.09 2994.94,-214.4 3008.45,-174.77 3037.81,-120.2 2995.94,-120.2"/>
<polygon fill="black" stroke="black" points="2854.86,-390.07 2850,-399.9 2854.67,-395.4 2854.51,-399.73 2854.51,-399.73 2854.51,-399.73 2854.67,-395.4 2858.99,-400.23 2854.86,-390.07"/>
<text text-anchor="start" x="2684.73" y="-384.4" font-family="Arial" font-size="10.00">FOREIGN KEY (user2_id) REFERENCES users(id) ON DELETE CASCADE</text>
</g>
<!-- public.views -->
<g id="node12" class="node">
<title>public.views</title>
<polygon fill="#efefef" stroke="none" points="3095.56,-478.4 3095.56,-514 3341.41,-514 3341.41,-478.4 3095.56,-478.4"/>
<polygon fill="none" stroke="black" points="3095.56,-478.4 3095.56,-514 3341.41,-514 3341.41,-478.4 3095.56,-478.4"/>
<text text-anchor="start" x="3110.5" y="-491.8" font-family="Arial Bold" font-size="18.00">public.views</text>
<text text-anchor="start" x="3201.98" y="-491.8" font-family="Arial" font-size="14.00">    </text>
<text text-anchor="start" x="3233.1" y="-491.8" font-family="Arial" font-size="14.00" fill="#666666">[BASE TABLE]</text>
<polygon fill="none" stroke="black" points="3095.56,-447.6 3095.56,-478.4 3341.41,-478.4 3341.41,-447.6 3095.56,-447.6"/>
<text text-anchor="start" x="3102.56" y="-459.8" font-family="Arial" font-size="14.00">viewer_id </text>
<text text-anchor="start" x="3165.59" y="-459.8" font-family="Arial" font-size="14.00" fill="#666666">[uuid]</text>
<polygon fill="none" stroke="black" points="3095.56,-416.8 3095.56,-447.6 3341.41,-447.6 3341.41,-416.8 3095.56,-416.8"/>
<text text-anchor="start" x="3102.56" y="-429" font-family="Arial" font-size="14.00">viewed_id </text>
<text text-anchor="start" x="3168.71" y="-429" font-family="Arial" font-size="14.00" fill="#666666">[uuid]</text>
<polygon fill="none" stroke="black" points="3095.56,-386 3095.56,-416.8 3341.41,-416.8 3341.41,-386 3095.56,-386"/>
<text text-anchor="start" x="3102.56" y="-398.2" font-family="Arial" font-size="14.00">view_time </text>
<text text-anchor="start" x="3168.69" y="-398.2" font-family="Arial" font-size="14.00" fill="#666666">[timestamp with time zone]</text>
</g>
<!-- public.views&#45;&gt;public.users -->
<g id="edge13" class="edge">
<title>public.views:viewed_id&#45;&gt;public.users:id</title>
<path fill="none" stroke="black" d="M3084.51,-431.65C3015.51,-423.48 3068.14,-326.84 3043.49,-250.4 3024.57,-191.77 3057.54,-120.2 2995.94,-120.2"/>
<polygon fill="black" stroke="black" points="3084.24,-431.63 3093.98,-436.67 3089.57,-431.92 3093.89,-432.16 3093.89,-432.16 3093.89,-432.16 3089.57,-431.92 3094.47,-427.69 3084.24,-431.63"/>
<text text-anchor="start" x="2831.83" y="-416.2" font-family="Arial" font-size="10.00">FOREIGN KEY (viewed_id) REFERENCES users(id) ON DELETE CASCADE</text>
</g>
<!-- public.views&#45;&gt;public.users -->
<g id="edge14" class="edge">
<title>public.views:viewer_id&#45;&gt;public.users:id</title>
<path fill="none" stroke="black" d="M3084.7,-460.37C3047.54,-439.01 3056.48,-293.47 3043.49,-250.4 3025.7,-191.42 3057.54,-120.2 2995.94,-120.2"/>
<polygon fill="black" stroke="black" points="3084.57,-460.34 3093.08,-467.26 3089.73,-461.71 3093.91,-462.83 3093.91,-462.83 3093.91,-462.83 3089.73,-461.71 3095.39,-458.57 3084.57,-460.34"/>
<text text-anchor="start" x="3101.56" y="-473" font-family="Arial" font-size="10.00">FOREIGN KEY (viewer_id) REFERENCES users(id) ON DELETE CASCADE</text>
</g>
<!-- public.blocks -->
<g id="node13" class="node">
<title>public.blocks</title>
<polygon fill="#efefef" stroke="none" points="3446,-463 3446,-498.6 3680.97,-498.6 3680.97,-463 3446,-463"/>
<polygon fill="none" stroke="black" points="3446,-463 3446,-498.6 3680.97,-498.6 3680.97,-463 3446,-463"/>
<text text-anchor="start" x="3453" y="-476.4" font-family="Arial Bold" font-size="18.00">public.blocks</text>
<text text-anchor="start" x="3549.48" y="-476.4" font-family="Arial" font-size="14.00">    </text>
<text text-anchor="start" x="3580.6" y="-476.4" font-family="Arial" font-size="14.00" fill="#666666">[BASE TABLE]</text>
<polygon fill="none" stroke="black" points="3446,-432.2 3446,-463 3680.97,-463 3680.97,-432.2 3446,-432.2"/>
<text text-anchor="start" x="3453" y="-444.4" font-family="Arial" font-size="14.00">blocker_id </text>
<text text-anchor="start" x="3520.7" y="-444.4" font-family="Arial" font-size="14.00" fill="#666666">[uuid]</text>
<polygon fill="none" stroke="black" points="3446,-401.4 3446,-432.2 3680.97,-432.2 3680.97,-401.4 3446,-401.4"/>
<text text-anchor="start" x="3453" y="-413.6" font-family="Arial" font-size="14.00">blocked_id </text>
<text text-anchor="start" x="3523.83" y="-413.6" font-family="Arial" font-size="14.00" fill="#666666">[uuid]</text>
</g>
<!-- public.blocks&#45;&gt;public.users -->
<g id="edge15" class="edge">
<title>public.blocks:blocked_id&#45;&gt;public.users:id</title>
<path fill="none" stroke="black" d="M3434.75,-416.02C3375.09,-406.07 3445.13,-302.89 3393.49,-250.4 3328.29,-184.13 3088.9,-120.2 2995.94,-120.2"/>
<polygon fill="black" stroke="black" points="3434.69,-416.02 3444.32,-421.26 3440.01,-416.42 3444.33,-416.75 3444.33,-416.75 3444.33,-416.75 3440.01,-416.42 3445,-412.29 3434.69,-416.02"/>
<text text-anchor="start" x="3452" y="-426.8" font-family="Arial" font-size="10.00">FOREIGN KEY (blocked_id) REFERENCES users(id) ON DELETE CASCADE</text>
</g>
<!-- public.blocks&#45;&gt;public.users -->
<g id="edge16" class="edge">
<title>public.blocks:blocker_id&#45;&gt;public.users:id</title>
<path fill="none" stroke="black" d="M3434.79,-446.95C3362.44,-436.95 3453.01,-313.67 3393.49,-250.4 3329.79,-182.69 3088.9,-120.2 2995.94,-120.2"/>
<polygon fill="black" stroke="black" points="3434.68,-446.94 3444.38,-452.07 3440.01,-447.28 3444.33,-447.56 3444.33,-447.56 3444.33,-447.56 3440.01,-447.28 3444.95,-443.09 3434.68,-446.94"/>
<text text-anchor="start" x="3452" y="-457.6" font-family="Arial" font-size="10.00">FOREIGN KEY (blocker_id) REFERENCES users(id) ON DELETE CASCADE</text>
</g>
<!-- public.notifications -->
<g id="node14" class="node">
<title>public.notifications</title>
<polygon fill="#efefef" stroke="none" points="3785.5,-524.6 3785.5,-560.2 4063.47,-560.2 4063.47,-524.6 3785.5,-524.6"/>
<polygon fill="none" stroke="black" points="3785.5,-524.6 3785.5,-560.2 4063.47,-560.2 4063.47,-524.6 3785.5,-524.6"/>
<text text-anchor="start" x="3792.5" y="-538" font-family="Arial Bold" font-size="18.00">public.notifications</text>
<text text-anchor="start" x="3931.98" y="-538" font-family="Arial" font-size="14.00">    </text>
<text text-anchor="start" x="3963.1" y="-538" font-family="Arial" font-size="14.00" fill="#666666">[BASE TABLE]</text>
<polygon fill="none" stroke="black" points="3785.5,-493.8 3785.5,-524.6 4063.47,-524.6 4063.47,-493.8 3785.5,-493.8"/>
<text text-anchor="start" x="3792.5" y="-506" font-family="Arial" font-size="14.00">id </text>
<text text-anchor="start" x="3807.29" y="-506" font-family="Arial" font-size="14.00" fill="#666666">[bigint]</text>
<polygon fill="none" stroke="black" points="3785.5,-463 3785.5,-493.8 4063.47,-493.8 4063.47,-463 3785.5,-463"/>
<text text-anchor="start" x="3792.5" y="-475.2" font-family="Arial" font-size="14.00">recipient_id </text>
<text text-anchor="start" x="3867.99" y="-475.2" font-family="Arial" font-size="14.00" fill="#666666">[uuid]</text>
<polygon fill="none" stroke="black" points="3785.5,-432.2 3785.5,-463 4063.47,-463 4063.47,-432.2 3785.5,-432.2"/>
<text text-anchor="start" x="3792.5" y="-444.4" font-family="Arial" font-size="14.00">sender_id </text>
<text text-anchor="start" x="3857.88" y="-444.4" font-family="Arial" font-size="14.00" fill="#666666">[uuid]</text>
<polygon fill="none" stroke="black" points="3785.5,-401.4 3785.5,-432.2 4063.47,-432.2 4063.47,-401.4 3785.5,-401.4"/>
<text text-anchor="start" x="3792.5" y="-413.6" font-family="Arial" font-size="14.00">type </text>
<text text-anchor="start" x="3822.86" y="-413.6" font-family="Arial" font-size="14.00" fill="#666666">[notification_type_enum]</text>
<polygon fill="none" stroke="black" points="3785.5,-370.6 3785.5,-401.4 4063.47,-401.4 4063.47,-370.6 3785.5,-370.6"/>
<text text-anchor="start" x="3792.5" y="-382.8" font-family="Arial" font-size="14.00">is_read </text>
<text text-anchor="start" x="3842.31" y="-382.8" font-family="Arial" font-size="14.00" fill="#666666">[boolean]</text>
<polygon fill="none" stroke="black" points="3785.5,-339.8 3785.5,-370.6 4063.47,-370.6 4063.47,-339.8 3785.5,-339.8"/>
<text text-anchor="start" x="3792.5" y="-352" font-family="Arial" font-size="14.00">created_at </text>
<text text-anchor="start" x="3862.55" y="-352" font-family="Arial" font-size="14.00" fill="#666666">[timestamp with time zone]</text>
</g>
<!-- public.notifications&#45;&gt;public.users -->
<g id="edge17" class="edge">
<title>public.notifications:recipient_id&#45;&gt;public.users:id</title>
<path fill="none" stroke="black" d="M3774.14,-477.8C3689.64,-467.22 3805.85,-319.55 3733.49,-250.4 3613.16,-135.42 3162.37,-120.2 2995.94,-120.2"/>
<polygon fill="black" stroke="black" points="3774.19,-477.8 3783.91,-482.87 3779.51,-478.11 3783.84,-478.36 3783.84,-478.36 3783.84,-478.36 3779.51,-478.11 3784.43,-473.89 3774.19,-477.8"/>
<text text-anchor="start" x="3516.78" y="-462.4" font-family="Arial" font-size="10.00">FOREIGN KEY (recipient_id) REFERENCES users(id) ON DELETE CASCADE</text>
</g>
<!-- public.notifications&#45;&gt;public.users -->
<g id="edge18" class="edge">
<title>public.notifications:sender_id&#45;&gt;public.users:id</title>
<path fill="none" stroke="black" d="M3774.33,-446.93C3702.38,-436.59 3797.23,-309.33 3733.49,-250.4 3611.28,-137.42 3162.37,-120.2 2995.94,-120.2"/>
<polygon fill="black" stroke="black" points="3774.19,-446.92 3783.87,-452.07 3779.52,-447.27 3783.84,-447.56 3783.84,-447.56 3783.84,-447.56 3779.52,-447.27 3784.47,-443.09 3774.19,-446.92"/>
<text text-anchor="start" x="3522.61" y="-431.6" font-family="Arial" font-size="10.00">FOREIGN KEY (sender_id) REFERENCES users(id) ON DELETE SET NULL</text>
</g>
<!-- public.messages -->
<g id="node15" class="node">
<title>public.messages</title>
<polygon fill="#efefef" stroke="none" points="4167.5,-524.6 4167.5,-560.2 4423.47,-560.2 4423.47,-524.6 4167.5,-524.6"/>
<polygon fill="none" stroke="black" points="4167.5,-524.6 4167.5,-560.2 4423.47,-560.2 4423.47,-524.6 4167.5,-524.6"/>
<text text-anchor="start" x="4174.5" y="-538" font-family="Arial Bold" font-size="18.00">public.messages</text>
<text text-anchor="start" x="4291.98" y="-538" font-family="Arial" font-size="14.00">    </text>
<text text-anchor="start" x="4323.1" y="-538" font-family="Arial" font-size="14.00" fill="#666666">[BASE TABLE]</text>
<polygon fill="none" stroke="black" points="4167.5,-493.8 4167.5,-524.6 4423.47,-524.6 4423.47,-493.8 4167.5,-493.8"/>
<text text-anchor="start" x="4174.5" y="-506" font-family="Arial" font-size="14.00">id </text>
<text text-anchor="start" x="4189.29" y="-506" font-family="Arial" font-size="14.00" fill="#666666">[bigint]</text>
<polygon fill="none" stroke="black" points="4167.5,-463 4167.5,-493.8 4423.47,-493.8 4423.47,-463 4167.5,-463"/>
<text text-anchor="start" x="4174.5" y="-475.2" font-family="Arial" font-size="14.00">sender_id </text>
<text text-anchor="start" x="4239.88" y="-475.2" font-family="Arial" font-size="14.00" fill="#666666">[uuid]</text>
<polygon fill="none" stroke="black" points="4167.5,-432.2 4167.5,-463 4423.47,-463 4423.47,-432.2 4167.5,-432.2"/>
<text text-anchor="start" x="4174.5" y="-444.4" font-family="Arial" font-size="14.00">recipient_id </text>
<text text-anchor="start" x="4249.99" y="-444.4" font-family="Arial" font-size="14.00" fill="#666666">[uuid]</text>
<polygon fill="none" stroke="black" points="4167.5,-401.4 4167.5,-432.2 4423.47,-432.2 4423.47,-401.4 4167.5,-401.4"/>
<text text-anchor="start" x="4174.5" y="-413.6" font-family="Arial" font-size="14.00">content </text>
<text text-anchor="start" x="4224.32" y="-413.6" font-family="Arial" font-size="14.00" fill="#666666">[text]</text>
<polygon fill="none" stroke="black" points="4167.5,-370.6 4167.5,-401.4 4423.47,-401.4 4423.47,-370.6 4167.5,-370.6"/>
<text text-anchor="start" x="4174.5" y="-382.8" font-family="Arial" font-size="14.00">sent_at </text>
<text text-anchor="start" x="4224.32" y="-382.8" font-family="Arial" font-size="14.00" fill="#666666">[timestamp with time zone]</text>
<polygon fill="none" stroke="black" points="4167.5,-339.8 4167.5,-370.6 4423.47,-370.6 4423.47,-339.8 4167.5,-339.8"/>
<text text-anchor="start" x="4174.5" y="-352" font-family="Arial" font-size="14.00">is_read </text>
<text text-anchor="start" x="4224.31" y="-352" font-family="Arial" font-size="14.00" fill="#666666">[boolean]</text>
</g>
<!-- public.messages&#45;&gt;public.users -->
<g id="edge19" class="edge">
<title>public.messages:recipient_id&#45;&gt;public.users:id</title>
<path fill="none" stroke="black" d="M4156.34,-446.92C4084.52,-436.43 4180.94,-307.43 4115.49,-250.4 4021.06,-168.13 3121.17,-120.2 2995.94,-120.2"/>
<polygon fill="black" stroke="black" points="4156.19,-446.91 4165.87,-452.07 4161.52,-447.27 4165.84,-447.56 4165.84,-447.56 4165.84,-447.56 4161.52,-447.27 4166.47,-443.09 4156.19,-446.91"/>
<text text-anchor="start" x="4173.5" y="-457.6" font-family="Arial" font-size="10.00">FOREIGN KEY (recipient_id) REFERENCES users(id) ON DELETE CASCADE</text>
</g>
<!-- public.messages&#45;&gt;public.users -->
<g id="edge20" class="edge">
<title>public.messages:sender_id&#45;&gt;public.users:id</title>
<path fill="none" stroke="black" d="M4156.14,-477.79C4071.79,-467.06 4189.85,-317.38 4115.49,-250.4 4022.43,-166.59 3121.17,-120.2 2995.94,-120.2"/>
<polygon fill="black" stroke="black" points="4156.19,-477.79 4165.91,-482.87 4161.51,-478.11 4165.84,-478.36 4165.84,-478.36 4165.84,-478.36 4161.51,-478.11 4166.43,-473.89 4156.19,-477.79"/>
<text text-anchor="start" x="4173.5" y="-488.4" font-family="Arial" font-size="10.00">FOREIGN KEY (sender_id) REFERENCES users(id) ON DELETE CASCADE</text>
</g>
</g>
</svg>
